<?xml version="1.0" encoding="utf-8"?>
<!-- Generator: Adobe Illustrator 25.1.0, SVG Export Plug-In . SVG Version: 6.00 Build 0)  -->
<svg version="1.1" id="Layer_1" xmlns="http://www.w3.org/2000/svg" xmlns:xlink="http://www.w3.org/1999/xlink" x="0px" y="0px"
	 viewBox="0 0 1016.3 934.2" style="enable-background:new 0 0 1016.3 934.2;" xml:space="preserve">
<style type="text/css">
	.st0{opacity:0.1091;fill:#ECBF9E;enable-background:new    ;}
	.st1{fill:#ECBF9E;}
</style>
<g>
	<g>
		<g>
			<path class="st0" d="M155.4,900.8c-2.1-11.7-2-23.3,0.2-34.9c1.6-4,3.2-7.9,5-11.8c5.1-11.5,8.4-23.7,12.9-35.4
				c1-4.9,3-9.2,6.2-13c2.3-2.9,4.3-6,6.1-9.2c5.3-8.9,9.8-18.3,14.7-27.4c12.7-23.4,26.9-46.1,42.4-67.8
				c14-19.6,29.3-38.1,45.7-55.8c17.4-18.9,36.1-36.6,55.8-53c9.5-7.9,19-15.7,28.3-23.7c11.6-10,23.2-20.1,35-29.9
				c22.8-19,46.2-37.1,70.4-54.2c27.1-19.2,55.1-37,83.7-53.9c-1.8,1.1-3.7,2.1-5.5,3.2c25.5-14.6,51.3-28.6,77.7-41.5
				c27.2-13.3,54.9-25.6,83-36.8c4.8-1.9,9.6-3.7,14.3-5.6c7.4-1.8,14.1-4.8,20.3-9c5.1-3.4,10.3-6.8,15.4-10.2
				c10-7.7,20.5-14.8,31.4-21.1c13-7.6,26.2-14.7,39.6-21.5c8.3-4.1,16.5-8.5,24.4-13.3c16.7-14.3,32.3-29.8,46.6-46.6
				c-8.6,3.2-17.2,6.4-25.8,9.6c5.7-1.3,11.4-2.5,17.1-3.8c2.4-1,4.6-2.3,6.7-3.7c4.2-2.6,8.3-5.3,12.4-8c2.2-1.3,4.3-2.8,6.2-4.6
				c0.8-0.9,0.6-1.1-0.5-0.8c-27.8,9.1-55.2,19.1-82.3,30.1c-10.7,3.9-21.3,8-31.8,12.3c-10.5,4.3-20.9,8.7-31.3,13.3
				c-10.6,4.6-20.9,9.7-30.9,15.4c1.9-1,3.8-2,5.7-3c-4.9,1.5-9.8,3-14.7,4.5c-4.9,2.1-9.9,4.1-14.8,6.2
				c-9.8,4.2-19.5,8.5-29.2,12.8c-21.5,9.7-42.7,20.1-63.6,30.9c-40.1,20.8-79.2,43.6-117,68.4c-34.4,22.5-67.6,46.8-99.5,72.7
				c-30.1,24.5-59,50.6-86.9,77.6c-50.4,48.6-95.3,103-132.5,162.3c-9.3,14.8-18,29.9-26.1,45.3c-3.5,6.6-6.8,13.3-10.1,20.1
				c-3,6.3-6.2,12.6-8.5,19.2c-1,3.5-2.1,7-3.1,10.5c-1.4,3.5-2.7,6.9-4.1,10.4c-3.3,8.7-6.2,17.5-9.1,26.3
				c-2.2,6.5-4.8,12.9-7.4,19.3c-2,3.6-2.9,7.6-2.8,11.7c-1.5,9.3-1.3,18.7,0.6,28.1c0.9,1.6,2.3,2.3,4.2,2
				c4.1-0.7,8.2-1.9,12.1-3.4c4-1.3,7.8-3,11.5-5C155.1,904,155.8,902.6,155.4,900.8z"/>
			<path class="st0" d="M75.7,866.3c2.2-4.7,4.2-9.5,6-14.3c1.7-4.3,3.2-8.7,4.6-13.1c3.3-10.1,5.9-20.3,8.5-30.7
				c-0.5,1.8-0.9,3.5-1.4,5.3c2.9-10.2,5.7-20.5,9.1-30.6c1.5-4,2.8-8.1,4-12.2c1.1-4.1,2.5-8.1,4.1-12c7.2-18,16.3-35.3,26-52.1
				c10.8-18.9,22.4-37.3,34.9-55.1c14.5-20.7,30-40.7,46.1-60.2c-4.1,4.9-8.2,9.8-12.3,14.7c9.8-11.5,19.5-22.9,29.3-34.4
				c-4.4,5-8.7,10.1-13.1,15.1c7.3-8.3,14.5-16.6,21.8-24.9c-4.5,5.1-9,10.2-13.5,15.3c16.1-18,32.7-35.5,50-52.4
				c18.3-17.8,37.2-34.9,56.6-51.5c-8,6.7-16,13.4-24,20.1c15.3-12.7,30.6-25.5,45.9-38.2c-8.1,6.7-16.3,13.3-24.4,20
				c11.9-9.6,23.8-19.3,35.7-28.9c-8.2,6.6-16.4,13.3-24.6,19.9c13.1-10.5,26.4-20.8,39.9-30.7c13.8-10.2,27.8-19.9,41.9-29.6
				c-9,6.1-18.1,12.1-27.1,18.2c17.3-11.5,34.7-23,52-34.5c-9.2,6-18.4,12.1-27.6,18.1c23.1-15,46.5-29.4,70.5-42.9
				c24.6-13.9,49.7-26.8,75-39.2c-7.3,3.5-14.7,6.9-22,10.4c29.2-13.8,58.2-27.9,87.7-41.2c-6.7,2.9-13.4,5.8-20.2,8.7
				c12.2-5.3,24.4-10.6,36.6-15.8c-6.6,2.8-13.2,5.6-19.9,8.4c12.1-5.1,24.3-10.2,36.4-15.3c-6.5,2.7-13,5.4-19.6,8.1
				c12.1-4.9,24.2-9.9,36.3-14.8c-6.4,2.6-12.9,5.2-19.3,7.8c21.7-8.3,43-17.2,64.2-26.7c31.5-14.3,63.1-28.3,94.8-42.1
				c3.2-1.4,5.3-3.8,6.3-7c-0.2-4.4-1.5-8.4-3.7-12.2c-1.8-4-4.4-7.3-7.9-10c-3.3-1-6.4-0.6-9.4,1.1c-19.1,8.4-38.3,16.5-57.6,24.1
				c4.7-1.5,9.3-3.1,14-4.6c-3.5,0.8-6.9,1.6-10.4,2.3c-4.9,1.6-9.7,3.2-14.6,4.7c-10.6,3.6-21,7.5-31.5,11.5
				c-10.4,4.1-20.8,8.2-31.2,12.3c-5.5,2.4-11.1,4.7-16.6,7.1c-4.1,1.6-8.2,3.2-12.3,4.7c-5,2.2-9.9,4.3-14.9,6.5
				c-26.8,11.9-53.3,24.8-79.4,38.2c-18.6,9.5-36.9,19.5-55,29.9c-17.7,10.2-35.2,20.8-52.4,31.9c-12.7,8.1-25.1,16.6-37.6,25.1
				c-13,8.8-26,17.7-38.7,27c-15.7,11.4-31.1,23.3-46.3,35.5c-28.4,22.7-56.2,46.2-82.6,71.2c-13.2,12.5-26.2,25.4-38.7,38.6
				c-16.4,17.2-32.4,34.7-47.4,53.1c-18.7,23-36.1,47-51.8,72.1c-14.3,22.9-27.4,46.7-38.2,71.5c-4.3,10-8.7,20.3-10.6,31
				c-0.5,1.9-0.7,3.8-0.5,5.7c0,2,0.1,4.1,0.3,6.1c-0.3,2,0.1,3.7,1.1,5.3c0.8,1.7,1.8,3.3,3.1,4.7c-0.4-2.1-0.9-4.1-1.3-6.2
				c0.8,4.1,1.4,8,1.6,12.2c0.2,4.9,0,9.6-0.3,14.4c0.2-1.4,0.4-2.8,0.5-4.2c-0.9,4.6-1.8,9.1-2.7,13.7c-0.5,4.7-1.5,9.3-3,13.8
				c-0.9,2.9-0.5,5.6,1.4,8.1c2.2,4.4,4.8,8.6,7.8,12.5c1.5,2.8,3.7,4.4,6.7,4.9C72.9,869.3,74.6,868.3,75.7,866.3z"/>
			<path class="st0" d="M64.5,752.7c2.4,0.3,4.9,0.6,7.3,1c1.7-0.1,3.4-0.5,5-1.2c3.1-1.1,6.2-2.3,9.3-3.6c2.2-1,4.5-2,6.7-3
				c2.5-0.9,4.7-2.2,6.6-3.9c1.7-2.6,3.2-5.3,4.6-8.1c1.3-7.4,2.9-14.7,4.7-22c3.2-10.1,7.5-19.9,11.6-29.7
				c4.2-10.2,8.7-20.2,13.4-30.2c3.3-6.8,6.5-13.7,9.6-20.7c1.7-7.6,3.8-15.1,6.2-22.5c-0.3,0.8-0.7,1.7-1,2.5
				c2.3-5.4,4.9-10.7,7.8-15.8c2.8-5.3,5.7-10.4,8.8-15.6c5.1-8.7,10.4-17.3,15.8-25.8c11.3-17.9,23.6-35,36.2-52
				c-1.5,2-3,3.9-4.5,5.9c15.8-20.7,32.3-40.7,49.4-60.3c-1.6,1.8-3.2,3.7-4.9,5.5c18-20.2,36.3-40,55.9-58.7
				c18.6-17.8,37.8-34.9,57.6-51.3c43.3-36,89.2-69.1,137.1-98.8c48.6-30.1,99-56.9,151-80.6c7.3-3.3,14.6-6.6,22-9.7
				c5.5-2.3,11-4.7,16.4-7.4c8.3-2.3,16.6-4.8,24.8-7.4c8.1-2.6,16.2-5.1,24.3-7.7c5.4-1.7,10.8-3.4,16.2-5.1
				c10.8-3.4,21.7-6.6,32.6-9.7c5.9-2.1,11.7-4.2,17.6-6.2c20.4-8,40.7-16,61.1-24c0.9-0.4,1-0.6,0.3-0.6c-1-0.2-1.9-0.1-2.9,0.3
				c-5.8,1.2-11.5,2.4-17.3,3.6c0.9,0,1.7,0,2.6,0c-13.7-2-27.4-2.8-41.2-2.5c-5.2-0.1-10.4-0.1-15.6,0c-6.8,0-13.6,1.2-20.2,3.5
				c-5.8,1.4-11.5,2.8-17.3,4.2c-14.6,3.5-29.2,7.1-43.9,10.3c-6.1,1.4-12.1,2.6-18.3,3.6c-9.1,1.4-18.1,3.4-26.9,5.9
				c-9.2,3.6-17.9,8.3-26.7,12.7c-11.6,5.8-23.2,11.7-34.7,17.9c-22.5,12.1-44.8,24.8-66.6,38.2c-80.3,49.4-156,107-223.1,173.3
				c-13.1,12.9-25.7,26.3-37.8,40.1c-7.4,8.4-14.2,17.2-21.1,26c-6.8,8.7-13.5,17.4-20.2,26.2c-25.7,33.8-50.4,68.5-73.1,104.4
				c-10.9,17.2-21.1,34.6-30.9,52.4c-3.7,6.6-7.2,13.5-11.3,19.8c-2.5,3.7-5.3,7.1-8.3,10.4c-1.5,1.6-3,3.3-4.4,5
				c-1.7,3.1-3.4,6.3-5.1,9.4c-1.6,3.4-3.2,6.8-4.8,10.3c-3.9,8.4-7.6,17-11.1,25.6c-3.4,8.3-6.9,16.5-10,24.9
				c-1.2,3.4-2.3,6.8-3.5,10.2c-2.1,8.2-3.9,16.4-5.3,24.8c0.2-0.3,0.3-0.6,0.5-1c-1.4,2.2-2.9,4.4-4.3,6.6
				c9.2-3.9,18.4-7.8,27.6-11.8c-2.6-0.7-5.2-1.4-7.8-2.1c-2.7-0.3-5.2,0.1-7.7,1.5c-4.6,1.7-9.1,3.6-13.6,5.8
				c-2.6,0.8-4.8,2.4-6.4,4.5C62.6,751.1,63,752.1,64.5,752.7z"/>
			<path class="st0" d="M142.6,841.9c1.4-2.5,2.8-5.1,4.2-7.6c1.8-1.8,3.5-3.7,5.3-5.5c2.4-1.4,4.7-2.9,7.1-4.3
				c5.5-2.3,11.1-2.9,16.9-1.8c5.4,0,10.6,0.9,15.7,2.7c6.1,1.3,12.1,3,18,5.1c5.9,2,11.9,3.8,17.9,5.4c6.7,2.2,13.6,3.8,20.6,4.8
				c6,1.7,12,2.6,18.2,2.8c5.3,1.1,10.3,0.4,15.2-2.2c2.5-0.9,5.1-1.8,7.6-2.7c2.2-1.8,4.4-3.5,6.6-5.3c1.8-2.2,3.7-4.4,5.5-6.6
				c1.8-2.4,3.5-4.7,5.3-7.1c3.6-4.9,7.2-9.8,10.9-14.7c16.8-22.1,35.1-43.2,54.3-63.3c22.1-23,45.7-44.4,70-65
				c11.6-9.8,22.1-20.9,33.1-31.4c12.8-12.2,25.9-24,39.4-35.5c26.4-22.5,54.1-43.4,82.8-63c30-20.5,61-39.3,92.9-56.6
				c14.9-8.1,30.1-15.8,45.3-23.4c9-4.5,18.1-8.9,27.2-13.3c3.5-1.7,7.1-3.4,10.6-5.1c9.5-3.9,17.3-10.3,23.5-19.1
				c-2.2,2-4.5,3.9-6.7,5.9c4.1-3.3,8.1-6.6,12.2-9.9c4.2-2.7,8.3-5.3,12.5-8c10.4-6.3,21.2-12,31.9-17.8
				c5.9-2.9,11.4-6.4,16.5-10.5c8.3-3.6,13.7-9.7,16.3-18.4c5.9-9.9,11-20.3,15.1-31.1c13.3-26.8,22.1-55.2,26.6-85.2
				c0.9-6.3,1-12.6,0.2-18.9c0-5.2-1-10.2-3.1-15.1c-1.7-1.4-3.5-2.8-5.2-4.2c-4.9-1.8-9.8-1.8-14.7,0.2c-5.3,2.6-10.5,5.3-15.8,7.9
				c2.4-1,4.9-2,7.3-3c-5.1,1.5-10.2,3-15.3,4.5c2.5,1.1,5,2.3,7.5,3.4c-7.8-4.2-15.7-8.5-23.5-12.7c-5.2,0.6-10.4,1.1-15.6,1.7
				c-5.1,1.5-10.2,3-15.4,4.6c-5.1,1.6-10.2,3.1-15.3,4.7c-7.6,2.2-15.2,4.7-22.7,7.4c-5.2,1.5-10.1,3.5-14.9,6
				c-4.6,3.5-9.6,4.5-15.2,3c-5.4-1.5-10.4-0.6-15,2.8c-40.1,17.8-79.4,37.4-117.5,59.1c-71.7,40.9-139.9,88.7-201.7,143.5
				c-13.7,12.1-27.1,24.5-40.2,37.3c-6.4,6.3-12.7,12.6-19,19c-3.1,3.1-6.3,6.2-9.4,9.3c-3,3.3-5.9,6.7-8.9,10
				c-23.9,27.5-46.3,56.5-67.3,86.3c-19.4,27.8-37.5,56.5-53.7,86.3c-3.6,6.6-7.1,13.3-10.6,20.1c-4.2,8.1-8.1,16.4-12.6,24.3
				c-1.5,3.2-3.4,6-5.8,8.5c-2.3,2.5-4.3,5.2-5.9,8.2c-1.5,3-3.6,5.6-6.2,7.7c-3.3,3.6-7.1,6.7-11.4,9.3c2.2-1.3,4.4-2.7,6.5-4
				c-6.8,4.1-13.4,8.1-19.3,13.4c-2.3,1.7-4.2,3.8-5.7,6.2c-3.1,3.6-5.6,7.6-7.6,11.9c1.4-2,2.9-4,4.3-6c-1.8,2.5-3.7,5-5.5,7.5
				c1.1-1.4,2.2-2.8,3.4-4.1c-4.9,4.7-9.1,10-12.6,15.8c-1.2,4-2,8.1-2.3,12.4c-0.6,4.2-0.7,8.4-0.3,12.6c0.4,2.1,1.5,3.3,3.5,3.7
				C140.4,844.8,141.8,843.8,142.6,841.9z"/>
			<path class="st0" d="M122.4,733c-0.4,0.9-0.7,1.8-1.1,2.7c10.2,2.9,20.3,5.9,30.5,8.8c8-29.2,18.3-57.7,30.8-85.3
				c6-13.3,12.1-26.6,18.7-39.7c7.3-14.4,15.2-28.5,23.4-42.5c18.1-30.5,38-59.8,59.5-88c22.9-30,47.3-59.1,73.2-86.6
				c25.3-27,52.7-52.1,80.9-76c31.8-27,65-52.3,99.3-75.9c32.2-22.1,65.6-42.4,99.8-61.2c20.8-11.4,41.8-22.2,63.2-32.5
				c9.6-4.6,19.3-9.1,29-13.5c4.9-2.2,9.8-4.4,14.7-6.6c7.5-3.2,14.9-6.6,22.1-10.3c-2.3,1-4.6,1.9-6.8,2.9
				c15.6-4.7,31.1-9.7,46.7-14.6c15.8-5,31.7-9.7,47.6-14.5c-2.4,0.7-4.7,1.3-7.1,2c10.8-2.5,21.5-5,32.3-7.4
				c-4.9,0.4-9.8,0.9-14.7,1.3c13.6-0.2,27.2-0.4,40.8-0.6c6.8,0,13.3-1.9,19.6-5.6c-0.7-1-1.6-1.6-2.8-2c-3.8-1.8-7.6-3.5-11.5-5.1
				c-3.8-1.7-7.7-3.2-11.6-4.7c-1.1-0.6-2.2-0.8-3.3-0.6c-12.1,4.4-24.5,8.2-37,11.2c8.3-0.7,16.6-1.5,24.9-2.2
				c-7.5-1.4-15-2.9-22.5-4.3c-4.6,0.3-9.1,0.8-13.6,1.6c-5.5,0.6-11,1.6-16.5,2.8c-8.1,1.7-16.2,3.3-24.3,4.8
				c-10.7,2-21.5,3.9-32.3,5.4c-6.7,0.3-13.3,1.1-19.8,2.4c-3.8,0.7-7.7,1.4-11.5,2.1c-5.2,0.4-10.1,1.9-14.7,4.4
				c-4.8,2.4-9.6,4.8-14.5,7.2c-11.9,6-23.8,12.3-35.5,18.7c-20.9,11.3-41.4,23.1-61.7,35.4c-23.7,14.3-46.8,29.4-69.7,44.9
				c-20.8,14.1-41.4,28.6-61.5,43.8c-36.7,27.7-72.1,57.1-105.6,88.5c-15.3,14.4-30.3,29.2-44.6,44.5
				c-16.5,17.6-32.4,35.9-47.8,54.5c-26.4,31.7-51.4,64.5-74.1,98.9c-20.1,30.4-38.5,62-54.8,94.6c-7.9,15.9-14.8,32.4-21,49
				c-6.2,16.4-11.5,33.1-16.1,50c0.3,1.4,1.2,2.3,2.7,2.6c3.9,1.5,7.9,2.8,11.9,3.9c4,1.2,8.1,2.2,12.2,3c1.5,0.5,2.7,0.2,3.7-0.8
				c0.4-0.9,0.7-1.8,1.1-2.7c0.1-1.8-0.7-3-2.4-3.8c-3.8-1.8-7.8-3.2-11.8-4.2c-4-1.3-8.1-2.2-12.3-2.7
				C124.6,730.8,123.2,731.5,122.4,733z"/>
			<path class="st0" d="M23,829.3c10.3-6,16.2-6.8,20.5-18.2c0.3-0.8,0.6-1.6,0.9-2.4c1-5.1,1.9-10.2,2.6-15.4
				c-0.3,1.7-0.7,3.4-1,5.1c0.7-5.3,2.2-10.4,4.3-15.4c1.9-5.1,3.9-10.2,6.1-15.2c4.3-10.2,8.6-20.6,13.3-30.6
				c4.9-10.3,9.8-20.6,15-30.7c1.8-3.4,3.6-6.8,5.3-10.3c3.5-7,7.4-13.7,11.8-20.2c-0.5,0.8-1,1.6-1.5,2.4
				c6.1-7.4,12.1-14.8,17.3-22.9c4.3-6.7,8.5-13.4,12.8-20.1c11-17.2,22.5-34,34.5-50.5c11.2-15.3,22.9-30.2,34.9-44.8
				c14.7-17.8,30.1-34.9,45.9-51.7c-1,1-2,2.1-3,3.1c4.1-4.2,8.1-8.5,12.2-12.7c-1,1-2,2.1-3.1,3.1c4.2-4.2,8.4-8.4,12.6-12.7
				c-1.1,1-2.1,2.1-3.2,3.1c4.3-4.2,8.6-8.4,12.9-12.6c-1.1,1-2.2,2.1-3.2,3.1c34-32.3,69.6-62.7,107.2-90.8
				c39.6-29.6,81.1-56.8,124-81.4c42.8-24.5,86.9-46.6,132.1-66.1c7.4-3.2,14.8-6.4,22.3-9.3c5.6-2.1,11.3-4.1,16.9-6.2
				c13.5-4.9,27.1-9.8,40.7-14.5c31.3-10.8,63.1-20.4,94.6-30.4c0.7-0.9,1-2,1.1-3.2c0.9-4.1,1.7-8.2,2.4-12.3
				c0.8-4.1,1.5-8.2,2.1-12.3c0.3-1.1,0.4-2.3,0.1-3.4c-9,3.3-18.1,5.8-27.5,7.7c-14.7,3.4-29.3,7-43.9,11
				c-11.7,3.4-23.2,7.1-34.8,10.9c-17.2,5.6-34.3,11.7-51.4,17.7c-14.2,5-28.5,9.8-42.3,15.9c-49.4,21.7-97.6,46.4-143.8,74.3
				c-76.5,46-148.6,99.7-212.8,161.8c-13.2,12.8-26.1,25.8-38.2,39.6c-10.3,11.7-20.3,23.5-30.2,35.6
				c-14.4,17.7-28.3,35.9-41.5,54.5c-11.6,16.4-22.8,33.1-33.1,50.3c-4,6.7-8.4,13.5-11.4,20.7c-1.3,3.1-2.6,6.3-3.9,9.4
				c-0.8,2.7-1.6,5.3-2.4,8c-2.2,5.1-4.7,10.1-7.4,14.9c-1.8,3.4-3.6,6.8-5.4,10.3c-4.3,8.5-8.5,17-12.5,25.7
				c-4.7,10.1-8.9,20.4-13.1,30.8c-3.4,8.4-7.1,16.8-9.9,25.5c-1,2.5-1.7,5-2.2,7.6c-0.7,3.2-1.3,6.5-1.7,9.8
				c-1.3,9.4-2.4,18.7-3.3,28.1c1.3-7.4,2.5-14.7,3.8-22.1c-2.2,3.2-4.4,6.4-6.6,9.6c0.4-0.2,0.7-0.5,1.1-0.7c-5.5,3-11,6-16.5,9
				c-1.6,2.2-2.5,4.6-2.6,7.4c-0.9,4.8-1.5,9.7-2,14.6C19.3,822.6,18.2,832.1,23,829.3z"/>
			<path class="st0" d="M105.8,917.9c3.7-14.8,7.2-29.7,11.9-44.2c3.2-10,6.6-20,10.3-29.8c7.3-19.4,15.5-38.5,24.6-57.1
				c9.5-19.4,19.8-38.3,30.9-56.7c5.9-9.7,11.9-19.4,18.5-28.6c6.1-8.7,12.4-17.2,18.6-25.8c-0.6,0.8-1.2,1.7-1.9,2.5
				c20.9-27.9,43.2-54.7,67.2-80.1c11.8-12.4,23.9-24.4,36.2-36.3c14.6-14.1,29.5-27.9,44.8-41.2c28.4-24.6,57.9-47.8,88.5-69.5
				c36.1-25.6,73.6-48.8,112.2-70.5c-1.4,0.8-2.9,1.6-4.3,2.4c22.2-12.2,44.6-23.9,67.5-34.8c11.6-5.6,23.3-10.9,35.1-16.1
				c4.7-2.1,9.5-4.2,14.3-6.2c7.2-3.1,14.4-6.1,21.7-9c6.9-3.4,13.7-6.8,20.6-10.2c5.5-2.7,10.9-5.4,16.4-8
				c13.1-6.2,26.7-11.7,40.2-17.1c8-3.2,16.1-6.3,24.2-9.3c5.5-2.1,11.1-4.2,16.6-6.4c8.7-4.4,17.4-8.7,26.1-13.1
				c11.6-8.5,24.4-13.4,38.5-14.8c-1-0.5-2.1-0.9-3.2-1c-4.1-0.8-8.2-1.6-12.3-2.3s-8.2-1.4-12.4-2c-1.1-0.3-2.2-0.4-3.3-0.2
				c-4.9,0.8-9.8,1.6-14.7,2.4c0.9-0.1,1.7-0.3,2.6-0.4c-10.4,0.7-20.7,2.3-30.8,4.8c-6.2,0.9-12.1,2.6-17.8,5
				c-13.5,4.8-26.9,9.7-40.2,14.8c-9.9,3.9-19.8,7.9-29.6,12.1c-2.7,1.1-5.3,2.3-7.9,3.5c-6.7,3.1-13.6,6-20.6,8.5
				c-48.6,20.1-95.8,43.3-141.8,68.9c-80.3,44.7-155.8,98.2-223.8,160.1c-31.2,28.4-61,58.4-88.7,90.3
				c-13.9,15.9-27.2,32.4-39.8,49.3c-9.9,13.2-19.6,26.7-28.6,40.6c-21.1,32.9-41,66.6-57.1,102.3c-7,15.4-13.4,31-19.2,46.9
				c-2.9,8.1-5.8,16.3-8.4,24.5c-4.7,14.5-8.2,29.4-11.9,44.2c0.2,1.5,1.1,2.5,2.7,3c3.9,1.5,7.9,2.6,12,3.6
				c4.1,1.1,8.2,1.9,12.3,2.4C103.7,919.7,104.9,919.2,105.8,917.9z"/>
			<path class="st0" d="M190.5,823c-1.9-8.9-3.9-17.8-5.8-26.7c0.3,6.6,0.6,13.3,0.9,19.9c0.4-7.1,0.8-14.1,1.1-21.2
				c-0.9,4.8-1.8,9.7-2.7,14.5c1.8-7.4,3.7-14.7,5.5-22.1c-1.6,4.6-3.2,9.3-4.8,13.9c2.9-7.4,5.8-14.9,8.7-22.3c-2,4.5-4,9-6,13.4
				c2.6-5.1,5.2-10.3,7.8-15.4c-1.2,2.2-2.4,4.3-3.6,6.5c2.9-5.1,5.9-10.2,8.8-15.4c-1.2,2.1-2.5,4.2-3.7,6.4
				c3.8-6.1,7.6-12.2,11.8-18c2.3-2.9,4.7-5.9,7-8.8c2.7-2.8,5.5-5.6,8.2-8.3c7.1-7.1,14.6-13.9,21.8-20.8c6-5.7,12-11.4,18.1-17
				c27.6-25.4,56.4-49.5,85.8-72.8c31.2-24.8,63-48.7,95.5-71.8c7.9-5.6,15.8-11.2,23.7-16.7c7.8-5.5,15.4-11.3,22.7-17.4
				c16.3-13.5,32.3-27.3,48.9-40.6c64.7-51.6,134.3-96.7,207.5-135.4c40.7-21.5,82.4-41.2,124.9-58.9c5.2-2.1,10.3-4.2,15.5-6.4
				c5.2-2.1,10.4-4.2,15.6-6.2c3.6-2.9,7.1-5.7,10.7-8.6c4.9-4.9,10.3-9.1,16.2-12.6c8.1-5.4,16.5-10.1,25.1-14.8
				c4.3-2.4,8.7-4.7,13.1-7c6.3-3,12.2-6.7,17.6-11.3c4.8-3.2,6.9-7.6,6.3-13.3c-1.4-7.1-3.2-14.1-5.3-21
				c-7.7-14.8-16.2-29.3-25.3-43.3c-1.5-2.5-5-1.1-6,1c-3.7,7.9-7.4,15.8-11.1,23.7c1.3-2.1,2.6-4.2,4-6.3c-3,2.7-6,5.5-9,8.2
				c2.1-0.9,4.2-1.8,6.3-2.7c-8.5,2.1-17.1,4.2-25.6,6.2c-8.5,1.9-16.8,4.4-24.9,7.4c-13,4.5-26.1,9-38.8,14.1
				c-5,2-9.9,4.1-14.9,6.1c-4.6,2.3-9.1,4.5-13.7,6.8c-8.8,1.6-17.3,4.3-25.3,8.1c-5,2.1-9.9,4.2-14.9,6.4
				c-45.8,20-90.4,42.4-133.7,67.3C574.3,335.9,498.6,390.5,431,453.7c-6.7,6.3-13.3,12.6-20,18.9c-6.9,6.5-13.8,12.9-20.4,19.6
				c-14.1,14.2-27.7,28.9-41.2,43.7c-27.2,30-53.1,61.2-77.5,93.5c-12.2,16.1-24,32.6-35.2,49.4c-5.4,8.1-10.8,16.3-16,24.5
				c-4,6.4-8.3,12.8-12.1,19.4c-4.3,7.5-8.1,15.4-11.8,23.2c-3.7,7.7-7.3,15.3-10.6,23.2c-2.7,6.5-5.2,13-7.3,19.8
				c-1.1,3.3-1.8,6.6-2.3,10c-1.6,6.2-1.5,12.4,0.3,18.7c0.4,4.2,1.4,8.3,3,12.2c1,1.7,2.3,2.5,4,2.4c1.6,0.5,3.1,0.1,4.5-1
				C190.4,828.8,191.1,826.2,190.5,823z"/>
			<path class="st0" d="M44.1,789.8c3.1-1.7,6.1-3.3,9.2-5c2.1-2.1,4.1-4.3,5.9-6.6c4.3-5.4,8.5-11.1,12.3-16.8
				c0.9-1.4,1.9-2.9,2.8-4.3c0.3-0.8,0.6-1.6,0.9-2.4c1.7-5.1,3.1-10.3,4.3-15.5c1.7-5.2,2.2-10.5,1.4-16c-1.6,4.8-3.2,9.6-4.8,14.3
				c2.6-5.5,5.3-10.9,7.9-16.4c1.3-3.4,2.7-6.8,4-10.2c3.4-8.7,6.6-17.4,10.3-26c6.8-15.9,14.4-31.5,22.5-46.8
				c7.5-14.1,15.3-27.9,23.5-41.5c11.5-19.1,23.9-37.6,36.5-56c-1.1,1.6-2.1,3.1-3.2,4.7c3.5-4.9,7-9.9,10.5-14.8
				c-1.1,1.5-2.2,3.1-3.4,4.6c11.2-15.2,22.4-30.3,34.3-44.9c10.9-13.5,22.3-26.6,33.9-39.6c24.5-27.3,51.5-52.1,79.5-75.7
				c29.6-25,60.5-48.4,92.5-70.3c33.4-22.9,68-43.9,103.4-63.7c-2.3,1.3-4.6,2.5-6.9,3.8c6.9-3.7,13.7-7.5,20.6-11.2
				c-2.3,1.2-4.6,2.5-7,3.7c6.9-3.7,13.9-7.3,20.8-11c-2.3,1.2-4.7,2.5-7,3.7c7-3.6,14-7.2,21-10.9c-2.4,1.2-4.7,2.4-7.1,3.7
				c18.9-9.5,37.9-18.7,57.2-27.4c9.8-4.4,19.6-8.7,29.5-12.9c6.9-2.9,13.5-6.3,19.9-10.3c-2.3,1.2-4.6,2.4-6.9,3.6
				c11.3-3.4,22.5-7.1,33.6-11.1c8.1-2.8,16.2-5.6,24.3-8.2c8.1-2.7,16.3-5.4,24.5-7.9c11.1-3.8,22.3-7.1,33.7-9.9
				c-1.9,0.3-3.8,0.7-5.7,1c18.7,1.4,36.2-2.4,52.4-11.2c2.3-1.2,4.4-2.7,6.3-4.4c2.9-2.3,5.7-4.6,8.5-7c2.3-1.9,4.5-3.8,6.7-5.8
				c1.1-0.7,1.8-1.7,2-2.8c-27.4-1.4-54.8-1.9-82.2-1.6c-20.3-1-40.2,0.9-59.7,5.9c-12.4,3.1-24.7,6.4-37,9.7
				c-12.5,3.5-25.1,6.8-37.7,10.1c-13.5,2.9-26.9,6.2-40.3,10c-4.9,2.2-9.8,4.5-14.7,6.8c-16.4,7.8-32.7,15.9-48.8,24.3
				c-65.8,34.6-128.6,75-186.9,121c-25.6,20.2-50.4,41.5-74.1,64c-13,12.3-25.7,25-37.7,38.4c-5.8,6.4-11.2,13-16.4,19.8
				c-4.8,6.5-9.1,13.4-13,20.5c-13.7,24-26.4,48.7-39.1,73.3c-14.4,27.9-28.5,56-42.1,84.3c0.8-1.6,1.6-3.2,2.3-4.8
				c-9.2,19.2-18.2,38.4-26.1,58.2c-2.7,6.8-5.4,13.7-7.5,20.8c-2.2,7-4.1,14-6,21.1c0.5-1.7,0.9-3.4,1.4-5
				c-5.9,20.5-11,41.1-17.6,61.3c1.6-3.9,3.1-7.8,4.7-11.6c-4.6,6.6-7.9,13.6-9.9,21.2c-1.2,7.2-2.9,14.2-5.2,21.2
				c5.4-7.4,10.8-14.9,16.1-22.3c-2.4,2.3-4.7,4.6-7.1,6.9c0.8-0.4,1.6-0.9,2.4-1.3c-3.7,1.2-7.3,2.4-11,3.6c-1,0.3-1.9,0.6-2.9,0.9
				c-1.3,1.2-2.5,2.4-3.8,3.6c-1.6,1.9-3.1,3.8-4.7,5.7c-2.2,2.6-4,5.3-5.5,8.3c-1,1.1-1.5,2.4-1.3,3.8c-0.4,1-0.2,1.9,0.6,2.6
				c0.3,0.9,0.9,1.4,1.9,1.5C41.4,791.1,42.7,790.9,44.1,789.8z"/>
			<path class="st0" d="M122,769.2c2.4-9.7,4.3-19.4,6.4-29.2c1.2-5.5,2.4-11,3.5-16.5c1.2-6,2.4-12,3.4-18
				c2.3-11.3,4.8-22.5,6.9-33.8c0.8-4.6,1.6-9.1,2.3-13.7c1-10,2.2-19.9,3.8-29.8c-0.5,2.5-1.1,4.9-1.6,7.4
				c1.1-4.4,2.2-8.8,3.2-13.2c1.7-6.2,3.8-12.2,6.3-18.1c3.8-9.5,8.2-18.7,13-27.6c9.7-17.9,20.6-35.1,31.9-52
				c-1.5,2.2-3,4.3-4.5,6.5c14.5-20.5,29.6-40.6,46-59.7c15.6-18.2,32-35.6,49-52.4c4.8-4.7,9.5-9.5,14-14.4
				c4.8-4.8,9.7-9.5,14.6-14.1c8.3-7.8,16.8-15.5,25.3-23.1c21.1-18.7,43-36.5,65.5-53.4c43.5-32.7,89.1-62.2,136.5-88.9
				c27.1-15.3,54.8-29.5,83-42.6c14.4-6.7,29-13.3,43.6-19.5c5-2.1,9.9-4.1,14.9-6.2c10.7-2.3,19.3-7.7,26-16.3
				c-2.7,0.8-5.3,1.6-8,2.5c5.4-1.6,10.7-3.3,16.1-4.9c5.3-1.5,10.4-3.4,15.5-5.5c12.7-4.9,25.3-9.8,38-14.5
				c-2.6,0.9-5.2,1.8-7.7,2.7c7.8-2.6,15.5-5.4,23.2-8.3c10.7-2.5,18.5-8.7,23.4-18.4c-2.3,1.2-4.6,2.4-6.9,3.5
				c6.6-0.3,13.3-0.6,19.9-0.8c-2.5,0-5.1-0.1-7.6-0.1c9.6,1.5,19.2,3,28.7,4.4c4.3-1.1,7.9-3.3,11-6.5c2.8-2.1,4.9-4.8,6.2-7.9
				c1.7-2.2,1.8-4.6,0.3-7.2c-1.8-3.6-4.5-6.5-7.9-8.7c-20.7-10.4-41.5-20.8-62.2-31.2C785,34.6,773,29.6,760.8,24.5
				c-15.7-9.3-32-12.6-48.8-10c-6.1,0.2-12.1,1.1-18,2.6c-11.2,2.4-22.5,4.9-33.6,7.5c-8.4,2-16.9,3.9-25.3,5.5
				c-6,0.8-12.1,1.7-18.1,2.5c-8.9,1.2-17.8,1.8-26.4,4.7c-4.8,2.1-9.5,4.2-14.3,6.4c-4.7,2.2-9.4,4.3-14.1,6.5
				c-20.7,9.6-41.2,19.9-61.3,30.7c-75.1,40.3-146.1,88.4-209.9,144.9c-13.2,11.7-26.2,23.8-38.8,36.2c-7.7,7.6-15.4,15.3-22.8,23.3
				c-5.9,6.3-11.6,12.8-16.8,19.7c-6.6,8.8-12.4,18.1-18.2,27.3c-4.7,7.4-9.2,14.8-13.7,22.3c-11.3,19.1-22.3,38.3-32.3,58.1
				c-8.8,17.3-16.9,34.9-24.4,52.8c-6.7,16.1-13,32.4-17.8,49.2c-2,6.6-3.7,13.3-4.9,20.1c-0.7,5-1.3,10-2,15
				c-0.3,2.8-0.6,5.6-0.9,8.3c-0.3,5.5-0.6,11-0.9,16.6c0.3,6.3,0.5,12.6,0.8,19c1,10.9,2.2,21.7,3.8,32.5
				c1.1,7.2,1.9,14.5,2.7,21.8c1.5,11.2,2.2,22.6,1.9,33.9c0-1.8,0-3.5,0-5.3c0,11.3-0.8,22.6-2.4,33.8c-1,7.7-2.4,15.4-4.1,22.9
				c-1.4,5.7-3,11.3-4.7,16.9c-1.3,4.9-2.7,9.9-4.2,14.8c-0.9,2.4-0.7,4.6,0.6,6.8c2,2.4,4.7,3.3,7.9,2.8c4.9,0.1,9.8-0.4,14.7-1.3
				C118,773.3,120.5,771.9,122,769.2z"/>
			<path class="st0" d="M184.9,854.7c-1.9-5.1-3.8-10.2-5.6-15.3c-0.1,0.9-0.2,1.9-0.3,2.8c0.7-3.5,1.4-7.1,2-10.6
				c-0.3,0.9-0.6,1.7-0.9,2.6c2.2-2.9,4.2-6,5.8-9.3c2.1-3.9,4.3-7.7,6.4-11.6c3.9-7,7.8-14.1,12-21c1.6-2.9,3.4-5.6,5.3-8.3
				c2.6-4.2,5.6-8.1,8.9-11.7c6.4-7.9,12.7-15.9,18.9-23.9c-1.1,1.5-2.3,2.9-3.4,4.4c12.4-15.6,25.1-30.9,38.9-45.2
				c14.4-14.9,29.8-28.5,45.7-41.6c-1.9,1.6-3.9,3.1-5.8,4.7c18.5-14.5,37.5-28.3,57-41.4c10.2-6.8,20.4-13.4,30.7-20
				c3.5-2.2,7-4.5,10.5-6.7c7-4.8,13.8-10,20.4-15.5c18.9-15.5,37.5-31.3,56.9-46.3c21.9-16.9,44.4-33,67.4-48.3
				c46.5-30.8,95.1-58.2,145.4-82.2c27.5-13.2,55.5-25.4,83.9-36.4c4.8-1.9,9.7-3.7,14.5-5.6c6.9-0.9,12.8-3.5,17.7-7.9
				c5.5-4.3,10.8-8.7,16-13.2c8.1-7.9,16.9-14.9,26.3-21c-2.1,1.4-4.2,2.9-6.4,4.3c9.1-6,18.4-11.9,27.9-17.4
				c7-4,13.9-8.1,20.7-12.3c8.4-3.4,14.2-9.1,17.2-17.1c9.2-17.9,16.1-36.8,20.4-56.6c-0.5,1.5-0.9,3.1-1.4,4.6
				c4.7-13.3,9.4-26.5,14-39.8c0.5-1.3,0-2-1.4-2.1c-1.8,0.2-3.4,0.8-4.8,1.9c-6.6,3.6-12.8,7.9-18.7,12.5
				c-10.4,6.7-19.5,14.7-27.4,24.1c2.3-1,4.5-2.1,6.8-3.1c-5.5,0.8-10.9,1.7-16.4,2.5c-8.1,1.8-16,4.1-23.7,7.1
				c-12.9,4.5-25.8,9.1-38.5,14.2c-5,2.1-10.1,4.1-15.1,6.2c-4.9,2.5-9.7,5-14.6,7.4c-8.3,0.4-16.2,2.4-23.5,6.1
				c-4.9,2-9.9,4.1-14.8,6.3c-45.4,19.7-89.8,41.8-132.7,66.5c-40.9,23.5-80.4,49.4-118.3,77.5c-34.3,25.5-67.2,52.8-98.7,81.6
				c-6.7,6.2-13.4,12.4-20.1,18.7c-8.1,7.6-16.4,15.1-24.4,23c-14,13.8-27.7,27.9-41,42.3c-26.7,28.6-51.9,58.7-74.8,90.5
				c-12.5,17.3-24.4,35.1-35.7,53.2c-5,7.9-9.8,15.9-14.5,24c-3.6,6.2-7.5,12.3-11,18.5c-4.4,7.8-8.2,15.9-12,24
				c-4.1,8.9-8,17.8-11.6,26.9c-2.4,6.3-4.8,12.7-6.3,19.3c-1.7,5.3-1.7,10.6,0,15.8c1.2,6.9,2.9,13.7,5.2,20.3c1,1.9,2.5,2.9,4.7,3
				c2.9-0.5,5.1-2.2,6.5-4.9c3-3.9,5.6-8.1,7.9-12.4C185.1,860.2,185.7,857.6,184.9,854.7z"/>
			<path class="st0" d="M34.9,869.8c6.5-4,11.5-9.1,15.1-15.3c2.4-3.5,4.4-7.2,5.9-11.2c0.8-6.5,2-13,3.6-19.4
				c2.4-7,5-13.9,7.9-20.6c5.7-13.9,11.2-27.9,17.9-41.3c3.3-6.7,7.1-13.2,11.2-19.5c3.6-6.5,7.1-13.1,10.6-19.7
				c12.8-24.3,26.7-47.9,41.9-70.8c18.2-27.3,37.9-53.6,58.9-78.9c22-26.4,45.3-51.7,70.1-75.5c23.3-22.4,47.6-43.6,72.8-63.8
				c30-24.1,61.3-46.7,93.5-67.7c33.6-22,68.4-42,103.8-60.8c-2.9,1.5-5.9,3.1-8.8,4.6c7.5-3.9,15-7.8,22.5-11.7c-3,1.5-6,3.1-9,4.6
				c18.3-9.3,36.8-18.3,55.5-26.8c20.8-9.4,41.9-18.2,63.2-26.6c22.5-8.8,45.2-17.2,68.1-25c27.6-9.4,55.4-18.4,83.5-26.2
				c1-0.3-4.6-15.4-4.6-15.2c-1.4-3.9-2.8-7.9-4.3-11.8c-0.3-1.2-0.8-2.1-1.6-2.9c-5.4,1.5-10.8,3-16.2,4.5
				c-12.5,3.8-24.9,7.7-37.3,11.8c-15.8,5.1-31.6,10.3-47.2,15.9c-26.3,9.4-52.4,19.3-78.3,30c-44,18.2-87,39-128.8,61.9
				c-80,43.7-155.6,96.2-223.3,157.2c-14.9,13.5-29.6,27.3-43.6,41.7c-13,13.3-25.4,27.3-37.5,41.5c-24.9,29.2-48.1,59.8-69.2,91.8
				c-10.8,16.4-21.1,33.1-30.8,50.2c-4.7,8.3-9.4,16.7-13.7,25.3c-1.6,3.2-3.2,6.5-4.8,9.7c-1.2,2.8-2.5,5.7-3.7,8.5
				c-0.7,2.4-1.5,4.8-2.2,7.2c-1.8,4.9-3.8,9.7-6,14.4c-3.8,8.5-7.4,17-10.9,25.6c-2.8,6.9-5.7,13.7-8.3,20.7
				c-2.2,4.8-3.6,9.8-4.2,15c-0.9,4.7-1.5,9.5-2,14.3c0.1-0.3,0.3-0.7,0.4-1c-2.3,4.1-4.6,8.3-6.8,12.4c0.2-0.4,0.4-0.7,0.7-1.1
				c-4.8,4.7-9.6,9.5-14.4,14.2c-1.4,0.9-1.9,2.3-1.5,4.1c0.8,4.1,1.9,8.1,3.4,12.1c1.3,4,2.9,7.9,4.8,11.6
				C32,869.2,33.2,869.9,34.9,869.8z"/>
		</g>
	</g>
</g>
<g>
	<g>
		<g>
			<path class="st1" d="M235.5,635.6c-2.3-1.6-6.5-0.3-4.7-5.5c1.7-3.9,4-7.1,6.6-10.1c1.3-1.5,2.6-2.9,4-4.2s2.8-2.7,4.2-4
				c2.9-2.6,5.7-5.2,8.3-8.1c2.6-2.9,5-6,6.9-9.8c-1-1.2-2-2.4-3-3.7c9.3-9.3,19.3-18.5,29.6-27.8c7.5-10.1,15.3-20,23-29.9
				c7.8-9.8,15.7-19.6,23.7-29.2c-1.7-0.7-3-1.5-1.7-3.7c1.6-2.1,3.4-4.3,5.5-6.5s4.5-4.5,6.9-6.8c1.2-1.2,2.5-2.3,3.8-3.5
				s2.7-2.4,4-3.6c2.7-2.4,5.5-4.9,8.2-7.4c1.4-1.7,2.8-3.4,4.2-5.1c0.5-1.9-0.2-3.4-0.7-4.3c5-4.6,9.8-8.4,14.2-11.8
				c12.1-14.1,24.5-28,37.6-41.7c13-13.7,26.6-27.2,40.9-40.4c14.3-13.2,29.2-26.2,44.9-38.9c15.7-12.7,32.1-25.1,49.4-37.1
				c13.7-11.9,27.9-23.5,42.9-32.3c5.6-3,11.9-5.8,18.3-8.6c3.3-1.3,6.6-2.6,10-3.9s6.7-2.6,10.2-3.7c6.8-2.3,13.7-4.7,20.3-6.7
				c3.3-1,6.6-2.1,9.7-3.1c3.2-1,6.3-1.9,9.2-2.9c-2.2-3.5-0.4-7.8,3.3-12.6c3.7-4.7,9.4-9.6,14.9-14.6c11-9.7,21.5-19,13.2-25.1
				c16.7-4.5,42-10.3,42.3-14.9c0.4-7.1,2.9-15.3,11-24c4.1-4.3,9.6-8.7,16.9-13.1c3.7-2.2,7.8-4.3,12.4-6.5
				c2.3-1.1,4.8-2.2,7.3-3.2c2.6-1,5.3-2,8.2-3c2.3-0.6,4.7-1.2,7.3-1.6c2.5-0.5,5.2-0.9,7.9-1.1c5.4-0.6,11-0.9,16.1-1.3
				c10.4-0.5,19.2-0.9,22.3-2.7c2.3-1.4,2-2.5,0.3-3.5s-4.9-1.8-8-2.6c-6.3-1.6-12.7-3.2-7.8-6.1c-35,3.3-69.6,9.1-103.6,17
				c-34,7.8-67.3,17.9-100,29.7c-4.1,1.4-8.2,3-12.2,4.5c-4.1,1.6-8.1,3.1-12.2,4.7c-8.1,3.3-16.2,6.4-24.2,9.9
				c-16.1,6.7-31.9,14.2-47.7,21.7c-31.4,15.4-62.3,32.3-92.7,50.8c-9.4,7.8-33.6,24.6-64.1,48.2c-15.2,11.8-32,25.4-49.2,40.2
				c-17.3,14.9-35,31.1-52.4,48s-34.4,34.6-50.3,52.3c-16,17.6-30.8,35.2-44.2,51.8c-26.7,33.1-47.3,62.3-59.4,79
				c-1.3,2.1-2.7,4.2-4,6.4c-12.7,18.6-25.7,40-36.7,61.5s-20,43-25.6,61.4c-4.2,17.3-7.3,35.3-10.1,53.1c5.6-6.4,11.1-12.2,16.1-17
				c-7.6,15.9-14.6,32.1-14.4,39.4c-1,4.6-1.5,8.5-1.7,11.6s-0.2,5.5,0.2,7.2c0.7,3.5,2.4,4.6,4.8,4.2c4.9-0.7,12.4-7.2,20.2-11.6
				c4.1-3.8,6.6-1.8,9.4-0.5s5.8,2,11-4.3c-2.2,5.1-3.9,9-5.6,12.9c-1.6,3.9-3.2,7.8-5.4,13c1.9,1.4,4.5-6.8,7.2-14.2
				c2.8-7.3,5.5-13.8,7.5-8.7c-5.7,9.3-7.6,21.5-11.7,31.9c1.8-0.4,3.6-2.8,5.6-6c1.9-3.3,3.9-7.5,5.8-11.6
				c3.9-8.1,7.5-15.5,10-13.5c-0.5,3-5.4,9.4-9.3,15.7s-6.9,12.5-3.7,14.9c1.2,0.9,5.5-9.3,7.6-14.4c-1.3,4.1-2.4,7.9-3.3,11.5
				c-1,3.6-1.6,7-2.1,10s-0.9,5.7-1,8s0,4.2,0.3,5.7c0.6,2.9,2.1,3.9,4.6,2.6c2.5-1.3,5.8-5,10.5-11.4c-4,9.8-11.9,22.9-14.4,33.9
				h0.1c2-5.2,6.5-13.9,8.4-18.7c-2.3,5.9-4.4,11.9-6.5,17.9c1.3-0.6,2.7-1.4,4.1-2.1c2.4-4.2,4.6-8.4,6.4-13
				c-1.5,3.9-2.9,7.9-4.3,11.8c3.4-2.2,6.7-4.8,10.2-7.8c2.4-3.1,4.9-6.1,7.4-8.9c2.5-2.8,4.9-5.6,7.2-8.1c4.5-5.1,8.3-9.5,9.7-13.2
				c6.7-14.6,13.7-29,21-43.3s15-28.4,22.8-42.3c7.8-14,16-27.7,24.3-41.3C218.1,662.3,226.7,648.8,235.5,635.6z"/>
		</g>
	</g>
</g>
</svg>
