<?xml version="1.0" encoding="utf-8"?>
<!-- Generator: Adobe Illustrator 25.1.0, SVG Export Plug-In . SVG Version: 6.00 Build 0)  -->
<svg version="1.1" xmlns="http://www.w3.org/2000/svg" xmlns:xlink="http://www.w3.org/1999/xlink" x="0px" y="0px"
	 viewBox="0 0 1151 757.4" style="enable-background:new 0 0 1151 757.4;" xml:space="preserve">
<style type="text/css">
	.st0{fill:#FFFFFF;}
	.st1{fill:#FFFFFF;stroke:#343434;stroke-linejoin:round;}
	.st2{fill:#343434;}
	.st3{fill:#FDA47B;}
	.st4{fill:#A1D3B8;}
	.st5{fill:none;stroke:#A1D3B8;}
	.st6{fill:#FCB594;}
	.st7{fill:#D3A2BD;}
	.st8{fill:#C4B1DA;}
	.st9{fill:none;stroke:#343434;stroke-linejoin:round;}
	.st10{opacity:0.7;fill:#B6B6B6;}
	.st11{fill:none;stroke:#A1D3B8;stroke-width:3;}
	.st12{fill:none;stroke:#A1D3B8;stroke-width:2;}
	.st13{fill:#A1D3B8;stroke:#A1D3B8;stroke-miterlimit:10;}
	.st14{fill:none;stroke:#C4C4C4;stroke-width:3;}
	.st15{fill:none;stroke:#FCB594;stroke-width:3;}
</style>
<g id="Layer_1">
	<g id="Layer_1_1_">
		<path class="st0" d="M-0.3-1h1151v759c0,0,0,0,0,0H-0.3V-1z"/>
	</g>
</g>
<g id="animate">
	<rect x="771.4" y="379.6" class="st1" width="14.5" height="15.8"/>
	<path class="st2" d="M690.3,390.3h-5.2l-1.2,3.6h-1.7l4.7-13.5h1.5l4.7,13.5h-1.7L690.3,390.3z M685.6,388.8h4.2l-2.1-6.3
		L685.6,388.8z M696.6,383.8l0.1,1.3c0.7-0.9,1.6-1.4,2.8-1.4c2,0,2.9,1.2,3,3.6v6.6h-1.6v-6.7c0-0.7-0.1-1.3-0.4-1.6
		c-0.3-0.3-0.7-0.6-1.4-0.6c-0.5,0-0.9,0.2-1.4,0.5s-0.7,0.7-0.9,1.2v7.1h-1.6v-10.1L696.6,383.8L696.6,383.8z M706.9,393.8h-1.6
		v-10.1h1.6V393.8z M705.3,381.1c0-0.3,0.1-0.5,0.2-0.7c0.1-0.2,0.4-0.3,0.7-0.3s0.5,0.1,0.7,0.3c0.1,0.2,0.2,0.4,0.2,0.7
		s-0.1,0.5-0.2,0.7c-0.1,0.2-0.4,0.3-0.7,0.3s-0.5-0.1-0.7-0.3C705.4,381.6,705.3,381.4,705.3,381.1z M711.5,383.8l0.1,1.1
		c0.7-0.9,1.6-1.3,2.8-1.3c1.3,0,2.2,0.6,2.6,1.6c0.3-0.5,0.7-0.9,1.2-1.2s1.1-0.5,1.7-0.5c2,0,3.1,1.2,3.1,3.5v6.7h-1.6v-6.5
		c0-0.7-0.1-1.3-0.4-1.6c-0.3-0.4-0.8-0.6-1.5-0.6c-0.6,0-1.1,0.2-1.5,0.6c-0.4,0.4-0.6,0.9-0.7,1.5v6.6h-1.6v-6.5
		c0-1.4-0.7-2.2-2-2.2c-1,0-1.7,0.5-2.1,1.4v7.4H710v-10.1L711.5,383.8L711.5,383.8z M731.5,393.8c-0.1-0.2-0.1-0.6-0.2-1
		c-0.7,0.8-1.6,1.3-2.6,1.3c-0.9,0-1.7-0.3-2.3-0.9c-0.6-0.6-0.9-1.3-0.9-2.1c0-1,0.4-1.8,1.1-2.5c0.7-0.6,1.7-0.9,3.1-0.9h1.5v-0.8
		c0-0.6-0.1-1.1-0.5-1.4c-0.4-0.4-0.8-0.6-1.5-0.6c-0.6,0-1,0.2-1.4,0.5s-0.6,0.7-0.6,1.1h-1.6c0-0.5,0.1-0.9,0.5-1.4
		s0.8-0.9,1.3-1.1c0.6-0.2,1.2-0.4,1.8-0.4c1.1,0,1.9,0.3,2.5,0.9s0.9,1.3,0.9,2.4v4.6c0,0.9,0.1,1.7,0.3,2.2v0.2L731.5,393.8
		L731.5,393.8z M728.9,392.5c0.5,0,0.9-0.2,1.4-0.4c0.4-0.3,0.8-0.6,0.9-1.1v-2.1H730c-2,0-2.9,0.6-2.9,1.8c0,0.6,0.1,0.9,0.5,1.3
		C728,392.4,728.4,392.5,728.9,392.5z M738,381.4v2.5h1.7v1.3H738v6.3c0,0.4,0.1,0.7,0.2,0.9s0.4,0.3,0.8,0.3c0.1,0,0.4,0,0.7-0.1
		v1.4c-0.4,0.2-0.8,0.2-1.2,0.2c-0.7,0-1.2-0.2-1.6-0.7s-0.5-1.1-0.5-2v-6.3h-1.7v-1.3h1.7v-2.5H738z M745.9,394
		c-1.2,0-2.3-0.5-3.1-1.3c-0.8-0.9-1.2-2.1-1.2-3.6v-0.3c0-1,0.1-1.9,0.5-2.7s0.9-1.4,1.5-1.8c0.7-0.5,1.3-0.6,2-0.6
		c1.2,0,2.1,0.4,2.8,1.3c0.7,0.9,1,2.1,1,3.7v0.7h-6.2c0,0.9,0.3,1.8,0.8,2.4c0.5,0.6,1.2,0.9,2,0.9c0.6,0,1-0.2,1.4-0.4
		s0.7-0.6,1-0.9l0.9,0.8C748.6,393.4,747.4,394,745.9,394z M745.7,385c-0.7,0-1.2,0.2-1.6,0.8c-0.4,0.5-0.7,1.2-0.8,2.1h4.7v-0.2
		c-0.1-0.9-0.3-1.6-0.7-2.1C746.9,385.3,746.3,385,745.7,385z"/>
</g>
<g id="logo">
	<path class="st2" d="M819.8,171.7c0,2-0.3,3.7-0.9,5.2c-0.7,1.5-1.6,2.7-2.8,3.5s-2.6,1.2-4.1,1.2s-2.9-0.4-4.1-1.2s-2.2-2-2.8-3.5
		c-0.7-1.5-1-3.2-1-5.1v-1c0-2,0.4-3.7,1-5.2c0.7-1.5,1.6-2.7,2.8-3.5s2.6-1.2,4.1-1.2s2.9,0.4,4.1,1.2c1.2,0.8,2.1,2,2.8,3.5
		s1,3.2,1,5.2L819.8,171.7L819.8,171.7z M815.9,170.8c0-2.1-0.4-3.7-1-4.8c-0.7-1.1-1.7-1.7-3-1.7s-2.3,0.6-3,1.7s-1,2.7-1.1,4.7
		v0.9c0,2.1,0.4,3.6,1,4.8c0.7,1.1,1.7,1.7,3,1.7s2.3-0.6,3-1.7s1-2.7,1-4.8L815.9,170.8L815.9,170.8z M830.2,173.9h-3.1v7.4h-3.9
		V161h6.9c2.2,0,3.9,0.6,5.1,1.6c1.2,1,1.8,2.6,1.8,4.5c0,1.3-0.3,2.5-0.8,3.5c-0.6,0.9-1.4,1.7-2.5,2.2l4,8.3v0.2h-4.1L830.2,173.9
		z M827.2,170.5h3.1c0.9,0,1.7-0.2,2.3-0.8c0.5-0.6,0.8-1.3,0.8-2.2s-0.2-1.7-0.7-2.2c-0.5-0.6-1.2-0.8-2.3-0.8h-3.1L827.2,170.5
		L827.2,170.5z M855.5,178.8c-0.7,0.9-1.7,1.6-2.9,2.1s-2.7,0.7-4.2,0.7c-1.6,0-3.1-0.4-4.2-1.1c-1.2-0.8-2.2-1.9-2.8-3.3
		c-0.7-1.4-1-3.2-1-5.1v-1.3c0-2.1,0.3-3.8,0.9-5.2c0.7-1.5,1.5-2.6,2.7-3.4s2.5-1.2,4.1-1.2c2.2,0,3.9,0.6,5.2,1.7
		c1.2,1.1,2,2.8,2.2,5h-3.7c-0.1-1.2-0.6-2-1.2-2.5c-0.6-0.6-1.4-0.8-2.4-0.8c-1.3,0-2.3,0.6-3,1.6s-1,2.7-1,4.7v1.3
		c0,2.1,0.4,3.7,1.1,4.8c0.7,1.1,1.8,1.7,3.3,1.7s2.5-0.3,3.1-1V174h-3.5v-3.2h7.3L855.5,178.8L855.5,178.8z M869.9,177.2h-6.7
		l-1.3,4.2h-4l6.9-20.3h3.6l7,20.3h-4.1L869.9,177.2z M864.3,173.8h4.7l-2.3-7.6L864.3,173.8z M893,181.3h-3.9l-7.5-13.3v13.3h-3.9
		V161h3.9l7.5,13.4V161h3.9V181.3z M901.2,181.3h-3.9V161h3.9V181.3z M920.1,174.6c-0.1,2.2-0.9,3.9-2.3,5.1
		c-1.3,1.3-3.1,1.9-5.2,1.9c-2.4,0-4.3-0.9-5.7-2.6s-2-4.1-2-7.2v-1.3c0-2,0.3-3.6,0.9-5.1c0.7-1.5,1.5-2.6,2.7-3.4s2.5-1.2,4.1-1.2
		c2.1,0,3.9,0.6,5.2,1.9s2,3,2.3,5.3h-3.9c-0.1-1.3-0.4-2.2-1-2.8c-0.6-0.6-1.5-0.9-2.6-0.9c-1.3,0-2.3,0.5-2.9,1.5
		c-0.7,1-0.9,2.5-0.9,4.7v1.5c0,2.2,0.3,3.8,0.9,4.8c0.6,1,1.6,1.5,2.9,1.5c1.2,0,2-0.3,2.6-0.9s0.9-1.5,1-2.8H920.1L920.1,174.6z
		 M933.1,176c0-0.8-0.2-1.4-0.7-1.8s-1.5-0.9-2.8-1.3s-2.4-0.9-3.1-1.4c-2.1-1.3-3.2-2.9-3.2-5c0-1.1,0.3-2.1,0.9-2.9
		c0.6-0.9,1.4-1.5,2.5-2s2.3-0.7,3.6-0.7s2.5,0.2,3.6,0.8c1,0.6,1.8,1.3,2.4,2.2s0.9,2.1,0.9,3.2h-3.9c0-0.9-0.3-1.7-0.8-2.1
		c-0.5-0.6-1.3-0.8-2.3-0.8c-0.9,0-1.7,0.2-2.2,0.6s-0.8,1-0.8,1.7s0.3,1.2,0.9,1.7c0.6,0.5,1.5,0.9,2.7,1.3
		c2.2,0.7,3.8,1.6,4.7,2.7c1,1,1.5,2.4,1.5,4c0,1.7-0.6,3.2-1.8,4.1c-1.2,1-2.8,1.5-4.9,1.5c-1.5,0-2.8-0.3-3.9-0.9
		c-1.2-0.6-2-1.3-2.7-2.4c-0.6-1-0.9-2.1-0.9-3.5h3.9c0,2.2,1.2,3.3,3.7,3.3c0.9,0,1.6-0.2,2.1-0.6
		C932.8,177.3,933.1,176.7,933.1,176z M947.6,181.3V161h6.5c2.3,0,4,0.5,5.2,1.4s1.7,2.3,1.7,4.1c0,1-0.2,1.9-0.7,2.6
		c-0.4,0.7-1.1,1.3-2,1.7c0.9,0.2,1.7,0.8,2.3,1.6c0.6,0.8,0.8,1.7,0.8,2.9c0,2-0.6,3.4-1.7,4.4c-1.2,1-2.8,1.5-4.9,1.5L947.6,181.3
		L947.6,181.3z M951.5,172.5v5.5h3.3c0.9,0,1.6-0.2,2.1-0.7s0.8-1.1,0.8-2c0-1.8-0.9-2.8-2.6-2.8H951.5L951.5,172.5z M951.5,169.6
		h2.8c2,0,2.9-0.9,2.9-2.5c0-0.9-0.2-1.6-0.7-2s-1.2-0.6-2.3-0.6h-2.7V169.6L951.5,169.6z M968.9,178h8.1v3.3h-12V161h3.9V178z
		 M994.5,171.7c0,2-0.3,3.7-0.9,5.2c-0.7,1.5-1.6,2.7-2.8,3.5c-1.2,0.8-2.5,1.2-4.1,1.2c-1.5,0-2.9-0.4-4.1-1.2
		c-1.2-0.8-2.1-2-2.8-3.5c-0.7-1.5-1-3.2-1-5.1v-1c0-2,0.4-3.7,0.9-5.2c0.7-1.5,1.6-2.7,2.8-3.5s2.6-1.2,4.1-1.2s2.9,0.4,4.1,1.2
		s2.1,2,2.8,3.5c0.7,1.5,1,3.2,1,5.2V171.7z M990.6,170.8c0-2.1-0.4-3.7-1-4.8c-0.7-1.1-1.7-1.7-3-1.7s-2.3,0.6-3,1.7
		s-1.1,2.7-1.1,4.7v0.9c0,2.1,0.4,3.6,1,4.8c0.7,1.1,1.7,1.7,3.1,1.7c1.3,0,2.3-0.6,3-1.7s1-2.7,1-4.8V170.8z M998.1,181.3V161h6.5
		c2.3,0,4,0.5,5.2,1.4s1.7,2.3,1.7,4.1c0,1-0.2,1.9-0.7,2.6s-1.1,1.3-2,1.7c0.9,0.2,1.7,0.8,2.3,1.6s0.8,1.7,0.8,2.9
		c0,2-0.6,3.4-1.7,4.4c-1.2,1-2.8,1.5-4.9,1.5L998.1,181.3L998.1,181.3z M1001.9,172.5v5.5h3.3c0.9,0,1.6-0.2,2.1-0.7s0.8-1.1,0.8-2
		c0-1.8-0.9-2.8-2.6-2.8H1001.9L1001.9,172.5z M1001.9,169.6h2.8c2,0,2.9-0.9,2.9-2.5c0-0.9-0.2-1.6-0.7-2s-1.2-0.6-2.3-0.6h-2.7
		L1001.9,169.6L1001.9,169.6z M1025.2,176c0-0.8-0.2-1.4-0.8-1.8c-0.5-0.4-1.5-0.9-2.8-1.3s-2.4-0.9-3.1-1.4c-2.1-1.3-3.2-2.9-3.2-5
		c0-1.1,0.3-2.1,0.9-2.9c0.6-0.9,1.4-1.5,2.5-2s2.3-0.7,3.6-0.7c1.3,0,2.5,0.2,3.6,0.8c1,0.6,1.8,1.3,2.4,2.2
		c0.6,0.9,0.9,2.1,0.9,3.2h-3.9c0-0.9-0.3-1.7-0.8-2.1c-0.5-0.6-1.3-0.8-2.3-0.8c-0.9,0-1.7,0.2-2.2,0.6s-0.8,1-0.8,1.7
		s0.3,1.2,0.9,1.7s1.5,0.9,2.7,1.3c2.2,0.7,3.8,1.6,4.8,2.7c1,1,1.5,2.4,1.5,4c0,1.7-0.6,3.2-1.8,4.1c-1.2,1-2.8,1.5-4.9,1.5
		c-1.5,0-2.8-0.3-3.9-0.9c-1.2-0.6-2-1.3-2.7-2.4c-0.6-1-0.9-2.1-0.9-3.5h3.9c0,2.2,1.2,3.3,3.7,3.3c0.9,0,1.6-0.2,2.1-0.6
		C1025,177.3,1025.2,176.7,1025.2,176z"/>
	<path class="st3" d="M948.9,103.1c0,6.7-5.3,11.9-10.5,17.3c-5.1,5.4-9.7,10.9-18,13s-16-0.7-24.2-2.8c-8.3-2.1-16.7-3.3-21.7-8.8
		c-5-5.4-2.3-12-2.3-18.8c0-6.8-2.8-13.3,2.3-18.8c5.1-5.4,13.3-6.9,21.6-9.1c8.3-2.1,16.1-4.6,24.3-2.6c8.3,2.1,6.6,11.1,11.7,16.6
		C937.4,94.8,948.9,96.4,948.9,103.1z"/>
	<path class="st4" d="M941.2,75.5c0,5.7-4.1,10-8.2,14.6c-4,4.6-7.7,9.2-14.1,10.9c-6.5,1.8-12.6-0.6-19-2.4
		c-6.4-1.8-13.1-2.8-17.1-7.3c-4.1-4.6-1.8-10.1-1.8-15.8c0-5.7-2.2-11.3,1.8-15.8c4-4.6,10.5-5.8,17-7.7c6.5-1.8,12.6-3.9,19.2-2.2
		c6.5,1.8,5.2,9.3,9.2,14C932.1,68.5,941.2,69.8,941.2,75.5z"/>
	<path class="st0" d="M886.6,61h25.8c14.2,0,20.5,7.5,20.5,16.6c0,7.7-4.3,12.6-9.2,14.4c4.6,1.5,11.3,6.2,11.3,15.7
		c0,12.2-9.3,19.4-21.9,19.4h-26.5L886.6,61L886.6,61z M910.7,88.1c9,0,12.5-3.6,12.5-9.7c0-5.6-4-9.5-11.3-9.5H896v19.2
		C896.1,88.1,910.7,88.1,910.7,88.1z M896.2,119h15.5c8.1,0,13.4-3.8,13.4-11.6c0-6.8-4.3-11.3-14.7-11.3h-14.1L896.2,119z"/>
</g>
<g id="colors">
	<path class="st4" d="M965.4,533.7h6.9v3.2h-6.9v8.5h-3.2v-8.5h-6.9v-3.2h6.9v-7.9h3.2V533.7z"/>
	<ellipse class="st5" cx="964.1" cy="535.5" rx="30.2" ry="32.8"/>
	<path class="st6" d="M885.3,497.5L885.3,497.5c7.8,0,14.2,6.9,14.2,15.4v33.2c0,8.5-6.3,15.4-14.2,15.4l0,0
		c-7.8,0-14.2-6.9-14.2-15.4v-33.2C871.1,504.5,877.4,497.5,885.3,497.5z"/>
	<path class="st7" d="M822.8,497.5L822.8,497.5c7.8,0,14.2,6.9,14.2,15.4v33.2c0,8.5-6.3,15.4-14.2,15.4l0,0
		c-7.8,0-14.2-6.9-14.2-15.4v-33.2C808.6,504.5,814.9,497.5,822.8,497.5z"/>
	<path class="st8" d="M761,497.5L761,497.5c7.8,0,14.2,6.9,14.2,15.4v33.2c0,8.5-6.3,15.4-14.2,15.4l0,0c-7.8,0-14.2-6.9-14.2-15.4
		v-33.2C746.9,504.5,753.2,497.5,761,497.5z"/>
	<path class="st4" d="M702.2,497.5L702.2,497.5c7.8,0,14.2,6.9,14.2,15.4v33.2c0,8.5-6.3,15.4-14.2,15.4l0,0
		c-7.8,0-14.2-6.9-14.2-15.4v-33.2C688,504.5,694.3,497.5,702.2,497.5z"/>
	<rect x="770.1" y="445.3" class="st9" width="115.5" height="23"/>
	<path class="st2" d="M691.3,459.2c-0.1,1.4-0.7,2.5-1.5,3.3s-1.9,1.2-3.3,1.2c-1.5,0-2.6-0.6-3.6-1.7c-0.9-1.1-1.3-2.7-1.3-4.6
		v-1.3c0-1.3,0.2-2.4,0.6-3.3c0.4-0.9,1-1.7,1.7-2.2s1.6-0.8,2.6-0.8c1.3,0,2.4,0.4,3.2,1.2s1.2,1.9,1.4,3.3h-1.7
		c-0.1-1.1-0.4-1.8-0.9-2.4c-0.4-0.5-1.2-0.7-2-0.7c-1,0-1.9,0.4-2.5,1.3c-0.6,0.9-0.9,2.1-0.9,3.6v1.3c0,1.5,0.3,2.6,0.9,3.5
		s1.4,1.3,2.3,1.3c0.9,0,1.6-0.2,2.1-0.6c0.5-0.5,0.8-1.3,0.9-2.4L691.3,459.2L691.3,459.2z M693.4,458.4c0-0.9,0.1-1.9,0.5-2.7
		s0.9-1.4,1.5-1.8c0.7-0.4,1.4-0.6,2.2-0.6c1.2,0,2.3,0.5,3.1,1.4s1.2,2.2,1.2,3.8v0.2c0,0.9-0.1,1.8-0.5,2.6s-0.8,1.3-1.5,1.8
		c-0.7,0.4-1.4,0.6-2.2,0.6c-1.2,0-2.3-0.5-3.1-1.4s-1.2-2.2-1.2-3.7V458.4z M695,458.6c0,1.1,0.2,2,0.7,2.7s1.1,1,1.9,1
		s1.5-0.3,1.9-1s0.7-1.7,0.7-2.8s-0.2-2-0.7-2.7s-1.1-1-1.9-1s-1.4,0.3-1.9,1C695.2,456.4,695,457.3,695,458.6z M705.9,463.5h-1.6
		v-14.2h1.6V463.5z M708.6,458.4c0-0.9,0.1-1.9,0.5-2.7s0.9-1.4,1.5-1.8c0.7-0.4,1.4-0.6,2.2-0.6c1.2,0,2.3,0.5,3.1,1.4
		s1.2,2.2,1.2,3.8v0.2c0,0.9-0.1,1.8-0.5,2.6s-0.8,1.3-1.5,1.8c-0.7,0.4-1.4,0.6-2.2,0.6c-1.2,0-2.3-0.5-3.1-1.4s-1.2-2.2-1.2-3.7
		V458.4z M710.2,458.6c0,1.1,0.2,2,0.7,2.7s1.1,1,1.9,1s1.5-0.3,1.9-1s0.7-1.7,0.7-2.8s-0.2-2-0.7-2.7s-1.1-1-1.9-1s-1.4,0.3-1.9,1
		C710.4,456.4,710.2,457.3,710.2,458.6z M724,455c-0.2-0.1-0.5-0.1-0.8-0.1c-1,0-1.7,0.5-2.1,1.4v7.1h-1.6v-10.1h1.5v1.2
		c0.5-0.9,1.2-1.3,2.2-1.3c0.3,0,0.5,0.1,0.7,0.2L724,455L724,455z"/>
</g>
<g id="blob">
	<path class="st10" d="M562,365.4c-2.4,96.9-141.8,288.4-334.2,218.6c-197.3-71.6,43.3-205.7-52.3-296.7
		C67.2,184.3,159.3,32.2,304.1,57.5C427,79.1,564.5,262.2,562,365.4z"/>
	<path class="st4" d="M381.2,665.4c0.6,0.7,1.6,0.7,2.2,0l10-10.6c0.6-0.7,0.6-1.8,0-2.4c-0.6-0.7-1.6-0.7-2.2,0l-8.8,9.4l-8.8-9.4
		c-0.6-0.7-1.6-0.7-2.2,0c-0.6,0.7-0.6,1.8,0,2.4L381.2,665.4z M380.7,644.1v20h3.1v-20H380.7z"/>
	<ellipse class="st11" cx="382.3" cy="654.2" rx="26.1" ry="27.6"/>
	<ellipse class="st11" cx="252.8" cy="654.2" rx="26.1" ry="27.6"/>
	<path class="st12" d="M243.4,642.9h18.9c0.7,0,1.3,0.6,1.3,1.3v20c0,0.8-0.6,1.3-1.3,1.3h-18.9c-0.7,0-1.3-0.6-1.3-1.3v-20
		C242.1,643.5,242.7,642.9,243.4,642.9z"/>
	<ellipse class="st13" cx="247.8" cy="660.1" rx="1.3" ry="1.3"/>
	<ellipse class="st13" cx="258.4" cy="660.1" rx="1.3" ry="1.3"/>
	<ellipse class="st13" cx="258.4" cy="649.5" rx="1.3" ry="1.3"/>
	<ellipse class="st13" cx="247.8" cy="649.5" rx="1.3" ry="1.3"/>
</g>
<g id="complexity">
	<path class="st14" d="M914.7,290.6l4.3,15.7c0.1,0.2,0.3,0.4,0.5,0.4h14.1c0.5,0,0.7,0.6,0.3,0.9l-11.6,9.9
		c-0.1,0.1-0.2,0.3-0.2,0.5l4.4,15.9c0.1,0.5-0.4,0.8-0.8,0.5l-11.3-9.7c-0.2-0.2-0.5-0.2-0.6,0l-11.3,9.7c-0.4,0.3-0.9,0-0.8-0.5
		l4.4-15.9c0.1-0.2,0-0.4-0.2-0.5l-11.6-9.9c-0.3-0.3-0.1-0.9,0.3-0.9H909c0.2,0,0.4-0.1,0.5-0.4l4.3-15.7
		C913.9,290.1,914.6,290.1,914.7,290.6z"/>
	<path class="st14" d="M714.7,298l17.2,36.2c0.3,0.7-0.2,1.5-1,1.5h-34.4c-0.8,0-1.3-0.8-1-1.5l17.2-36.2
		C713.2,297.2,714.3,297.2,714.7,298z"/>
	<ellipse class="st15" cx="759.5" cy="323.6" rx="9.4" ry="10.3"/>
	<path class="st4" d="M746.4,322c0-0.9,0.7-1.6,1.5-1.6h136.6c0.8,0,1.5,0.7,1.5,1.6v3.2c0,0.9-0.7,1.6-1.5,1.6H747.8
		c-0.8,0-1.5-0.7-1.5-1.6L746.4,322L746.4,322z"/>
	<path class="st2" d="M683.9,279.3v-13.5h4.1c1.4,0,2.3,0.3,3.1,0.9c0.7,0.6,1,1.5,1,2.7c0,0.6-0.1,1.2-0.5,1.7s-0.8,0.9-1.4,1.1
		c0.7,0.2,1.2,0.6,1.6,1.2c0.4,0.6,0.6,1.3,0.6,2.1c0,1.2-0.4,2.1-1.1,2.8c-0.7,0.7-1.7,1-3.1,1L683.9,279.3L683.9,279.3z
		 M685.5,273v4.8h2.7c0.7,0,1.4-0.2,1.8-0.6s0.7-1,0.7-1.7c0-1.7-0.8-2.5-2.5-2.5L685.5,273L685.5,273z M685.5,271.5h2.5
		c0.7,0,1.3-0.2,1.7-0.6s0.7-0.9,0.7-1.6s-0.2-1.3-0.6-1.6c-0.4-0.3-1-0.5-1.8-0.5h-2.4L685.5,271.5L685.5,271.5z M696.7,279.3h-1.6
		v-14.2h1.6V279.3z M699.4,274.2c0-0.9,0.1-1.9,0.5-2.7s0.9-1.4,1.5-1.8c0.7-0.4,1.4-0.6,2.2-0.6c1.2,0,2.3,0.5,3.1,1.4
		s1.2,2.2,1.2,3.8v0.2c0,0.9-0.1,1.8-0.5,2.6s-0.8,1.3-1.5,1.8c-0.7,0.4-1.4,0.6-2.2,0.6c-1.2,0-2.3-0.5-3.1-1.4s-1.2-2.2-1.2-3.7
		V274.2z M701,274.4c0,1.1,0.2,2,0.7,2.7s1.1,1,1.9,1s1.5-0.3,1.9-1s0.7-1.7,0.7-2.8c0-1.1-0.2-2-0.7-2.7s-1.1-1-1.9-1
		s-1.4,0.3-1.9,1C701.2,272.1,701,273.1,701,274.4z M718,274.4c0,1.5-0.3,2.8-0.9,3.7c-0.7,0.9-1.5,1.4-2.6,1.4
		c-1.2,0-2-0.5-2.7-1.3l-0.1,1.2h-1.5v-14.3h1.6v5.3c0.7-0.9,1.5-1.3,2.6-1.3s2,0.5,2.6,1.3C717.7,271.4,718,272.7,718,274.4
		L718,274.4z M716.4,274.2c0-1.2-0.2-2.1-0.7-2.7c-0.4-0.6-1-0.9-1.8-0.9c-1,0-1.8,0.6-2.3,1.6v4.4c0.5,1,1.2,1.6,2.3,1.6
		c0.7,0,1.3-0.3,1.7-0.9C716.2,276.4,716.4,275.5,716.4,274.2z M729.1,278.1c0.6,0,1-0.2,1.5-0.6c0.4-0.4,0.7-0.9,0.7-1.4h1.5
		c0,0.6-0.2,1.1-0.6,1.7c-0.4,0.6-0.8,0.9-1.4,1.3c-0.6,0.3-1.2,0.5-1.7,0.5c-1.2,0-2.3-0.5-3-1.3c-0.7-0.9-1.1-2.1-1.1-3.7v-0.5
		c0-0.9,0.1-1.8,0.5-2.6s0.8-1.3,1.4-1.7c0.7-0.4,1.4-0.6,2.2-0.6c1,0,1.9,0.3,2.5,1c0.7,0.7,1,1.6,1.1,2.6h-1.5
		c-0.1-0.6-0.3-1.2-0.7-1.6s-0.9-0.6-1.5-0.6c-0.8,0-1.5,0.3-1.9,0.9s-0.7,1.5-0.7,2.7v0.3c0,1.2,0.2,2.1,0.7,2.7
		S728.3,278.1,729.1,278.1z M734.6,274.2c0-0.9,0.1-1.9,0.5-2.7s0.9-1.4,1.5-1.8c0.7-0.4,1.4-0.6,2.2-0.6c1.2,0,2.3,0.5,3.1,1.4
		s1.2,2.2,1.2,3.8v0.2c0,0.9-0.1,1.8-0.5,2.6s-0.8,1.3-1.5,1.8c-0.7,0.4-1.4,0.6-2.2,0.6c-1.2,0-2.3-0.5-3.1-1.4s-1.2-2.2-1.2-3.7
		V274.2z M736.2,274.4c0,1.1,0.2,2,0.7,2.7s1.1,1,1.9,1s1.5-0.3,1.9-1s0.7-1.7,0.7-2.8c0-1.1-0.2-2-0.7-2.7s-1.1-1-1.9-1
		s-1.4,0.3-1.9,1C736.5,272.1,736.2,273.1,736.2,274.4z M747,269.3l0.1,1.1c0.7-0.9,1.6-1.3,2.8-1.3c1.3,0,2.2,0.6,2.6,1.6
		c0.3-0.5,0.7-0.9,1.2-1.2c0.5-0.3,1.1-0.5,1.7-0.5c2,0,3.1,1.2,3.1,3.5v6.7h-1.6v-6.6c0-0.7-0.1-1.3-0.4-1.6
		c-0.3-0.4-0.8-0.6-1.5-0.6c-0.6,0-1.1,0.2-1.5,0.6s-0.6,0.9-0.7,1.5v6.6h-1.6v-6.6c0-1.4-0.7-2.2-2-2.2c-1,0-1.7,0.5-2.1,1.4v7.4
		h-1.6V269L747,269.3L747,269.3z M769.1,274.4c0,1.5-0.3,2.8-0.9,3.7c-0.7,0.9-1.5,1.4-2.6,1.4s-2-0.4-2.6-1.2v4.8h-1.6v-13.9h1.5
		l0.1,1.1c0.7-0.9,1.5-1.3,2.7-1.3c1.1,0,2,0.5,2.6,1.3c0.7,0.9,0.9,2.1,0.9,3.8v0.3H769.1z M767.5,274.2c0-1.1-0.2-2.1-0.7-2.7
		c-0.4-0.6-1-0.9-1.8-0.9c-0.9,0-1.7,0.5-2.2,1.3v4.8c0.4,0.9,1.2,1.3,2.2,1.3c0.7,0,1.4-0.3,1.8-0.9
		C767.3,276.4,767.5,275.5,767.5,274.2z M773.3,279.3h-1.6v-14.2h1.6V279.3z M780.2,279.5c-1.2,0-2.3-0.5-3.1-1.3
		c-0.8-0.9-1.2-2.1-1.2-3.6v-0.3c0-1,0.1-1.9,0.5-2.7s0.9-1.4,1.5-1.8c0.7-0.5,1.3-0.6,2-0.6c1.2,0,2.1,0.4,2.8,1.3s1,2.1,1,3.7v0.7
		h-6.2c0,0.9,0.3,1.8,0.8,2.4c0.5,0.6,1.2,0.9,2,0.9c0.6,0,1-0.2,1.4-0.4s0.7-0.6,1-0.9l0.9,0.8
		C782.9,278.9,781.8,279.5,780.2,279.5z M780,270.5c-0.7,0-1.2,0.2-1.6,0.8c-0.4,0.5-0.7,1.2-0.8,2.1h4.7v-0.2
		c-0.1-0.9-0.3-1.6-0.7-2.1C781.3,270.7,780.7,270.5,780,270.5z M789.2,272.9l2-3.6h1.8l-3.1,5l3.1,5.1h-1.8l-2.1-3.7l-2.1,3.7h-1.8
		l3.1-5.1l-3.1-5h1.8L789.2,272.9z M797.1,279.3h-1.6v-10.1h1.6V279.3z M795.3,266.6c0-0.3,0.1-0.5,0.2-0.7c0.1-0.2,0.4-0.3,0.7-0.3
		s0.5,0.1,0.7,0.3c0.1,0.2,0.2,0.4,0.2,0.7c0,0.3-0.1,0.5-0.2,0.7c-0.1,0.2-0.4,0.3-0.7,0.3s-0.5-0.1-0.7-0.3
		C795.4,267.1,795.3,266.8,795.3,266.6z M802.3,266.8v2.5h1.7v1.3h-1.7v6.3c0,0.4,0.1,0.7,0.2,0.9c0.1,0.2,0.4,0.3,0.8,0.3
		c0.1,0,0.4,0,0.7-0.1v1.4c-0.4,0.2-0.8,0.2-1.2,0.2c-0.7,0-1.2-0.2-1.6-0.7c-0.4-0.5-0.5-1.1-0.5-2v-6.3H799v-1.3h1.7v-2.5
		L802.3,266.8L802.3,266.8z M809.4,276.8l2.2-7.5h1.7l-3.7,11.6c-0.6,1.7-1.5,2.5-2.8,2.5h-0.3l-0.6-0.2v-1.4h0.4
		c0.5,0,0.9-0.1,1.2-0.3s0.6-0.6,0.7-1.3l0.4-1l-3.3-9.9h1.7L809.4,276.8z"/>
</g>
</svg>
