<?xml version="1.0" encoding="utf-8"?>
<!-- Generator: Adobe Illustrator 25.1.0, SVG Export Plug-In . SVG Version: 6.00 Build 0)  -->
<svg version="1.1" id="Layer_1" xmlns="http://www.w3.org/2000/svg" xmlns:xlink="http://www.w3.org/1999/xlink" x="0px" y="0px"
	 viewBox="0 0 1440 1024" style="enable-background:new 0 0 1440 1024;" xml:space="preserve">
<style type="text/css">
	.st0{fill:#FFFFFF;}
	.st1{fill:#FDA47B;}
	.st2{fill:#A1D3B8;}
	.st3{fill:#343434;}
	.st4{fill:#FFFFFF;stroke:#343434;stroke-linejoin:round;}
	.st5{fill:#C4B1DA;}
	.st6{fill:#D3A2BD;}
	.st7{fill:#FCB594;}
	.st8{fill:none;stroke:#A1D3B8;stroke-width:3;}
	.st9{fill:none;stroke:#FCB594;stroke-width:4;}
	.st10{fill:#C4C4C4;}
	.st11{fill:#FFFFFF;stroke:#A1D3B8;stroke-width:2;}
	.st12{fill:#BC15B5;}
</style>
<rect x="-0.1" y="0.3" class="st0" width="1440" height="1024"/>
<path class="st1" d="M1213.2,161.7c0,15.3-12.3,27-24.3,39.3c-12,12.3-22.6,24.9-41.9,29.6c-19.2,4.7-37.1-1.7-56.3-6.5
	c-19.2-4.8-38.8-7.6-50.5-19.9s-5.3-27.3-5.3-42.7s-6.6-30.2,5.3-42.7c11.9-12.4,31-15.8,50.4-20.6c19.2-4.8,37.5-10.4,56.6-5.8
	c19.2,4.8,15.4,25.3,27.3,37.7C1186.3,142.7,1213.2,146.4,1213.2,161.7z"/>
<path class="st2" d="M1195.2,99c0,12.9-9.7,22.7-19.1,33.2c-9.4,10.4-17.9,21-32.9,24.9c-15.2,4-29.3-1.4-44.3-5.4
	c-15-4-30.4-6.3-39.9-16.7c-9.5-10.4-4.2-23-4.2-35.9s-5.2-25.6,4.1-36c9.4-10.4,24.4-13.3,39.6-17.4c15.2-4,29.5-8.8,44.6-4.9
	c15.2,4,12.1,21.2,21.5,31.8C1174,83.1,1195.2,86,1195.2,99z"/>
<path class="st0" d="M1068.1,65.9h60c33.1,0,47.8,17.1,47.8,37.7c0,17.4-10,28.6-21.4,32.7c10.6,3.4,26.3,14,26.3,35.6
	c0,27.8-21.6,44.1-51.1,44.1h-61.6V65.9z M1124.2,127.7c20.9,0,29.1-8.2,29.1-22c0-12.8-9.4-21.6-26.4-21.6h-36.7v43.7
	C1090.2,127.7,1124.2,127.7,1124.2,127.7z M1090.3,197.9h36.1c18.9,0,31.1-8.6,31.1-26.3c0-15.6-10.1-25.8-34.3-25.8h-32.9
	L1090.3,197.9z"/>
<path class="st3" d="M1000.2,275.1c0,2.5-0.4,4.7-1.3,6.6c-0.9,1.9-2.2,3.4-3.8,4.4c-1.7,1-3.6,1.5-5.7,1.5c-2.1,0-4-0.5-5.7-1.5
	c-1.7-1-3-2.5-3.9-4.4c-0.9-1.9-1.4-4.1-1.4-6.5V274c0-2.5,0.5-4.7,1.4-6.6c0.9-1.9,2.2-3.4,3.9-4.4c1.7-1,3.6-1.5,5.7-1.5
	c2.1,0,4,0.5,5.7,1.5c1.7,1,2.9,2.5,3.8,4.4c0.9,1.9,1.4,4.1,1.4,6.6V275.1z M994.9,274c0-2.7-0.5-4.7-1.4-6.1
	c-1-1.4-2.3-2.1-4.1-2.1c-1.8,0-3.1,0.7-4.1,2.1c-1,1.4-1.4,3.4-1.5,6v1.2c0,2.6,0.5,4.6,1.4,6.1c1,1.4,2.3,2.2,4.1,2.2
	c1.8,0,3.1-0.7,4.1-2.1c1-1.4,1.4-3.4,1.4-6.1V274z M1014.6,278h-4.2v9.4h-5.3v-25.6h9.5c3,0,5.4,0.7,7,2c1.6,1.3,2.5,3.3,2.5,5.7
	c0,1.7-0.4,3.2-1.1,4.4c-0.8,1.2-1.9,2.1-3.4,2.8l5.5,10.5v0.2h-5.7L1014.6,278z M1010.4,273.7h4.3c1.3,0,2.3-0.3,3.1-1
	c0.7-0.7,1.1-1.6,1.1-2.8c0-1.2-0.3-2.2-1-2.8c-0.7-0.7-1.7-1-3.2-1h-4.2V273.7z M1049.4,284.1c-1,1.1-2.3,2-4,2.7
	c-1.7,0.6-3.7,0.9-5.8,0.9c-2.2,0-4.2-0.5-5.8-1.4c-1.7-1-3-2.4-3.9-4.2c-0.9-1.8-1.4-4-1.4-6.5v-1.7c0-2.6,0.4-4.8,1.3-6.6
	c0.9-1.9,2.1-3.3,3.7-4.3c1.6-1,3.5-1.5,5.7-1.5c3,0,5.4,0.7,7.1,2.2c1.7,1.4,2.7,3.5,3,6.3h-5.1c-0.2-1.5-0.8-2.5-1.6-3.2
	c-0.8-0.7-1.9-1-3.3-1c-1.8,0-3.2,0.7-4.1,2c-0.9,1.3-1.4,3.4-1.4,6v1.6c0,2.7,0.5,4.7,1.5,6.1c1,1.4,2.5,2.1,4.5,2.1
	c2,0,3.4-0.4,4.2-1.3v-4.4h-4.8v-3.9h10.1V284.1z M1069.2,282.1h-9.2l-1.8,5.3h-5.6l9.5-25.6h4.9l9.6,25.6h-5.6L1069.2,282.1z
	 M1061.4,277.8h6.4l-3.2-9.6L1061.4,277.8z M1100.9,287.3h-5.3l-10.3-16.8v16.8h-5.3v-25.6h5.3l10.3,16.9v-16.9h5.3V287.3z
	 M1112.2,287.3h-5.3v-25.6h5.3V287.3z M1138.3,278.8c-0.2,2.8-1.2,4.9-3.1,6.5c-1.8,1.6-4.2,2.4-7.2,2.4c-3.3,0-5.9-1.1-7.8-3.3
	c-1.9-2.2-2.8-5.2-2.8-9.1v-1.6c0-2.5,0.4-4.6,1.3-6.5s2.1-3.3,3.7-4.3c1.6-1,3.5-1.5,5.6-1.5c2.9,0,5.3,0.8,7.1,2.4
	c1.8,1.6,2.8,3.8,3.1,6.7h-5.3c-0.1-1.7-0.6-2.8-1.4-3.6c-0.8-0.8-2-1.1-3.6-1.1c-1.8,0-3.1,0.6-4,1.9c-0.9,1.3-1.3,3.2-1.3,5.9v1.9
	c0,2.8,0.4,4.8,1.2,6.1c0.8,1.3,2.2,1.9,4,1.9c1.6,0,2.8-0.4,3.6-1.1c0.8-0.8,1.3-1.9,1.4-3.5H1138.3z M1156.1,280.6
	c0-1-0.3-1.8-1-2.3c-0.7-0.5-2-1.1-3.8-1.7c-1.8-0.6-3.3-1.2-4.3-1.8c-2.9-1.6-4.4-3.7-4.4-6.3c0-1.4,0.4-2.6,1.2-3.7
	c0.8-1.1,1.9-1.9,3.4-2.5c1.5-0.6,3.1-0.9,4.9-0.9c1.8,0,3.5,0.3,4.9,1c1.4,0.7,2.5,1.6,3.3,2.8c0.8,1.2,1.2,2.6,1.2,4.1h-5.3
	c0-1.2-0.4-2.1-1.1-2.7c-0.7-0.7-1.8-1-3.1-1c-1.3,0-2.3,0.3-3,0.8c-0.7,0.5-1.1,1.3-1.1,2.1c0,0.8,0.4,1.5,1.2,2.1
	c0.8,0.6,2.1,1.1,3.7,1.6c3,0.9,5.2,2,6.5,3.4c1.4,1.3,2.1,3,2.1,5c0,2.2-0.8,4-2.5,5.2c-1.7,1.3-3.9,1.9-6.8,1.9
	c-2,0-3.8-0.4-5.4-1.1c-1.6-0.7-2.8-1.7-3.7-3c-0.8-1.3-1.3-2.7-1.3-4.4h5.3c0,2.8,1.7,4.2,5.1,4.2c1.2,0,2.2-0.3,2.9-0.8
	C1155.7,282.2,1156.1,281.5,1156.1,280.6z M1176.1,287.3v-25.6h9c3.1,0,5.5,0.6,7.1,1.8c1.6,1.2,2.4,2.9,2.4,5.2
	c0,1.3-0.3,2.4-1,3.3c-0.6,0.9-1.5,1.6-2.7,2.1c1.3,0.3,2.3,1,3.1,2c0.8,1,1.1,2.2,1.1,3.7c0,2.5-0.8,4.3-2.3,5.6
	c-1.6,1.3-3.8,1.9-6.7,1.9H1176.1z M1181.4,276.2v6.9h4.5c1.2,0,2.2-0.3,2.9-0.9c0.7-0.6,1.1-1.4,1.1-2.5c0-2.3-1.2-3.5-3.6-3.6
	H1181.4z M1181.4,272.5h3.9c2.7,0,4-1.1,4-3.2c0-1.2-0.3-2-1-2.5c-0.7-0.5-1.7-0.8-3.2-0.8h-3.7V272.5z M1205.4,283.1h11.2v4.2
	h-16.5v-25.6h5.3V283.1z M1240.7,275.1c0,2.5-0.4,4.7-1.3,6.6c-0.9,1.9-2.2,3.4-3.8,4.4c-1.7,1-3.5,1.5-5.7,1.5
	c-2.1,0-4-0.5-5.7-1.5c-1.7-1-2.9-2.5-3.9-4.4c-0.9-1.9-1.4-4.1-1.4-6.5V274c0-2.5,0.5-4.7,1.3-6.6c0.9-1.9,2.2-3.4,3.9-4.4
	c1.7-1,3.6-1.5,5.7-1.5c2.1,0,4,0.5,5.7,1.5c1.7,1,2.9,2.5,3.8,4.4c0.9,1.9,1.4,4.1,1.4,6.6V275.1z M1235.3,274
	c0-2.7-0.5-4.7-1.4-6.1c-1-1.4-2.3-2.1-4.1-2.1c-1.8,0-3.1,0.7-4.1,2.1c-1,1.4-1.5,3.4-1.5,6v1.2c0,2.6,0.5,4.6,1.4,6.1
	c1,1.4,2.3,2.2,4.2,2.2c1.8,0,3.1-0.7,4.1-2.1c0.9-1.4,1.4-3.4,1.4-6.1V274z M1245.6,287.3v-25.6h9c3.1,0,5.5,0.6,7.1,1.8
	c1.6,1.2,2.4,2.9,2.4,5.2c0,1.3-0.3,2.4-1,3.3c-0.7,0.9-1.5,1.6-2.7,2.1c1.3,0.3,2.3,1,3.1,2c0.8,1,1.1,2.2,1.1,3.7
	c0,2.5-0.8,4.3-2.4,5.6c-1.6,1.3-3.8,1.9-6.7,1.9H1245.6z M1250.8,276.2v6.9h4.5c1.2,0,2.2-0.3,2.9-0.9c0.7-0.6,1.1-1.4,1.1-2.5
	c0-2.3-1.2-3.5-3.6-3.6H1250.8z M1250.8,272.5h3.9c2.7,0,4-1.1,4-3.2c0-1.2-0.3-2-1-2.5c-0.7-0.5-1.7-0.8-3.2-0.8h-3.7V272.5z
	 M1282.9,280.6c0-1-0.3-1.8-1.1-2.3c-0.7-0.5-2-1.1-3.8-1.7c-1.8-0.6-3.3-1.2-4.3-1.8c-2.9-1.6-4.4-3.7-4.4-6.3
	c0-1.4,0.4-2.6,1.2-3.7c0.8-1.1,1.9-1.9,3.4-2.5c1.5-0.6,3.1-0.9,4.9-0.9c1.8,0,3.4,0.3,4.9,1c1.4,0.7,2.5,1.6,3.3,2.8
	s1.2,2.6,1.2,4.1h-5.3c0-1.2-0.4-2.1-1.1-2.7c-0.7-0.7-1.8-1-3.1-1c-1.3,0-2.3,0.3-3,0.8c-0.7,0.5-1.1,1.3-1.1,2.1
	c0,0.8,0.4,1.5,1.2,2.1c0.8,0.6,2.1,1.1,3.7,1.6c3,0.9,5.2,2,6.6,3.4c1.4,1.3,2.1,3,2.1,5c0,2.2-0.8,4-2.5,5.2
	c-1.7,1.3-3.9,1.9-6.8,1.9c-2,0-3.8-0.4-5.4-1.1c-1.6-0.7-2.8-1.7-3.7-3c-0.8-1.3-1.3-2.7-1.3-4.4h5.3c0,2.8,1.7,4.2,5.1,4.2
	c1.2,0,2.2-0.3,2.9-0.8C1282.6,282.2,1282.9,281.5,1282.9,280.6z"/>
<path class="st3" d="M897.3,507.9h-7.1l-1.6,4.5h-2.3l6.5-17.1h2l6.5,17.1h-2.3L897.3,507.9z M890.8,506h5.8l-2.9-8L890.8,506z
	 M906,499.7l0.1,1.6c1-1.2,2.2-1.8,3.8-1.8c2.7,0,4,1.5,4.1,4.5v8.4h-2.2v-8.4c0-0.9-0.2-1.6-0.6-2c-0.4-0.4-1-0.7-1.9-0.7
	c-0.7,0-1.3,0.2-1.9,0.6s-0.9,0.9-1.2,1.5v9h-2.2v-12.7H906z M920.2,512.3h-2.2v-12.7h2.2V512.3z M917.9,496.3
	c0-0.4,0.1-0.6,0.3-0.9c0.2-0.2,0.5-0.4,1-0.4s0.7,0.1,1,0.4c0.2,0.2,0.3,0.5,0.3,0.9s-0.1,0.6-0.3,0.9s-0.5,0.4-1,0.4
	s-0.7-0.1-1-0.4C918,496.9,917.9,496.6,917.9,496.3z M926.5,499.7l0.1,1.4c0.9-1.1,2.2-1.6,3.8-1.6c1.8,0,3,0.7,3.6,2
	c0.4-0.6,1-1.1,1.6-1.5c0.7-0.4,1.5-0.6,2.4-0.6c2.8,0,4.2,1.5,4.2,4.4v8.5H940V504c0-0.9-0.2-1.6-0.6-2c-0.4-0.5-1.1-0.7-2.1-0.7
	c-0.8,0-1.5,0.2-2,0.7c-0.5,0.5-0.8,1.1-0.9,1.9v8.4h-2.2V504c0-1.8-0.9-2.8-2.7-2.8c-1.4,0-2.4,0.6-2.9,1.8v9.3h-2.2v-12.7H926.5z
	 M954,512.3c-0.1-0.2-0.2-0.7-0.3-1.3c-1,1-2.2,1.6-3.6,1.6c-1.2,0-2.3-0.4-3.1-1.1c-0.8-0.7-1.2-1.6-1.2-2.7c0-1.3,0.5-2.3,1.5-3.1
	c1-0.7,2.4-1.1,4.2-1.1h2.1v-1c0-0.8-0.2-1.4-0.7-1.8c-0.5-0.5-1.1-0.7-2-0.7c-0.8,0-1.4,0.2-1.9,0.6c-0.5,0.4-0.8,0.9-0.8,1.4h-2.2
	c0-0.6,0.2-1.2,0.7-1.8c0.5-0.6,1.1-1.1,1.8-1.4c0.8-0.3,1.6-0.5,2.5-0.5c1.5,0,2.6,0.4,3.4,1.1c0.8,0.7,1.3,1.7,1.3,3v5.8
	c0,1.2,0.1,2.1,0.4,2.8v0.2H954z M950.4,510.7c0.7,0,1.3-0.2,1.9-0.5c0.6-0.4,1.1-0.8,1.3-1.4v-2.6H952c-2.7,0-4,0.8-4,2.3
	c0,0.7,0.2,1.2,0.7,1.6C949.1,510.5,949.7,510.7,950.4,510.7z M962.9,496.6v3.1h2.4v1.7h-2.4v7.9c0,0.5,0.1,0.9,0.3,1.1
	c0.2,0.2,0.6,0.4,1.1,0.4c0.2,0,0.6,0,1-0.1v1.8c-0.6,0.2-1.1,0.2-1.7,0.2c-1,0-1.7-0.3-2.2-0.9c-0.5-0.6-0.7-1.4-0.7-2.5v-7.9h-2.3
	v-1.7h2.3v-3.1H962.9z M973.8,512.6c-1.7,0-3.1-0.6-4.2-1.7c-1.1-1.1-1.6-2.6-1.6-4.5v-0.4c0-1.3,0.2-2.4,0.7-3.4
	c0.5-1,1.2-1.8,2-2.3c0.9-0.6,1.8-0.8,2.8-0.8c1.6,0,2.9,0.5,3.8,1.6s1.4,2.6,1.4,4.7v0.9h-8.6c0,1.2,0.4,2.3,1.1,3
	c0.7,0.8,1.6,1.1,2.7,1.1c0.8,0,1.4-0.2,1.9-0.5c0.5-0.3,1-0.7,1.4-1.2l1.3,1C977.5,511.8,975.9,512.6,973.8,512.6z M973.5,501.2
	c-0.9,0-1.6,0.3-2.2,1c-0.6,0.6-1,1.5-1.1,2.7h6.4v-0.2c-0.1-1.1-0.4-2-0.9-2.6C975.2,501.5,974.4,501.2,973.5,501.2z"/>
<rect x="1008.9" y="494.3" class="st4" width="20" height="20"/>
<path class="st3" d="M900.4,599.9c-0.2,1.8-0.9,3.2-2,4.2c-1.1,1-2.6,1.5-4.5,1.5c-2,0-3.6-0.7-4.9-2.2c-1.2-1.4-1.8-3.4-1.8-5.8
	V596c0-1.6,0.3-3,0.8-4.2c0.6-1.2,1.4-2.1,2.4-2.8c1-0.6,2.2-1,3.6-1c1.8,0,3.3,0.5,4.4,1.5c1.1,1,1.7,2.4,1.9,4.2h-2.3
	c-0.2-1.4-0.6-2.3-1.3-3c-0.6-0.6-1.6-0.9-2.7-0.9c-1.4,0-2.6,0.5-3.4,1.6c-0.8,1.1-1.2,2.6-1.2,4.5v1.7c0,1.9,0.4,3.3,1.2,4.4
	c0.8,1.1,1.9,1.6,3.2,1.6c1.2,0,2.2-0.3,2.9-0.8c0.7-0.6,1.1-1.6,1.3-3H900.4z M903.3,598.9c0-1.2,0.2-2.4,0.7-3.4
	c0.5-1,1.2-1.8,2-2.3c0.9-0.5,1.9-0.8,3-0.8c1.7,0,3.1,0.6,4.2,1.8c1.1,1.2,1.6,2.8,1.6,4.8v0.2c0,1.2-0.2,2.3-0.7,3.3
	c-0.5,1-1.1,1.7-2,2.3c-0.9,0.5-1.9,0.8-3,0.8c-1.7,0-3.1-0.6-4.2-1.8c-1.1-1.2-1.6-2.8-1.6-4.7V598.9z M905.5,599.1
	c0,1.4,0.3,2.5,1,3.4c0.7,0.9,1.5,1.3,2.6,1.3c1.1,0,2-0.4,2.6-1.3c0.6-0.9,1-2.1,1-3.6c0-1.4-0.3-2.5-1-3.4
	c-0.7-0.9-1.5-1.3-2.6-1.3c-1.1,0-1.9,0.4-2.6,1.3C905.8,596.3,905.5,597.5,905.5,599.1z M920.6,605.3h-2.2v-18h2.2V605.3z
	 M924.3,598.9c0-1.2,0.2-2.4,0.7-3.4c0.5-1,1.2-1.8,2-2.3c0.9-0.5,1.9-0.8,3-0.8c1.7,0,3.1,0.6,4.2,1.8c1.1,1.2,1.6,2.8,1.6,4.8v0.2
	c0,1.2-0.2,2.3-0.7,3.3c-0.5,1-1.1,1.7-2,2.3c-0.9,0.5-1.9,0.8-3,0.8c-1.7,0-3.1-0.6-4.2-1.8c-1.1-1.2-1.6-2.8-1.6-4.7V598.9z
	 M926.5,599.1c0,1.4,0.3,2.5,1,3.4c0.7,0.9,1.5,1.3,2.6,1.3c1.1,0,2-0.4,2.6-1.3c0.6-0.9,1-2.1,1-3.6c0-1.4-0.3-2.5-1-3.4
	c-0.7-0.9-1.5-1.3-2.6-1.3c-1.1,0-1.9,0.4-2.6,1.3C926.8,596.3,926.5,597.5,926.5,599.1z M945.4,594.6c-0.3-0.1-0.7-0.1-1.1-0.1
	c-1.4,0-2.4,0.6-2.9,1.8v9h-2.2v-12.7h2.1l0,1.5c0.7-1.1,1.7-1.7,3-1.7c0.4,0,0.7,0.1,1,0.2V594.6z"/>
<rect x="1008.9" y="582.3" class="st4" width="159" height="29"/>
<path class="st2" d="M915.4,648.3L915.4,648.3c10.8,0,19.5,8.7,19.5,19.5v42c0,10.8-8.7,19.5-19.5,19.5l0,0
	c-10.8,0-19.5-8.7-19.5-19.5v-42C895.9,657.1,904.6,648.3,915.4,648.3z"/>
<path class="st5" d="M996.4,648.3L996.4,648.3c10.8,0,19.5,8.7,19.5,19.5v42c0,10.8-8.7,19.5-19.5,19.5l0,0
	c-10.8,0-19.5-8.7-19.5-19.5v-42C976.9,657.1,985.6,648.3,996.4,648.3z"/>
<path class="st6" d="M1081.4,648.3L1081.4,648.3c10.8,0,19.5,8.7,19.5,19.5v42c0,10.8-8.7,19.5-19.5,19.5l0,0
	c-10.8,0-19.5-8.7-19.5-19.5v-42C1061.9,657.1,1070.6,648.3,1081.4,648.3z"/>
<path class="st7" d="M1167.4,648.3L1167.4,648.3c10.8,0,19.5,8.7,19.5,19.5v42c0,10.8-8.7,19.5-19.5,19.5l0,0
	c-10.8,0-19.5-8.7-19.5-19.5v-42C1147.9,657.1,1156.6,648.3,1167.4,648.3z"/>
<circle class="st8" cx="1275.9" cy="696.3" r="41.5"/>
<path class="st2" d="M1277.6,694h9.5v4.1h-9.5v10.8h-4.4v-10.8h-9.5V694h9.5v-10h4.4V694z"/>
<path class="st3" d="M887.9,375.3v-17.1h5.6c1.9,0,3.2,0.4,4.2,1.1c0.9,0.8,1.4,1.9,1.4,3.4c0,0.8-0.2,1.5-0.7,2.1
	c-0.5,0.6-1.1,1.1-1.9,1.4c0.9,0.3,1.6,0.8,2.2,1.5c0.5,0.7,0.8,1.6,0.8,2.6c0,1.5-0.5,2.7-1.5,3.6c-1,0.9-2.4,1.3-4.2,1.3H887.9z
	 M890.1,367.4v6.1h3.7c1,0,1.9-0.3,2.5-0.8c0.6-0.5,0.9-1.3,0.9-2.2c0-2.1-1.1-3.1-3.4-3.1H890.1z M890.1,365.5h3.4
	c1,0,1.8-0.2,2.4-0.7c0.6-0.5,0.9-1.2,0.9-2c0-0.9-0.3-1.6-0.8-2c-0.5-0.4-1.4-0.6-2.5-0.6h-3.3V365.5z M905.6,375.3h-2.2v-18h2.2
	V375.3z M909.2,368.9c0-1.2,0.2-2.4,0.7-3.4c0.5-1,1.2-1.8,2-2.3c0.9-0.5,1.9-0.8,3-0.8c1.7,0,3.1,0.6,4.2,1.8
	c1.1,1.2,1.6,2.8,1.6,4.8v0.2c0,1.2-0.2,2.3-0.7,3.3c-0.5,1-1.1,1.7-2,2.3c-0.9,0.5-1.9,0.8-3,0.8c-1.7,0-3.1-0.6-4.2-1.8
	c-1.1-1.2-1.6-2.8-1.6-4.7V368.9z M911.4,369.1c0,1.4,0.3,2.5,1,3.4c0.7,0.9,1.5,1.3,2.6,1.3c1.1,0,2-0.4,2.6-1.3
	c0.6-0.9,1-2.1,1-3.6c0-1.4-0.3-2.5-1-3.4c-0.7-0.9-1.5-1.3-2.6-1.3c-1.1,0-1.9,0.4-2.6,1.3C911.7,366.3,911.4,367.5,911.4,369.1z
	 M934.9,369.1c0,1.9-0.4,3.5-1.3,4.7c-0.9,1.2-2.1,1.8-3.6,1.8c-1.6,0-2.8-0.6-3.7-1.7l-0.1,1.5h-2v-18h2.2v6.7
	c0.9-1.1,2.1-1.6,3.6-1.6s2.7,0.6,3.6,1.7c0.9,1.2,1.3,2.8,1.3,4.8V369.1z M932.7,368.9c0-1.5-0.3-2.6-0.9-3.4
	c-0.6-0.8-1.4-1.2-2.5-1.2c-1.4,0-2.5,0.7-3.1,2v5.5c0.7,1.3,1.7,2,3.1,2c1,0,1.8-0.4,2.4-1.2C932.4,371.7,932.7,370.5,932.7,368.9z
	 M950.1,373.8c0.8,0,1.4-0.2,2-0.7c0.6-0.5,0.9-1.1,1-1.8h2.1c0,0.7-0.3,1.4-0.8,2.1s-1.1,1.2-1.9,1.6c-0.8,0.4-1.6,0.6-2.4,0.6
	c-1.7,0-3.1-0.6-4.1-1.7c-1-1.2-1.5-2.7-1.5-4.7v-0.4c0-1.2,0.2-2.3,0.7-3.3s1.1-1.7,1.9-2.2c0.9-0.5,1.9-0.8,3-0.8
	c1.4,0,2.6,0.4,3.5,1.3c0.9,0.9,1.4,2,1.5,3.3h-2.1c-0.1-0.8-0.4-1.5-0.9-2c-0.6-0.5-1.2-0.8-2.1-0.8c-1.1,0-2,0.4-2.6,1.2
	c-0.6,0.8-0.9,1.9-0.9,3.4v0.4c0,1.5,0.3,2.6,0.9,3.4C948.1,373.4,949,373.8,950.1,373.8z M957.7,368.9c0-1.2,0.2-2.4,0.7-3.4
	c0.5-1,1.2-1.8,2-2.3c0.9-0.5,1.9-0.8,3-0.8c1.7,0,3.1,0.6,4.2,1.8c1.1,1.2,1.6,2.8,1.6,4.8v0.2c0,1.2-0.2,2.3-0.7,3.3
	c-0.5,1-1.1,1.7-2,2.3c-0.9,0.5-1.9,0.8-3,0.8c-1.7,0-3.1-0.6-4.2-1.8c-1.1-1.2-1.6-2.8-1.6-4.7V368.9z M959.9,369.1
	c0,1.4,0.3,2.5,1,3.4c0.7,0.9,1.5,1.3,2.6,1.3c1.1,0,2-0.4,2.6-1.3c0.6-0.9,1-2.1,1-3.6c0-1.4-0.3-2.5-1-3.4
	c-0.7-0.9-1.5-1.3-2.6-1.3c-1.1,0-1.9,0.4-2.6,1.3C960.3,366.3,959.9,367.5,959.9,369.1z M974.8,362.7l0.1,1.4
	c0.9-1.1,2.2-1.6,3.8-1.6c1.8,0,3,0.7,3.6,2c0.4-0.6,1-1.1,1.6-1.5c0.7-0.4,1.5-0.6,2.4-0.6c2.8,0,4.2,1.5,4.2,4.4v8.5h-2.2V367
	c0-0.9-0.2-1.6-0.6-2c-0.4-0.5-1.1-0.7-2.1-0.7c-0.8,0-1.5,0.2-2,0.7c-0.5,0.5-0.8,1.1-0.9,1.9v8.4h-2.2V367c0-1.8-0.9-2.8-2.7-2.8
	c-1.4,0-2.4,0.6-2.9,1.8v9.3h-2.2v-12.7H974.8z M1005.2,369.1c0,1.9-0.4,3.5-1.3,4.7s-2.1,1.8-3.6,1.8c-1.5,0-2.7-0.5-3.6-1.5v6.1
	h-2.2v-17.6h2l0.1,1.4c0.9-1.1,2.1-1.6,3.7-1.6c1.5,0,2.7,0.6,3.6,1.7c0.9,1.1,1.3,2.7,1.3,4.8V369.1z M1003,368.9
	c0-1.4-0.3-2.6-0.9-3.4c-0.6-0.8-1.4-1.2-2.5-1.2c-1.3,0-2.3,0.6-3,1.7v6.1c0.6,1.2,1.6,1.7,3,1.7c1,0,1.9-0.4,2.5-1.2
	C1002.7,371.7,1003,370.5,1003,368.9z M1011,375.3h-2.2v-18h2.2V375.3z M1020.5,375.6c-1.7,0-3.1-0.6-4.2-1.7
	c-1.1-1.1-1.6-2.6-1.6-4.5v-0.4c0-1.3,0.2-2.4,0.7-3.4c0.5-1,1.2-1.8,2-2.3c0.9-0.6,1.8-0.8,2.8-0.8c1.7,0,2.9,0.5,3.8,1.6
	c0.9,1.1,1.4,2.6,1.4,4.7v0.9h-8.6c0,1.2,0.4,2.3,1.1,3c0.7,0.8,1.6,1.1,2.7,1.1c0.8,0,1.4-0.2,1.9-0.5c0.5-0.3,1-0.7,1.4-1.2l1.3,1
	C1024.2,374.8,1022.6,375.6,1020.5,375.6z M1020.2,364.2c-0.9,0-1.6,0.3-2.2,1c-0.6,0.6-1,1.5-1.1,2.7h6.4v-0.2
	c-0.1-1.1-0.4-2-0.9-2.6C1021.9,364.5,1021.1,364.2,1020.2,364.2z M1032.9,367.3l2.8-4.6h2.5l-4.2,6.3l4.3,6.4h-2.5l-2.9-4.7
	l-2.9,4.7h-2.5l4.3-6.4l-4.2-6.3h2.5L1032.9,367.3z M1043.7,375.3h-2.2v-12.7h2.2V375.3z M1041.3,359.3c0-0.4,0.1-0.6,0.3-0.9
	c0.2-0.2,0.5-0.4,1-0.4c0.4,0,0.7,0.1,1,0.4c0.2,0.2,0.3,0.5,0.3,0.9s-0.1,0.6-0.3,0.9c-0.2,0.2-0.5,0.4-1,0.4c-0.4,0-0.7-0.1-1-0.4
	C1041.4,359.9,1041.3,359.6,1041.3,359.3z M1050.8,359.6v3.1h2.4v1.7h-2.4v7.9c0,0.5,0.1,0.9,0.3,1.1c0.2,0.2,0.6,0.4,1.1,0.4
	c0.2,0,0.6,0,1-0.1v1.8c-0.6,0.2-1.1,0.2-1.7,0.2c-1,0-1.7-0.3-2.2-0.9c-0.5-0.6-0.7-1.4-0.7-2.5v-7.9h-2.3v-1.7h2.3v-3.1H1050.8z
	 M1060.6,372.2l3-9.5h2.3l-5.1,14.6c-0.8,2.1-2,3.2-3.8,3.2l-0.4,0l-0.8-0.2v-1.8l0.6,0c0.7,0,1.3-0.1,1.7-0.4
	c0.4-0.3,0.8-0.8,1-1.6l0.5-1.3l-4.5-12.5h2.4L1060.6,372.2z"/>
<path class="st2" d="M973.9,429.3c0-1.1,0.9-2,2-2h188c1.1,0,2,0.9,2,2v4c0,1.1-0.9,2-2,2h-188c-1.1,0-2-0.9-2-2V429.3z"/>
<circle class="st9" cx="991.9" cy="431.3" r="13"/>
<path class="st10" d="M928.9,396.3l26,50.2h-52L928.9,396.3z"/>
<path class="st10" d="M1204.9,387.3l6.7,22.5h21.8l-17.6,13.9l6.7,22.5l-17.6-13.9l-17.6,13.9l6.7-22.5l-17.6-13.9h21.8
	L1204.9,387.3z"/>
<path class="st11" d="M287.9,835.3h30c1.1,0,2,0.9,2,2v30c0,1.1-0.9,2-2,2h-30c-1.1,0-2-0.9-2-2v-30
	C285.9,836.2,286.8,835.3,287.9,835.3z"/>
<circle class="st2" cx="294.9" cy="845.3" r="2"/>
<circle class="st2" cx="311.9" cy="845.3" r="2"/>
<circle class="st2" cx="311.9" cy="861.3" r="2"/>
<circle class="st2" cx="294.9" cy="861.3" r="2"/>
<circle class="st8" cx="302.9" cy="852.3" r="41.5"/>
<circle class="st8" cx="508.9" cy="852.3" r="41.5"/>
<path class="st2" d="M507.1,869.1c1,1,2.6,1,3.5,0l15.9-15.9c1-1,1-2.6,0-3.5c-1-1-2.6-1-3.5,0l-14.1,14.1l-14.1-14.1
	c-1-1-2.6-1-3.5,0c-1,1-1,2.6,0,3.5L507.1,869.1z M506.4,837.3v30h5v-30H506.4z"/>
<circle class="st12" cx="411.9" cy="446.3" r="342"/>
</svg>
