<?xml version="1.0" encoding="utf-8"?>
<!-- Generator: Adobe Illustrator 25.1.0, SVG Export Plug-In . SVG Version: 6.00 Build 0)  -->
<svg version="1.1" xmlns="http://www.w3.org/2000/svg" xmlns:xlink="http://www.w3.org/1999/xlink" x="0px" y="0px"
	 viewBox="0 0 1655.1 2212.9" style="enable-background:new 0 0 1655.1 2212.9;" xml:space="preserve">
<style type="text/css">
	.st0{display:none;fill:none;stroke:#000000;stroke-width:1.5;stroke-miterlimit:10;}
	.st1{display:none;fill:none;stroke:#000000;stroke-miterlimit:10;}
	.st2{fill:none;stroke:#1E1E1E;stroke-width:3;stroke-miterlimit:10;}
	.st3{fill:#1E1E1E;}
	.st4{fill:none;stroke:#000000;stroke-miterlimit:10;}
	.st5{fill:none;stroke:#000000;stroke-width:2;stroke-miterlimit:10;}
</style>
<g id="Layer_2">
	
		<rect x="409.1" y="818.1" transform="matrix(-1.836970e-16 1 -1 -1.836970e-16 1930.4811 270.3798)" class="st0" width="842" height="564.6"/>
	<path class="st1" d="M547.7,1490V710.8c0-17.3,14.1-31.4,31.4-31.4H1081c17.3,0,31.4,14.1,31.4,31.4V1490
		c0,17.3-14.1,31.4-31.4,31.4H579.1C561.8,1521.4,547.7,1507.4,547.7,1490z"/>
	<path class="st2" d="M84.8,2084.5v-1972c0-21,17-38,38-38h1460c21,0,38,17,38,38v1972c0,21-17,38-38,38h-1460
		C101.8,2122.5,84.8,2105.5,84.8,2084.5z"/>
	<path class="st2" d="M78.4,2073.5v-1950c0-17.3,14.1-31.4,31.4-31.4h1441.4c17.3,0,31.4,14.1,31.4,31.4v1950
		c0,17.3-14.1,31.4-31.4,31.4H109.8C92.5,2104.9,78.4,2090.9,78.4,2073.5z"/>
	<ellipse class="st3" cx="871.8" cy="150.4" rx="18.9" ry="17.7"/>
	<ellipse class="st3" cx="792" cy="150.8" rx="13.6" ry="12.7"/>
	<path class="st4" d="M1605.8,626.1v91.7c0,0.9-1.3,1.5-2.9,1.5l0,0c-1.6,0-2.9-0.7-2.9-1.5v-92.9c0-0.9,1.4-1.6,3-1.5l0.1,0
		C1604.5,623.3,1605.8,624.5,1605.8,626.1z"/>
	<path class="st4" d="M1606.1,772.1v218.3c0,2-1.3,3.7-2.9,3.7l0,0c-1.6,0-2.9-1.6-2.9-3.7V769.1c0-2.1,1.4-3.7,3-3.7l0.1,0
		C1604.8,765.5,1606.1,768.5,1606.1,772.1z"/>
	<path class="st5" d="M876.8,2059.4L876.8,2059.4c0,12.1-10.1,21.9-22.5,21.9h-99c-12.4,0-22.5-9.8-22.5-21.9v0
		c0-12.1,10.1-21.9,22.5-21.9h99C866.7,2037.5,876.8,2047.3,876.8,2059.4z"/>
</g>
<g id="Layer_1">
	<g>
		<defs>
			<path id="SVGID_1_" d="M258.9,205.5h1145.4c40.6,0,73.5,30.8,73.5,68.8v1664.3c0,38-32.9,68.8-73.5,68.8H258.9
				c-40.6,0-73.5-30.8-73.5-68.8V274.3C185.4,236.3,218.3,205.5,258.9,205.5z"/>
		</defs>
		<clipPath id="SVGID_2_">
			<use xlink:href="#SVGID_1_"  style="overflow:visible;"/>
		</clipPath>
		<g style="clip-path:url(#SVGID_2_);">
			
				<image style="overflow:visible;" width="484" height="781" xlink:href="../../../../../Downloads/blogTablettePortrait.png"  transform="matrix(2.6704 0 0 2.3071 185.3651 205.5105)">
			</image>
		</g>
	</g>
</g>
</svg>
