<svg id="Layer_1" data-name="Layer 1" xmlns="http://www.w3.org/2000/svg" viewBox="0 0 480.6 278.64"><defs><style>.cls-1{fill:#373d37;opacity:0.78;}.cls-2,.cls-3{fill:none;}.cls-2{stroke:#b7e4c7;stroke-miterlimit:10;stroke-width:2px;}</style></defs><rect class="cls-1" x="21.67" width="433.01" height="227.23" rx="11.76"/><rect class="cls-2" x="29.59" y="6.46" width="417.74" height="212.48" rx="11.76"/><path class="cls-1" d="M9.09,309.23a18.4,18.4,0,0,1-.5-2c-.33-3.1-.7-8.47-.29-8.51s480.05-1.18,480.16-1.12c.26.14.23,7.85.08,8.53-.26,1.18-1.66,2.37-2,2.76-.62.69-4.31,4.66-8.41,5.55L19.72,316.34C14.59,315.9,9.07,308.78,9.09,309.23Z" transform="translate(-8.05 -37.7)"/><path class="cls-3" d="M35,253.7c0,24.41-9.15,44.17-20.46,44.17" transform="translate(-8.05 -37.7)"/><path class="cls-3" d="M37.83,266v-1" transform="translate(-8.05 -37.7)"/><path class="cls-1" d="M458.84,262.86l-426.79,2c-.71,0-22.86,32.39-24,33.86-1,1.31,484.74-1.15,480.46-1.15" transform="translate(-8.05 -37.7)"/><path class="cls-2" d="M470.46,291l-447.12.65c-.51-1.31,14.15-21.59,15.78-21.59H451.76C453.28,270.06,471,290.34,470.46,291Z" transform="translate(-8.05 -37.7)"/><ellipse class="cls-2" cx="233.61" cy="18.14" rx="4.3" ry="4.38"/><line class="cls-2" x1="226.54" y1="266.06" x2="246.82" y2="266.06"/></svg>