<svg id="Layer_1" data-name="Layer 1" xmlns="http://www.w3.org/2000/svg" viewBox="0 0 380.59 294.29"><defs><style>.cls-1,.cls-2,.cls-3,.cls-4{fill:none;stroke:#ffc6bc;stroke-miterlimit:10;}.cls-1{stroke-width:8px;}.cls-3{stroke-width:3px;}.cls-4{stroke-width:5px;}</style></defs><rect class="cls-1" x="16.59" y="4" width="360" height="227.23" rx="11.76"/><path class="cls-2" d="M37.83,266v-1" transform="translate(-37.33 -27.94)"/><ellipse class="cls-3" cx="198.58" cy="19.98" rx="4.3" ry="4.38"/><line class="cls-4" x1="15.15" y1="193.74" x2="376.59" y2="194.46"/><path class="cls-4" d="M218.08,261.28c-1.68,28.08-5.88,35.28-26.88,44.64" transform="translate(-37.33 -27.94)"/><path class="cls-4" d="M303.28,306.58c.94,0,2.93,1.14,2.93,2.61l.06,6.57c0,2.92-1.62,3.86-3.55,3.86l-124,.11c-1.94,0-3.5-2.4-3.46-5.34l0-3.1c0-3.09,1.72-5.56,3.76-5.54l122.07.95Z" transform="translate(-37.33 -27.94)"/><path class="cls-4" d="M262.24,259.36c1.62,31.08,3.68,36.56,23.88,46.92" transform="translate(-37.33 -27.94)"/><line class="cls-4" x1="157.71" y1="205.98" x2="244.11" y2="205.98"/></svg>