<?xml version="1.0" encoding="utf-8"?>
<!-- Generator: Adobe Illustrator 25.1.0, SVG Export Plug-In . SVG Version: 6.00 Build 0)  -->
<svg version="1.1" id="Layer_1" xmlns="http://www.w3.org/2000/svg" xmlns:xlink="http://www.w3.org/1999/xlink" x="0px" y="0px"
	 viewBox="0 0 429 321.2" style="enable-background:new 0 0 429 321.2;" xml:space="preserve">
<style type="text/css">
	.st0{fill:none;stroke:#A9DDBA;stroke-width:6;stroke-miterlimit:10;}
	.st1{fill:none;stroke:#A9DDBA;stroke-miterlimit:10;}
	.st2{fill:none;stroke:#A9DDBA;stroke-width:2;stroke-miterlimit:10;}
	.st3{fill:none;stroke:#A9DDBA;stroke-width:3;stroke-miterlimit:10;}
</style>
<path class="st0" d="M45.4,31.9h336.5c6.5,0,11.8,5.3,11.8,11.8v203.7c0,6.5-5.3,11.8-11.8,11.8H45.4c-6.5,0-11.8-5.3-11.8-11.8
	V43.7C33.6,37.2,38.9,31.9,45.4,31.9z"/>
<path class="st1" d="M17.5,266v-1"/>
<ellipse class="st2" cx="215.6" cy="47.9" rx="4.3" ry="4.4"/>
<line class="st3" x1="32.2" y1="221.7" x2="393.6" y2="222.4"/>
<path class="st3" d="M197.8,261.3c-1.7,28.1-5.9,35.3-26.9,44.6"/>
<path class="st3" d="M283,306.6c0.9,0,2.9,1.1,2.9,2.6l0.1,6.6c0,2.9-1.6,3.9-3.5,3.9l-124,0.1c-1.9,0-3.5-2.4-3.5-5.3v-3.1
	c0-3.1,1.7-5.6,3.8-5.5l122.1,1L283,306.6z"/>
<path class="st3" d="M241,259.8c1.5,27.4,5.6,37.3,24.8,46.4"/>
<line class="st3" x1="174.7" y1="233.9" x2="261.1" y2="233.9"/>
</svg>
