<?xml version="1.0" encoding="utf-8"?>
<!-- Generator: Adobe Illustrator 25.1.0, SVG Export Plug-In . SVG Version: 6.00 Build 0)  -->
<svg version="1.1" id="Layer_1" xmlns="http://www.w3.org/2000/svg" xmlns:xlink="http://www.w3.org/1999/xlink" x="0px" y="0px"
	 viewBox="0 0 411.2 564.9" style="enable-background:new 0 0 411.2 564.9;" xml:space="preserve">
<style type="text/css">
	.st0{opacity:0.49;fill:#225E4A;enable-background:new    ;}
	.st1{fill:none;stroke:#262626;stroke-width:3;stroke-miterlimit:10;}
</style>
<g id="Layer_2_1_">
	<polygon class="st0" points="167.2,117.4 207.2,257.6 246.3,118 207.4,15 	"/>
	<path class="st0" d="M210,539c-19.4-273,79.9-456.9,99.7-452.6c0.6,0.1,79.2,113.5,75.8,114.6C255.5,242.9,212.3,571.8,210,539z"/>
	<path class="st0" d="M184.4,557.7"/>
	<path class="st0" d="M209.8,540.5c51.8-207.2,159.7-308.2,171.7-298.2c0.3,0.4,24.7,110.6,22.2,110.3
		C309.3,338.5,203.6,565.3,209.8,540.5z"/>
	<path class="st0" d="M209.1,538.6C157.5,350.2,61,251.5,35.9,243.7c-2.4-0.7-5,0.6-5.7,3c0,0.1-0.1,0.3-0.1,0.4
		c-3.8,18.3-21.2,107.8-19,107.4C105,338.6,215.8,563.2,209.1,538.6z"/>
	<path class="st0" d="M210.2,536.6c13.4-273.4-89.9-455-109.6-450.3c-0.6,0.1-76.7,115.2-73.3,116.2
		C158.2,241.6,208.6,569.4,210.2,536.6z"/>
</g>
<g id="Layer_1-2">
	<g id="losange">
		<polygon class="st1" points="160.3,122.9 200.3,263.1 239.4,123.5 200.5,20.5 		"/>
		<path class="st1" d="M203.1,544.5c-19.4-273,79.9-456.9,99.7-452.6c0.6,0.1,79.2,113.5,75.8,114.6
			C248.6,248.4,205.4,577.3,203.1,544.5z"/>
		<path class="st1" d="M168.9,564.6"/>
		<path class="st1" d="M203,545.9c51.8-207.2,159.7-308.1,171.6-298.1c0.3,0.4,24.7,110.6,22.2,110.3
			C302.5,344,196.8,570.8,203,545.9z"/>
		<path class="st1" d="M202.2,544C150.6,355.6,54.1,256.9,29,249.1c-2.4-0.7-5,0.6-5.7,3c0,0.1-0.1,0.3-0.1,0.4
			C19.4,270.8,2,360.3,4.2,359.9C98.1,344.1,209,568.7,202.2,544z"/>
		<path class="st1" d="M203.3,542.1c13.4-273.4-89.9-455-109.6-450.3C93.1,91.9,17,207,20.4,208C151.4,247,201.8,574.9,203.3,542.1z
			"/>
	</g>
</g>
</svg>
