<svg id="Layer_1" data-name="Layer 1" xmlns="http://www.w3.org/2000/svg" viewBox="0 0 401.25 534.86"><defs><style>.cls-1{fill:#225e4a;stroke:#000;stroke-width:0.75px;opacity:0.49;isolation:isolate;}.cls-1,.cls-2{stroke-miterlimit:10;}.cls-2{fill:none;stroke:#262626;stroke-width:2px;}</style></defs><g id="Layer_2" data-name="Layer 2"><polygon class="cls-1" points="164.19 103.44 204.19 243.64 243.29 104.04 204.39 1.04 164.19 103.44"/><path class="cls-1" d="M294.4,580.2c-19.4-273,79.9-456.9,99.7-452.6.6.1,79.2,113.5,75.8,114.6C339.9,284.1,296.7,613,294.4,580.2Z" transform="translate(-87.41 -55.16)"/><path class="cls-1" d="M268.8,598.9" transform="translate(-87.41 -55.16)"/><path class="cls-1" d="M294.2,581.7C346,374.5,453.9,273.5,465.9,283.5c.3.4,24.7,110.6,22.2,110.3C393.7,379.7,288,606.5,294.2,581.7Z" transform="translate(-87.41 -55.16)"/><path class="cls-1" d="M293.5,579.8C241.9,391.4,145.4,292.7,120.3,284.9a4.56,4.56,0,0,0-5.8,3.4c-3.8,18.3-21.2,107.8-19,107.4C189.4,379.8,300.2,604.4,293.5,579.8Z" transform="translate(-87.41 -55.16)"/><path class="cls-1" d="M294.6,577.8C308,304.4,204.7,122.8,185,127.5c-.6.1-76.7,115.2-73.3,116.2C242.6,282.8,293,610.6,294.6,577.8Z" transform="translate(-87.41 -55.16)"/></g><g id="Layer_1-2" data-name="Layer 1"><g id="losange"><polygon class="cls-2" points="157.29 108.94 197.29 249.14 236.39 109.54 197.49 6.54 157.29 108.94"/><path class="cls-2" d="M287.5,585.7c-19.4-273,79.9-456.9,99.7-452.6.6.1,79.2,113.5,75.8,114.6C333,289.6,289.8,618.5,287.5,585.7Z" transform="translate(-87.41 -55.16)"/><path class="cls-2" d="M253.3,605.8" transform="translate(-87.41 -55.16)"/><path class="cls-2" d="M287.4,587.1C339.2,379.9,447.1,279,459,289c.3.4,24.7,110.6,22.2,110.3C386.9,385.2,281.2,612,287.4,587.1Z" transform="translate(-87.41 -55.16)"/><path class="cls-2" d="M286.6,585.2C235,396.8,138.5,298.1,113.4,290.3a4.56,4.56,0,0,0-5.8,3.4c-3.8,18.3-21.2,107.8-19,107.4C182.5,385.3,293.4,609.9,286.6,585.2Z" transform="translate(-87.41 -55.16)"/><path class="cls-2" d="M287.7,583.3c13.4-273.4-89.9-455-109.6-450.3-.6.1-76.7,115.2-73.3,116.2C235.8,288.2,286.2,616.1,287.7,583.3Z" transform="translate(-87.41 -55.16)"/></g></g></svg>