<?xml version="1.0" encoding="utf-8"?>
<!-- Generator: Adobe Illustrator 25.1.0, SVG Export Plug-In . SVG Version: 6.00 Build 0)  -->
<svg version="1.1" id="Layer_1" xmlns="http://www.w3.org/2000/svg" xmlns:xlink="http://www.w3.org/1999/xlink" x="0px" y="0px"
	 viewBox="0 0 435 626.8" style="enable-background:new 0 0 435 626.8;" xml:space="preserve">
<style type="text/css">
	.st0{fill:#A9DDBA;}
</style>
<g>
	<g>
		<path class="st0" d="M135.5,493c-24.8-14-44-33.8-57.4-59.2c-13.4-25.4-20-54.8-19.5-88.1l1.5-128.8c0.4-33.3,7.5-62.6,21.6-87.8
			c13.9-25.3,33.5-44.7,58.7-58.4s54.1-20.4,87-20.1c32.8,0.3,61.6,7.4,86.5,21.5s44,33.8,57.4,59.2s20,54.8,19.5,88.1l-1.5,128.8
			c-0.4,33.3-7.5,62.6-21.6,87.8c-14,25.2-33.5,44.6-58.7,58.3c-25.2,13.7-54.1,20.4-87,20.1C189.3,514.2,160.5,507,135.5,493z
			 M274.2,439.3c14.9-8.3,26.4-20.2,34.8-35.7c8.2-15.5,12.5-33.4,12.7-53.8l1.5-133.1c0.2-20.4-3.6-38.4-11.5-54
			c-7.9-15.6-19.3-27.7-33.9-36.2c-14.7-8.6-31.7-12.9-51.1-13.1c-19.4-0.1-36.6,3.9-51.5,12.3c-14.9,8.3-26.4,20.2-34.8,35.7
			c-8.2,15.5-12.5,33.4-12.7,53.8l-1.5,133.1c-0.2,20.4,3.6,38.4,11.5,54c7.9,15.6,19.3,27.7,33.9,36.2
			c14.7,8.6,31.7,12.9,51.1,13.1C242.2,451.8,259.3,447.7,274.2,439.3z"/>
	</g>
</g>
<path class="st0" d="M407.3,581.9H35.5c-0.2,0-0.5-0.2-0.5-0.4v-49.7c0-0.2,0.2-0.4,0.5-0.4h371.9c0.2,0,0.5,0.2,0.5,0.4v49.7
	C407.8,581.7,407.5,581.9,407.3,581.9z"/>
</svg>
