<?xml version="1.0" encoding="utf-8"?>
<!-- Generator: Adobe Illustrator 25.1.0, SVG Export Plug-In . SVG Version: 6.00 Build 0)  -->
<svg version="1.1" id="Layer_1" xmlns="http://www.w3.org/2000/svg" xmlns:xlink="http://www.w3.org/1999/xlink" x="0px" y="0px"
	 viewBox="0 0 332.6 274.5" style="enable-background:new 0 0 332.6 274.5;" xml:space="preserve">
<style type="text/css">
	.st0{fill:none;stroke:#F6E056;stroke-miterlimit:10;}
	.st1{fill:none;stroke:#F6E056;stroke-width:6;stroke-miterlimit:10;}
	.st2{fill:none;stroke:#F6E056;stroke-width:2;stroke-miterlimit:10;}
	.st3{fill:none;stroke:#F6E056;stroke-width:3;stroke-miterlimit:10;}
	.st4{opacity:0.87;fill:none;stroke:#F6E056;stroke-width:4;stroke-miterlimit:10;enable-background:new    ;}
</style>
<ellipse class="st0" cx="250.2" cy="198.4" rx="1.8" ry="2.1"/>
<path class="st1" d="M54.6,22.3H311c5,0,9,4.1,9,9.2v159c0,5.1-4,9.2-9,9.2H54.6c-5,0-9-4.1-9-9.2v-159
	C45.6,26.4,49.6,22.3,54.6,22.3z"/>
<ellipse class="st2" cx="263.3" cy="24" rx="2.5" ry="2.4"/>
<line class="st3" x1="44.5" y1="170.4" x2="319.9" y2="171"/>
<path class="st3" d="M170.7,201.4c-1.3,21.9-4.5,27.6-20.5,34.8"/>
<path class="st3" d="M235.6,236.7c0.7,0,2.2,0.9,2.2,2l0.1,5.2c0,2.3-1.2,3-2.7,3l-94.5,0.1c-1.4,0-2.7-1.9-2.7-4.1v-2.4
	c0-2.4,1.3-4.4,2.9-4.3l93,0.8L235.6,236.7z"/>
<path class="st3" d="M203.6,200.2c1.1,21.4,4.3,29.1,18.9,36.2"/>
<line class="st3" x1="153.1" y1="180" x2="219" y2="180"/>
<path class="st0" d="M28.2,101.9h63.4c3.4,0,6.2,2.7,6.2,6.2l0,0v136.6c0,3.4-2.8,6.2-6.2,6.2H28.2c-3.4,0-6.2-2.7-6.2-6.2l0,0V108
	C22,104.6,24.8,101.9,28.2,101.9L28.2,101.9z"/>
<path class="st4" d="M23.5,97.2h72.1c3.7,0.1,6.6,2.9,6.5,6.3l0,0v146.2c0.1,3.4-2.8,6.2-6.5,6.3H23.5c-3.7-0.1-6.6-2.9-6.5-6.2
	V103.5C16.9,100.1,19.9,97.4,23.5,97.2L23.5,97.2z"/>
</svg>
