<?xml version="1.0" encoding="utf-8"?>
<!-- Generator: Adobe Illustrator 25.1.0, SVG Export Plug-In . SVG Version: 6.00 Build 0)  -->
<svg version="1.1" id="Layer_1" xmlns="http://www.w3.org/2000/svg" xmlns:xlink="http://www.w3.org/1999/xlink" x="0px" y="0px"
	 viewBox="0 0 135.6 246.5" style="enable-background:new 0 0 135.6 246.5;" xml:space="preserve">
<style type="text/css">
	.st0{opacity:0.87;fill:none;stroke:#A9DDBA;stroke-width:4;stroke-miterlimit:10;enable-background:new    ;}
	.st1{fill:none;stroke:#A9DDBA;stroke-miterlimit:10;}
</style>
<path class="st0" d="M13.1,18.5h90c4.6,0.1,8.2,3.9,8.1,8.6l0,0v199.4c0.1,4.6-3.5,8.4-8.1,8.6h-90c-4.6-0.1-8.2-3.9-8.1-8.5V27
	C4.9,22.4,8.6,18.7,13.1,18.5L13.1,18.5z"/>
<path class="st1" d="M19,24.8h79.1c4.3,0,7.8,3.7,7.8,8.4l0,0v186.3c0,4.6-3.5,8.4-7.8,8.4H19c-4.3,0-7.8-3.7-7.8-8.4l0,0V33.2
	C11.2,28.6,14.7,24.8,19,24.8L19,24.8z"/>
<ellipse class="st1" cx="59.8" cy="34.1" rx="1.9" ry="2.2"/>
</svg>
