<?xml version="1.0" encoding="utf-8"?>
<!-- Generator: Adobe Illustrator 25.0.1, SVG Export Plug-In . SVG Version: 6.00 Build 0)  -->
<svg version="1.1" id="Layer_1" xmlns="http://www.w3.org/2000/svg" xmlns:xlink="http://www.w3.org/1999/xlink" x="0px" y="0px"
	 viewBox="0 0 199.9 385.8" style="enable-background:new 0 0 199.9 385.8;" xml:space="preserve">
<style type="text/css">
	.st0{opacity:0.87;fill:none;stroke:#F4C01C;stroke-width:4;stroke-miterlimit:10;enable-background:new    ;}
	.st1{fill:none;stroke:#F4C01C;stroke-width:2;stroke-miterlimit:10;}
</style>
<path class="st0" d="M15.7,0.5h168.5c8.4,0,15.2,6.8,15.2,15.2V370c0,8.4-6.8,15.2-15.2,15.2H15.7c-8.4,0-15.2-6.8-15.2-15.2V15.7
	C0.5,7.3,7.3,0.5,15.7,0.5z"/>
<path class="st1" d="M22.8,7.9h154.3c8.4,0,15.2,6.8,15.2,15.2v338c0,8.4-6.8,15.2-15.2,15.2H22.8c-8.4,0-15.2-6.8-15.2-15.2v-338
	C7.6,14.7,14.4,7.9,22.8,7.9z"/>
<ellipse class="st1" cx="99.3" cy="23.7" rx="3.8" ry="4.4"/>
</svg>
