<svg id="Layer_1" data-name="Layer 1" xmlns="http://www.w3.org/2000/svg" viewBox="0 0 275.61 374.71"><defs><style>.cls-1{fill:#f4baba;}</style></defs><path class="cls-1" d="M446.82,537.18c19.12-4.42,57.36-38.24,35.37-72.88C461,430.84,430.87,398.17,434,358.67c2.35-29.42,22.05-57.62,15.1-86.31-5-20.56-22.47-35.39-39.46-48S374,199.54,353,199.33c-20.69-.2-38.79,14.92-53.91,34.36-41,47.39-106.66,162.31-74.31,282.9,16.38,61,48.53-76.47,67.65-58.83,26.76,24.7-22.62,111.75,16.18,113.24,38.23,1.47,37.14-53.33,60.29-57.35C402.71,507.76,407.48,546.26,446.82,537.18Z" transform="translate(-214.62 -197.83)"/><path class="cls-1" d="M447.22,538.62c8.68-2,16.63-7.6,23.16-13.49,8.07-7.28,14.86-16.5,18.06-27a41.3,41.3,0,0,0-4.34-33.63c-7.41-12.29-16.18-23.75-24.08-35.73-7.75-11.74-15.1-24-19.8-37.32a79.46,79.46,0,0,1-3.61-41c5.08-27.85,23.1-56.43,11.88-85.08-5-12.77-14.5-23.08-24.79-31.86C412.57,224,400.45,215,387.6,208c-12.5-6.83-27-11.78-41.41-9.7-13.1,1.9-24.56,9.57-34,18.49-5.36,5.06-9.88,10.73-14.63,16.34-2.78,3.29-5.51,6.6-8.16,10-6.18,8-12,16.2-17.44,24.67a383,383,0,0,0-33.32,64.46,334,334,0,0,0-21.54,80.5,269.74,269.74,0,0,0,2.76,89.58,167.91,167.91,0,0,0,4.6,18.51,36,36,0,0,0,3.46,7.89c1.92,3,4.88,5.69,8.73,4.9s6.69-4.13,8.93-7A102.1,102.1,0,0,0,254.8,512c6.49-12,12-24.48,18.64-36.41,2.58-4.66,5.29-9.43,8.8-13.46a17,17,0,0,1,4-3.57,4.42,4.42,0,0,1,3.1-.79,3.26,3.26,0,0,1,1.62.75,18.52,18.52,0,0,1,2.6,2.71,24.76,24.76,0,0,1,4.13,8.59c2.11,7.53,1.85,15.62,1.18,23.34-1.51,17.39-6.16,34.39-7.18,51.82-.37,6.33-.33,13.29,2.54,19.11,2.63,5.31,7.77,8,13.53,8.4a32.61,32.61,0,0,0,23.7-7.73c6.28-5.35,10.61-12.67,14.41-19.89,3.64-6.93,6.77-14.24,11.27-20.67a25.51,25.51,0,0,1,6.66-6.88c3.16-2,6.82-2.58,10.53-2.72,8.84-.34,16.54,3.12,23.63,8.1,6.77,4.75,13,10.33,20.63,13.76,9.14,4.12,19,4.4,28.65,2.2,1.88-.42,1.09-3.32-.8-2.89-9.77,2.21-19.62,1.66-28.6-3-7.3-3.79-13.38-9.39-20.2-13.92-7.12-4.72-15.08-7.66-23.73-7.23-3.81.19-7.64.74-11,2.71a25.31,25.31,0,0,0-6.93,6.4c-9.66,12.4-13.24,28.72-24.57,40a29.92,29.92,0,0,1-22.4,8.84c-5.53-.16-10.29-2.42-12.54-7.69C294,556,294.33,549.14,294.81,543c.65-8.45,2.16-16.8,3.56-25.14,1.46-8.69,2.93-17.4,3.6-26.19.57-7.57.65-15.48-1.44-22.84a27.82,27.82,0,0,0-4.15-8.83c-1.33-1.83-2.95-3.81-5.06-4.76-3.3-1.47-6.59.31-9.06,2.52-3.59,3.22-6.28,7.52-8.74,11.62-3.27,5.46-6.18,11.14-9,16.83-5.82,11.6-11.16,23.63-18.31,34.49-2.22,3.37-4.93,7.27-8.26,9.23a5.25,5.25,0,0,1-1.77.76,5.51,5.51,0,0,1-1.39.09,3.14,3.14,0,0,1-1.64-.66,7.38,7.38,0,0,1-1.62-1.52,22.4,22.4,0,0,1-3.22-6,106.53,106.53,0,0,1-4-14.25,253.45,253.45,0,0,1-6.35-45.62A290.44,290.44,0,0,1,227,377.24a359.33,359.33,0,0,1,27.73-73.33,366.82,366.82,0,0,1,34.38-55.54q4-5.25,8.18-10.32c4-4.75,7.78-9.62,12-14.13,9.15-9.74,20.24-18.71,33.48-21.91,14.07-3.41,28.79,1,41.29,7.53,12.9,6.72,25,15.65,36.11,25,10.38,8.66,20.37,18.87,25.38,31.68,5.31,13.58,3.69,28,0,41.76-3.82,14.27-9.51,28-12,42.65a81.62,81.62,0,0,0,3.12,39.8c8.78,26.57,27.24,48.53,42.29,71.67,3.54,5.44,6.54,11,7.75,17.42a37.27,37.27,0,0,1-.78,16.54c-2.85,10.47-9.56,19.62-17.52,26.84-6.18,5.62-13.74,10.91-22,12.87C444.55,536.18,445.34,539.07,447.22,538.62Z" transform="translate(-214.62 -197.83)"/></svg>