<svg id="Layer_1" data-name="Layer 1" xmlns="http://www.w3.org/2000/svg" viewBox="0 0 296.8 425.42"><defs><style>.cls-1{fill:#f4baba;}</style></defs><path class="cls-1" d="M110,440.41c-1-.24-58.32-17.28-73.44-79.92-5.63-23.33-.66-45,16.2-62.64,22.85-23.93,59.42,5.32,69.12-41S37.58,201.34,23.63,145.57c-1.08-4.32-13-33.48,31.32-46.44,28.29-8.28,94,10.8,101.52-7.56,5.71-13.86-42.12-42.12-10.8-61.56C190.52,2.17,237.91,39.32,253,58.76c41,47.39,57.62,108.84,61.74,171.31,4.15,63-19.75,120.46-67.58,161.74C210,423.89,154.31,450.13,110,440.41Z" transform="translate(-19.91 -18.55)"/><path class="cls-1" d="M110.43,439a44.71,44.71,0,0,1-7.15-2.62,114.61,114.61,0,0,1-16.69-8.81,111,111,0,0,1-39.42-42.67c-6-11.67-10.36-24.87-11.17-38a62.05,62.05,0,0,1,10.52-38.9c3.42-5,7.53-10.13,12.66-13.52A35.17,35.17,0,0,1,71,289.59c8.09-1.83,16.46-1.53,24.64-2.78,8-1.23,15.26-4.48,20.22-11.1a42.68,42.68,0,0,0,6.68-14.81,39.16,39.16,0,0,0,1.56-12.54c-1-15.25-13.55-26-25.16-34.2-15.16-10.73-31.77-19.29-46.34-30.87-7.12-5.67-13.83-12-19-19.59-4.29-6.26-6.82-12.92-8.94-20.15a35.66,35.66,0,0,1-1.55-14c.84-7.63,5.14-14.14,11.06-18.85C42.61,104,53.93,99.92,64.68,98.88c10.42-1,21-.29,31.42.45,10.75.77,21.5,1.83,32.28,2,7.72.13,16.58.24,23.66-3.31a11.87,11.87,0,0,0,5.73-5.71c1.14-2.65.66-5.53-.38-8.13C154.51,77,148.91,71,144.54,64.75c-4.18-6-9.44-13.84-7.82-21.58.9-4.31,3.88-7.72,7.35-10.28a60.16,60.16,0,0,1,19.1-9.06C188.22,16.76,214.23,27,234,42.35c8,6.18,14.63,13.38,21,21.13a222.91,222.91,0,0,1,24.62,37c13.83,26,22.68,54.35,28,83.24,5.18,28.35,8.16,57.87,4.4,86.57a188.66,188.66,0,0,1-27.15,75.67C270,369.59,250,389.6,227.07,405.49c-23.47,16.28-50.33,29.3-78.7,33.92-12.54,2-25.48,2.24-37.94-.45-1.88-.41-2.68,2.48-.8,2.89,27,5.83,55.25-1.09,80.06-11.93a228.65,228.65,0,0,0,71.3-49,195,195,0,0,0,43.85-68.86,200.11,200.11,0,0,0,11.43-82c-2-30-6.79-59.91-16.06-88.51-9.13-28.19-22.69-54.95-41.3-78.08-6.66-8.28-13.6-16-22-22.62a110.74,110.74,0,0,0-31.39-17.74c-12.26-4.34-25.5-5.88-38.32-3.35a66.71,66.71,0,0,0-19.89,7.49c-4.51,2.57-9,5.69-11.65,10.28-4.16,7.19-1.74,15.33,2.05,22.11,4.14,7.42,9.9,13.75,14.38,20.94,1.52,2.44,3.26,5.31,3.32,8.27a7,7,0,0,1-3.65,5.86,24,24,0,0,1-9.53,3,86.7,86.7,0,0,1-13.67.63c-11-.16-22-1.27-33-2-10.53-.74-21.23-1.47-31.75-.34A63.11,63.11,0,0,0,33,107.83c-6.37,4.84-11.25,11.53-12.64,19.53a36.5,36.5,0,0,0,1,15.79,73.71,73.71,0,0,0,7.48,18.76c9.76,16.29,25.95,27.53,41.65,37.54,7.87,5,15.89,9.81,23.62,15.05,6.7,4.54,13.33,9.46,18.67,15.61,4.5,5.18,7.86,11.46,8.27,18.41a38.59,38.59,0,0,1-1.94,13.3c-1.5,5.08-3.7,10.14-7.33,14.08-5.66,6.14-13.74,7.84-21.72,8.56-8.42.77-17.08.8-25.11,3.74-10.8,4-18.59,13.31-24.06,23.13A65.6,65.6,0,0,0,33.38,351C36.18,374.62,48,397.25,64.78,414a118.84,118.84,0,0,0,37.82,25.33,44.15,44.15,0,0,0,7,2.57C111.51,442.29,112.32,439.4,110.43,439Z" transform="translate(-19.91 -18.55)"/></svg>