<svg id="Layer_1" data-name="Layer 1" xmlns="http://www.w3.org/2000/svg" viewBox="0 0 272.86 401.93"><defs><style>.cls-1{fill:#f4baba;}</style></defs><path class="cls-1" d="M260.8,417.6a115.07,115.07,0,0,0,23.27-17c10.05-9.53,18.69-21.28,21.32-34.88C310,342.15,296,319.29,281.68,300c-23.61-31.82-51.32-66.12-48.17-105.62,2.35-29.42,22.05-57.62,15.11-86.31-5-20.56-22.47-35.39-39.46-48s-35.67-24.82-56.69-25C131.78,34.85,113.68,50,98.56,69.4c-41,47.39-57.62,108.83-61.74,171.31-4.15,63,21.14,129.59,72.52,166.37C152.79,438.18,214.92,443.1,260.8,417.6Z" transform="translate(-34.91 -33.56)"/><path class="cls-1" d="M261.56,418.89c15.91-8.9,31.23-21.68,39.91-38a51.88,51.88,0,0,0,6.28-26.15c-.31-9.18-3-18.07-6.78-26.38-7.91-17.39-20.46-32.15-31.62-47.49-10.79-14.83-21.28-30.31-28-47.5a94.21,94.21,0,0,1-6.33-26.08,86,86,0,0,1,2.3-27c4.25-18,12.34-35.11,14-53.67a56.15,56.15,0,0,0-3.64-26.23,70,70,0,0,0-13.64-20.78,151.45,151.45,0,0,0-19.81-17.54,241.05,241.05,0,0,0-23-16c-15.11-9-33.41-15.76-51.06-10.92-16.7,4.58-30,17.48-40.64,30.59C93.77,72.9,87.92,79.93,82.71,87.5a230.24,230.24,0,0,0-14.09,23.39,269,269,0,0,0-20,50.43,351.82,351.82,0,0,0-10.84,53.89c-2.18,17.42-3.56,35-2.41,52.55,2.18,33.12,12.1,66,29.85,94.13s43.49,51.18,74.74,63.3c31.46,12.2,67.48,13.9,99.63,3.3a129.13,129.13,0,0,0,22-9.6c1.69-.93.18-3.52-1.51-2.59-29.22,16.15-64.36,19.78-96.76,12.76a145.17,145.17,0,0,1-45.87-18.39,153.12,153.12,0,0,1-36.53-32.19c-20.77-25-34-55.78-39.73-87.62a206.28,206.28,0,0,1-2.91-49,393.32,393.32,0,0,1,6.8-53.3c7-35,19.52-69.14,39.71-98.76,5.1-7.48,10.84-14.36,16.49-21.41a121.65,121.65,0,0,1,18.48-18.93c6.36-5.1,13.6-9.35,21.51-11.47,8.4-2.25,17.21-1.65,25.56.57,17.82,4.76,33.46,16.31,47.78,27.52,13.17,10.29,26.4,22.59,31.63,39,5.61,17.58,0,35.75-5.34,52.63s-10.64,34-8.58,52c4.09,35.74,28.82,64.73,49.28,92.66,10.82,14.78,21.75,31.67,23.08,50.46s-8.91,34.8-22.14,47.16a115.36,115.36,0,0,1-22.46,16.31C258.36,417.24,259.87,419.84,261.56,418.89Z" transform="translate(-34.91 -33.56)"/></svg>