<svg id="Layer_1" data-name="Layer 1" xmlns="http://www.w3.org/2000/svg" viewBox="0 0 296.77 425.39"><defs><style>.cls-1{fill:#f4baba;}</style></defs><path class="cls-1" d="M246.52,477.64c1-.23,58.32-17.28,73.44-79.92,5.63-23.33.67-45-16.2-62.64-22.85-23.93-59.42,5.33-69.12-41S319,238.58,332.92,182.8c1.08-4.32,13-33.48-31.32-46.44-28.29-8.28-94,10.8-101.52-7.56-5.71-13.86,42.12-42.12,10.8-61.56C166,39.4,118.64,76.56,103.52,96,62.57,143.39,45.9,204.83,41.79,267.31c-4.16,63,19.74,120.45,67.57,161.73C146.54,461.13,202.24,487.36,246.52,477.64Z" transform="translate(-39.88 -55.78)"/><path class="cls-1" d="M246.92,479.09a47.87,47.87,0,0,0,7.68-2.85,117.11,117.11,0,0,0,16.88-8.89,114,114,0,0,0,40.12-43c6.09-11.63,10.48-24.6,11.75-37.69A65.09,65.09,0,0,0,315,347.46c-5.66-9.7-13.45-18.67-24.34-22.34-8-2.71-16.59-2.68-24.93-3.49-8.11-.79-16.14-2.78-21.64-9.23-3.51-4.12-5.58-9.32-7-14.48a36.78,36.78,0,0,1-1.58-12.8c1.28-15.41,15.83-25.94,27.57-33.84,15.77-10.61,32.7-19.58,47.15-32.05a83.35,83.35,0,0,0,18-21A74,74,0,0,0,335.29,180a35.67,35.67,0,0,0,.76-16.11c-1.63-8.1-6.84-14.73-13.44-19.5a63.93,63.93,0,0,0-30.94-11.28c-10.62-1-21.38-.23-32,.53-10.93.79-21.88,1.88-32.85,2a79.36,79.36,0,0,1-13.25-.75c-3.22-.51-6.67-1.3-9.36-3.24-5.46-3.95-2.26-10,.65-14.49,4.61-7.15,10.37-13.53,14.39-21.06,3.68-6.88,5.68-15.08,1.11-22.07-3-4.55-7.69-7.61-12.39-10.16a65.92,65.92,0,0,0-20.19-7.09c-25.07-4.33-50,6.65-69.17,22.15-8.3,6.7-15.21,14.56-21.82,22.89a228.11,228.11,0,0,0-24.07,37.36c-13.65,26.5-22.31,55.35-27.36,84.67-4.92,28.58-7.6,58.05-3.42,86.88A191.35,191.35,0,0,0,70.4,386.76c15.29,23.68,35.7,43.61,58.92,59.49,23.73,16.22,51,29.21,79.61,33.53a105.46,105.46,0,0,0,38-.69c1.88-.41,1.09-3.3-.8-2.9-27,5.83-55.52-1.57-80.18-12.71a226.22,226.22,0,0,1-69.81-49.05,190.72,190.72,0,0,1-42.56-68.82c-9.19-26.28-12.07-54-10-81.72,2.17-29.56,7.22-59,16.66-87.18,9.37-27.91,23.25-54.41,42.19-77.05,6.46-7.72,13.2-14.84,21.28-20.93A103.2,103.2,0,0,1,155.9,61.91c12.6-3.78,26-4.34,38.7-.48,6.62,2,13.52,5.08,18.91,9.49,3.18,2.6,5.81,6,6.45,10.13,1.2,7.83-4.14,15.54-8.4,21.59s-9.93,12.14-12.59,19.3c-6.17,16.61,20.64,16.83,30.12,16.62,10.82-.24,21.6-1.31,32.39-2.06,10.35-.73,20.88-1.42,31.23-.3,10.7,1.15,22.12,5.4,30.41,12.34,5.73,4.79,9.76,11.32,10.43,18.85A36.68,36.68,0,0,1,331.87,181c-2.19,7.42-4.86,14.2-9.34,20.58-10.8,15.36-27.29,25.8-42.93,35.61C272,242,264.32,246.63,257,251.85c-6.32,4.52-12.5,9.49-17.27,15.68a33,33,0,0,0-7.3,18.85,41.88,41.88,0,0,0,2,13.19,41,41,0,0,0,6.76,14c11,14,30,9.67,45.32,13.46a34.36,34.36,0,0,1,11.69,5.2c5.06,3.59,9.17,8.85,12.52,14a62.34,62.34,0,0,1,9.68,39.42c-1.09,13-5.56,26.09-11.67,37.62a107.12,107.12,0,0,1-18.95,25.61,115.35,115.35,0,0,1-36.95,24.84,42.41,42.41,0,0,1-6.74,2.45C244.24,476.63,245,479.52,246.92,479.09Z" transform="translate(-39.88 -55.78)"/></svg>