<?xml version="1.0" encoding="utf-8"?>
<!-- Generator: Adobe Illustrator 25.0.1, SVG Export Plug-In . SVG Version: 6.00 Build 0)  -->
<svg version="1.1" id="Layer_1" xmlns="http://www.w3.org/2000/svg" xmlns:xlink="http://www.w3.org/1999/xlink" x="0px" y="0px"
	 viewBox="0 0 1223.2 259.8" style="enable-background:new 0 0 1223.2 259.8;" xml:space="preserve">
<style type="text/css">
	.st0{fill:#343434;}
	.st1{display:none;fill:#8DAAA0;}
	.st2{font-family:'GravesendSans-Medium';}
	.st3{font-size:60px;}
	.st4{letter-spacing:-1;}
</style>
<path class="st0" d="M182.1,131.5c-1.7,7.5-7.4,13-17.4,13c-12.9,0-19.1-9.3-19.1-21.1c0-11.3,6.4-21.5,19.5-21.5
	c10.6,0,16,6.2,17,13.1h-7.8c-1.1-3.6-3.6-6.9-9.5-6.9c-8,0-11.2,7.2-11.2,15.1c0,7.4,2.8,15.2,11.4,15.2c6,0,8.2-3.8,9.3-6.8
	L182.1,131.5z"/>
<path class="st0" d="M189.3,102.5h7.7v35h21l-0.9,6.4h-27.8V102.5z"/>
<path class="st0" d="M233.1,133.3l-3.6,10.6h-7.7l14.3-41.4h9.7l14.9,41.5h-8.2l-3.8-10.6L233.1,133.3z M247.1,126.9
	c-3.3-9.5-5.3-15.2-6.2-18.7h-0.1c-1,3.9-3.2,10.6-5.9,18.7H247.1z"/>
<path class="st0" d="M274.3,102.5V144h-7.8v-41.5H274.3z"/>
<path class="st0" d="M292.4,126.7v17.2h-7.6v-41.4h17.5c8.9,0,13.6,4.9,13.6,11.3c0,5.5-3.1,8.6-6.4,9.8c2.5,0.8,5.6,3.1,5.6,10.4v2
	c0,2.8,0,6.1,0.6,8h-7.4c-0.7-1.8-0.8-4.9-0.8-9.2v-0.7c0-5-1.3-7.3-8.3-7.3L292.4,126.7z M292.4,120.5h8c5.4,0,7.6-2,7.6-5.9
	s-2.4-5.8-7.2-5.8h-8.4L292.4,120.5z"/>
<path class="st0" d="M352.1,125.5h-20.2v12h22.2l-1,6.4h-28.8v-41.4h28.6v6.4h-21v10.2h20.1V125.5z"/>
<path class="st0" d="M410.8,127.6c0-7.3,0.1-15.2,0.3-19.8h-0.3c-1.9,7.9-6.9,23.1-11.2,36.1h-6.7c-3.2-11.1-8.4-28.3-10.3-36.2
	h-0.2c0.4,4.8,0.5,13.6,0.5,20.7v15.4h-7.1v-41.4h11.6c3.7,11.5,8.1,26.2,9.4,32h0.1c1-5,6.3-20.8,10.3-32h11.2V144h-7.5
	L410.8,127.6z"/>
<path class="st0" d="M435.6,133.3l-3.7,10.6h-7.7l14.3-41.4h9.7l15,41.5h-8.2l-3.8-10.6L435.6,133.3z M449.5,126.9
	c-3.3-9.5-5.3-15.2-6.2-18.7h-0.1c-1,3.9-3.2,10.6-5.9,18.7H449.5z"/>
<path class="st0" d="M476.6,126.7v17.2H469v-41.4h17.5c8.9,0,13.6,4.9,13.6,11.3c0,5.5-3,8.6-6.4,9.8c2.5,0.8,5.6,3.1,5.6,10.4v2
	c0,2.8,0,6.1,0.6,8h-7.4c-0.7-1.8-0.8-4.9-0.8-9.2v-0.7c0-5-1.3-7.3-8.3-7.3L476.6,126.7z M476.6,120.5h8c5.4,0,7.6-2,7.6-5.9
	s-2.4-5.8-7.2-5.8h-8.4L476.6,120.5z"/>
<path class="st0" d="M516.4,102.5V144h-7.8v-41.5H516.4z"/>
<path class="st0" d="M554.4,125.5h-20.1v12h22.1l-0.9,6.4h-28.8v-41.4h28.6v6.4h-21v10.2h20.1L554.4,125.5z"/>
<path class="st0" d="M588.1,143.9l-14.8-41.4h8.4l6.6,19.7c2,5.9,3.6,11.2,4.6,15.3h0.1c0.8-3.7,2.7-9.2,4.8-15.2l6.9-19.8h8
	L597.3,144L588.1,143.9z"/>
<path class="st0" d="M620.8,133.3l-3.7,10.6h-7.7l14.3-41.4h9.7l14.9,41.5h-8.2l-3.8-10.6L620.8,133.3z M634.7,126.9
	c-3.3-9.5-5.3-15.2-6.2-18.7h-0.1c-1,3.9-3.2,10.6-5.9,18.7H634.7z"/>
<path class="st0" d="M654.2,143.9v-41.4h9.8c5.4,9.4,16.2,27.6,18.2,32.1h0.1c-0.4-4.7-0.4-11.6-0.4-18.4v-13.6h7.2V144h-9.3
	c-4.8-8.5-16.4-28.8-18.7-33.5H661c0.3,4,0.4,12,0.4,19.5v14L654.2,143.9z"/>
<path class="st0" d="M727.1,125.5H707v12h22.2l-0.9,6.4h-28.8v-41.4h28.6v6.4h-21v10.2h20.1L727.1,125.5z"/>
<path class="st0" d="M746.9,143.9v-14.9c0-0.4-0.1-0.9-0.3-1.3l-14.4-25.3h8.8c3.4,6.4,8.2,15.6,10.2,19.8
	c1.8-4.1,6.9-13.5,10.3-19.8h8.2l-14.6,25.3c-0.2,0.4-0.3,0.8-0.3,1.2v14.9H746.9z"/>
<path class="st0" d="M798.6,125.7v3.9h-14.8v-3.9H798.6z"/>
<path class="st0" d="M820.3,102.5H837c8.6,0,14.4,4.8,14.4,12.6c0,8.7-6.5,12.9-14.6,12.9h-8.6v16h-7.8L820.3,102.5z M828.1,121.7
	h7.8c4.7,0,7.6-2,7.6-6.4s-3.2-6.5-7.4-6.5h-8L828.1,121.7z"/>
<path class="st0" d="M896.6,123c0,11.5-6.8,21.5-20.1,21.5c-12.8,0-19.6-9.5-19.6-21.4s7.3-21.3,20.1-21.3
	C889.1,101.8,896.6,110.4,896.6,123z M865,123c0,8.4,3.9,15.1,11.8,15.1c8.5,0,11.7-7.1,11.7-15c0-8.2-3.6-14.9-11.8-14.9
	S865.1,114.6,865,123L865,123z"/>
<path class="st0" d="M912.3,126.7v17.2h-7.6v-41.4h17.5c8.9,0,13.6,4.9,13.6,11.3c0,5.5-3.1,8.6-6.4,9.8c2.5,0.8,5.6,3.1,5.6,10.4v2
	c0,2.8,0,6.1,0.6,8h-7.4c-0.7-1.8-0.8-4.9-0.8-9.2v-0.7c0-5-1.3-7.3-8.3-7.3L912.3,126.7z M912.3,120.5h8c5.4,0,7.6-2,7.6-5.9
	s-2.4-5.8-7.2-5.8h-8.4L912.3,120.5z"/>
<path class="st0" d="M953.1,108.9h-12.9v-6.4h33.5v6.4h-12.9v35h-7.8V108.9z"/>
<path class="st0" d="M979.4,102.5h28.2v6.4H987v11.3h19.3v6.4H987V144h-7.6V102.5z"/>
<path class="st0" d="M1052.4,123c0,11.5-6.8,21.5-20.1,21.5c-12.7,0-19.6-9.5-19.6-21.4s7.3-21.3,20.1-21.3
	C1044.8,101.8,1052.4,110.4,1052.4,123z M1020.8,123c0,8.4,3.9,15.1,11.8,15.1c8.5,0,11.7-7.1,11.7-15c0-8.2-3.6-14.9-11.8-14.9
	C1024.3,108.2,1020.8,114.6,1020.8,123L1020.8,123z"/>
<path class="st0" d="M1060.5,102.5h7.8v35h21l-0.9,6.4h-27.8L1060.5,102.5z"/>
<path class="st0" d="M1102.7,102.5V144h-7.8v-41.5H1102.7z"/>
<path class="st0" d="M1150.4,123c0,11.5-6.8,21.5-20.1,21.5c-12.7,0-19.6-9.5-19.6-21.4s7.3-21.3,20.1-21.3
	C1142.8,101.8,1150.4,110.4,1150.4,123z M1118.8,123c0,8.4,3.9,15.1,11.8,15.1c8.6,0,11.7-7.1,11.7-15c0-8.2-3.6-14.9-11.8-14.9
	S1118.8,114.6,1118.8,123L1118.8,123z"/>
<path class="st1" d="M2.9,159.1c58.9-7.7,117.9-13.6,177.2-17.5c29.5-2,59-3.5,88.6-4.5c14.1-0.5,28.3-1.4,42.4-1
	c11.5,0.3,24,2.9,29.6,14.1c4.9,9.8,3.4,22,0.9,32.2c-2.9,12-7.5,23.7-7.7,36.2c-0.2,11.7,4.2,22.7,13.5,30.1
	c9.2,7.4,20.9,10.6,32.6,11c14.5,0.6,29.1-2.3,43.4-4.1c14.8-1.9,29.7-3.7,44.6-5.4c29.7-3.4,59.5-6.3,89.3-8.9
	c59.1-5,118.4-8.4,177.7-10.1c7.5-0.2,15-0.4,22.4-0.6c3.8-0.1,3.9-6.1,0-6c-59.6,1.3-119.1,4.3-178.5,9
	c-59.4,4.6-118.5,11.7-177.6,18.9c-13.6,1.6-28.2,2.7-41-3c-11.3-5-19.4-14.5-20.2-27.1c-1.5-23.6,15.1-45.5,8.2-69.3
	c-2.8-9.9-10.5-17.7-20.4-20.6c-11.7-3.7-24.8-2.4-36.9-2.1c-29.8,0.8-59.6,2.1-89.3,3.8c-59,3.5-117.9,8.8-176.6,16
	c-7.4,0.9-14.8,1.8-22.2,2.8C-0.9,153.6-1,159.6,2.9,159.1L2.9,159.1z"/>
<text transform="matrix(1 0 0 1 181.49 215.96)" class="st0 st2 st3">N</text>
<text transform="matrix(1 0 0 1 228.17 215.96)" class="st0 st2 st3 st4">o</text>
<text transform="matrix(1 0 0 1 274.85 215.96)" class="st0 st2 st3">vembre 2</text>
<text transform="matrix(1 0 0 1 575.69 215.96)" class="st0 st2 st3">0</text>
<text transform="matrix(1 0 0 1 609.05 215.96)" class="st0 st2 st3">20</text>
<path class="st1" d="M1221,28.3c-58.7-8.7-117.7-15.5-177-20.5c-29.7-2.5-59.5-4.5-89.2-6.1C940.7,1,926.5-0.1,912.4,0
	c-10.9,0.1-22.6,2-30.5,10.2c-16.2,16.9-6.3,42.6-1.9,62c2.8,12.5,4,26.8-5.2,37c-8.4,9.4-21.2,13-33.4,13.2
	c-14.9,0.3-29.9-2.9-44.7-5c-14.5-2.1-29-4.1-43.6-6c-29.5-3.9-59.1-7.3-88.8-10.3c-59-6-118.2-10.4-177.5-13.1
	c-7.4-0.3-14.9-0.7-22.3-0.9c-3.9-0.1-3.9,5.9,0,6c59.3,2.3,118.5,6.3,177.6,11.9c59.3,5.6,118.2,13.6,177.2,21.9
	c22.4,3.1,52.3,3.1,64.5-20.3c12-22.9-4.8-47.3-4.8-70.8c0-11,4-21.8,14.6-26.5C905,4.1,919,6.1,931,6.6c29.8,1.3,59.5,3.1,89.3,5.3
	c59.2,4.5,118.2,10.8,177,19c7.4,1,14.8,2.1,22.1,3.2C1223.2,34.6,1224.8,28.9,1221,28.3L1221,28.3z"/>
</svg>
