<?xml version="1.0" encoding="utf-8"?>
<!-- Generator: Adobe Illustrator 25.0.1, SVG Export Plug-In . SVG Version: 6.00 Build 0)  -->
<svg version="1.1" id="Layer_1" xmlns="http://www.w3.org/2000/svg" xmlns:xlink="http://www.w3.org/1999/xlink" x="0px" y="0px"
	 viewBox="0 0 366.1 292.4" style="enable-background:new 0 0 366.1 292.4;" xml:space="preserve">
<style type="text/css">
	.st0{fill:none;stroke:#F2C7BF;stroke-width:6;stroke-miterlimit:10;}
	.st1{fill:none;stroke:#F2C7BF;stroke-width:2;stroke-miterlimit:10;}
	.st2{fill:none;stroke:#F2C7BF;stroke-width:3;stroke-miterlimit:10;}
	.st3{fill:#F2C7BF;stroke:#F2C7BF;stroke-miterlimit:10;}
</style>
<path class="st0" d="M14.8,3h336.5c6.5,0,11.8,5.3,11.8,11.8v203.7c0,6.5-5.3,11.8-11.8,11.8H14.8C8.3,230.3,3,225,3,218.5V14.8
	C3,8.3,8.3,3,14.8,3z"/>
<ellipse class="st1" cx="185" cy="19" rx="4.3" ry="4.4"/>
<line class="st2" x1="1.6" y1="192.8" x2="363" y2="193.5"/>
<path class="st2" d="M167.2,232.4c-1.7,28.1-5.9,35.3-26.9,44.6"/>
<path class="st2" d="M252.4,277.7c0.9,0,2.9,1.1,2.9,2.6l0.1,6.6c0,2.9-1.6,3.9-3.5,3.9l-124,0.1c-1.9,0-3.5-2.4-3.5-5.3v-3.1
	c0-3.1,1.7-5.6,3.8-5.5l122.1,1L252.4,277.7z"/>
<path class="st2" d="M210.4,230.9c1.5,27.4,5.6,37.3,24.8,46.4"/>
<line class="st2" x1="144.1" y1="205" x2="230.5" y2="205"/>
<path class="st3" d="M40.2,60.7c-4.6,10.1-9.5,22.4-4.1,33.1c3.8,7.6,12.3,11.2,20.5,10.7c10.1-0.7,18.1-7.4,25.1-14.1
	c7.8-7.4,15.4-16.1,26.1-19.3c4.8-1.4,10-1.7,14.5,0.7c3.7,2.1,6.7,5.2,8.5,9c4.2,8,5.3,17.4,7.6,26.1c2.3,8.9,5.7,17.6,13.3,23.3
	c6.9,5.3,15.8,7,24.2,4.8c17.9-5.3,24.3-28.3,19.4-44.6c-0.6-2.1-1.5-4.2-2.5-6.2l0.1,1.1c2.1-7.1,7.1-13.1,13.8-16.3
	c6.3-3,13.7-2.8,19.7,0.7c6.7,3.8,11.4,10.7,14,17.9c2.8,8.1,3.1,16.9,0.7,25.2c-2.4,9.2-7.7,17.3-15.1,23.1c-1.5,1.1,0,3.8,1.5,2.6
	c11.7-8.9,18.5-23.8,18.2-38.4c-0.3-13.4-7.2-28.4-20-34.1c-11.8-5.3-25.4,0.3-32.2,10.8c-0.9,1.4-1.6,2.8-2.3,4.3
	c-0.3,0.8-0.6,1.6-0.9,2.4c-0.4,0.8-0.4,1.8,0.1,2.6c1.4,2.8,2.4,5.9,2.9,9c1.1,6.3,0.6,12.8-1.4,18.9c-1.9,5.7-5.2,11.2-10.1,14.8
	c-4.8,3.4-10.7,4.9-16.5,4c-6-0.9-11.6-3.9-15.6-8.5c-4.3-4.8-6.4-11.1-8.1-17.2c-1.7-6.3-2.8-12.7-4.6-19
	c-1.7-5.7-4.1-11.4-8.4-15.6c-5.2-4.9-12.2-6.4-19-5c-7.5,1.6-14,6-19.6,11c-5.9,5.2-11.1,11.1-17.3,15.9c-5.1,3.9-10.8,7-17.3,7.1
	c-5.5,0.1-11.2-1.9-14.7-6.3c-4.9-6-4.3-14.3-2.3-21.3c1.2-4,2.7-7.9,4.5-11.7C43.6,60.4,41,58.9,40.2,60.7L40.2,60.7z"/>
<path class="st3" d="M230.4,136.2h-0.9c-0.8,0-1.5,0.7-1.5,1.6c0,0.4,0.2,0.7,0.4,1c1.7,1.7,3.7,3,6,3.8c1.8,0.6,3.6,1,5.4,1.7
	c2.5,0.9,6,3,4.9,6.2c-1,2.7-4.9,3.4-7.4,3c-3.5-0.5-6.4-3.2-8-6.2c-2.1-3.6-2.5-8-1-11.9c0.2-0.8-0.2-1.6-1-1.9
	c-0.8-0.2-1.6,0.2-1.9,1v0.1c-1.5,4.3-1.3,8.9,0.7,13c1.8,3.9,5.3,7.4,9.5,8.5c3.6,0.9,8.2,0.2,10.7-2.7c1.3-1.5,1.8-3.6,1.4-5.6
	c-0.5-2-1.7-3.7-3.5-4.7c-2-1.3-4.2-2.2-6.6-2.8c-1.2-0.3-2.4-0.7-3.6-1.1c-1.3-0.6-2.6-1.5-3.6-2.6l-1.1,2.6h0.9
	c0.8,0,1.5-0.7,1.5-1.5S231.2,136.2,230.4,136.2L230.4,136.2z"/>
<path class="st3" d="M230.4,139.2c0.8,0,1.5-0.7,1.5-1.5s-0.7-1.5-1.5-1.5s-1.5,0.7-1.5,1.5S229.5,139.2,230.4,139.2z"/>
<path class="st3" d="M273.3,167.9c-5.9-8.5-13.3-15.9-21.8-21.8c-0.7-0.4-1.6-0.2-2.1,0.6c-0.1,0.2-0.2,0.5-0.2,0.7
	c0.4,3.8-1.4,7.6-4.7,9.6c-3.3,2.1-6.9,1.4-10.6,1.1c-0.8,0-1.5,0.7-1.5,1.6c0,0.4,0.2,0.7,0.4,1c2.6,2.7,5.5,5.2,8.6,7.4
	c10.1,6.8,22.4,9.5,34.4,7.5c0.8-0.2,1.3-1.1,1-1.9c0-0.1-0.1-0.2-0.1-0.3C275.7,171.5,274.6,169.7,273.3,167.9
	c-1.1-1.6-3.7-0.1-2.6,1.5c1.2,1.8,2.4,3.6,3.5,5.5l0.9-2.2c-11.2,1.8-22.7-0.8-32.1-7.2c-2.9-2-5.6-4.4-8-6.9l-1,2.6
	c2.1,0.3,4.2,0.4,6.3,0.4c2.3-0.1,4.5-0.9,6.4-2.3c3.7-2.7,6.2-7.2,5.6-11.8l-2.3,1.3c8.1,5.6,15.1,12.6,20.7,20.7
	C271.8,171,274.4,169.5,273.3,167.9z"/>
<path class="st3" d="M360.8,40.2c-14.7,0-29.5,0-44.2-0.1l-6.1-0.1c-1.8-0.2-3.6-0.1-5.4,0.1c-2.8,0.6-4.8,3-4.8,5.8c0,1,0,2,0,2.9
	c0.1,5.6,0.1,11.2,0.1,16.9c0.1,16.7,0.1,33.3,0.1,50c0,16.8,0,33.6,0.1,50.4c0,6,0,12,0.1,17.9c0,2.8,0,5.7,0.2,8.6
	c0,0.5,0.2,1,0.5,1.4c1.3,1.5,3.4-0.7,2.1-2.1c0.2,0.2,0.4,0.5,0.4,0.9c0-0.1,0-0.2,0-0.4c0-0.4,0-0.9-0.1-1.3
	c-0.1-1.5-0.1-3.1-0.1-4.6c-0.1-5.3-0.1-10.6-0.1-15.9c-0.1-16.1-0.1-32.1-0.1-48.2c0-16.8,0-33.7-0.1-50.5c0-6.3,0-12.6-0.1-18.8
	c0-2.2,0-4.3-0.1-6.5s1.2-3.6,3.4-3.6c1.6,0,3.3,0,4.9,0c16,0.2,32,0.2,48,0.2h1.2c0.8,0,1.5-0.7,1.5-1.5S361.7,40.2,360.8,40.2
	L360.8,40.2z"/>
<path class="st3" d="M13.6,30.9c3.1-0.2,6.3,0,9.4,0h24.8l36.3-0.2l44-0.1l48.4-0.1l48.8-0.1c15.1,0,30.2,0,45.3-0.1
	c12.8,0,25.6-0.1,38.3-0.2c9.2-0.1,18.5-0.1,27.7-0.2c4.4,0,8.8,0.1,13.2-0.2c0.5,0,0.9-0.1,1.3-0.3c1.7-0.9,0.2-3.5-1.5-2.6
	c0.2-0.1,0.7-0.1,0.5-0.2c-0.2,0-0.4,0-0.5,0c-0.6,0-1.3,0-1.9,0.1c-2.3,0.1-4.6,0.1-6.9,0.1c-8.3,0.1-16.5,0.2-24.8,0.2
	c-12.1,0.1-24.2,0.1-36.3,0.2c-14.7,0.1-29.3,0.1-43.9,0.2l-48.2,0.1l-48.5,0.1l-45.4,0.1l-38.4,0.1H27.6c-4.4,0-8.9-0.1-13.4,0
	c-0.2,0-0.4,0-0.7,0C11.7,28,11.6,31,13.6,30.9L13.6,30.9z"/>
</svg>
