<?xml version="1.0" encoding="utf-8"?>
<!-- Generator: Adobe Illustrator 25.1.0, SVG Export Plug-In . SVG Version: 6.00 Build 0)  -->
<svg version="1.1" id="Layer_1" xmlns="http://www.w3.org/2000/svg" xmlns:xlink="http://www.w3.org/1999/xlink" x="0px" y="0px"
	 viewBox="0 0 548 1731" style="enable-background:new 0 0 548 1731;" xml:space="preserve">
<style type="text/css">
	.st0{fill:#FFFFFF;}
	.st1{fill:#FFFFFF;stroke:#000000;}
	.st2{fill:#C4C4C4;}
</style>
<rect x="-0.1" y="-0.2" class="st0" width="548" height="1731"/>
<rect x="186.4" y="242.3" class="st1" width="175" height="299"/>
<path d="M143.8,288.1h4.7v-3.2h-13v3.2h4.8v12.8h3.6V288.1z M150.9,300.8h3.6v-15.9h-3.6V300.8z M165.1,288.1h4.7v-3.2h-13v3.2h4.8
	v12.8h3.6V288.1z M183.7,300.8v-3.2h-8v-12.8h-3.6v15.9H183.7z M196.2,291.4h-6.6v-3.3h8.4v-3.2H186v15.9H198v-3.2h-8.4v-3.3h6.6
	V291.4z"/>
<path d="M191.3,228.4c-3,0-5,2-5,4.8c0,2.8,2,4.8,5,4.8c1.3,0,2.1-0.2,2.9-0.7V235h-0.1c-0.6,0.8-1.5,1.1-2.7,1.1
	c-1.8,0-3-1.2-3-2.9c0-1.8,1.2-2.9,3-2.9c1.1,0,2.1,0.4,2.7,1.1h0.1v-2.3C193.4,228.6,192.6,228.4,191.3,228.4z M202.7,237.8h2.2
	l-4-9.3h-2l-4,9.3h2.2l0.6-1.6h4.3L202.7,237.8z M199.9,230.9l1.4,3.6h-2.9L199.9,230.9L199.9,230.9z M209.2,230.4h2.8v-1.8h-7.6
	v1.8h2.8v7.4h2.1V230.4z M219.2,232.3h-3.9v-1.9h4.9v-1.8h-7v9.3h7V236h-4.9V234h3.9V232.3z M226.6,230.2c1.3,0,2.3,0.4,3.1,1.1h0.1
	v-2.3c-0.9-0.5-1.9-0.7-3.3-0.7c-3.2,0-5.2,1.9-5.2,4.8c0,2.9,2,4.8,5.2,4.8c1.4,0,2.4-0.2,3.3-0.7v-4.6h-4v1.7h2v1.6
	c-0.4,0.1-0.8,0.1-1.2,0.1c-1.9,0-3.2-1.1-3.2-2.9C223.4,231.4,224.7,230.2,226.6,230.2z M236,228.4c-2.9,0-4.9,2-4.9,4.8
	c0,2.8,2,4.8,4.9,4.8s4.9-2,4.9-4.8C240.9,230.4,238.9,228.4,236,228.4z M236,230.2c1.7,0,2.8,1.2,2.8,2.9c0,1.7-1.1,2.9-2.8,2.9
	c-1.7,0-2.8-1.2-2.8-2.9C233.2,231.4,234.4,230.2,236,230.2z M244.4,234.6h1.6l1.9,3.2h2.4l-2.2-3.4c1.3-0.4,1.9-1.3,1.9-2.8
	c0-2-1.2-3-3.5-3h-4.2v9.3h2.1V234.6z M244.4,232.8v-2.4h2c1,0,1.5,0.4,1.5,1.2c0,0.8-0.5,1.2-1.5,1.2H244.4z M256.2,237.8V234
	l3.8-5.5h-2.4l-2.4,3.6l-2.4-3.6h-2.5l3.8,5.5v3.8H256.2z"/>
<rect x="186.4" y="618.3" class="st1" width="175" height="299"/>
<path d="M143.8,664.1h4.7v-3.2h-13v3.2h4.8v12.8h3.6V664.1z M150.9,676.8h3.6v-15.9h-3.6V676.8z M165.1,664.1h4.7v-3.2h-13v3.2h4.8
	v12.8h3.6V664.1z M183.7,676.8v-3.2h-8v-12.8h-3.6v15.9H183.7z M196.2,667.4h-6.6v-3.3h8.4v-3.2H186v15.9H198v-3.2h-8.4v-3.3h6.6
	V667.4z"/>
<path d="M191.3,604.4c-3,0-5,2-5,4.8s2,4.8,5,4.8c1.3,0,2.1-0.2,2.9-0.7V611h-0.1c-0.6,0.8-1.5,1.1-2.7,1.1c-1.8,0-3-1.2-3-2.9
	c0-1.8,1.2-2.9,3-2.9c1.1,0,2.1,0.4,2.7,1.1h0.1v-2.3C193.4,604.6,192.6,604.4,191.3,604.4z M202.7,613.8h2.2l-4-9.3h-2l-4,9.3h2.2
	l0.6-1.6h4.3L202.7,613.8z M199.9,606.9l1.4,3.6h-2.9L199.9,606.9L199.9,606.9z M209.2,606.4h2.8v-1.8h-7.6v1.8h2.8v7.4h2.1V606.4z
	 M219.2,608.3h-3.9v-1.9h4.9v-1.8h-7v9.3h7V612h-4.9V610h3.9V608.3z M226.6,606.2c1.3,0,2.3,0.4,3.1,1.1h0.1v-2.3
	c-0.9-0.5-1.9-0.7-3.3-0.7c-3.2,0-5.2,1.9-5.2,4.8c0,2.9,2,4.8,5.2,4.8c1.4,0,2.4-0.2,3.3-0.7v-4.6h-4v1.7h2v1.6
	c-0.4,0.1-0.8,0.1-1.2,0.1c-1.9,0-3.2-1.1-3.2-2.9S224.7,606.2,226.6,606.2z M236,604.4c-2.9,0-4.9,2-4.9,4.8s2,4.8,4.9,4.8
	s4.9-2,4.9-4.8S238.9,604.4,236,604.4z M236,606.2c1.7,0,2.8,1.2,2.8,2.9c0,1.7-1.1,2.9-2.8,2.9c-1.7,0-2.8-1.2-2.8-2.9
	C233.2,607.4,234.4,606.2,236,606.2z M244.4,610.6h1.6l1.9,3.2h2.4l-2.2-3.4c1.3-0.4,1.9-1.3,1.9-2.8c0-2-1.2-3-3.5-3h-4.2v9.3h2.1
	V610.6z M244.4,608.8v-2.4h2c1,0,1.5,0.4,1.5,1.2c0,0.8-0.5,1.2-1.5,1.2H244.4z M256.2,613.8V610l3.8-5.5h-2.4l-2.4,3.6l-2.4-3.6
	h-2.5l3.8,5.5v3.8H256.2z"/>
<rect x="186.4" y="995.3" class="st1" width="175" height="299"/>
<path d="M143.8,1041.1h4.7v-3.2h-13v3.2h4.8v12.8h3.6V1041.1z M150.9,1053.8h3.6v-15.9h-3.6V1053.8z M165.1,1041.1h4.7v-3.2h-13v3.2
	h4.8v12.8h3.6V1041.1z M183.7,1053.8v-3.2h-8v-12.8h-3.6v15.9H183.7z M196.2,1044.4h-6.6v-3.3h8.4v-3.2H186v15.9H198v-3.2h-8.4v-3.3
	h6.6V1044.4z"/>
<path d="M191.3,981.4c-3,0-5,2-5,4.8s2,4.8,5,4.8c1.3,0,2.1-0.2,2.9-0.7V988h-0.1c-0.6,0.8-1.5,1.1-2.7,1.1c-1.8,0-3-1.2-3-2.9
	c0-1.8,1.2-2.9,3-2.9c1.1,0,2.1,0.4,2.7,1.1h0.1v-2.3C193.4,981.6,192.6,981.4,191.3,981.4z M202.7,990.8h2.2l-4-9.3h-2l-4,9.3h2.2
	l0.6-1.6h4.3L202.7,990.8z M199.9,983.9l1.4,3.6h-2.9L199.9,983.9L199.9,983.9z M209.2,983.4h2.8v-1.8h-7.6v1.8h2.8v7.4h2.1V983.4z
	 M219.2,985.3h-3.9v-1.9h4.9v-1.8h-7v9.3h7V989h-4.9V987h3.9V985.3z M226.6,983.2c1.3,0,2.3,0.4,3.1,1.1h0.1v-2.3
	c-0.9-0.5-1.9-0.7-3.3-0.7c-3.2,0-5.2,1.9-5.2,4.8c0,2.9,2,4.8,5.2,4.8c1.4,0,2.4-0.2,3.3-0.7v-4.6h-4v1.7h2v1.6
	c-0.4,0.1-0.8,0.1-1.2,0.1c-1.9,0-3.2-1.1-3.2-2.9S224.7,983.2,226.6,983.2z M236,981.4c-2.9,0-4.9,2-4.9,4.8s2,4.8,4.9,4.8
	s4.9-2,4.9-4.8S238.9,981.4,236,981.4z M236,983.2c1.7,0,2.8,1.2,2.8,2.9c0,1.7-1.1,2.9-2.8,2.9c-1.7,0-2.8-1.2-2.8-2.9
	C233.2,984.4,234.4,983.2,236,983.2z M244.4,987.6h1.6l1.9,3.2h2.4l-2.2-3.4c1.3-0.4,1.9-1.3,1.9-2.8c0-2-1.2-3-3.5-3h-4.2v9.3h2.1
	V987.6z M244.4,985.8v-2.4h2c1,0,1.5,0.4,1.5,1.2c0,0.8-0.5,1.2-1.5,1.2H244.4z M256.2,990.8V987l3.8-5.5h-2.4l-2.4,3.6l-2.4-3.6
	h-2.5l3.8,5.5v3.8H256.2z"/>
<rect x="186.4" y="1372.3" class="st1" width="175" height="299"/>
<path d="M143.8,1418.1h4.7v-3.2h-13v3.2h4.8v12.8h3.6V1418.1z M150.9,1430.8h3.6v-15.9h-3.6V1430.8z M165.1,1418.1h4.7v-3.2h-13v3.2
	h4.8v12.8h3.6V1418.1z M183.7,1430.8v-3.2h-8v-12.8h-3.6v15.9H183.7z M196.2,1421.4h-6.6v-3.3h8.4v-3.2H186v15.9H198v-3.2h-8.4v-3.3
	h6.6V1421.4z"/>
<path d="M191.3,1358.4c-3,0-5,2-5,4.8c0,2.8,2,4.8,5,4.8c1.3,0,2.1-0.2,2.9-0.7v-2.3h-0.1c-0.6,0.8-1.5,1.2-2.7,1.2
	c-1.8,0-3-1.2-3-2.9c0-1.8,1.2-2.9,3-2.9c1.1,0,2.1,0.4,2.7,1.2h0.1v-2.3C193.4,1358.6,192.6,1358.4,191.3,1358.4z M202.7,1367.8
	h2.2l-4-9.3h-2l-4,9.3h2.2l0.6-1.6h4.3L202.7,1367.8z M199.9,1360.9l1.4,3.6h-2.9L199.9,1360.9L199.9,1360.9z M209.2,1360.4h2.8
	v-1.9h-7.6v1.9h2.8v7.4h2.1V1360.4z M219.2,1362.3h-3.9v-1.9h4.9v-1.9h-7v9.3h7v-1.8h-4.9v-1.9h3.9V1362.3z M226.6,1360.2
	c1.3,0,2.3,0.4,3.1,1.2h0.1v-2.3c-0.9-0.5-1.9-0.7-3.3-0.7c-3.2,0-5.2,1.9-5.2,4.8c0,2.9,2,4.8,5.2,4.8c1.4,0,2.4-0.2,3.3-0.7v-4.6
	h-4v1.7h2v1.6c-0.4,0.1-0.8,0.1-1.2,0.1c-1.9,0-3.2-1.2-3.2-2.9C223.4,1361.4,224.7,1360.2,226.6,1360.2z M236,1358.4
	c-2.9,0-4.9,2-4.9,4.8c0,2.8,2,4.8,4.9,4.8s4.9-2,4.9-4.8C240.9,1360.4,238.9,1358.4,236,1358.4z M236,1360.2c1.7,0,2.8,1.2,2.8,2.9
	c0,1.7-1.1,2.9-2.8,2.9c-1.7,0-2.8-1.2-2.8-2.9C233.2,1361.5,234.4,1360.2,236,1360.2z M244.4,1364.6h1.6l1.9,3.2h2.4l-2.2-3.4
	c1.3-0.4,1.9-1.3,1.9-2.8c0-2-1.2-3-3.5-3h-4.2v9.3h2.1V1364.6z M244.4,1362.8v-2.4h2c1,0,1.5,0.4,1.5,1.2c0,0.8-0.5,1.2-1.5,1.2
	H244.4z M256.2,1367.8v-3.8l3.8-5.5h-2.4l-2.4,3.6l-2.4-3.6h-2.5l3.8,5.5v3.8H256.2z"/>
<path d="M109.3,133.8h7.1V102h-7.1V133.8z M146.4,133.8v-6.3h-16.1V102h-7.1v31.9H146.4z M182,114.9h-13.3v-6.6h16.8V102h-23.9v31.9
	h23.9v-6.3h-16.8v-6.7H182V114.9z M170.3,99.1h5.8l6.2-8.2h-6.6L170.3,99.1z M205.6,108.3h9.5V102H189v6.3h9.5v25.5h7.1V108.3z
	 M239.6,133.8h7.6L233.6,102h-6.9l-13.6,31.9h7.4l2.2-5.4h14.6L239.6,133.8z M230.1,110.1l4.9,12.2h-9.8L230.1,110.1L230.1,110.1z
	 M251.3,133.8h7.1V102h-7.1V133.8z M279.7,108.3h9.5V102h-26.1v6.3h9.5v25.5h7.1V108.3z M331.4,102h-6.9v17.8c0,5.4-2.4,8.2-6.9,8.2
	c-4.5,0-6.9-2.8-6.9-8.2V102h-7.1v18.3c0,9.4,4.6,14.1,13.8,14.1c9.3,0,14-4.7,14-14.1V102z M357.7,133.8h8.5V102h-6.9v21.4h-0.1
	l-12-21.4h-9.7v31.9h6.9v-23.7h0.1L357.7,133.8z M393.5,114.9h-13.3v-6.6h16.8V102h-23.9v31.9h23.9v-6.3h-16.8v-6.7h13.3V114.9z
	 M116.4,173.3v-7h16.8V160h-23.9v31.9h7.1v-12.2h13.3v-6.3H116.4z M152.1,159.5c-9.8,0-16.8,6.8-16.8,16.4c0,9.6,6.9,16.4,16.8,16.4
	s16.8-6.8,16.8-16.4C168.9,166.3,162,159.5,152.1,159.5z M152.1,165.8c5.7,0,9.6,4.1,9.6,10.1c0,6-3.9,10.1-9.6,10.1
	s-9.6-4.1-9.6-10.1C142.6,169.9,146.4,165.8,152.1,165.8z M173.7,191.8h7.1V160h-7.1V191.8z M199.1,159.5c-8.1,0-12.9,3.8-12.9,10.2
	c0,5.9,3.2,8.6,11.4,9.5c4.8,0.5,6.3,1.4,6.3,3.3c0,2.3-2.1,3.5-6,3.5c-4.3,0-8.3-1.3-11.3-3.8h-0.3v7.3c2.5,1.8,6.6,2.8,11.9,2.8
	c8.2,0,12.8-3.6,12.8-10c0-6.1-3.2-9-11.6-9.9c-4.8-0.5-6.1-1.3-6.1-3.2c0-2.2,2.2-3.5,5.7-3.5c4,0,7.6,1.2,9.7,3.4h0.3v-7.3
	C207.2,160.4,203.1,159.5,199.1,159.5z"/>
<circle class="st2" cx="31.4" cy="31.3" r="13.5"/>
<path d="M65.2,33.2h-2.7l-0.6,1.7H61l2.4-6.4h0.7l2.4,6.4h-0.9L65.2,33.2z M62.7,32.5h2.2l-1.1-3L62.7,32.5z M67.5,34.8v-6.4h2.1
	c0.7,0,1.2,0.1,1.6,0.4c0.4,0.3,0.5,0.7,0.5,1.3c0,0.3-0.1,0.6-0.3,0.8c-0.2,0.2-0.4,0.4-0.7,0.5c0.3,0.1,0.6,0.3,0.8,0.6
	c0.2,0.3,0.3,0.6,0.3,1c0,0.6-0.2,1-0.6,1.4c-0.4,0.3-0.9,0.5-1.6,0.5H67.5z M68.3,31.8v2.3h1.4c0.4,0,0.7-0.1,0.9-0.3
	c0.2-0.2,0.3-0.5,0.3-0.8c0-0.8-0.4-1.2-1.3-1.2H68.3z M68.3,31.2h1.3c0.4,0,0.7-0.1,0.9-0.3c0.2-0.2,0.3-0.4,0.3-0.8
	c0-0.4-0.1-0.6-0.3-0.8c-0.2-0.2-0.5-0.2-0.9-0.2h-1.2V31.2z M78,31.8c0,0.6-0.1,1.2-0.3,1.6c-0.2,0.5-0.5,0.8-0.9,1.1
	c-0.4,0.2-0.8,0.4-1.4,0.4c-0.5,0-1-0.1-1.3-0.4c-0.4-0.2-0.7-0.6-0.9-1.1c-0.2-0.5-0.3-1-0.3-1.6v-0.5c0-0.6,0.1-1.2,0.3-1.6
	c0.2-0.5,0.5-0.8,0.9-1.1c0.4-0.3,0.8-0.4,1.3-0.4c0.5,0,1,0.1,1.4,0.4c0.4,0.2,0.7,0.6,0.9,1.1c0.2,0.5,0.3,1,0.3,1.6V31.8z
	 M77.2,31.4c0-0.8-0.2-1.3-0.5-1.7c-0.3-0.4-0.7-0.6-1.3-0.6c-0.5,0-1,0.2-1.3,0.6c-0.3,0.4-0.5,1-0.5,1.7v0.5
	c0,0.7,0.2,1.3,0.5,1.7c0.3,0.4,0.7,0.6,1.3,0.6c0.5,0,1-0.2,1.3-0.6c0.3-0.4,0.5-1,0.5-1.7V31.4z M83.8,28.4v4.4
	c0,0.6-0.2,1.1-0.6,1.5c-0.4,0.4-0.9,0.6-1.5,0.6l-0.2,0c-0.7,0-1.3-0.2-1.7-0.6c-0.4-0.4-0.6-0.9-0.6-1.6v-4.4H80v4.3
	c0,0.5,0.1,0.8,0.4,1.1c0.3,0.3,0.6,0.4,1.1,0.4c0.5,0,0.8-0.1,1.1-0.4c0.3-0.3,0.4-0.6,0.4-1.1v-4.3H83.8z M89.6,29.1h-2.1v5.7
	h-0.8v-5.7h-2.1v-0.7h4.9V29.1z"/>
<path d="M111.3,32.8c-0.1,0.7-0.3,1.2-0.8,1.6c-0.4,0.4-1,0.5-1.7,0.5c-0.8,0-1.4-0.3-1.8-0.8c-0.5-0.5-0.7-1.3-0.7-2.2v-0.6
	c0-0.6,0.1-1.1,0.3-1.6c0.2-0.5,0.5-0.8,0.9-1c0.4-0.2,0.8-0.4,1.4-0.4c0.7,0,1.2,0.2,1.6,0.6c0.4,0.4,0.6,0.9,0.7,1.6h-0.8
	c-0.1-0.5-0.2-0.9-0.5-1.1c-0.2-0.2-0.6-0.3-1-0.3c-0.5,0-1,0.2-1.3,0.6c-0.3,0.4-0.5,1-0.5,1.7V32c0,0.7,0.1,1.2,0.4,1.7
	c0.3,0.4,0.7,0.6,1.2,0.6c0.5,0,0.8-0.1,1.1-0.3c0.3-0.2,0.4-0.6,0.5-1.1H111.3z M117.4,31.8c0,0.6-0.1,1.2-0.3,1.6
	c-0.2,0.5-0.5,0.8-0.9,1.1c-0.4,0.2-0.8,0.4-1.4,0.4c-0.5,0-0.9-0.1-1.3-0.4c-0.4-0.2-0.7-0.6-0.9-1.1c-0.2-0.5-0.3-1-0.3-1.6v-0.5
	c0-0.6,0.1-1.2,0.3-1.6c0.2-0.5,0.5-0.8,0.9-1.1c0.4-0.3,0.8-0.4,1.3-0.4c0.5,0,1,0.1,1.4,0.4c0.4,0.2,0.7,0.6,0.9,1.1
	c0.2,0.5,0.3,1,0.3,1.6V31.8z M116.6,31.4c0-0.8-0.2-1.3-0.5-1.7c-0.3-0.4-0.7-0.6-1.3-0.6c-0.5,0-1,0.2-1.3,0.6
	c-0.3,0.4-0.5,1-0.5,1.7v0.5c0,0.7,0.2,1.3,0.5,1.7c0.3,0.4,0.7,0.6,1.3,0.6c0.5,0,1-0.2,1.3-0.6c0.3-0.4,0.5-1,0.5-1.7V31.4z
	 M123.6,34.8h-0.8l-3.2-4.9v4.9h-0.8v-6.4h0.8l3.2,5v-5h0.8V34.8z M129.4,29.1h-2.1v5.7h-0.8v-5.7h-2.1v-0.7h4.9V29.1z M133.5,33.2
	h-2.7l-0.6,1.7h-0.9l2.4-6.4h0.7l2.4,6.4h-0.9L133.5,33.2z M131.1,32.5h2.2l-1.1-3L131.1,32.5z M140.5,32.8
	c-0.1,0.7-0.3,1.2-0.8,1.6c-0.4,0.4-1,0.5-1.7,0.5c-0.8,0-1.4-0.3-1.8-0.8c-0.5-0.5-0.7-1.3-0.7-2.2v-0.6c0-0.6,0.1-1.1,0.3-1.6
	c0.2-0.5,0.5-0.8,0.9-1c0.4-0.2,0.8-0.4,1.4-0.4c0.7,0,1.2,0.2,1.6,0.6c0.4,0.4,0.6,0.9,0.7,1.6h-0.8c-0.1-0.5-0.2-0.9-0.5-1.1
	c-0.2-0.2-0.6-0.3-1-0.3c-0.5,0-1,0.2-1.3,0.6c-0.3,0.4-0.5,1-0.5,1.7V32c0,0.7,0.1,1.2,0.4,1.7c0.3,0.4,0.7,0.6,1.2,0.6
	c0.5,0,0.8-0.1,1.1-0.3c0.3-0.2,0.4-0.6,0.5-1.1H140.5z M146,29.1h-2.1v5.7h-0.8v-5.7H141v-0.7h4.9V29.1z"/>
<path d="M399.5,32c-0.7-0.2-1.3-0.5-1.6-0.8c-0.3-0.3-0.5-0.7-0.5-1.1c0-0.5,0.2-0.9,0.6-1.2c0.4-0.3,0.9-0.5,1.6-0.5
	c0.4,0,0.8,0.1,1.2,0.3c0.3,0.2,0.6,0.4,0.8,0.7c0.2,0.3,0.3,0.6,0.3,1H401c0-0.4-0.1-0.7-0.4-0.9c-0.2-0.2-0.6-0.3-1-0.3
	c-0.4,0-0.7,0.1-1,0.3c-0.2,0.2-0.3,0.4-0.3,0.8c0,0.3,0.1,0.5,0.3,0.7c0.2,0.2,0.6,0.3,1.1,0.5c0.5,0.1,0.9,0.3,1.2,0.5
	c0.3,0.2,0.5,0.4,0.7,0.6c0.1,0.2,0.2,0.5,0.2,0.8c0,0.5-0.2,0.9-0.6,1.2c-0.4,0.3-0.9,0.5-1.6,0.5c-0.4,0-0.9-0.1-1.2-0.3
	c-0.4-0.2-0.7-0.4-0.9-0.7c-0.2-0.3-0.3-0.6-0.3-1h0.8c0,0.4,0.1,0.7,0.4,0.9c0.3,0.2,0.7,0.3,1.1,0.3c0.4,0,0.8-0.1,1-0.3
	c0.2-0.2,0.4-0.4,0.4-0.7s-0.1-0.6-0.3-0.7C400.5,32.3,400.1,32.1,399.5,32z M407.9,34.8H407v-3h-3.2v3H403v-6.4h0.8v2.8h3.2v-2.8
	h0.8V34.8z M414.3,31.8c0,0.6-0.1,1.2-0.3,1.6c-0.2,0.5-0.5,0.8-0.9,1.1c-0.4,0.2-0.8,0.4-1.4,0.4c-0.5,0-1-0.1-1.3-0.4
	c-0.4-0.2-0.7-0.6-0.9-1.1c-0.2-0.5-0.3-1-0.3-1.6v-0.5c0-0.6,0.1-1.2,0.3-1.6c0.2-0.5,0.5-0.8,0.9-1.1c0.4-0.3,0.8-0.4,1.3-0.4
	c0.5,0,1,0.1,1.4,0.4c0.4,0.2,0.7,0.6,0.9,1.1c0.2,0.5,0.3,1,0.3,1.6V31.8z M413.5,31.4c0-0.8-0.2-1.3-0.5-1.7
	c-0.3-0.4-0.7-0.6-1.3-0.6c-0.5,0-1,0.2-1.3,0.6c-0.3,0.4-0.5,1-0.5,1.7v0.5c0,0.7,0.2,1.3,0.5,1.7c0.3,0.4,0.7,0.6,1.3,0.6
	c0.5,0,1-0.2,1.3-0.6c0.3-0.4,0.5-1,0.5-1.7V31.4z M419.2,31.9h-2.8v2.3h3.2v0.7h-4.1v-6.4h4v0.7h-3.2v2.1h2.8V31.9z M422.6,32
	c-0.7-0.2-1.3-0.5-1.6-0.8c-0.3-0.3-0.5-0.7-0.5-1.1c0-0.5,0.2-0.9,0.6-1.2c0.4-0.3,0.9-0.5,1.6-0.5c0.4,0,0.8,0.1,1.2,0.3
	c0.3,0.2,0.6,0.4,0.8,0.7c0.2,0.3,0.3,0.6,0.3,1h-0.8c0-0.4-0.1-0.7-0.4-0.9c-0.2-0.2-0.6-0.3-1-0.3c-0.4,0-0.7,0.1-1,0.3
	c-0.2,0.2-0.3,0.4-0.3,0.8c0,0.3,0.1,0.5,0.3,0.7c0.2,0.2,0.6,0.3,1.1,0.5c0.5,0.1,0.9,0.3,1.2,0.5c0.3,0.2,0.5,0.4,0.7,0.6
	c0.1,0.2,0.2,0.5,0.2,0.8c0,0.5-0.2,0.9-0.6,1.2c-0.4,0.3-0.9,0.5-1.6,0.5c-0.4,0-0.8-0.1-1.2-0.3c-0.4-0.2-0.7-0.4-0.9-0.7
	c-0.2-0.3-0.3-0.6-0.3-1h0.8c0,0.4,0.1,0.7,0.4,0.9c0.3,0.2,0.7,0.3,1.1,0.3c0.4,0,0.8-0.1,1-0.3c0.2-0.2,0.4-0.4,0.4-0.7
	s-0.1-0.6-0.3-0.7C423.6,32.3,423.2,32.1,422.6,32z"/>
<path d="M439.5,32c-0.7-0.2-1.3-0.5-1.6-0.8c-0.3-0.3-0.5-0.7-0.5-1.1c0-0.5,0.2-0.9,0.6-1.2c0.4-0.3,0.9-0.5,1.6-0.5
	c0.4,0,0.8,0.1,1.2,0.3c0.3,0.2,0.6,0.4,0.8,0.7c0.2,0.3,0.3,0.6,0.3,1H441c0-0.4-0.1-0.7-0.4-0.9c-0.2-0.2-0.6-0.3-1-0.3
	c-0.4,0-0.7,0.1-1,0.3c-0.2,0.2-0.3,0.4-0.3,0.8c0,0.3,0.1,0.5,0.3,0.7c0.2,0.2,0.6,0.3,1.1,0.5c0.5,0.1,0.9,0.3,1.2,0.5
	c0.3,0.2,0.5,0.4,0.7,0.6c0.1,0.2,0.2,0.5,0.2,0.8c0,0.5-0.2,0.9-0.6,1.2c-0.4,0.3-0.9,0.5-1.6,0.5c-0.4,0-0.9-0.1-1.2-0.3
	c-0.4-0.2-0.7-0.4-0.9-0.7c-0.2-0.3-0.3-0.6-0.3-1h0.8c0,0.4,0.1,0.7,0.4,0.9c0.3,0.2,0.7,0.3,1.1,0.3c0.4,0,0.8-0.1,1-0.3
	c0.2-0.2,0.4-0.4,0.4-0.7s-0.1-0.6-0.3-0.7C440.5,32.3,440.1,32.1,439.5,32z M447.4,29.1h-2.1v5.7h-0.8v-5.7h-2.1v-0.7h4.9V29.1z
	 M450.4,31.6l1.7-3.2h1l-2.2,4v2.4h-0.8v-2.4l-2.2-4h1L450.4,31.6z M454.7,34.1h3v0.7h-3.9v-6.4h0.8V34.1z M462.3,31.9h-2.8v2.3h3.2
	v0.7h-4.1v-6.4h4v0.7h-3.2v2.1h2.8V31.9z"/>
<ellipse class="st2" cx="485.9" cy="31.3" rx="6" ry="5.5"/>
<ellipse class="st2" cx="503.9" cy="31.3" rx="6" ry="5.5"/>
</svg>
