<?xml version="1.0" encoding="utf-8"?>
<!-- Generator: Adobe Illustrator 25.1.0, SVG Export Plug-In . SVG Version: 6.00 Build 0)  -->
<svg version="1.1" id="Layer_1" xmlns="http://www.w3.org/2000/svg" xmlns:xlink="http://www.w3.org/1999/xlink" x="0px" y="0px"
	 viewBox="0 0 593.8 324.5" style="enable-background:new 0 0 593.8 324.5;" xml:space="preserve">
<style type="text/css">
	.st0{fill:#FFFFFF;}
	.st1{display:none;}
	.st2{display:inline;fill:#FFFFFF;stroke:#000000;stroke-width:0.25;}
	.st3{display:inline;}
	.st4{fill:#C4C4C4;}
	.st5{font-family:'MyriadPro-Regular';}
	.st6{font-size:8.363px;}
	.st7{font-family:'Graphie-Bold';}
	.st8{font-size:45.9813px;}
	.st9{font-size:5.5317px;}
</style>
<rect y="0.1" class="st0" width="593.8" height="324.3"/>
<g id="Article2" class="st1">
	<rect x="20.4" y="72.7" class="st2" width="16.7" height="33.6"/>
	<path class="st3" d="M20.9,71.2c-0.3,0-0.5,0.2-0.5,0.5s0.2,0.5,0.5,0.5c0.1,0,0.2,0,0.3-0.1v-0.3l0,0c-0.1,0.1-0.1,0.1-0.3,0.1
		c-0.2,0-0.3-0.1-0.3-0.3C20.6,71.4,20.7,71.3,20.9,71.2c0.1,0.1,0.2,0.1,0.3,0.2l0,0v-0.3C21.1,71.2,21,71.2,20.9,71.2z M22,72.2
		h0.2l-0.4-1h-0.2l-0.4,1h0.2l0.1-0.2h0.4L22,72.2z M21.7,71.5l0.1,0.4h-0.3L21.7,71.5L21.7,71.5z M22.6,71.4h0.3v-0.2h-0.7v0.2
		H22.6l-0.1,0.8h0.2L22.6,71.4L22.6,71.4z M23.5,71.6h-0.4v-0.2h0.5v-0.2h-0.7v1h0.7V72h-0.5v-0.2h0.4V71.6z M24.2,71.4
		c0.1,0,0.2,0,0.3,0.1l0,0v-0.3c-0.1-0.1-0.2-0.1-0.3-0.1c-0.3,0-0.5,0.2-0.5,0.5s0.2,0.5,0.5,0.5c0.1,0,0.2,0,0.3-0.1v-0.5
		L24.2,71.4l-0.1,0.4h0.2V72h-0.1c-0.2,0-0.3-0.1-0.3-0.3C23.9,71.5,24.1,71.4,24.2,71.4z M25.1,71.2c-0.3,0-0.5,0.2-0.5,0.5
		s0.2,0.5,0.5,0.5s0.5-0.2,0.5-0.5S25.4,71.2,25.1,71.2z M25.1,71.4c0.2,0,0.3,0.1,0.3,0.3c0,0.2-0.1,0.3-0.3,0.3s-0.3-0.1-0.3-0.3
		C24.9,71.5,25,71.4,25.1,71.4z M25.9,71.9h0.2l0.2,0.4h0.2l-0.2-0.4c0.1,0,0.2-0.1,0.2-0.3c0-0.2-0.1-0.3-0.3-0.3h-0.5v1h0.2V71.9z
		 M25.9,71.7v-0.3h0.2c0.1,0,0.1,0,0.1,0.1s0,0.1-0.1,0.1h-0.2V71.7z M27.1,72.2v-0.4l0.4-0.6h-0.2l-0.2,0.4l-0.2-0.4h-0.2l0.4,0.6
		V72.2L27.1,72.2z"/>
	<path class="st3" d="M16.4,77.9h0.4v-0.4h-1.2v0.4h0.5v1.4h0.3L16.4,77.9L16.4,77.9z M17,79.3h0.3v-1.8H17V79.3z M18.4,77.9h0.4
		v-0.4h-1.2v0.4h0.5v1.4h0.3L18.4,77.9L18.4,77.9z M20.2,79.3v-0.4h-0.8v-1.4h-0.3v1.8H20.2L20.2,79.3z M21.4,78.3h-0.7v-0.4h0.8
		v-0.4h-1.1v1.8h1.1v-0.4h-0.8v-0.4h0.6L21.4,78.3L21.4,78.3z"/>
</g>
<g id="Header">
	<ellipse class="st4" cx="45.2" cy="46" rx="29.7" ry="30.2"/>
	<ellipse class="st4" cx="545.2" cy="39.9" rx="7.2" ry="6.3"/>
	<ellipse class="st4" cx="567.7" cy="39.9" rx="7.2" ry="6.3"/>
	<text transform="matrix(1.0034 0 0 1 100.8132 46.0459)" class="st5 st6">ABOUT</text>
	<text transform="matrix(1.0034 0 0 1 133.7166 46.0405)" class="st5 st6">ART</text>
	<text transform="matrix(1.0034 0 0 1 454.8083 46.2226)" class="st5 st6">SHOES</text>
	<text transform="matrix(1.0034 0 0 1 487.9265 46.0459)" class="st5 st6">STYLE</text>
</g>
<text transform="matrix(1.1483 0 0 1 74.8757 183.5073)" class="st7 st8">IL ÉTAIT UNE FOIS</text>
<text transform="matrix(1.0034 0 0 1 36.1961 46.1621)" class="st5 st9">LOGO</text>
</svg>
