<?xml version="1.0" encoding="utf-8"?>
<!-- Generator: Adobe Illustrator 25.1.0, SVG Export Plug-In . SVG Version: 6.00 Build 0)  -->
<svg version="1.1" id="Layer_1" xmlns="http://www.w3.org/2000/svg" xmlns:xlink="http://www.w3.org/1999/xlink" x="0px" y="0px"
	 viewBox="0 0 293 260" style="enable-background:new 0 0 293 260;" xml:space="preserve">
<style type="text/css">
	.st0{fill:#FDA47B;}
	.st1{fill:#A1D3B8;}
	.st2{fill:#FFFFFF;}
</style>
<path class="st0" d="M254.1,156c0,17-14.2,30-28,43.7c-13.8,13.7-26.1,27.7-48.3,32.9s-42.8-1.9-65-7.2s-44.7-8.4-58.3-22.1
	s-6.1-30.3-6.1-47.4s-7.6-33.6,6.1-47.4s35.8-17.6,58.1-22.9c22.2-5.3,43.2-11.6,65.3-6.5c22.2,5.3,17.8,28.1,31.5,41.9
	C223.1,134.9,254.1,139,254.1,156z"/>
<path class="st1" d="M233.4,86.3c0,14.3-11.2,25.2-22,36.9c-10.8,11.6-20.6,23.3-38,27.7c-17.5,4.4-33.8-1.6-51.1-6s-35.1-7-46-18.6
	s-4.8-25.6-4.8-39.9S65.5,58,76.2,46.4c10.8-11.6,28.2-14.8,45.7-19.3s34-9.8,51.4-5.4c17.5,4.4,14,23.6,24.8,35.3
	C208.9,68.6,233.4,71.9,233.4,86.3z"/>
<g>
	<path class="st2" d="M86.8,49.5H156c38.2,0,55.2,19,55.2,41.9c0,19.3-11.5,31.8-24.7,36.3c12.2,3.8,30.3,15.6,30.3,39.5
		c0,30.9-24.9,49-59,49H86.8V49.5z M151.5,118.2c24.1,0,33.5-9.1,33.5-24.5c0-14.2-10.9-24-30.4-24h-42.3v48.6
		C112.3,118.2,151.5,118.2,151.5,118.2z M112.4,196.2H154c21.8,0,35.9-9.6,35.9-29.2c0-17.3-11.7-28.7-39.6-28.7h-38L112.4,196.2
		L112.4,196.2L112.4,196.2z"/>
</g>
</svg>
