<?xml version="1.0" encoding="utf-8"?>
<!-- Generator: Adobe Illustrator 25.1.0, SVG Export Plug-In . SVG Version: 6.00 Build 0)  -->
<svg version="1.1" id="Layer_1" xmlns="http://www.w3.org/2000/svg" xmlns:xlink="http://www.w3.org/1999/xlink" x="0px" y="0px"
	 viewBox="0 0 293 260" style="enable-background:new 0 0 293 260;" xml:space="preserve">
<style type="text/css">
	.st0{fill:#FDA47B;}
	.st1{fill:#A1D3B8;}
	.st2{fill:#FFFFFF;}
</style>
<path class="st0" d="M272,166.3c0,20.3-16.4,35.8-32.3,52.2s-30.2,33-55.8,39.3s-49.5-2.3-75.1-8.6s-51.6-10-67.4-26.4
	s-7-36.2-7-56.6s-8.8-40.1,7-56.6s41.4-21,67.1-27.3s49.9-13.9,75.5-7.7c25.6,6.3,20.6,33.5,36.4,50S272,146,272,166.3z"/>
<path class="st1" d="M248,83.1c0,17.1-12.9,30.1-25.4,44c-12.5,13.8-23.8,27.8-43.9,33.1c-20.2,5.3-39-1.9-59.1-7.2
	s-40.6-8.4-53.1-22.2S61,100.3,61,83.2s-7-33.9,5.4-47.8c12.5-13.8,32.6-17.7,52.8-23S158.5,0.7,178.6,6
	c20.2,5.3,16.2,28.2,28.6,42.1C219.7,61.9,248,65.9,248,83.1z"/>
<g>
	<path class="st2" d="M78.6,39.1h80c44.1,0,63.8,22.7,63.8,50c0,23-13.3,38-28.5,43.3c14.1,4.5,35,18.6,35,47.2
		c0,36.9-28.8,58.5-68.2,58.5H78.6V39.1z M153.4,121.1c27.8,0,38.7-10.9,38.7-29.3c0-17-12.6-28.7-35.1-28.7h-48.9v58H153.4z
		 M108.2,214.2h48.1c25.2,0,41.5-11.4,41.5-34.9c0-20.6-13.5-34.3-45.8-34.3h-43.9v69.2L108.2,214.2L108.2,214.2z"/>
</g>
</svg>
