<?xml version="1.0" encoding="utf-8"?>
<!-- Generator: Adobe Illustrator 25.1.0, SVG Export Plug-In . SVG Version: 6.00 Build 0)  -->
<svg version="1.1" id="Layer_1" xmlns="http://www.w3.org/2000/svg" xmlns:xlink="http://www.w3.org/1999/xlink" x="0px" y="0px"
	 viewBox="0 0 576 630.5" style="enable-background:new 0 0 576 630.5;" xml:space="preserve">
<style type="text/css">
	.st0{display:none;}
	.st1{display:inline;}
	.st2{fill:none;stroke:#262626;stroke-miterlimit:10;}
	.st3{opacity:0.49;fill:#B3D1C6;enable-background:new    ;}
	.st4{fill:none;stroke:#121212;stroke-width:3;stroke-miterlimit:10;}
</style>
<g id="Layer_2_1_" class="st0">
	<g id="Layer_1-2" class="st1">
		<g id="losange">
			<polygon class="st2" points="239.9,138.1 281.1,270.8 321.4,138.9 281.3,41.4 			"/>
			<path class="st2" d="M283.9,537C264,278.7,366.3,104.7,386.4,108.9c0.6,0,81.5,107.4,78.1,108.4
				C330.9,256.9,286.2,567.9,283.9,537z"/>
			<path class="st2" d="M248.8,556.1"/>
			<path class="st2" d="M283.9,538.2c53.3-196,164.2-291.5,176.6-282.1c0.3,0.5,25.3,104.7,22.8,104.4
				C386.2,347.2,277.6,562,283.9,538.2z"/>
			<path class="st2" d="M283.1,536.5c-53-178.2-152.4-271.7-178.3-278.9c-2.6-0.7-5.2,0.5-5.8,2.7c0,0,0,0.2,0,0.5
				c-4,17.3-21.9,101.9-19.6,101.7C175.9,347.5,290,559.8,283.1,536.5z"/>
			<path class="st2" d="M284.2,534.8c13.8-258.6-92.5-430.3-112.6-425.9c-0.6,0-78.9,108.9-75.5,109.9
				C230.7,255.7,282.5,565.7,284.2,534.8z"/>
		</g>
	</g>
</g>
<g id="Layer_2_2_">
	<polygon class="st3" points="241.3,131.1 278.1,275.8 322.5,134.1 285.7,27.5 	"/>
	<path class="st3" d="M272.5,563.8c-11.7-280,95.8-465.1,116-460.1c0.6,0.1,77.8,118.5,74.3,119.6
		C328.1,262.2,273.9,597.4,272.5,563.8z"/>
	<path class="st3" d="M245.7,582.2"/>
	<path class="st3" d="M272.2,565.3c59.4-210.5,173.2-310.6,185.2-300c0.3,0.4,22,113.9,19.4,113.5
		C380.4,361.6,265.1,590.5,272.2,565.3z"/>
	<path class="st3" d="M271.6,563.4c-47.2-194.4-143.3-298.3-168.8-307c-2.6-0.9-5.4,0.7-6.1,3.3C92.2,278.3,71.7,369.4,74,369
		C170.8,355.6,277.7,588.7,271.6,563.4z"/>
	<path class="st3" d="M272.8,561.4C294.8,282,194.3,93.1,174,97.3c-0.6,0.1-82.2,115.6-78.7,116.7
		C228.3,257.9,270.1,594.9,272.8,561.4z"/>
</g>
<g id="Layer_1_1_">
	<g id="losange_1_">
		<polygon class="st4" points="228.5,145.3 268.5,285.5 307.6,145.9 268.7,42.9 		"/>
		<path class="st4" d="M271.3,566.9c-19.4-273,79.9-456.9,99.7-452.6c0.6,0.1,79.2,113.5,75.8,114.6
			C316.8,270.8,273.6,599.7,271.3,566.9z"/>
		<path class="st4" d="M237.1,587"/>
		<path class="st4" d="M271.2,568.3C323,361.1,430.9,260.2,442.8,270.2c0.3,0.4,24.7,110.6,22.2,110.3
			C370.7,366.4,265,593.2,271.2,568.3z"/>
		<path class="st4" d="M270.4,566.4C218.8,378,122.3,279.3,97.2,271.5c-2.6-0.8-5.2,0.8-5.8,3.4c-3.8,18.3-21.2,107.8-19,107.4
			C166.3,366.5,277.2,591.1,270.4,566.4z"/>
		<path class="st4" d="M271.5,564.5c13.4-273.4-89.9-455-109.6-450.3c-0.6,0.1-76.7,115.2-73.3,116.2
			C219.6,269.4,270,597.3,271.5,564.5z"/>
	</g>
</g>
</svg>
