<?xml version="1.0" encoding="utf-8"?>
<!-- Generator: Adobe Illustrator 25.1.0, SVG Export Plug-In . SVG Version: 6.00 Build 0)  -->
<svg version="1.1" id="Layer_1" xmlns="http://www.w3.org/2000/svg" xmlns:xlink="http://www.w3.org/1999/xlink" x="0px" y="0px"
	 viewBox="0 0 549.8 648" style="enable-background:new 0 0 549.8 648;" xml:space="preserve">
<style type="text/css">
	.st0{display:none;fill:#B3D1C6;stroke:#EFF5F3;stroke-width:0.75;stroke-miterlimit:10;}
	.st1{fill:#DEDBEB;}
	.st2{fill:none;stroke:#000000;stroke-width:2;stroke-miterlimit:10;}
</style>
<rect x="189.5" y="-126.5" class="st0" width="576" height="640"/>
<g id="LosangePurple">
	<polygon id="diamondMiddle" class="st1" points="235.4,139.8 276.2,275 316,140.3 276.4,41 	"/>
	<path id="leaveTopRight" class="st1" d="M273.7,569.6C253.3,283,357.9,89.9,378.8,94.4c0.6,0.1,83.4,119.2,79.9,120.3
		C321.7,258.7,276.2,604,273.7,569.6z"/>
	<path id="leaveBottomRight" class="st1" d="M273.6,569.9C328.2,344.7,441.9,235,454.4,245.9c0.3,0.4,26,120.2,23.4,119.9
		C378.5,350.4,267.1,597,273.6,569.9z"/>
	<path id="leaveBottomRight_2_" class="st1" d="M271.6,569.6C217,344.4,103.3,234.7,90.8,245.5c-0.3,0.4-26,120.2-23.4,119.9
		C166.7,350.1,278.1,596.7,271.6,569.6z"/>
	<path id="leaveTopLeft" class="st1" d="M274,569.6C288.1,281,179.2,89.3,158.5,94.3c-0.6,0.1-80.8,121.6-77.2,122.6
		C219.3,258.1,272.4,604.2,274,569.6z"/>
</g>
<g id="Losange">
	<polygon id="diamondMiddle_1_" class="st2" points="228.7,151.1 268.7,291.3 307.8,151.7 268.9,48.7 	"/>
	<path id="leaveTopRight_1_" class="st2" d="M271.5,572.7c-19.4-273,79.9-456.9,99.7-452.6c0.6,0.1,79.2,113.5,75.8,114.6
		C317,276.6,273.8,605.5,271.5,572.7z"/>
	<path id="leaveBottomRight_1_" class="st2" d="M271.4,574.1C323.2,366.9,431.1,266,443,276c0.3,0.4,24.7,110.6,22.2,110.3
		C370.9,372.2,265.2,599,271.4,574.1z"/>
	<path id="leaveBottomLeft" class="st2" d="M270.6,572.2C219,383.8,122.5,285.1,97.4,277.3c-2.6-0.8-5.2,0.8-5.8,3.4
		c-3.8,18.3-21.2,107.8-19,107.4C166.5,372.3,277.4,596.9,270.6,572.2z"/>
	<path id="leaveTopLeft_1_" class="st2" d="M271.7,570.3c13.4-273.4-89.9-455-109.6-450.3c-0.6,0.1-76.7,115.2-73.3,116.2
		C219.8,275.2,270.2,603.1,271.7,570.3z"/>
</g>
</svg>
