<?xml version="1.0" encoding="utf-8"?>
<!-- Generator: Adobe Illustrator 25.1.0, SVG Export Plug-In . SVG Version: 6.00 Build 0)  -->
<svg version="1.1" id="Layer_1" xmlns="http://www.w3.org/2000/svg" xmlns:xlink="http://www.w3.org/1999/xlink" x="0px" y="0px"
	 viewBox="0 0 92.9 69.6" style="enable-background:new 0 0 92.9 69.6;" xml:space="preserve">
<style type="text/css">
	.st0{fill:none;stroke:#1D1E1E;stroke-width:2;stroke-miterlimit:10;}
	.st1{opacity:0.28;}
	.st2{fill:#E2CFD6;stroke:#E2CFD6;stroke-miterlimit:10;}
	.st3{fill:#F2E5E2;}
	.st4{fill:none;stroke:#FF945B;stroke-miterlimit:10;}
	.st5{fill:none;stroke:#A9C1ED;stroke-width:3;stroke-miterlimit:10;}
	.st6{opacity:0.8;fill:none;stroke:#8BC7C0;stroke-miterlimit:10;enable-background:new    ;}
	.st7{opacity:0.8;fill:none;stroke:#A9C1ED;stroke-width:3;stroke-miterlimit:10;enable-background:new    ;}
</style>
<g id="Layer_3">
</g>
<g id="Layer_2_1_">
	<path class="st0" d="M73.5-3.2"/>
	<g class="st1">
		<g>
			<path class="st2" d="M22.1,30.4c-3.8,7.7-3.1,16.3,3.1,22.5c4.1,4.1,12.1-1.5,8.3-6.4c-2.7-3.5-1.7-7.8-1.4-11.9
				c-2.1,0.3-4.2,0.6-6.3,0.8c2.1,5.6,5.1,10.4,9.4,14.7c2.7,2.7,7.1,0.6,7.2-3c0.1-4.4,0-8.7-0.2-13c-2.8,0.8-5.6,1.5-8.4,2.3
				c2,3.6,4.1,7.2,6.1,10.8c2.2,3.9,8.7,2.3,8.5-2.3c-0.2-4-0.3-8-0.5-11.9c-2.8,0.8-5.7,1.5-8.5,2.3c1.3,3,2.2,6.4,3.8,9.3
				c2.3,4.2,9.2,2.3,9.1-2.5c-0.1-4.1-0.2-8.2-0.3-12.3c-2.5,0.3-5.1,0.7-7.6,1c1.7,4.2,2.2,9.1,3.2,13.5c1,4.5,8.8,4.8,9.5,0
				c0.6-4.2,0.5-8.5,0.5-12.7c-3.1,0.4-6.1,0.8-9.2,1.2c1.3,4.9,0.8,10.1,2.1,14.9c1.7,6.7,11,4.8,11.5-1.5c0.2-3.3,0.5-6.6,0.7-9.9
				c-3.6,0-7.3,0-10.9,0c0.4,3.8,1.1,7.7,0.7,11.5c3.7,0,7.4,0,11.1,0c-0.2-1.3-0.3-2.6-0.6-3.9c-1.3-6.7-11.1-4.7-11.4,1.5
				c-0.1,1.9-0.9,3-2.5,4c2.4,2.4,4.8,4.8,7.2,7.2c1.6-3.2,1.8-6.4-0.3-9.5c-1.6-2.3-4.7-3.5-7.3-1.9c-4.3,2.6-5.8,7.9-3.1,12.3
				c2.2,3.6,9,3.5,9.8-1.3c1-6-2.9-13.1-10.1-10.6c-5.6,2-5.8,9.2-1,12.1c2,1.2,5,0.5,6-1.6c1.8-3.5,1.9-6.1,0.3-9.7
				c-0.7-1.6-3.1-2.9-4.9-2.8c-5,0.4-8.5,5-8.9,9.9c-0.1,1.5,0.9,2.8,2,3.5c0.4,0.3,0.8,0.5,1.2,0.8c1.2,0.8,3.3,0.9,4.5,0
				c4.7-3.3,5.1-11.5-2-12.4s-8.3,6.8-5.4,11.6c2.1,3.5,8.6,2.3,8.2-2.2c-0.4-4.3-2.7-6.9-6.8-8.2c-3-1-5.7,1.6-5.9,4.5
				c-0.2,2.7,0.7,4.9,2.8,6.6c4,3.1,10.3-0.7,7.4-5.7c-2.4-4.3-7.5-3.9-11.5-2.7c-2.4,0.7-3.4,3-3,5.3c2.1,13.1,24.5,16.6,30,4.2
				c1-2.3,1,1.1-1-0.6c-0.4-0.4,0.6,0.6,0.3,0.1c0.3,0.4,2.4,0.9,3,1.1c2.5,0.9,5.1,1.8,7.7,1c3.3-1,4.1-3.3,5.5-6
				c1.5-2.9,3.7-5,3.3-8.8c-0.2-1.6-1.1-2.9-1.4-4.4c-0.3-1.9,0.5-3.5,0.9-5.4c0.8-4.3,0.2-8.7-1.3-12.8c-2.9-7.4-9-14.7-16.2-18.3
				c-14.2-7.1-31.9-2.2-39.6,12c-2.1,3.8-2.9,7.6-3.5,11.8c-0.6,3.8-1.4,7.7,1.9,10.7c3.8,3.5,8.9,2,12.4-1.2c1.3-1.1,2.2-2.4,3-4
				c0.6-1.2,0.7-1.8,0.9-2.9c0.1-0.6,0.2-1.2,0.2-1.9c0.4-2.4-0.3-1.9-2.1,1.5c-2.8-1.6-5.7-3.2-8.5-4.8c0.6,2.3,1.2,4.5,1.7,6.8
				c1.5,6.1,9.2,6.2,12.4,1.6c2.3-3.3,3.8-6.9,4.5-10.9c-4.1,0.5-8.1,1.1-12.2,1.6c1.4,2.2,2.9,4.3,4.3,6.4
				c3.6,5.4,10.7,2.8,11.5-3.1c0.3-2.5,0.6-5,1-7.5c-3.2,0.8-6.3,1.7-9.5,2.5c1.8,2,3.6,4.1,5.5,6c3.4,3.6,9,0.7,9.3-3.8
				c0.1-2.1,0.5-3.8,1.1-5.8c-3.8,0-7.6,0-11.4,0c1.2,3.2,3.9,5,5.3,8c1.2,2.7,5.1,3.3,7.5,2c3.5-2.4,5.2-5.5,5.2-9.5
				c-0.1-6.8-10.3-8.5-12.1-1.6c-1.6,6.1,1.7,11,7.4,13.1c-1.5-1.5-3-3-4.5-4.5c0.5,1.6,1.1,3.2,1.6,4.9c2.7,8,15.5,4.5,12.7-3.5
				c-0.7-2-1.2-4.6-2.4-6.4c-0.6-1-1.4-1.8-2.3-2.3c-2-1.1-2.1-0.9-0.3,0.5c-4,0.5-8.1,1.1-12.1,1.6c0.1-0.3,0.2-0.6,0.3-1
				c2.6,0,5.1,0,7.7,0c-1.3-1.6-1.8-4.9-3.9-7.1C48.8,10.3,41.6,13,42,18.1c0.2,2.1,0.2,3.9-0.2,6c3-0.8,6.1-1.6,9.1-2.4
				c-1.7-2.2-3.5-4.2-5.2-6.4c-2.7-3.3-8.6-1.4-9.5,2.5c-0.7,3-1.5,5.9-2.2,8.9c3.8-0.5,7.5-1,11.3-1.5c-1.1-2.3-2.2-4.6-3.4-6.9
				c-2.6-4.8-11.1-4.1-12.2,1.6c-0.6,3-1.6,5.2-3.4,7.6c4.1,0.5,8.3,1.1,12.4,1.6c-0.5-2.3-1-4.6-1.6-6.9c-0.9-3.9-5-5.5-8.5-4.8
				c-3.3,0.6-5.6,2.7-7,5.7c-0.4,0.9-1.7,4-1.1,4.8c-0.2-0.3,2-0.7,2.3-0.7c1.6,0.7,3.3,1.4,4.9,2c-0.1-0.2-0.3-0.4-0.4-0.5
				c0.7,1.7,1.4,3.3,2,4.9c-0.5-10,7.3-19.7,17.9-18.5c5.6,0.7,10,4.2,13.1,8.8c1.6,2.4,3.1,5.3,2.9,8.3c-0.3,3.1-1.6,5.8-1.3,9.1
				c0.1,1.6,0.4,3.4,1,4.8c0.2,0.5,0.5,1.1,0.7,1.7c0.7-3.4,0.6-4.2-0.5-2.4c-1.5,1.4-2.6,4.1-2.7,6c-0.7,3.6,1.4,2.1,6.2-4.5
				c-0.4-0.1-0.8-0.2-1.2-0.3c-0.6-0.3-1.4-0.5-2.1-0.7c-1.9-0.6-4-1.1-6-1.1c-6.1,0.2-7,5-10.8,8.4c-2.3,2-8.8,0.7-10.4-2
				c-0.5,2-1,3.9-1.5,5.9c-1.1,0.1-1.1,0.1,0,0.1c0.9,0.4,0.9,0.2-0.1-0.7c2.2-2.2,4.3-4.3,6.5-6.5c0.2,0.3,0.5,0.6,0.7,0.8
				c-2,1.5-3.9,3-5.9,4.5c0.6,0.3,1,0.8,1.1,1.5c2.3-1.8,4.6-3.6,6.9-5.3c-0.2,0-0.3,0-0.5,0c-1,1-1.9,1.9-2.9,2.9
				c-0.5-1.2-1.1-2.4-1.6-3.7c1-0.4,2.1-0.9,3.1-1.3c-0.5,0-0.9-0.1-1.3-0.1c1,0.4,1.9,0.8,2.9,1.2c-0.1-0.2-0.2-0.4-0.3-0.6
				c-0.4,0.8-0.9,1.5-1.3,2.3c-1.7-0.6-1.8-0.2-0.5,0.9c1.4,1.3,1.5,1.2,0.5-0.5c2.5-0.7,4.9-1.3,7.4-1.9c-1.5,0.9-3.1,1.8-4.6,2.7
				c3.3-0.4,6.5-0.8,9.8-1.3c-0.3,0.8-0.5,1.6-0.8,2.3c-2.4-0.6-4.8-1.3-7.3-1.9c0.1-0.4,0.3-0.8,0.4-1.1c-1.9,4.2,2.4,10.5,7.2,7.2
				c4.2-2.9,6.9-6.8,8.7-11.5c-3.7,0-7.5,0-11.2,0c0.4,1.2,0.9,2.4,1.5,3.6c2.7,5.9,11.5,1.6,10.1-4.3c-0.8-3.3-0.6-6.7-0.7-10.1
				c-0.2-5.8-9.8-7.8-10.7-1.5c-0.5,3.3-1,6.5-1.5,9.8c3.8,0,7.5,0,11.3,0c-0.7-3.8-3.5-9.2-4.4-14.3c-1-5.6-8.7-3.6-9.2,1.2
				c-0.4,3.8-1,7.6-0.8,11.4c3.2-0.4,6.4-0.9,9.7-1.3c-1.8-4.2-4.2-8.5-5.2-13c-0.8-3.5-7-3.9-7.5,0c-0.5,4-1.1,8-1.6,12
				c3.1,0,6.3,0,9.4,0c-1.2-3.5-3.3-6.8-4.8-10.1c-1.9-4.2-8.8-2-8.5,2.3c0.2,4,0.4,8,0.6,11.9c2.8-0.8,5.7-1.5,8.5-2.3
				c-2-3.6-4.1-7.2-6.1-10.8c-2.2-3.8-8.6-2.2-8.4,2.3c0.2,4.4,0.3,8.7,0.8,13c2.1-1.2,4.3-2.4,6.4-3.7c-3.7-2.8-6.6-6.3-8.7-10.5
				c-1.4-2.7-4.9-1.5-5.8,0.8c-2.6,6.1-4.2,11.8-1.5,18.1c3.1-1.8,6.1-3.6,9.2-5.4c-2.7-4.2-5.5-8-4.5-13.2
				C29.7,29.4,24.1,26.3,22.1,30.4L22.1,30.4z"/>
		</g>
	</g>
	<g class="st1">
		<g>
			<path class="st3" d="M57.3,58.8c5.7,0,5.7-8.9,0-8.9C51.5,49.9,51.5,58.8,57.3,58.8L57.3,58.8z"/>
		</g>
	</g>
	<path class="st4" d="M21.2,38.9"/>
	<path class="st5" d="M21.1,6.3c-18,42.6,20.1,71.9,36.3,57.1"/>
	<path class="st6" d="M57.8,63.8"/>
	<path class="st6" d="M9.9,12.4"/>
</g>
<g id="Layer_4">
	<path class="st7" d="M78.1,43c6.3-14.5-3.4-30.9-17-36.4C45.9,0.5,28.2,8.2,23.3,24C19.2,37.4,28,54.4,43.6,51.3
		c6.3-1.2,8.8-5.2,11.8-10.8c1.8-3.3,3.9-6.7,2.4-10.7c-3.2-9-18.2-4.8-15.3,5c0.7,2.3,4.4,6.6,8.1,6.5"/>
</g>
<g id="Layer_5">
	<path class="st7" d="M58.1,42.5c4.4-0.8,7.9-2.3,12.5-1.8c5.1,0.5,8,5.7,6.6,10.4c-1.4,4.8-5.8,8.5-10.5,9.8
		c-3.9,1.1-11.5,0.3-12.5-5.4c-1.3-7.8,13.1-4.3,5.6,3"/>
</g>
</svg>
