<?xml version="1.0" encoding="utf-8"?>
<!-- Generator: Adobe Illustrator 25.1.0, SVG Export Plug-In . SVG Version: 6.00 Build 0)  -->
<svg version="1.1" xmlns="http://www.w3.org/2000/svg" xmlns:xlink="http://www.w3.org/1999/xlink" x="0px" y="0px"
	 viewBox="0 0 71.1 69.7" style="enable-background:new 0 0 71.1 69.7;" xml:space="preserve">
<style type="text/css">
	.st0{display:none;}
	.st1{display:inline;fill:none;stroke:#1D1E1E;stroke-width:2;stroke-miterlimit:10;}
	.st2{fill:none;stroke:#CCDAF2;stroke-width:3;stroke-miterlimit:10;enable-background:new    ;}
	.st3{fill:none;stroke:#A9C1ED;stroke-width:3;stroke-miterlimit:10;enable-background:new    ;}
</style>
<g id="Layer_2" class="st0">
	<path class="st1" d="M-32.6,58.1"/>
	<path class="st1" d="M-30.1,57.2"/>
</g>
<g id="Layer_4_1_">
	<path class="st2" d="M16,10.9C0.2,42,29.9,67.9,42.8,55.2l0.7-0.9c5.6-5.8-5.2-8.7-4.2-2.5c0.8,5,6.5,5.2,9.2,4.4
		c3.5-1.1,6.7-4.1,7.7-7.9c1-3.8-1.1-8-4.9-8.4c-3.4-0.3-12.9,0.4-12.9,0.4c-3.3-0.6-6-3.3-6.5-5.2c-2.2-7.9,8.9-11.2,11.3-4
		c1.1,3.3-0.4,5.9-1.8,8.6c-2.3,4.5-4.1,7.7-8.7,8.7c-11.5,2.5-18-11.2-15-21.9c3.6-12.8,16.7-18.9,27.8-14
		c10,4.4,17.2,17.6,12.5,29.2"/>
	<path class="st3" d="M15.4,10.9C2.1,42.8,26.6,68,42.4,56"/>
	<g id="Layer_4">
		<path class="st3" d="M57.8,42.2c4.7-11.7-3.1-25.4-13.2-29.8c-11.1-4.9-24.2,1.3-27.8,14c-3,10.7,3.5,24.4,15,21.9
			c4.6-1,6.3-4.3,8.6-8.8c1.3-2.7,3-5.2,1.9-8.5c-2.4-7.2-13.4-3.9-11.3,4c0.7,2.6,4.3,5.1,7.5,5.3l1.1,0.2
			c6.2,0.5,9.5-0.4,12.9-0.1c3.9,0.4,6,4.5,5,8.4c-1.1,3.9-4.4,6.9-8,8c-3,0.9-8.7,0.3-9.4-4.3c-0.9-6.2,10-3.5,4.2,2.4"/>
	</g>
</g>
</svg>
