<?xml version="1.0" encoding="utf-8"?>
<!-- Generator: Adobe Illustrator 25.1.0, SVG Export Plug-In . SVG Version: 6.00 Build 0)  -->
<svg version="1.1" id="Layer_1" xmlns="http://www.w3.org/2000/svg" xmlns:xlink="http://www.w3.org/1999/xlink" x="0px" y="0px"
	 viewBox="0 0 620.2 728" style="enable-background:new 0 0 620.2 728;" xml:space="preserve">
<style type="text/css">
	.st0{display:none;}
	.st1{fill:none;stroke:#ECE0D5;stroke-width:10;stroke-miterlimit:10;}
</style>
<g id="Layer_1_1_" class="st0">
</g>
<g id="Layer_2_1_">
	<path class="st1" d="M-56.8,47.9c-0.3,0-2.3,0-2.3,0.4s2.1,0.4,2.3,0.4c0.3,0,2.3,0,2.3-0.4S-56.5,47.9-56.8,47.9z"/>
	<path class="st1" d="M132,748.4c-28.4,0.1-56.9,0.2-85.3,0.3c-7.1,0-14.2,0.1-21.2,0.1c-6.9,0-13.9,0.2-20.8-0.1
		c-11.1-0.5-21.6-3.2-30.3-7.9c-9.2-4.9-16.2-11.6-19.5-19.2c-0.3-0.7-4.7-0.3-4.6,0c5.9,13.7,23.7,24.4,44.6,27
		c6.7,0.8,13.6,0.9,20.4,0.9c7.4,0,14.9-0.1,22.3-0.1l44.4-0.2c16.7-0.1,33.4-0.1,50.1-0.2c0.3,0,2.3,0,2.3-0.4
		C134.3,748.4,132.2,748.4,132,748.4z"/>
	<path class="st1" d="M134,750.9c-1.5-0.5-2.9-1-4.4-1.5c-0.4-0.1-1-0.1-1.4-0.2c-0.6,0-1.2,0-1.8,0c-0.2,0-0.3,0-0.5,0.1
		c-0.2,0-0.4,0.1-0.6,0.2c-0.2,0.1,0.1,0.2,0.2,0.3c1.5,0.5,2.9,1,4.4,1.5c0.4,0.1,1,0.1,1.4,0.2c0.6,0,1.2,0,1.8,0
		c0.2,0,0.3,0,0.5-0.1c0.2,0,0.4-0.1,0.6-0.2C134.4,751.1,134.1,751,134,750.9z"/>
	<path class="st1" d="M453.5,523c-0.3-0.7-4.7-0.2-4.6,0c2.1,4.4,4.1,9.4,2.4,14c-1.9,5.2-8.5,7.2-15.4,8.7
		c-3.5,0.8-6.9,1.6-10.1,2.9c-3.3,1.3-6.3,3-9.1,4.8c-2.9,1.9-5.8,3.8-8.3,5.9c-2.2,1.8-4.2,3.9-4.3,6.3c0,2.6,2.5,4.9,1.7,7.6
		c-0.7,2.3-3.5,4.1-6.3,5.5c-5.9,2.8-13.4,4.3-20.2,5.8c-13.5,2.9-28.1,5.3-38.8,11.9c-5.8,3.6-10.6,9-18.4,10.9
		c-5.6,1.4-12.8-1.1-13.2-5.3c0-0.6-4.6-0.5-4.6,0c0.3,4,6.2,5.9,11.5,6.3c6.9,0.5,12.8-0.9,17.9-4c5.9-3.6,10.3-7.9,17-10.8
		c6.5-2.9,13.9-4.7,21.3-6.3c7.3-1.6,14.8-3,22-4.9c6.1-1.7,14.5-4.1,16.2-8.8c1-2.8-1.8-5.2-1.6-7.9c0.2-2.8,3-5.2,5.7-7.2
		c5.6-4.1,11.8-8.5,19.5-10.7c7.3-2.1,16.4-2.8,20.5-8C458.5,534.5,455.9,528.1,453.5,523z"/>
	<path class="st1" d="M478.8,509.3c-0.8-4.1-2.8-8-5-11.8c-2.4-4-4.9-7.9-7.3-11.9c-0.5-0.7-4.7-0.2-4.6,0
		c4.6,7.5,10.5,15.1,12.3,23.2c1.1,5.1,0,10.7-4.3,15c-1-0.8-2.1-1.5-3.4-2.1c-7.8-3.7-18-1.5-26,0.6c-9.6,2.6-18.9,5.5-28,8.8
		c-10.2,3.7-19.9,7.8-29.3,12.3c-0.5,0.3,1.5,0.4,1.6,0.4c0.8,0,2.1,0.1,2.8-0.2c15.2-7.3,31.5-13.6,48.6-18.6
		c4.3-1.3,8.7-2.5,13.2-3.6c2.4-0.6,5.2-1.2,7.7-0.9c1.9,0.2,3.8,0.8,5.3,1.6c2,1,3.6,2.4,4.8,3.9c-0.6,0.4-1.2,0.8-1.9,1.2
		c-0.5,0.3,1.5,0.4,1.6,0.4c0.4,0,0.9,0,1.4,0c1.2,2.1,1.7,4.4,1.4,6.6c-0.8,6.7-7.4,12.4-13.3,17.6c-0.4,0.3,1.4,0.4,1.6,0.4
		c0.6,0,2.4,0.1,2.8-0.2c5.8-5,12-10.4,13.4-16.9c0.6-3-0.2-6.3-2.3-9.1C478.1,521.5,479.9,515.1,478.8,509.3z"/>
	<path class="st1" d="M379.5,494.8c-0.6,0-2.4-0.1-2.8,0.2c-2.1,1.8-4.6,1.8-7.6,1.3s-5.9-1.3-9-1.6c-4.9-0.5-12.9-0.6-14.7,3.3
		c-0.1,0.2,4.2,0.7,4.6,0c2-4.3,9.2-2.5,13.7-1.6c5.2,1,13.6,2.1,17.5-1.2C381.5,494.9,379.7,494.8,379.5,494.8z"/>
	<path class="st1" d="M414.6,301.8c-11.3-12.3-40.6-12.4-52.1-0.2c-0.3,0.3,3.8,0.8,4.4,0.2c4.6-4.8,13-8.7,21.7-8.6
		c8.8,0,17.1,3.9,21.6,8.8C410.8,302.6,414.9,302.2,414.6,301.8z"/>
	<path class="st1" d="M332.5,440.8c-4.3,8.7-4.1,18-6.7,26.9c-2.1,7.6-6.5,15.3-15.9,20.1c-0.5,0.3,1.5,0.4,1.6,0.4
		c0.8,0,2.1,0.1,2.8-0.2c9.3-4.8,13.7-12.4,15.9-19.9c2.7-9.1,2.4-18.5,6.8-27.3C337.2,440.6,332.9,440.1,332.5,440.8z"/>
	<path class="st1" d="M425.7,383.8c-5.3,0.1-10.3,1.8-15,3.3c-12.6,3.9-24.4,8.9-35.2,14.8c-0.5,0.3,1.5,0.4,1.6,0.4
		c0.8,0,2.2,0.1,2.8-0.2c8.4-4.5,17.3-8.6,26.8-11.9c4.8-1.7,9.7-3.3,14.7-4.6c1.7-0.5,4-1.2,5.8-0.8c2,0.5,3.3,1.9,3.3,3.3
		c-0.1,2.9-4.4,5.2-8.1,6.2c-3.7,0.9-7.8,1.4-11.1,2.8c-4.3,1.9-4.8,4.9-5.6,8c-0.7,2.7-2.4,5.2-4.9,7.3c-5.5,4.6-14.8,7.9-23.6,6.4
		c-0.9-0.2-2.3-0.2-3.2,0c-0.3,0.1-0.5,0.1-0.5,0.2c-1.3-2.5-2.7-5-4.2-7.5c-0.4-0.7-4.7-0.2-4.6,0c9,14.9,15.4,30.5,19,46.3
		c0.8,3.5,2.2,7.4,1.2,10.9c-0.9,3-4.5,5.4-9.2,5.3c-4.5-0.1-8.9-1.1-13.2-1.8c-4.5-0.7-9-0.9-13.6-0.5
		c-10.2,0.8-19.7,4.4-25.2,10.2c-0.2,0.2,1.7,0.5,3.1,0.5c-1.5,9.6-7.8,18.7-17.7,25.6c-0.2-3.7-2.2-7.3-5.8-10.2
		c-0.5-0.4-2.2-0.3-2.8-0.2c-0.2,0-2,0.1-1.6,0.4c4.6,3.7,6.5,8.4,5.4,13.1c-0.1,0.5,4,0.4,4.5,0.1c6.9-3.9,12.4-8.8,16.3-14.2
		c-0.9,3.7-2.4,7.4-4.8,10.8c-2.9,4.1-7.6,8.1-13.4,10.6c-8.3-9.7-14.9-21.9-8.2-32.8c1.9-3,5-5.6,7.4-8.4c2.2-2.5,3.6-5.2,4.2-8.1
		c1.3-6.1-1-12-3.8-17.8c-2.6-5.4-5.9-12.4,0.6-17.1c0.4-0.3-1.4-0.4-1.6-0.4c-0.7,0-2.3-0.1-2.8,0.2c-5.7,4.2-3.9,10.1-1.8,15.1
		c2.6,5.8,5.5,11.4,5.1,17.5c-0.2,3.1-1.2,6.2-3.2,9c-2.1,2.9-5.2,5.3-7.4,8.1c-4.2,5.3-4.8,11.4-3.2,17.2c1.3,5,4.1,9.8,7.6,14.3
		c-0.1,0-0.2,0-0.2,0c-0.7,0-2.3-0.1-2.8,0.2c-2.2,1.6-3,3.7-2.1,5.8c0.2,0.6,2.9,0.4,3.4,0.3c3-0.2,5.9-0.8,8.5-1.6
		c0.8-0.1,1.5-0.2,1.4-0.4l0,0c6.7-2.3,12.1-6.1,15.8-10.6c6.6-8.1,7.1-17.7,7.6-26.7c0-0.3-1.8-0.4-3.1-0.4c5-5.3,13.7-9.1,23-9.7
		c4.6-0.3,8.9,0.6,13.3,1.3c4.4,0.7,8.9,1.3,13.4,1.1c3.9-0.2,7.7-1,10-3.3c2.8-2.9,1.8-6.7,1.1-10c-1.6-8-4-16-7-23.9
		c-2.4-6.2-5.2-12.4-8.5-18.4c0.1,0,0.2,0.1,0.5,0.1c8.9,1.5,18.8,0.3,26.2-3.4c3.5-1.8,6.5-4.1,8.3-6.8c1.1-1.5,1.7-3.1,2.1-4.8
		c0.5-1.9,0.8-4,2.8-5.5c3.2-2.6,8.7-3,13.2-4.1c3.9-1,8.4-3.3,8.7-6.4C435.4,384.6,429.8,383.7,425.7,383.8z M298.9,520.5
		c-0.4-1.6,0.1-3.1,1.5-4.4c0.9,1.1,1.8,2.3,2.8,3.4C301.9,519.9,300.4,520.2,298.9,520.5z"/>
	<path class="st1" d="M481,462.2c0-2.1,1.6-3.8,3.5-5.3c3.4-2.7,6.4-5.3,5.7-9.1c-0.7-3.5-3.9-6.6-6.9-9.3c-3.4-3.1-7.3-6.1-10-9.5
		c-4.4-5.5-4.7-11.9-3.1-17.9c3.5-13.1,14.5-25.2,14.8-38.7c0.1-3.1-0.5-6.2-2-9.2c-1.9-3.7-6.2-7.2-4.9-11.3
		c1-3.1,5.5-6.9,2.7-10.1c-2.3-2.6-7.8-2.5-10.2-4.9c-1.8-1.8,0.3-3.8,1.9-5.3s2.8-3.2,3.6-4.9c1.7-3.8,1.6-7.9,0.1-11.8
		c-3.1-8.2-11.9-14.6-21.1-20.1c-2.3-1.4-4.6-2.7-7-4c1.9-1.2,3.7-2.5,4.3-4.3c1.1-3.1-0.9-6.4,0.4-9.5c1.2-3,5.5-4.8,8.1-7.3
		c2.8-2.6,3-5.8,2.9-8.9c-0.1-3.9-0.2-7.9-0.3-11.8c-0.1-4.3-0.1-8.7-0.3-13c-0.1-2.7-0.8-6-4.6-7.5c-4.5-1.8-10.8-0.7-15.7-0.4
		c-3.8,0.3-7.6,0.6-11.4,0.9c1.7-2.6,2.7-5.4,2.9-8.3c0.4-7.3-5.4-13.8-10.2-20.1c-5.3-7-10.6-13.9-16-20.9
		c-4.8-6.3-9.6-13.2-18.7-17.2c-0.7-0.3-2-0.3-2.8-0.2c-0.2,0-2.1,0.2-1.6,0.4c8,3.5,12.6,9.3,16.9,14.9
		c5.3,6.9,10.6,13.9,15.9,20.8c4.8,6.3,11.1,12.9,11.9,20.1c0.4,3.8-0.9,7.6-3.2,11c-1.3,0.1-2.5,0.2-3.8,0.3
		c-0.6,0-1.4,0.1-0.8,0.5c0.6,0.3,2.4,0.2,3.1,0.1c0.3,0,0.6,0,0.9-0.1c-1.1,1.5-2.4,2.9-3.8,4.2c-5.1,4.8-11.6,8.8-18.3,12.5
		c0-4.1,0-8.3-0.1-12.4c0-4.2,0.2-8.5-0.1-12.7c-0.4-5.3-2.6-11.9-11.6-13c-1.8-0.2-3.2-0.4-3.9-1.8c-0.5-1-0.7-2.2-0.9-3.3
		c-0.6-2.5-1.2-5-1.9-7.4c-1.2-4.6-2.3-9.2-3.5-13.8c0.7-1.7,1.3-3.3,1.8-5c1-3.2,1.7-6.5,1.4-9.8c-0.3-3.6-1.6-7.2-3.2-10.7
		c-3.6-8-7.6-16-11.4-24c-3.8-8.1-7.7-16.1-11.5-24.2c-0.3-0.7-4.7-0.2-4.6,0l20,42.1c3.2,6.6,6.7,13.4,6,20.5
		c-0.3,3.1-1.3,6.2-2.4,9.2c-0.7,0.1-1.2,0.2-1.2,0.3c0.1,0.5,0.3,1.1,0.4,1.6c-0.9,2.3-1.8,4.7-2.5,7c-1.6,5.7-1.4,11.5,3.6,16.5
		c5,5.1,12.3,8.8,15.2,14.7c5.7,11.3-2.4,23.6-13.4,32.1c-6.9,5.3-15.1,9.8-23.2,14.3c-3.9,2.2-7.7,4.5-11.5,6.7l0,0
		c-3.7-4.3-9.1-7.8-16-9.9c-15.9-4.8-35.6-2.8-51.2,1.6c-2,0.6-4,1.2-6,1.9c-0.8,0.3,0.5,0.4,0.8,0.5c0.9,0.1,2.3,0.2,3.1-0.1
		c14.7-5.1,33.7-8.3,49.5-3.4c7.5,2.3,13,6.4,16.5,11.3c-3.1,1.6-6.6,3-10.3,3c-0.3,0-2.3,0-2.3,0.4s2.1,0.4,2.3,0.4
		c4.1,0,7.9-0.7,11.4-2.1l0,0c3.9,6.5,4.9,13.6,6.3,20.5c6.3,30.4,12.1,61,9.4,91.7c-1.4,15.9-5.1,31.7-12.2,46.9
		c-14.1-15.1-23.1-32.2-26.8-49.8c-3.8-18.7-1.7-38,6.9-56.1c2.2-4.7,4.9-9.1,7.8-13.6c3-4.6,5-9.3,3.3-14.4
		c-1.5-4.4-5.1-8.4-9.2-12c-4.4-3.7-9.4-7.3-14.6-10.4c-9.4-5.7-21.5-11.1-34.7-10.4c-5.8,0.3-11.3,1.9-14.9,5
		c-3.4,3-4.5,6.8-4,10.4c1.2,8.5,9.2,15.8,18.8,21c10.6,5.9,23.7,9.6,37.3,10.9c3.4,0.3,6.8,0.5,10.2,0.5c0.3,0,2.3,0,2.3-0.4
		s-2.1-0.4-2.3-0.4c-13.5-0.1-26.9-3.3-38-8.4c-10.3-4.7-19.4-11.3-22.7-19.5c-1.4-3.5-1.8-7.3,0-10.8c1.9-3.6,6.4-6.6,12-7.6
		c5.9-1.1,12.4,0.9,17.5,2.8c5.7,2.1,11,4.9,15.7,7.9c9.4,5.9,20,13.3,22.2,22.1c1.2,4.9-1,9.4-3.9,13.9c-2.7,4.2-5.3,8.4-7.4,12.8
		c-8.2,17.2-10.7,35.5-7.6,53.4c3,17.7,11.5,35.1,25.1,50.4c1.7,1.9,3.5,3.8,5.4,5.7c0.4,0.4,4.2,0.5,4.5-0.1
		c7.4-15,11.6-30.6,13.3-46.4c1.7-15.9,1.1-31.8-0.8-47.7c-1.9-16-5-31.9-8.3-47.8c-1.5-7.1-2.4-14.6-6.7-21.3
		c-0.2-0.3-0.4-0.5-0.6-0.8c2.7-1.4,5.2-2.9,7.7-4.4c7.2-4.2,14.8-8.2,21.8-12.6c10.5-6.6,19.9-14.8,22.8-24.3c0,3,0,6.1,0.1,9.1
		c0,4.3,0.3,8.7,0,12.9c-0.1,1.9-0.7,3.9-2.7,5.3c-1.8,1.3-4.3,2.2-6.6,3.1c-13.1,4.9-26.6,9.4-40.2,13.6c-0.9,0.3,0.5,0.5,0.8,0.5
		c0.9,0.1,2.2,0.1,3.1-0.1c12.1-3.7,24-7.6,35.6-11.9c4.6-1.7,11.1-3.3,13.4-6.7c1.1-1.7,1.2-3.6,1.2-5.4c0-1.9,0-3.8,0-5.7
		c0.3,0,0.6-0.1,0.9-0.2c9.6-5.2,20.7-11.5,26.2-19.3c3.8-0.3,7.5-0.6,11.3-0.9c2.7-0.2,5.4-0.5,8.1-0.6c2.5-0.2,4.7,0.3,6.2,1.7
		c2.4,2.3,2.1,5.5,2.2,8.1c0.1,3.9,0.2,7.7,0.3,11.6c0.1,3.7,0.2,7.4,0.2,11.1c0.1,3.4-0.1,6.6-3.4,9.3c-2.4,2-5.7,3.7-7.2,6.2
		c-1.8,3,0.1,6.3-0.5,9.4c-0.4,2-2.1,3.4-4.1,4.7c-0.5,0.1-1,0.2-0.7,0.3c0,0,0.1,0,0.1,0.1c-0.6,0.4-1.3,0.8-2,1.2
		c-3,1.8-4.8,3.7-4.5,6.5c0.2,1.5,0.6,3-0.3,4.4c-0.7,1.1-2,2-3.5,2.7c-2.8,1.4-6,2.3-8.7,3.8c-6.7,3.8-4.3,10.2-6.9,15.2
		c-2,4-6.7,7-11.8,9.2c-2.9,1.3-6.1,2.4-9.4,3.5c-0.4-0.5-0.9-1-1.3-1.5c-0.6-0.7-4.6,0-4.6,0c0.8,0.9,1.5,1.8,2.3,2.7
		c-9.1,3-18.3,6-23.8,11.8c-0.3,0.3,3.8,0.8,4.4,0.2c4.8-5.1,12.6-8.1,20.5-10.7c11.1,13.2,21.4,28.8,9.9,43.4
		c-2.9,3.7-7.2,6.8-12.7,8.8c-0.6,0.2,1.5,0.4,1.6,0.4c0.9,0,2,0.1,2.8-0.2c9.6-3.6,15.2-10.3,17.1-17.4c2.3-8.5-1-17-6.2-24.8
		c-2.6-3.9-5.7-7.7-8.9-11.4c3.4-1.1,6.7-2.2,9.8-3.4c5.4-2.1,10.6-4.8,13.6-8.6c1.8-2.4,2.4-4.9,2.8-7.6c0.4-3,0.7-6.3,3.9-8.6
		c4.8-3.5,14.6-4.3,14.2-10.1c-0.1-1.5-0.7-3.1,0.1-4.6c0.6-1.3,2-2.3,3.5-3.2c0.2-0.1,0.4-0.2,0.6-0.3c8.8,5,17.8,10.3,22.9,17.3
		c5,6.9,6,15.6-0.8,22.1c-1.5,1.4-3.4,3.1-2.3,4.9c0.7,1.1,2.3,1.8,3.8,2.3c1.9,0.7,3.9,1.2,5.5,2.1c2,1.2,2.4,2.8,1.9,4.4
		c-0.6,1.9-1.9,3.6-2.8,5.4c-0.9,1.9-1,3.7,0,5.7c1,1.9,2.5,3.7,3.7,5.6c0.9,1.4,1.5,2.9,2,4.3c1.9,6.2,0.2,12.6-2.2,18.5
		c-2.6,6.4-6.3,12.5-9,18.9c-2.6,5.8-4.6,12-3.2,18.1c1.6,6.9,8.3,11.9,14.3,17.4c2.9,2.7,6,5.8,6.4,9.3c0.2,1.6-0.4,3.2-1.5,4.6
		c-1.4,1.7-3.6,3.1-5.3,4.7c-1.6,1.5-2.6,3.1-2.5,4.9c0.2,2,1.5,4,2.8,5.8c2.2,3.1,4.3,6.1,2.4,9.5c-0.3,0.5-0.7,1.1-1.2,1.5
		c1.3-4.2-1.4-8.4-5.4-11.7c0.5,0,1.6-0.1,1.4-0.4c-0.1-0.3-1.5-0.3-2.3-0.3c-1.4-1.1-3-2.2-4.6-3.1c-7.4-4.3-16.7-6.8-23.6-11.5
		c-3.7-2.6-5.9-5.6-7.6-8.9c-1.6-3-3.3-6-6.7-8.3c-5.6-3.9-13.9-5.2-21.7-5.6c-9.9-0.4-20,0.7-29.6,2.3c-0.8,0.1-0.7,0.3,0,0.5
		c0.9,0.2,2.3,0.2,3.2,0c14-2.3,33.6-4.7,44.4,3.6c3.3,2.5,4.7,5.7,6.4,8.8c1.5,2.8,3.6,5.4,6.7,7.6c6.3,4.5,14.9,7.1,22.1,10.8
		c2.4,1.2,4.7,2.7,6.7,4.3c-5.9,0.9-10.9,3.4-13.8,7.1c-1.7,2.2-2.5,4.7-2.1,7.1c0.6,3.1,3,5.9,4,9c0.8,2.3,0.6,5-1.6,7
		c-1.2,1.1-2.7,1.8-4.6,1.4c-2.1-0.4-4.1-1.1-6.2-1.5c-6.7-1.4-13.9-2-21-1.5c-7.3,0.6-14.2,2.6-17.9,7.1c-0.2,0.3,3.2,0.3,3.4,0.3
		c0.1,0,0.1,0,0.2,0c0.2,0,0.5,0.1,0.7,0.1c0.6,0.2,1.2,0.4,1.7,0.7c0.9,0.4,1.6,1,2.2,1.6c1.4,1.4,2.1,3.2,2,4.9
		c-0.3,3.9-5,6.9-9.3,9.2c-5,2.6-10.5,5.1-16.6,6.4c-3.3,0.7-6.7,0.9-9.9-0.2c-1.3-0.4-2.6-1.2-3-2.1c-0.2-0.4-0.2-0.9,0.1-1.3
		c0.2-0.2,0.4-0.4,0.7-0.6c0.4,0,0.8,0,1.2,0c0.2,0,2.1-0.2,1.6-0.4c-1.2-0.5-3-0.7-4.6-0.5c-0.8-1.7-2.2-3.4-3.8-4.9
		c-2.5-2.3-5.6-4.4-9.1-6c-3-1.4-6.2-2-9.9-2c-0.9,0-1.9,0-2.9,0.2c-0.3-0.7-0.7-1.4-1.3-2c-4.3-4.3-16-5.1-21.6-1.7
		c-0.5,0.3,1.5,0.4,1.6,0.4c0.7,0,2.2,0.1,2.8-0.2c2.6-1.6,5.4-1.8,8.5-0.8c3.3,1.1,5.5,3.1,5.9,5.6c0,0.3,0,0.5,0,0.8
		c-0.1,0.2-0.1,0.5-0.1,0.8c0,0,0,0.1,0.1,0.1c-0.3,2.7-2,5.3-3.2,7.9c-1.5,3.3-1.6,6.7-1.4,10.1c0.1,0.9,0.1,1.8,0.2,2.7
		c-0.3,0.1-0.6,0.2-0.8,0.3c-0.8,0.3,0.5,0.4,0.8,0.5c0,0,0,0,0.1,0c0.1,2.1,0.2,4.1-0.2,6.2c-0.4,2.6-1.4,5.2-2.7,7.7
		c-2.8,5.1-7.4,9.7-13.3,13.4c-6.2,4-13.9,6.9-22.3,8.3c-5.4-5.9-11.8-11.7-18.6-17c-6.6-5.1-14.3-9.8-23.4-12.8
		c-1.4-0.4-2.8-0.8-4.2-1.2c4.5-7.6-0.1-16.6-5-24c-1-1.5-2.1-3-3.1-4.5c0.8,0,1.7,0,2.4-0.2c12.6-2.6,26.4,0.3,35.7,6.4
		c0.6,0.4,2.1,0.3,2.8,0.2c0.2,0,2-0.1,1.6-0.4c-11.2-7.3-28.2-9.5-43.1-6.7c-2.4-3.3-4.9-6.6-7-10c-3.6-5.7-6.1-11.7-7.5-17.9
		c-1.6-6.8-1.8-13.8-0.6-20.6c0.1-0.4-4.5-0.6-4.6,0c-2.1,12.2,0.2,24.7,6.7,36.2c5.8,10.1,15.5,19.4,18.3,30.3
		c0.9,3.5,0.8,7.1-0.8,10.3c-1.9-0.4-3.9-0.6-5.9-0.8c-6.4-0.6-12.8-0.1-19.2-0.6c-11.4-0.8-20.1-6.3-26.6-12.2
		c-6.6-6-11.2-12.8-17.6-18.9c-5.9-5.5-13.3-10.2-23.3-11.9c-8.2-1.4-18.3-1.2-25.3,2.3c-1.7,0.9-3.1,1.9-4.3,3.1
		c-0.3,0.3,3.8,0.8,4.4,0.2c4.9-4.9,13.7-6.5,21.9-5.1c9.8,1.7,17,6.7,22.6,12.1c11.3,10.9,19,26.3,40.1,30.3c5.7,1.1,11.7,1,17.5,1
		c5.2,0,10.1,0.4,15,1.6c-0.9,1.5-2.1,2.9-3.8,4.2c-0.4,0.3,1.4,0.4,1.6,0.4c0.6,0,2.3,0.1,2.8-0.2c1.3-1.1,2.4-2.2,3.2-3.3
		c8.1,2.5,15.1,6.4,21.1,10.8c7,5,12.9,10.6,18.7,16.3c3.3,3.3,6.7,6.7,8.1,10.7c1.3,3.7,0.5,7.4-1.9,10.8
		c-2.6,3.6-6.5,6.6-10.3,9.6c-4,3.1-8.1,6-12.3,8.9c-8.4,5.7-17.3,11.1-26.7,16.1c-2.3,1.2-4.7,2.4-7.1,3.6
		c-0.5,0.3,1.5,0.4,1.6,0.4c0.8,0,2.1,0.1,2.8-0.2c10.1-5,19.7-10.4,28.7-16.3c4.5-2.9,8.9-5.9,13.1-9.1c4.1-3,8.2-6.1,11.7-9.4
		c3.2-3.1,5.7-6.7,5.8-10.5c0.1-3.9-2.4-7.6-5.3-11c0,0,0-0.1-0.1-0.1c0.5,0,1-0.1,1.4-0.1c17.3-2.5,31.9-11.3,38-22.5
		c0.7-1.3,1.3-2.6,1.7-3.9c0.6,0.1,1.2,0,1.3,0c0.6,0,1.3,0,1.9,0c4.2,0.1,8.2,1.8,11.2,3.7c3.7,2.3,6.5,5.2,8.4,8.3
		c3.6,5.7,5.2,11.9,9.4,17.3c-1.9-1.4-3.4-3.1-4.8-4.5c-2.8-2.9-6-5.6-11.3-6.3c-7-0.8-13.3,1.3-17.7,4.9
		c-4.5,3.7-6.5,8.5-11.7,11.9c-2.1,1.3-5,2.6-8,2.4c-2.9-0.2-5.4-1.6-6.2-3.5c-0.3-0.7-4.7-0.3-4.6,0c1.6,3.7,7.9,4.4,12.9,4.2
		c2.7-0.1,5.4-0.6,7.7-1.5c3-1.2,5.2-3.3,7.1-5.3c3.9-4.2,6.8-9.3,13.7-11.7c1.7-0.6,3.4-1,5.2-0.6c1.3,0.3,2.5,0.9,3.5,1.5
		c2,1.2,3.5,2.7,5,4.2c3.2,3.2,6.2,6.5,12.4,7c0.4,0,3.8,0.1,3.4-0.4c-6.6-6.9-7.4-15.3-13.3-22.4c-3.7-4.4-9.1-7.9-15.9-9.3
		c7.5-0.1,15-0.2,22.5-0.3c0.2,0,2.4,0,2.3-0.4c-3.9-9-20.1-13.6-33.2-11.3c-0.1-1.4-0.2-2.8-0.2-4.2c0-1.8,0.2-3.5,0.6-5.2
		c0.6-2,1.6-3.8,2.5-5.7c0.8-1.7,1.5-3.5,1.5-5.3c0.2-0.6,0.8-1.2,1.9-1.4c0.6-0.1,0.3-0.1,1-0.1c0.8,0.1,1.5,0.2,2.2,0.4
		c3.8,1,7.3,3.4,10,5.4c5.4,4.2,9.4,10.4,4.3,15.6c-0.4,0.4,1.4,0.4,1.6,0.4c0.5,0,2.4,0.1,2.8-0.2c1.2-1.2,1.9-2.5,2.2-3.8
		c5.4,1.6,12.3,1.1,17.7-0.2c6.5-1.5,12.8-4.3,18-7.3c4.5-2.6,9-6.4,7.6-10.6c-1.1-3.4-4.9-5.5-9.5-5.8c3.3-3.7,9.2-5.7,15.4-6.1
		c3.3-0.2,6.7,0,10,0.4c3.6,0.5,6.8,1.4,10.3,2.2c3.3,0.8,7.6,1.1,10.9,0c2.7-0.9,4.1-2.9,4.6-4.8c1.4-5.4-5.2-10.1-4.2-15.6
		c0.8-4.4,5.8-9,12.3-10.6c4.2,3.7,6.6,8.2,4.1,12.8c-0.1,0.2,1.1,0.3,1.1,0.3c4.3,0.4,8.2-0.4,9.8-3.3c2-3.6-0.2-6.7-2.5-9.9
		C482.4,466.3,481,464.3,481,462.2z M381.7,204.6c-2.3-2.7-3.2-5.8-3.2-8.9c0-1.9,0.3-3.7,0.8-5.5c0.3,1.4,0.7,2.8,1,4.1
		c0.5,2.1,1.1,4.3,1.6,6.4c0.5,1.8,0.7,3.8,1.4,5.6C382.8,205.7,382.2,205.2,381.7,204.6z M390.1,211.8c-1.3-1-2.6-2-3.9-3
		c0.7,0.2,1.6,0.3,2.4,0.4c2.1,0.2,3.8,0.8,5.3,1.8c3,2.1,4.2,5.1,4.7,7.9c0.3,1.4,0.4,2.7,0.5,4.1
		C397.7,218.9,394.5,215.2,390.1,211.8z M363.9,532.4c5.7,1.8,10.2,5.1,12.1,9.2l-25.5,0.3c-1.1,0-2.2,0-3.3,0c-0.1,0-0.3,0-0.5,0
		c0.4-1.3,0.7-2.6,0.9-4c0.3-2,0.2-4,0.1-6.1C353,530.4,358.5,530.7,363.9,532.4z"/>
	<path class="st1" d="M474.5,591.9c-2.3-2.7-7.7-2.5-11.6-2.1c-2.1,0.2-3.6,0.2-5.2-0.8c-1.2-0.7-2-1.7-2.4-2.8
		c-0.9-2.4-0.4-5.1,0.7-7.4c2.7-5.9,11-10.3,11.5-16.7c0.2-2.8-1.9-5.5-5.7-6.7c-3.5-1.1-8.1-0.9-11.8-0.2c-4,0.9-7.6,2.7-10,5
		c-2.9,2.8-3.9,6.4-4.7,9.8c-0.9,3.7-1.6,7.4-4,10.8c-1.6,2.3-3.8,4.3-6.5,6.1c-5.5,3.5-12.8,5.5-20,6.9c-8,1.6-16.3,2.5-24.4,3.8
		c-8,1.2-16.1,2.6-23.4,5.2c-9.8,3.3-17.3,8.8-26.7,12.5c-4.4,1.7-9.4,3.1-14.6,3.2c-5,0.2-9.6-1.3-13-3.7s-6.2-4.8-11.4-5.2
		c-5-0.4-9.5,0.7-13.3,2.8c-4.2,2.4-7.4,5.5-10.5,8.6s-5.9,6.2-8.5,9.5c-5.3,6.7-9.5,13.9-12.4,21.3c-1.4,3.6-2.5,7.3-3.4,11
		c-0.1,0.4,4.4,0.6,4.6,0c3.3-14.8,11.5-29.1,24.1-41.6c3-3,6.1-6.1,10.2-8.4c1.8-1,4.4-2.4,6.8-2.5c2.5-0.1,4.9,1.6,6.5,2.7
		c3.2,2.3,6.1,4.4,10.7,5.4c4.4,0.9,9.2,1,13.7,0.6c10.4-1,18.5-5,26.5-9.3c4.3-2.3,8.6-4.6,13.4-6.3c3.5-1.3,7.2-2.3,11-3.1
		c15.3-3.4,31.8-4,46.6-8.3c6.5-1.9,12.5-4.7,16.4-8.8c5.6-5.9,4.8-13,8.1-19.5c1.5-2.9,4.2-5.4,8.2-7.1c1.5-0.6,3.7-1.4,5.5-1.4
		c1.9,0,3.8,1,5,2c6.6,5.3-2.3,12.9-6.5,17.3c-3.4,3.6-6,9.6-2.3,13.5c1.9,2,5.5,2.6,8.9,2.6c2.6,0,5.8-0.9,8,0.3
		c1.4,0.8,2,2,2.2,3.2c0.5,2.8-1.1,5.5-3.1,7.8c-2.3,2.7-5.2,5.3-8.4,7.5c-6.3,4.5-13.9,8-21.8,11c-16.7,6.4-35.3,10.5-51.3,17.7
		c-15.2,6.9-30.8,17.5-32.5,30.5c-0.4,3.1,0.1,6.1,1.3,9.1c0.3,0.7,4.7,0.3,4.6,0c-5.7-13.4,6.6-25.9,21.2-34.3
		c7.9-4.6,16.7-8.2,26-11.2c8.8-2.9,17.8-5.5,26.5-8.5c8.4-2.9,16.7-6.1,24-10.1c6.8-3.8,13.6-8.6,16.9-14.2
		C475.6,597.2,476.5,594.2,474.5,591.9z"/>
	<path class="st1" d="M316.7,416.5c-0.6,0-2.4-0.1-2.8,0.2c-21.9,19.6-53.2,34.2-88.1,41.5c-8.8,1.8-17.8,3.2-26.9,4
		c-9,0.8-18.6,1.5-27.6,0.6c-4.8-0.5-9.4-1.6-13.2-3.6c-3.7-2-6.4-4.7-8.5-7.5c-2.3-3-4.1-6.2-6-9.4c-2.2-3.6-4.4-7.2-6.6-10.9
		c-10-16.4-20-32.7-29.9-49.1c-0.4-0.7-4.7-0.2-4.6,0l19.9,32.6c-1.4-0.2-2.8-0.3-4.3-0.4c-2.9-0.1-5.9,0-8.8,0.3
		c-6.4,0.8-12.4,2.9-16.6,6.2c-0.4,0.3,1.4,0.4,1.6,0.4c0.6,0,2.3,0.1,2.8-0.2c3.5-2.7,8.1-4.7,13.3-5.6c2.5-0.4,5.1-0.6,7.6-0.4
		c1.1,0.1,3,0.2,3.7,0.7c0.9,0.7,1.2,2.1,1.6,3c3.8,8.2,5.1,16.8,3.9,25.4c-0.7,4.8-2.2,9.5-4.5,14.1c-0.2,0.5,3.9,0.3,4.3,0.2
		c3.1-0.7,6.4,1,8.4,2.5c2.3,1.7,4,3.8,4.5,6.1c1.2,5.3-2.5,10.6-5.6,15.4c-6.6,10-10.7,20.6-11.7,31.5c-0.6,6.2-0.2,12.4,1.2,18.6
		c0.1,0.6,4.7,0.4,4.6,0c-2.6-12-1.6-24.3,3.1-36.1c2.4-6,6-11.6,9.5-17.3c3.1-5,5.7-10.9,1.5-16c-3.1-3.7-8.8-5.9-14.8-5.7
		c4.3-9,5.6-18.6,3.7-27.9c4,6.7,7.9,13.4,12.3,20c1.9,2.8,4.2,5.6,7.4,7.9s7.3,3.8,11.8,4.8c9.1,1.9,19,1.5,28.4,1s18.7-1.5,27.9-3
		c18.4-3,36.1-8,52.2-14.8c18.1-7.6,34.1-17.3,46.9-28.8C318.7,416.6,316.9,416.5,316.7,416.5z"/>
	<path class="st1" d="M246.2,290.5c-15.3-3.1-31.5-3.8-47.3-2.1c-0.5,0.1-1.4,0.1-0.8,0.5c0.6,0.3,2.5,0.2,3.1,0.1
		c13.7-1.5,27.7-0.9,41,1.8c1,0.2,2.1,0.2,3.1,0.1C245.7,290.9,247.2,290.7,246.2,290.5z"/>
	<path class="st1" d="M181.8,66.6c-10.4-7.9-27.1-9.3-41.8-7.3c-9.1,1.2-17.7,3.9-25.3,7.5c-0.5,0.3,1.5,0.4,1.6,0.4
		c0.8,0,2.1,0.1,2.8-0.2c12.1-5.7,28.1-9.7,42.8-6.8c11.9,2.4,21.2,9.4,23.6,17.5c1.3,4.4,0.4,8.9-3.3,12.7
		c-0.3,0.3,3.8,0.8,4.4,0.2C194,83,190.3,73.1,181.8,66.6z"/>
	<path class="st1" d="M337.2,90.4c0.2-3.9,2-7.6,5.3-10.7c0.3-0.3-0.9-0.4-1.1-0.4c-16.6-1.4-33.7,0-49.1,4.3c1.6-1.9,4.9-2.9,8-3.6
		c4.1-1,8.9-1.8,12-4.1c4.8-3.5,1.3-8.4-0.8-12.2c-2.5-4.4-5-8.9-8-13.2c-5.7-8.2-13.2-16.2-24.2-21.7c-8.9-4.4-20.3-6.4-31.4-6.2
		c-10.8,0.2-21.5,2.8-28,8.6c-5.5-3.6-11.3-7-17.3-10.1c-6.8-3.5-14.3-6.3-22.8-7.1c-0.4,0-3.4-0.2-3.4,0.3
		c-0.4,10.7-0.7,21.5-1.1,32.2c-10.1-6.3-16.7-14.9-18.6-24.1c-0.1-0.6-3.9-0.4-4.5-0.1c-15.5,7.5-29.4,16.3-41.3,26.3
		c-2-1.2-4.5-2-7.3-2.3c-5.8-0.8-12-0.2-17,1.9c-5.1,2.1-8.8,5.4-12.1,8.8c-5.2-4.1-13.3-6.1-21.4-6.5c-11.1-0.5-21.4,2-30.5,6.1
		c-5.9,2.6-11.2,5.7-16.5,8.8c-0.5,0.3,1.5,0.4,1.6,0.4c0.7,0,2.2,0.1,2.8-0.2c9.8-5.7,20.6-12.1,33.7-14c10.5-1.5,22.6,1.2,28,7.7
		c0.4,0.5,4,0.6,4.5,0.1c5.5-5.8,17.5-17.3,29.4-10.8c1.1,0.6,2,1.3,2.6,2c-2.2,1.9-4.3,3.8-6.3,5.7c-0.3,0.3,3.8,0.8,4.4,0.2
		c1.1-1,2.2-2,3.3-3c0.5,4-3.9,8.4-7.4,11.5c-2.9,2.6-5.9,5.2-8,8.2c-0.9,1.4-1.6,2.8-1.8,4.3c-0.1,0.7,0.1,1.4,0,2.1
		c0,0.7-0.7,1.5-0.7,2.3c0,2.9,4,5.3,7.9,6.1c4,0.9,10,1,12.8-1.5c3.2-2.8,0.7-6.4-3-8.3c-3.3-1.7-8.4-2.3-12.4-1.2
		c0.2-0.8,0.4-1.6,0.8-2.3c3-5.8,10.4-10,14.4-15.4c1.7-2.3,2.6-4.9,1.3-7.4c-0.2-0.4-0.5-0.8-0.9-1.2c11.3-9.8,24.6-18.6,39.4-26.1
		c2.8,9.8,10.9,18.7,22.6,24.8c0.5,0.3,4.5,0.5,4.5-0.1c0.4-11.4,0.8-22.7,1.2-34.1c6.3,1.1,11.9,3.4,17.1,6
		c5.9,3,11.5,6.3,16.8,9.7c1.1,0.7,2.2,1.5,3.4,2.2l-0.1,0.1c0,0,0.1,0,0.4,0.1c9.1,6.1,17.6,13.2,21.4,21.4c2,4.3,2.3,8.8,0.8,13.2
		c-0.3-0.1-0.6-0.1-0.9-0.2c-9-3.7-18.6-6.8-29.4-6.6c-9.6,0.2-20.1,3.2-23,9.9c-0.2,0.5,4.1,0.3,4.5,0.1
		c13.6-5.1,29.7-5.8,44.2-2.9c1.3,0.6,2.7,1.1,4,1.7c0.5,0.2,2.6,0.4,3.8,0.2c11.3,3.4,21.1,9.1,27.2,16.6
		c7.4,9.1,9.3,20.2,5.8,30.3c-0.7,2.1-1.7,4.2-3,6.2c-2.8,0.3-5.6,0.5-8.5,0.6c-0.4,0-1.8,0-1.6,0.4c0.1,0.3,2.5,0.3,2.8,0.2
		c2.2-0.1,4.5-0.3,6.7-0.4c-1.6,2.5-3.6,4.9-6,7.2c-4.6,4.3-11.7,9.3-20.2,9.7c-6.3,0.3-12.6-2.2-16.5-5.7c-1.2-2.3-2.4-4.5-3.8-6.7
		c-0.7-4.8,2.1-9.7,7.6-12.8c0.1-0.1,0.1-0.1,0-0.2c-6.7-4.1-16.5-5.4-25.3-4.1c-4.7-2.6-10.1-4.7-16.1-6.2
		c-11.9-2.8-25.2-3.2-37.5-1.5c-12,1.7-23.4,5.7-31.4,12c-4.9,3.8-7.5,9.1-13.6,12.2c-5.2,2.6-11.7,2.2-16.9-0.2
		c-2.6-1.2-4.6-2.8-5.8-4.8c-0.4-0.6-4.2-0.5-4.6,0c-6.4,8.6-12.9,17.1-19.3,25.7c-4.2-14.5-8.4-29.1-12.7-43.6
		c-2.1-7.3-3.2-16.3-10.8-22.2c-3.4-2.7-8.1-4-13.3-4.1c-6.6-0.2-12.5,1.5-18.8,2.5c-3.1,0.5-6.1,0.6-9.2-0.1
		c-2.6-0.6-5-1.5-7.2-2.6c-4.5-2.4-8-5.6-10.5-9.1c-5.9-8.3-5.4-17.8-7.9-26.7c-0.7-2.4-1.6-4.7-2.8-6.9c-0.4-0.7-3.6-0.3-4.3-0.2
		c-8.9,2-15.3,7.8-15.2,14.1c0,0.5,4.6,0.5,4.6,0C-44.4,44.5-40,39.6-33.4,37c4.1,8.8,3.5,18.1,7.1,27C-23.5,70.9-17,78-7,80.9
		c5.1,1.5,10.9,1.6,16.4,0.9c3.2-0.4,6.4-1.1,9.5-1.7c3.2-0.6,6.5-1.2,9.7-0.5C39.3,81.9,42.5,90.7,44.3,97
		c6.1,20.7,12,41.4,18,62.2c5.8,20.2,12.6,40.8,9.1,61.4c-2.7,15.9-12.1,32-30.2,42.8c-2.2,1.3-4.6,2.6-7,3.7
		c-0.5,0.2,1.5,0.4,1.6,0.4c0.8,0,2.1,0.1,2.8-0.2c19.9-9.2,31.5-24.6,36-40.3c5.7-19.9,0.3-40.3-5.4-59.8c-1.6-5.5-3.2-11-4.8-16.5
		c1.1,0.1,2.5,0.1,2.8-0.3c6.2-8.2,12.3-16.4,18.5-24.6c6.6,5.3,20.5,6.6,28.8,2.6c6.2-2.9,8.8-8.2,13.5-12.1
		c3.9-3.2,8.7-5.8,14.1-7.8c21.7-8.3,51.5-6.2,68.3,6.7c5.2,4,8.9,8.5,11.9,13.2c0.3,2.6,1.7,5.1,4.1,7.2c5.3,10.5,9,21.6,18.3,30.9
		c3.9,3.9,8.9,7.1,14.5,9.9c5.4,2.7,11.9,5.5,15,9.7c2.8,3.9,1.9,8.3-2.3,11.5c-4.3,3.3-10.5,5.4-16.5,7c-6.9,1.9-14,3.3-20.8,5.3
		c-7.2,2.2-14.1,4.8-20.6,7.8c-13.1,6-24.6,13.5-33.8,22.1c-0.9,0.8-1.7,1.7-2.6,2.5c-1.3-1-2.7-1.9-4.2-2.7c-6.7-3.8-15-6-23.5-7.4
		c-8.9-1.5-18.3-2.3-27.5-2.8c-8.9-0.4-18.5-0.3-26.8,2.3c-6.6,2-12.2,5.9-14.3,10.7c-1,2.4-1,4.9,0.2,7.2c0.4,0.7,4.7,0.2,4.6,0
		c-2.4-4.7,0.2-9.7,5-13.3c5.8-4.3,14.1-6.1,22.5-6.3c8.9-0.2,18.1,0.7,26.8,1.8s17.4,2.9,24.8,6.2c3.9,1.7,7.4,3.9,10.3,6.5
		c-0.6,0.7-1.3,1.3-1.9,2c-0.3,0.3,3.2,0.7,4.2,0.3c0.9,1,1.6,2,2.2,3.1c3.1,5.3,1.9,10.5-0.6,15.7c-2.6,5.4-5.4,10.6-4.2,16.3
		c1.1,5.2,4.6,10,8.6,14.4c4.3,4.7,9.4,9.1,13.8,13.8c3.7,3.8,6.5,8.1,8.2,12.5c1.6,4.2,2.2,8.7,0.5,13c-1.7,4.2-6.2,8.4-12.7,9.8
		c-4.6,1-7.5-1.8-10-3.9c-2.1-1.7-4.6-3.1-7.7-4c-6-1.7-13.3-1.5-19.5-0.4c-6.9,1.3-13.3,3.8-18.5,7c-5.6,3.4-10,7.6-14.8,11.5
		c-8.5,6.9-20.3,14.9-34.9,12.7c-12.6-1.9-23.9-9-26.7-17.5c-0.7-2.1-0.8-4.2-0.5-6.3c0.1-0.4-4.5-0.6-4.6,0
		c-1.6,9.3,7.4,17.8,19.3,22c6.1,2.1,12.9,3.1,19.7,2.9c7.3-0.3,13.9-2.2,19.6-5.1c12.6-6.5,19.5-16.9,32.8-22.9
		c5.8-2.6,13.8-5.2,21-4.2c3.6,0.5,6.7,1.8,9.2,3.6c2.7,1.9,4.7,4.2,8.6,5.1c7.3,1.6,15.3-0.7,20-4.5c4.1-3.4,5.5-7.8,5.2-12.1
		c-0.2-4.8-2.3-9.6-5.3-13.9c-3.3-4.8-8.1-9-12.5-13.3c-4.9-4.8-9.8-9.7-12.5-15.3c-2.8-5.7-2.3-11.2,0.3-16.9
		c2.7-5.6,6.1-11.2,4.1-17.2c-1-3-3.1-5.8-5.9-8.3c16.6-17.6,41.8-30.8,71.1-37.5c6.3-1.4,12.6-3,18.2-5.4c4.9-2.1,9.6-5,10.6-9
		c2.6-9.8-15-14.7-23.6-20.3c-10.3-6.6-15.5-15.7-19.8-24.6c-1.4-2.8-2.7-5.6-4-8.4c5.5,2.2,12.4,2.8,18.7,2.1
		c9.7-1.2,17-6.4,22.1-11.8c1.8-1.9,3.3-3.9,4.6-6c21.7-2.2,42.6-7.8,60.6-16.3c6-2.9,11.7-6,17-9.5l0.1-0.1
		C352.5,92.7,344.9,90.3,337.2,90.4z M99.7,77.9c0.4-0.2,0.9-0.5,1.4-0.6c0.3-0.1,0.8-0.1,0.9-0.2c0.9,0.1,1.8,0.4,2.5,0.7
		c1.9,0.8,3.5,1.9,4.4,3.2c1.7,2.3,0.8,6.2-3.7,6.6c0,0-0.4,0-0.6-0.1c-0.5-0.1-0.9-0.2-1.3-0.3c-1.1-0.3-2.1-0.7-3-1.2
		c-1.6-0.9-3-2.1-3.4-3.5c-0.2-0.6-0.2-1.2,0-1.9c0.1-0.3,0.5-0.7,0.5-1c0.1-0.4-0.1-0.8-0.2-1.2c0-0.1,0-0.3,0-0.4
		C98.2,78.2,99.2,78.2,99.7,77.9z M193.1,68.9c3.3-4.3,10.7-7,17.9-7.2c5-0.1,10.1,1.1,14.7,2.5c2,0.6,4,1.3,5.9,2.1
		C218.7,64.8,205,65.5,193.1,68.9z M224.8,119.8c-0.8,1-1.4,2.1-1.9,3.2c-0.5-0.6-0.9-1.2-1.5-1.8c-3-3.5-6.7-6.5-11-9.1h0.1
		c5.1-0.9,10.2-0.4,14.8,1.3c1.1,0.4,2.1,0.8,3,1.3c0.4,0.2,1.1,0.5,1.1,0.8s-0.8,0.7-1.1,0.9C227,117.4,225.8,118.6,224.8,119.8z
		 M349.7,98.6c-5.4,3.5-11.3,6.6-17.5,9.4c-12.7,5.8-26.7,10.1-41.5,12.8c-4,0.7-8,1.3-12.1,1.8c5.2-9,5.8-19.2,1.6-28.5
		c-5.3-11.7-18.3-20.8-35.2-25.3c-0.1,0-0.1,0-0.2-0.1c3.8-9.2-1.4-18.3-9.4-25.9c-3.8-3.6-8.1-6.8-12.7-9.9
		c5.1-5.9,14.7-9.3,24.8-9.7c10.5-0.4,21.2,2.2,29.3,6.6C287,35.3,294,43,299.5,50.9c2.7,4,5.1,8.1,7.4,12.2c2,3.7,5.9,8.8,1.4,12.2
		c-3.1,2.4-8.2,3.2-12.5,4.3c-3.9,1-8.2,2.4-8.7,5.5c-0.1,0.5,3.8,0.3,4.3,0.2c14.4-4.8,30.6-6.8,46.6-5.6
		c-3.3,3.3-5.2,7.1-5.2,11.1c0,0.5,3.1,0.3,3.4,0.3c3.3-0.3,6.8,0.6,9.5,1.9c1.3,0.6,2.5,1.4,3.5,2.2c0.5,0.4,0.9,0.8,1.2,1.2
		C351.3,97.5,351,97.8,349.7,98.6z"/>
	<path class="st1" d="M103.1,93.7c-3.1-3.2-8.6-5.3-13.6-6.9c-5.9-1.8-12.2-3-18.2-4.7C65,80.4,59.4,78,53.9,75.3
		c-9.9-4.8-20.3-9.9-33.1-9.1c-9.9,0.6-23.4,5.4-20.3,13.4c0.3,0.7,4.7,0.3,4.6,0c-2.4-6.2,6-11,14.2-12.3c10.8-1.8,21,3.8,29.2,7.7
		c4.8,2.3,9.5,4.6,14.8,6.3c5.2,1.7,10.7,2.8,16,4.1c9.1,2.3,19.5,5.5,21.8,12.5c0.9,2.8,0.7,5.9-1,8.6c-1.1,1.9-4.2,4.9-7.8,4.6
		c-0.8-0.1-2.5-0.2-3.1,0.1c-0.6,0.4,0.2,0.4,0.8,0.5c4.2,0.3,8.6,0,11.7-2.1c2.9-1.9,4.2-4.8,4.4-7.5
		C106.4,99.2,105.4,96.2,103.1,93.7z"/>
	<path class="st1" d="M223.2,184.5c-33.2-2.5-67.3,5.6-90.6,21.7c-6.5,4.5-12,9.6-16.4,15.1c0,0.1,4,0.7,4.6,0
		c14.9-18.6,43.3-32,74.3-35.6c8.6-1,17.3-1.2,25.9-0.6c0.8,0.1,2.5,0.2,3.1-0.1C224.6,184.7,223.8,184.6,223.2,184.5z"/>
	<path class="st1" d="M52.4,338.3c-0.5-0.1-1.1-0.1-1.6-0.1s-1.1,0-1.6,0.1c-0.2,0-0.7,0.1-0.7,0.2v5.9c0,0.2,0.6,0.2,0.7,0.2
		c0.5,0.1,1.1,0.1,1.6,0.1s1.1,0,1.6-0.1c0.2,0,0.7-0.1,0.7-0.2v-5.9C53.1,338.4,52.5,338.3,52.4,338.3z"/>
	<path class="st1" d="M351.3,700.5c-0.1-5.3,0.2-10.7-0.5-16c-0.6-4.4-2.7-8.8-8.1-11.5c-4.5-2.2-10.9-3-16.2-1.7
		c-5.6,1.3-7.9,5.3-11.4,8.1c-1.9,1.5-4.4,2.9-7.3,3.2c-2.5,0.3-5.3-0.5-7.5-1.2c-6-1.9-11.1-4.7-16.4-7.2
		c-4.7-2.2-9.5-4.1-15.1-5.1c-5.3-0.9-10.9-1.1-16.3-0.8c-8.4,0.5-16.7,2.5-23.5,5.9c2-4.9,1.2-10.1-3.9-14.5
		c-7.2-6.1-18.6-8.8-26.9-14.1c-5-3.1-7.7-7-8.7-11.5c-1.1-5.1-0.4-10.4-2.9-15.4c-4.1-8.5-14.4-14.6-22.4-21.5
		c-4-3.4-7.4-7.1-9.6-11.2c-2-3.8-3.3-7.7-4.5-11.5c-2.3-7.1-4.2-15.1-11.5-20.7c-3.8-3-8.9-4.6-14.4-5.7
		c-6.9-1.3-14.1-2.3-17.4-7.2c-2.9-4.2-3-9.2-4.8-13.6c-1.8-4.5-4.3-8.9-7.6-13.1C88,506,79,498.7,68,493c-2.8-1.4-5.7-2.7-8.7-3.9
		c-0.5-0.2-4.7-0.2-4.5,0.1c8,9.5,15.8,19.6,18.4,30.5c1.3,5.1,1.2,10.5-0.9,15.5c-2,4.7-6,8.8-10.2,12.8c-3.9,3.6-8.1,7.2-11,11.3
		c-3,4.3-3.8,8.9-1.7,13.5c2.3,5.1,6.2,9.7,8.2,14.9c1.8,4.7,2.5,9.6,2.2,14.4c-0.7,11-6.5,21.7-17,30.2c-0.4,0.3,1.4,0.4,1.6,0.4
		c0.6,0,2.3,0.1,2.8-0.2c9.1-7.4,14.8-16.6,16.6-26.1c0.9-4.8,0.8-9.7-0.3-14.5c-1.2-5.2-3.9-9.8-7-14.6c-3-4.8-4.9-9.6-2.7-14.7
		c1.9-4.4,6-8.3,10-11.9c4-3.7,8.2-7.4,11-11.6c3.2-4.8,4.2-10.1,3.7-15.3c-1.1-11.1-8.5-21.5-16.4-31.2c8.8,4.4,16.4,9.7,22.5,15.9
		c7.9,8,12.5,16.7,14.9,26.1c1.1,4.4,2.9,8.9,9.1,11.2c5.8,2.2,12.7,2.3,18.5,4.4c10.1,3.6,13.8,11.3,16.3,18.2
		c2.7,7.7,4.2,15.8,10,22.8c6.3,7.6,16.5,13.3,23.5,20.6c3.9,4,6.1,8.3,6.8,13.1c0.7,5.1,0.2,10.5,3.7,15.3
		c5.1,6.9,16.3,10.2,25.1,14.6c4.5,2.2,8.7,4.8,11,8.3c2.7,4,2.4,8.6,0,12.7c-5.6,9.7-20.1,14.4-34.2,17c-3.6,0.7-7.2,1.2-10.9,1.8
		c-0.8,0.1-0.7,0.3,0,0.5c0.9,0.2,2.3,0.1,3.2,0c14-2.2,29.8-4.6,39.8-12.2c0.4-0.3,0.9-0.7,1.3-1c0.3-0.1,0.6-0.1,0.7-0.3
		c5.3-6.2,14.6-10.5,24.8-12.1c4.9-0.8,10-1,15-0.3c5.4,0.7,10.2,2.3,14.7,4.4c9,4.2,18.3,10.1,30,9.7c5.5-0.2,9.6-2,12.8-4.9
		c1.6-1.5,3-3.1,4.8-4.5c1.6-1.2,4.1-2.7,6.8-2.6c6.2,0.3,10.8,4.7,12.5,8.3c2.1,4.4,1.7,9.2,1.8,13.8c0.2,10.7,0.3,21.4,0.5,32.1
		c0,2.7,0.1,5.4,0.1,8c0,2.1,0,4.3-0.8,6.4c-1.8,4.6-7.7,6.5-14.1,7.7c-14.3,2.6-29,4.4-43.7,5.2c-29.4,1.7-59.3-0.1-87.8-5.3
		c-3.6-0.7-7.2-1.4-10.7-2.1c-1-0.2-2.1-0.2-3.1-0.1c-0.3,0-1.8,0.3-0.8,0.5c29.7,6.4,61,9.1,92.2,8.2c15.5-0.4,31-1.8,46.2-4.1
		c6.5-1,13.9-1.8,19.8-4.1c6.2-2.4,7.5-6.8,7.6-11.3C351.9,723.1,351.5,711.8,351.3,700.5z"/>
	<path class="st1" d="M196.8,694c-0.2-0.6-4-0.5-4.5-0.1c-12.1,9.6-26.5,20.9-46.1,23c-8.9,1-18-0.2-26.7-1.2
		c-8.8-1.1-17.7-2.3-26.7-2.4c-7.6,0-15,0.9-21.2,3.7c-2.9-8.4-8.6-16.2-16.8-22.9c-0.5-0.4-2.2-0.3-2.8-0.2c-0.2,0-2,0.1-1.6,0.4
		c8.8,7.2,14.8,15.7,17.3,24.8c0.2,0.6,4,0.4,4.5,0.1c13.5-8.8,33.5-4.2,49.6-2.4c8.8,1,17.9,1.6,26.7,0.7c9.3-1,17.7-3.9,25.1-7.7
		c7.2-3.7,13.3-8.2,19.3-12.8c1.5,9.8-1.8,19.8-9.4,28.3c-8.4,9.4-22.1,16.3-37.8,19.4c-8.9,1.7-18.1,2.2-27.2,1.1
		c-0.7-0.1-2.5-0.2-3.1,0.1c-0.6,0.4,0.3,0.4,0.8,0.5c16.9,1.9,34.7-0.2,49.4-6.1c14.9-6,25.6-15.8,30-27.1
		C198,707,198.5,700.4,196.8,694z"/>
	<path class="st1" d="M92.9,470.2c0.3,0,0.5,0,0.8-0.1c0.3,0,1.7-0.2,0.8-0.5c-1.1-0.3-2.3-0.5-3.5-0.7c-5.8-3.5-14.1-5.4-22.3-5.6
		c16.9-20.8,22.4-45.5,15.8-68.8c-2-7.1-5.2-14-9.4-20.6c-0.5-0.7-4.7-0.1-4.6,0c14.9,23.3,16,50.2,3.7,74.1
		c-2.7,5.3-6.1,10.5-10.1,15.4c-4,0.2-8,0.8-11.5,1.8c-4.6,1.4-8.6,3.6-11.2,6.5c-0.3,0.3,3.9,0.8,4.4,0.2c4-4.4,10.5-6.8,17.4-7.5
		c-0.9,1.1-1.8,2.1-2.8,3.2c-0.3,0.3,3.9,0.8,4.4,0.2c1.1-1.2,2.1-2.4,3.1-3.5c6.2,0.1,12.4,1.5,17.4,4.2c-3.9-0.1-7.9,0.4-11.5,1.5
		c-7.1,2.1-12.9,6.1-17.3,10.3c-8.6,8.2-11.7,18.3-20.2,26.6c-2.1,2.1-4.6,4-7.5,5.6c2.5-7,4.8-14.1,7-21.2
		c2.9-9.4,6.6-19.4,3.5-28.9c-1.5-4.6-4.9-8.7-7.6-13c-2.3-3.6-3.8-7.2-4.3-11.1c-1-7.5,0.9-15.1,2.2-22.6
		c1.1-6.8,2.2-14.2-1.5-20.8c-1.6-3-4.3-5.6-7.6-7.7c-0.6-0.4-2.1-0.3-2.8-0.2c-0.2,0-2,0.1-1.6,0.4c15.9,10.2,8.7,26.9,7,39.7
		c-1,7.5-0.7,14.8,3.7,21.8c2.6,4.1,5.9,8.1,7.6,12.4c1.7,4.5,1.8,9.1,1.1,13.7c-1.4,9.7-5.1,19.4-8.2,28.9c-1.2,3.7-2.5,7.4-3.8,11
		c-1.6,0.5-3.3,1-5,1.3c-0.8,0.1-0.7,0.3,0,0.5c0.9,0.2,2.3,0.2,3.2,0c0.4-0.1,0.8-0.2,1.3-0.3c-1.9,5.3-4,10.7-6.1,16
		c-1.9,4.7-4,9.3-5.8,13.9c-1.6,4-2.4,8.2,1.4,11.8c3.4,3.2,8,5.4,9.4,9.4c1.1,3.2,0,6.6-1.7,9.6c-4.3,7.3-12,13.3-17.4,20.2
		c-4.9,6.3-6.7,13.4-6.1,20.5c1.3,15.1,11,29.2,16.9,43.6c3.1,7.4,5.4,15,5.1,22.7c-0.3,7.6-3.6,15.7-15,18.9
		c-9.4,2.7-20.5,1-28.7-2.8c-7.8-3.7-13.5-8.9-18-14.4c-1.9-11.5-3.6-23.1-4.9-34.7c1.3-0.9,2.7-1.8,3.8-2.8
		c2.6-2.2,4.3-4.8,4.9-7.6c1.4-5.8-0.5-11.8-1.9-17.6c-1.4-5.2-3.3-11.1-0.5-16.1c1.3-2.4,3.9-4.2,7.1-5.5c0.6-0.2-1.5-0.4-1.6-0.4
		c-0.9,0-2-0.1-2.8,0.2c-7.1,2.8-9,7.9-8.6,13.1c0.4,6.2,3,12.1,3.8,18.3c0.4,2.9,0.5,6-0.5,8.9c-0.8,2.3-2.3,4.3-4.3,6.2
		c-6.7-60-6.2-120.3-5.6-180.4c0-3.4,0.1-6.8,0.1-10.2c1.2,0.1,2.7,0.2,3-0.3c12.9-17.5,29.6-33.7,49.5-47.9
		c5.6-4,11.4-7.9,17.5-11.5l0.1-0.1c-0.9-2.6-1.8-5.2-2.8-7.7c-0.5-1.3-0.9-2.6-1.4-3.9c-0.2-0.5-0.5-1.1-0.4-1.7s0.5-1.3,0.8-1.9
		c1.9-4.5,4.2-8.9,6.8-13.2c5.3-8.7,11.9-17.1,19.8-24.9c3.9-3.8,8.1-7.5,12.5-11.1c3.6,1.9,7.1,3.7,10.7,5.6
		c0.5,0.2,4.7,0.4,4.5-0.1c-4.6-14.3-1.6-29.7,8.5-42.7c4-5.2,14.2-12.9,4.4-18c-3.6-1.9-8.2-2.6-12.5-3.2
		c-5.8-0.8-11.7-1.3-17.6-1.5c-13.4-0.5-26.9,0.5-39.8,2.9c-0.8,0.2-0.7,0.3,0,0.5c0.9,0.2,2.3,0.2,3.2,0c11.2-2.1,22.7-3,34.3-2.7
		c5.8,0.2,11.6,0.6,17.3,1.4c4,0.6,8.3,1.4,11.4,3.2c3.8,2.3,4,5.6,2.1,8.6c-2,3.2-5.3,6.1-7.7,9.2c-4.6,6-7.6,12.5-9.2,19.2
		c-1.5,6.7-1.5,13.6,0.2,20.3c-2.7-1.4-5.4-2.8-8-4.2c-0.7-0.4-3.8-0.5-4.4,0c-18.6,14.4-32.5,31.4-40.6,49.6
		c-0.5,1-1.3,2.3-1.2,3.4c0.1,1.3,1,2.8,1.5,4.1c0.5,1.3,0.9,2.6,1.4,3.9s1.3,2.8,1.5,4.1c0.2,1.2-1.8,2-3,2.7
		c-1.4,0.9-2.9,1.8-4.3,2.7c-2.5,1.6-5,3.3-7.4,5c-10,7-19.2,14.4-27.5,22.3c-8.6,8.1-16.3,16.6-23,25.4
		c0.9-85.8,1.8-171.5,2.7-257.3C-50.6,146.7-50,96-49.5,45.3c0-0.5-4.6-0.5-4.6,0c-0.9,90-1.9,179.9-2.8,269.9
		c-0.5,45.2-0.9,90.4-1.4,135.6c-0.5,43.9-1.2,87.8,0.6,131.7c0.9,22.8,2.5,45.6,5.2,68.3c-3.4,2.3-6.8,4.7-8.1,7.9
		c-1.7,4.5,0.9,9.2,3.5,13.4c2.8,4.4,5.8,9,9.5,13.4c1.8,10.6,3.9,21.2,6.2,31.8c-0.6-0.6-1.2-1.2-1.7-1.8s-4.7-0.1-4.4,0.2
		c2.2,2.5,4.7,4.9,7.4,7.2c0.6,2.5,1.2,5,1.8,7.5c0.2,0.6,4.7,0.4,4.6,0c-0.3-1-0.5-2-0.7-3.1c6.7,4.8,14.4,9,23.2,12
		c13.8,4.7,31,5.5,44.4-0.3c13.1-5.7,19.4-16.7,19.8-26.9c0.5-13.5-8.3-26.3-16-38.4c-9.7-15.3-19.4-30.5-29.1-45.8
		c-0.4-0.6-3.6-0.3-4.4-0.1c-1.7-5.4-2.7-10.8-2.1-16.3c0.4-3.6,1.5-7.2,3.5-10.6c2.2-3.8,5.4-7.2,8.6-10.6
		c5.6-5.9,13.2-12.5,13.5-19.8c0.1-3.6-2.1-6.7-5.6-9.4c-2.1-1.6-4.4-3-5.8-4.9c-1.5-2.1-1.5-4.5-0.9-6.8c1.2-4.8,3.8-9.5,5.7-14.2
		c2-4.9,3.9-9.8,5.8-14.8c0.7-1.8,1.3-3.7,2-5.5c9.2-3.2,15-9.5,19.4-15.8c2.9-4.1,5.2-8.4,8.1-12.5c3.3-4.6,7.9-9,13.6-12.5
		c3-1.8,6.4-3.3,10.1-4.3c2.7-0.7,5.2-0.8,7.7-0.6c3.3,2,5.6,4.6,6.8,7.5c0.3,0.7,4.7,0.3,4.6,0C97.2,474.2,95.4,472,92.9,470.2z
		 M-54.1,669.8c-2.3-4.1-4-8.8-1-13c0.7-1,1.7-2,2.8-2.9c1,7.9,2,15.9,3.3,23.8C-50.8,675.2-52.6,672.5-54.1,669.8z M27.7,666.7
		c7.6,12,16.6,24.1,19.6,37.1c2.3,10.4-0.2,21.8-10.5,30.1c-4.8,3.9-11.3,6.8-18.6,8s-14.7,0.3-21.5-1.6
		c-12.8-3.5-23.7-10-32.3-17.4c-2.5-10.4-4.6-20.9-6.4-31.3c6.8,6.4,15.7,11.4,28.2,12.9c9.2,1.1,20,0.4,27.5-3.7
		c9.1-5.1,10-14,9.3-21.4c-1.4-16-11.7-30.8-17.8-46.1c-0.6-1.5-1.2-3.1-1.7-4.6C11.6,641.3,19.6,654,27.7,666.7z"/>
	<path class="st1" d="M43.9,215.3c-4.9-4.7-11.6-8.5-19.5-10.8c-8.1-2.3-17.2-2.8-25.9-2c-5.3,0.5-10.5,1.5-15.4,3
		c-0.9-13.5-6.9-26.7-17.3-38.3c-0.5-0.6-4.7-0.2-4.4,0.2c10.4,11.6,16.3,24.9,17.1,38.5c0,0.3,1.2,0.4,2.3,0.4
		c-9.8,3.4-18,8.9-22.5,15.8c-0.8,1.3-1.5,2.7-2.1,4.1c-0.1,0.3,4.3,0.7,4.6,0c4.3-11.1,18.8-19.7,35.2-22.4
		c8.1-1.3,16.5-1,24.2,1.2c7.6,2.2,14.1,5.9,18.9,10.5c9.5,9.1,12.6,21.6,5.6,31.9c-8.4,12.5-27.9,19.6-42.5,28.7
		c-15.7,9.7-28.6,21.4-37.8,34.3c-1.1,1.6-2.2,3.2-3.3,4.8c-0.1,0.1,4.1,0.7,4.6,0c8.9-14,21.9-26.7,38.1-37.2
		c7.8-5.1,16.6-9.4,24.9-14.1c7.9-4.5,15.4-9.5,20.1-15.7C56.6,237.7,53.7,224.7,43.9,215.3z"/>
	<path class="st1" d="M42.4,144.9c-0.9,0-2-0.1-2.8,0.2c-3.2,1.3-6.9,2-10.6,1.6c-3.9-0.4-7.6-1.6-10.8-3c-7-3.1-12.8-7.5-17.2-12.2
		c-4.2-4.6-7-9.7-10.4-14.5c-3.1-4.5-6.6-8.9-11.3-12.8c-5-4.2-11.5-7.3-19.4-8.5c-1-0.1-2.3-0.2-3.2,0c-0.7,0.2-0.9,0.4,0,0.5
		c16.3,2.5,24.5,13.8,30.9,23.1c3.5,5.2,6.6,10.4,11.5,15c5.1,4.7,11.6,9,19.5,11.5c8,2.5,17.7,2.6,25.4-0.4
		C44.6,145.2,42.5,144.9,42.4,144.9z"/>
</g>
</svg>
