<?xml version="1.0" encoding="utf-8"?>
<!-- Generator: Adobe Illustrator 25.1.0, SVG Export Plug-In . SVG Version: 6.00 Build 0)  -->
<svg version="1.1" id="Layer_1" xmlns="http://www.w3.org/2000/svg" xmlns:xlink="http://www.w3.org/1999/xlink" x="0px" y="0px"
	 viewBox="0 0 837 497" style="enable-background:new 0 0 837 497;" xml:space="preserve">
<style type="text/css">
	.st0{fill:#F6F5F9;}
	.st1{fill:#191919;}
	.st2{font-family:'Arboria-Medium';}
	.st3{font-size:34.4066px;}
	.st4{font-family:'Arboria-Book';}
	.st5{font-size:24px;}
	.st6{font-size:22px;}
	.st7{font-size:20px;}
	.st8{fill:none;stroke:#DEDBEB;stroke-width:8;stroke-miterlimit:10;}
	.st9{opacity:0.49;fill:#DEDBEB;enable-background:new    ;}
	.st10{fill:none;stroke:#000000;stroke-miterlimit:10;}
</style>
<rect x="-24.1" y="-28.9" class="st0" width="899.5" height="555.1"/>
<text transform="matrix(0.8955 0 0 1 113.8745 389.1074)" class="st1 st2 st3">Claire Marie Vaney</text>
<text transform="matrix(1 0 0 1 115.4683 425.3164)" class="st1 st4 st5">UI /UX Designer / Developer</text>
<text transform="matrix(6.123234e-17 -1 1 6.123234e-17 644.2124 429.1738)" class="st1 st4 st6">claire.marie.vaney@gmail.com</text>
<text transform="matrix(6.123234e-17 -1 1 6.123234e-17 715.577 424.873)" class="st1 st4 st7">06 25 67 11 23</text>
<text transform="matrix(6.123234e-17 -1 1 6.123234e-17 680.577 427.873)" class="st1 st4 st6">clairemarievaney.com</text>
<line class="st8" x1="611" y1="453" x2="684" y2="453"/>
<g id="Layer_1_2_">
	<g id="Layer_2_1_">
		<polygon class="st9" points="64.7,47.1 71.8,77.5 80.6,47.7 73.3,25.3 		"/>
		<path class="st9" d="M70.8,138.1c-2.3-58.9,18.9-97.8,22.8-96.8c0.1,0,15.2,24.9,14.6,25.2C81.7,74.7,71.1,145.2,70.8,138.1z"/>
		<path class="st9" d="M65.5,142"/>
		<path class="st9" d="M70.6,138.4c11.6-44.3,34-65.3,36.4-63.1c0.1,0.1,4.4,24,3.8,23.9C92,95.6,69.3,143.7,70.6,138.4z"/>
		<path class="st9" d="M70.5,138c-9.3-40.9-28.2-62.7-33.2-64.6c-0.5-0.2-1.1,0.1-1.2,0.7c-0.9,3.9-4.9,23.1-4.5,23
			C50.8,94.3,71.8,143.3,70.5,138z"/>
		<path class="st9" d="M70.9,137.6C75.1,78.8,55.4,39.1,51.5,40c-0.2,0-16.2,24.3-15.6,24.5C62.1,73.8,70.3,144.6,70.9,137.6z"/>
	</g>
	<g id="losange_2_">
		<polygon class="st10" points="61.9,49.1 69.7,78.6 77.3,49.2 69.7,27.6 		"/>
		<path class="st10" d="M70.2,137.8c-3.8-57.4,15.6-96.1,19.4-95.2c0.1,0,15.5,23.9,14.8,24.1C79.1,75.5,70.6,144.7,70.2,137.8z"/>
		<path class="st10" d="M63.5,142"/>
		<path class="st10" d="M70.2,138.1c10-43.6,31.1-64.8,33.4-62.7c0.1,0.1,4.8,23.3,4.4,23.2C89.6,95.6,68.9,143.3,70.2,138.1z"/>
		<path class="st10" d="M70,137.7C60,98,41.2,77.3,36.3,75.6c-0.5-0.2-1.1,0.2-1.2,0.7C34.4,80.2,31,99,31.4,98.9
			C49.7,95.6,71.4,142.9,70,137.7z"/>
		<path class="st10" d="M70.2,137.3c2.6-57.5-17.5-95.7-21.3-94.7C48.8,42.6,34,66.8,34.6,67C60.1,75.2,70,144.2,70.2,137.3z"/>
	</g>
</g>
</svg>
