<?xml version="1.0" encoding="utf-8"?>
<!-- Generator: Adobe Illustrator 25.1.0, SVG Export Plug-In . SVG Version: 6.00 Build 0)  -->
<svg version="1.1" id="Layer_1" xmlns="http://www.w3.org/2000/svg" xmlns:xlink="http://www.w3.org/1999/xlink" x="0px" y="0px"
	 viewBox="0 0 576 640" style="enable-background:new 0 0 576 640;" xml:space="preserve">
<style type="text/css">
	.st0{fill:#121212;}
	.st1{opacity:0.49;fill:none;stroke:#EFF5F3;stroke-miterlimit:10;enable-background:new    ;}
	.st2{fill:none;stroke:#EFF5F3;stroke-width:3;stroke-miterlimit:10;}
</style>
<rect x="0.5" y="0.5" class="st0" width="576" height="640"/>
<g id="Layer_2_1_">
	<polygon class="st1" points="258.5,150.9 295.3,295.6 339.7,153.9 302.9,47.3 	"/>
	<path class="st1" d="M289.7,583.6c-11.7-280,95.8-465.1,116-460.1c0.6,0.1,77.8,118.5,74.3,119.6
		C345.3,282,291.1,617.2,289.7,583.6z"/>
	<path class="st1" d="M262.9,602"/>
	<path class="st1" d="M289.4,585.1c59.4-210.5,173.2-310.6,185.2-300c0.3,0.4,22,113.9,19.4,113.5
		C397.6,381.4,282.3,610.3,289.4,585.1z"/>
	<path class="st1" d="M288.8,583.2c-47.2-194.4-143.3-298.3-168.8-307c-2.6-0.9-5.4,0.7-6.1,3.3c-4.5,18.6-25,109.7-22.7,109.3
		C188,375.4,294.9,608.5,288.8,583.2z"/>
	<path class="st1" d="M290,581.2c22-279.4-78.5-468.3-98.8-464.1c-0.6,0.1-82.2,115.6-78.7,116.7C245.5,277.7,287.3,614.7,290,581.2
		z"/>
</g>
<g id="Layer_1_1_">
	<g id="losange_1_">
		<polygon class="st2" points="245.7,165.1 285.7,305.3 324.8,165.7 285.9,62.7 		"/>
		<path class="st2" d="M288.5,586.7c-19.4-273,79.9-456.9,99.7-452.6c0.6,0.1,79.2,113.5,75.8,114.6
			C334,290.6,290.8,619.5,288.5,586.7z"/>
		<path class="st2" d="M254.3,606.8"/>
		<path class="st2" d="M288.4,588.1C340.2,380.9,448.1,280,460,290c0.3,0.4,24.7,110.6,22.2,110.3
			C387.9,386.2,282.2,613,288.4,588.1z"/>
		<path class="st2" d="M287.6,586.2C236,397.8,139.5,299.1,114.4,291.3c-2.6-0.8-5.2,0.8-5.8,3.4c-3.8,18.3-21.2,107.8-19,107.4
			C183.5,386.3,294.4,610.9,287.6,586.2z"/>
		<path class="st2" d="M288.7,584.3c13.4-273.4-89.9-455-109.6-450.3c-0.6,0.1-76.7,115.2-73.3,116.2
			C236.8,289.2,287.2,617.1,288.7,584.3z"/>
	</g>
</g>
</svg>
