<?xml version="1.0" encoding="utf-8"?>
<!-- Generator: Adobe Illustrator 25.2.1, SVG Export Plug-In . SVG Version: 6.00 Build 0)  -->
<svg version="1.1" id="Layer_1" xmlns="http://www.w3.org/2000/svg" xmlns:xlink="http://www.w3.org/1999/xlink" x="0px" y="0px"
	 viewBox="0 0 575.8 630" style="enable-background:new 0 0 575.8 630;" xml:space="preserve">
<style type="text/css">
	.st0{display:none;}
	.st1{display:inline;fill:#FFFFFF;}
	.st2{fill:#D1D5E7;stroke:#EFF5F3;stroke-width:0.75;stroke-miterlimit:10;}
	.st3{opacity:0.49;fill:none;stroke:#EFF5F3;stroke-miterlimit:10;enable-background:new    ;}
	.st4{fill:none;stroke:#EFF5F3;stroke-width:3;stroke-miterlimit:10;}
	.st5{display:inline;}
	.st6{font-family:'GravesendSans-Light';}
	.st7{font-size:80.6075px;}
	.st8{display:inline;fill:none;stroke:#EFF5F3;stroke-width:3;stroke-miterlimit:10;}
	.st9{fill:#B3D1C6;stroke:#EFF5F3;stroke-width:0.75;stroke-miterlimit:10;}
</style>
<g id="Background" class="st0">
	<rect x="-17.3" y="-15" class="st1" width="623.5" height="666.7"/>
</g>
<rect x="-0.5" y="-0.5" class="st2" width="576" height="640"/>
<g id="Layer_2_1_">
	<polygon class="st3" points="257.5,149.9 294.3,294.6 338.7,152.9 301.9,46.3 	"/>
	<path class="st3" d="M288.7,582.6c-11.7-280,95.8-465.1,116-460.1c0.6,0.1,77.8,118.5,74.3,119.6
		C344.3,281,290.1,616.2,288.7,582.6z"/>
	<path class="st3" d="M261.9,601"/>
	<path class="st3" d="M288.4,584.1c59.4-210.5,173.2-310.6,185.2-300c0.3,0.4,22,113.9,19.4,113.5
		C396.6,380.4,281.3,609.3,288.4,584.1z"/>
	<path class="st3" d="M287.8,582.2c-47.2-194.4-143.3-298.3-168.8-307c-2.6-0.9-5.4,0.7-6.1,3.3c-4.5,18.6-25,109.7-22.7,109.3
		C187,374.4,293.9,607.5,287.8,582.2z"/>
	<path class="st3" d="M289,580.2c22-279.4-78.5-468.3-98.8-464.1c-0.6,0.1-82.2,115.6-78.7,116.7C244.5,276.7,286.3,613.7,289,580.2
		z"/>
</g>
<g id="Layer_1_1_">
	<g id="losange_1_">
		<polygon class="st4" points="244.7,164.1 284.7,304.3 323.8,164.7 284.9,61.7 		"/>
		<path class="st4" d="M287.5,585.7c-19.4-273,79.9-456.9,99.7-452.6c0.6,0.1,79.2,113.5,75.8,114.6
			C333,289.6,289.8,618.5,287.5,585.7z"/>
		<path class="st4" d="M253.3,605.8"/>
		<path class="st4" d="M287.4,587.1C339.2,379.9,447.1,279,459,289c0.3,0.4,24.7,110.6,22.2,110.3
			C386.9,385.2,281.2,612,287.4,587.1z"/>
		<path class="st4" d="M286.6,585.2C235,396.8,138.5,298.1,113.4,290.3c-2.6-0.8-5.2,0.8-5.8,3.4c-3.8,18.3-21.2,107.8-19,107.4
			C182.5,385.3,293.4,609.9,286.6,585.2z"/>
		<path class="st4" d="M287.7,583.3c13.4-273.4-89.9-455-109.6-450.3c-0.6,0.1-76.7,115.2-73.3,116.2
			C235.8,288.2,286.2,616.1,287.7,583.3z"/>
	</g>
	<g id="Text" class="st0">
		<text transform="matrix(1.4932 0 0 1 548.5908 254.1221)" class="st5 st6 st7">CLAIRE</text>
		<text transform="matrix(1.4932 0 0 1 548.5908 254.1221)" class="st8 st6 st7">CLAIRE</text>
		<text transform="matrix(1.4932 0 0 1 548.5908 254.1221)" class="st8 st6 st7">CLAIRE</text>
		<text transform="matrix(1.2257 5.748581e-03 -5.950000e-03 1 587.4232 344.8316)" class="st5 st6" style="font-size:90.5291px;">MARIE</text>
		<text transform="matrix(1.2257 5.748581e-03 -5.950000e-03 1 587.4232 344.8316)" class="st8 st6" style="font-size:90.5291px;">MARIE</text>
		<text transform="matrix(1.2257 5.748581e-03 -5.950000e-03 1 587.4232 344.8316)" class="st8 st6" style="font-size:90.5291px;">MARIE</text>
		<text transform="matrix(1.4932 0 0 1 562.25 433.9521)" class="st5 st6 st7">VANEY</text>
		<text transform="matrix(1.4932 0 0 1 562.25 433.9521)" class="st8 st6 st7">VANEY</text>
		<text transform="matrix(1.4932 0 0 1 562.25 433.9521)" class="st8 st6 st7">VANEY</text>
	</g>
	<g id="Cadre" class="st0">
		<rect x="-62.2" y="5.9" class="st8" width="1196.6" height="630.7"/>
	</g>
</g>
<rect x="926.5" y="404.5" class="st9" width="0" height="9"/>
</svg>
