<?xml version="1.0" encoding="utf-8"?>
<!-- Generator: Adobe Illustrator 25.1.0, SVG Export Plug-In . SVG Version: 6.00 Build 0)  -->
<svg version="1.1" id="Layer_1" xmlns="http://www.w3.org/2000/svg" xmlns:xlink="http://www.w3.org/1999/xlink" x="0px" y="0px"
	 viewBox="0 0 837 497" style="enable-background:new 0 0 837 497;" xml:space="preserve">
<style type="text/css">
	.st0{display:none;fill:#B6CEC5;stroke:#FFFFFF;stroke-width:0.75;stroke-miterlimit:10;}
	.st1{fill:#B6CEC5;}
	.st2{fill:none;stroke:#C5D9D1;stroke-width:1.5;stroke-miterlimit:10;}
	.st3{display:none;}
	.st4{display:inline;fill:#FFFFFF;}
	.st5{font-family:'GravesendSans-Light';}
	.st6{font-size:83.4252px;}
	.st7{display:inline;fill:none;stroke:#C5D9D1;stroke-width:1.5;stroke-miterlimit:10;}
	.st8{font-size:93.6902px;}
	.st9{display:inline;fill:#FFFFFF;stroke:#C5D9D1;stroke-width:1.5;stroke-miterlimit:10;}
	.st10{display:inline;}
	.st11{fill:none;stroke:#F4F4F4;stroke-width:3;stroke-miterlimit:10;}
</style>
<rect x="-127" y="-237.1" class="st0" width="1264.4" height="1000.4"/>
<rect x="-26.2" y="-10.8" class="st1" width="899.5" height="622"/>
<g id="Layer_1_432_">
	<g id="losange_432_">
		<polygon class="st2" points="1.7,10.4 7.3,30.1 12.9,10.5 7.4,-4.1 		"/>
		<path class="st2" d="M7.8,69.8C5,31.3,19.1,5.3,21.9,6c0.1,0,11.2,16,10.8,16.2C14.2,28.1,8,74.4,7.8,69.8z"/>
		<path class="st2" d="M2.8,72.7"/>
		<path class="st2" d="M7.8,70C15.1,40.9,30.5,26.5,32.1,28c0,0.1,3.5,15.6,3.2,15.6C21.8,41.6,6.8,73.5,7.8,70z"/>
		<path class="st2" d="M7.6,69.7C0.3,43.1-13.4,29.2-17,28.2c-0.4-0.1-0.7,0.1-0.8,0.5c-0.6,2.6-3,15.2-2.7,15.1
			C-7.2,41.6,8.6,73.2,7.6,69.7z"/>
		<path class="st2" d="M7.8,69.5C9.6,30.9-5,5.3-7.8,6.1c-0.1,0-10.9,16.3-10.4,16.4C0.4,27.9,7.5,74.1,7.8,69.5z"/>
	</g>
</g>
<g id="Layer_1_431_">
	<g id="losange_431_">
		<polygon class="st2" points="57.8,9.9 63.4,29.7 68.9,10 63.4,-4.5 		"/>
		<path class="st2" d="M63.8,69.4C60.9,30.9,75.1,4.9,77.9,5.5c0.1,0,11.2,16,10.8,16.2C70.3,27.6,64.1,74,63.8,69.4z"/>
		<path class="st2" d="M59,72.3"/>
		<path class="st2" d="M63.8,69.6c7.4-29.2,22.7-43.5,24.4-42.1c0,0.1,3.5,15.6,3.2,15.6C77.9,41.2,62.9,73.1,63.8,69.6z"/>
		<path class="st2" d="M63.6,69.3C56.3,42.7,42.6,28.8,39,27.8c-0.4-0.1-0.7,0.1-0.8,0.5c-0.5,2.6-2.9,15.1-2.7,15.1
			C48.9,41.2,64.7,72.8,63.6,69.3z"/>
		<path class="st2" d="M63.9,69.1C65.8,30.5,51.1,4.9,48.3,5.6c-0.1,0-10.9,16.3-10.4,16.4C56.5,27.4,63.6,73.7,63.9,69.1z"/>
	</g>
</g>
<g id="Layer_1_430_">
	<g id="losange_430_">
		<polygon class="st2" points="70.1,128.8 64.3,108.9 58.8,128.7 64.3,143.2 		"/>
		<path class="st2" d="M63.9,69.3c2.8,38.5-11.2,64.5-14.1,63.9c-0.1,0-11.2-16-10.8-16.2C57.4,111.1,63.5,64.7,63.9,69.3z"/>
		<path class="st2" d="M68.7,66.4"/>
		<path class="st2" d="M63.9,69.1c-7.3,29.3-22.6,43.5-24.2,42.1c0-0.1-3.5-15.6-3.2-15.6C49.8,97.5,64.7,65.6,63.9,69.1z"/>
		<path class="st2" d="M64,69.3c7.4,26.5,21.1,40.4,24.7,41.5c0.4,0.1,0.7-0.1,0.8-0.5c0.6-2.6,2.9-15.2,2.7-15.1
			C78.8,97.5,62.9,65.8,64,69.3z"/>
		<path class="st2" d="M63.8,69.6c-1.9,38.6,12.9,64.2,15.7,63.4c0.1,0,10.9-16.3,10.4-16.4C71.3,111.3,64,65,63.8,69.6z"/>
	</g>
</g>
<g id="Layer_1_429_">
	<g id="losange_429_">
		<polygon class="st2" points="14,129.2 8.2,109.4 2.7,129.2 8.2,143.7 		"/>
		<path class="st2" d="M7.8,69.8c2.8,38.5-11.2,64.5-14.1,63.9c-0.1,0-11.2-16-10.8-16.2C1.3,111.6,7.4,65.1,7.8,69.8z"/>
		<path class="st2" d="M12.6,66.9"/>
		<path class="st2" d="M7.8,69.6c-7.3,29.3-22.6,43.5-24.2,42.1c0-0.1-3.5-15.6-3.2-15.6C-6.3,98.1,8.6,66,7.8,69.6z"/>
		<path class="st2" d="M7.9,69.8c7.4,26.5,21.1,40.4,24.7,41.5c0.4,0.1,0.7-0.1,0.8-0.5c0.6-2.6,2.9-15.2,2.7-15.1
			C22.8,98,6.9,66.3,7.9,69.8z"/>
		<path class="st2" d="M7.8,70.1c-1.9,38.6,12.9,64.2,15.7,63.4c0.1,0,10.9-16.3,10.4-16.4C15.1,111.7,7.9,65.5,7.8,70.1z"/>
	</g>
</g>
<g id="Layer_1_428_">
	<g id="losange_428_">
		<polygon class="st2" points="113.7,9.6 119.3,29.4 124.9,9.7 119.4,-4.8 		"/>
		<path class="st2" d="M119.8,69.1c-2.8-38.5,11.4-64.5,14.2-63.9c0.1,0,11.2,16,10.8,16.2C126.2,27.3,120.1,73.7,119.8,69.1z"/>
		<path class="st2" d="M114.8,71.9"/>
		<path class="st2" d="M119.8,69.3c7.4-29.2,22.7-43.5,24.4-42.1c0,0.1,3.5,15.6,3.2,15.6C133.8,40.7,118.8,72.8,119.8,69.3z"/>
		<path class="st2" d="M119.6,69C112.3,42.4,98.6,28.5,95,27.4c-0.4-0.1-0.7,0.1-0.8,0.5c-0.6,2.6-3,15.2-2.7,15.1
			C104.8,40.7,120.6,72.5,119.6,69z"/>
		<path class="st2" d="M119.8,68.7c1.9-38.6-12.8-64.2-15.6-63.4c-0.1,0-10.9,16.3-10.4,16.4C112.4,27.1,119.5,73.3,119.8,68.7z"/>
	</g>
</g>
<g id="Layer_1_427_">
	<g id="losange_427_">
		<polygon class="st2" points="169.8,9.2 175.4,29 181,9.3 175.4,-5.2 		"/>
		<path class="st2" d="M175.9,68.7C173.1,30.2,187.2,4.2,190,4.8c0.1,0,11.2,16,10.8,16.2C182.3,26.9,176.1,73.3,175.9,68.7z"/>
		<path class="st2" d="M170.9,71.6"/>
		<path class="st2" d="M175.7,68.9c7.4-29.2,22.7-43.5,24.4-42.1c0,0.1,3.5,15.6,3.2,15.6C189.9,40.4,174.9,72.4,175.7,68.9z"/>
		<path class="st2" d="M175.6,68.6C168.3,42,154.5,28.1,151,27c-0.4-0.1-0.7,0.1-0.8,0.5c-0.6,2.6-3,15.2-2.7,15.1
			C160.9,40.4,176.7,72.1,175.6,68.6z"/>
		<path class="st2" d="M175.9,68.4c1.9-38.6-12.8-64.2-15.6-63.4c-0.1,0-10.9,16.3-10.4,16.4C168.5,26.7,175.6,73,175.9,68.4z"/>
	</g>
</g>
<g id="Layer_1_426_">
	<g id="losange_426_">
		<polygon class="st2" points="182.1,127.9 176.3,108.2 170.8,127.9 176.3,142.4 		"/>
		<path class="st2" d="M175.9,68.5c2.8,38.5-11.2,64.5-14.1,63.9c-0.1,0-11.2-16-10.8-16.2C169.4,110.3,175.5,63.9,175.9,68.5z"/>
		<path class="st2" d="M180.7,65.7"/>
		<path class="st2" d="M175.9,68.4c-7.3,29.3-22.6,43.5-24.2,42.1c0-0.1-3.5-15.6-3.2-15.6C161.8,96.8,176.7,64.8,175.9,68.4z"/>
		<path class="st2" d="M176,68.6c7.4,26.5,21.1,40.4,24.7,41.5c0.4,0.1,0.7-0.1,0.8-0.5c0.6-2.6,2.9-15.2,2.7-15.1
			C190.7,96.7,174.9,65.1,176,68.6z"/>
		<path class="st2" d="M175.7,68.9c-1.9,38.6,12.9,64.2,15.7,63.4c0.1,0,10.9-16.3,10.4-16.4C183.2,110.4,176,64.3,175.7,68.9z"/>
	</g>
</g>
<g id="Layer_1_425_">
	<g id="losange_425_">
		<polygon class="st2" points="126,128.5 120.2,108.7 114.7,128.5 120.2,142.9 		"/>
		<path class="st2" d="M119.8,69c2.8,38.5-11.2,64.5-14.1,63.9c-0.1,0-11.2-16-10.8-16.2C113.3,110.7,119.4,64.4,119.8,69z"/>
		<path class="st2" d="M124.6,66.2"/>
		<path class="st2" d="M119.8,68.8c-7.3,29.3-22.6,43.5-24.2,42.1c0-0.1-3.5-15.6-3.2-15.6C105.7,97.3,120.6,65.3,119.8,68.8z"/>
		<path class="st2" d="M119.9,69.1c7.4,26.5,21.1,40.4,24.7,41.5c0.4,0.1,0.7-0.1,0.8-0.5c0.6-2.6,2.9-15.2,2.7-15.1
			C134.7,97.2,118.9,65.6,119.9,69.1z"/>
		<path class="st2" d="M119.8,69.4c-1.9,38.6,12.9,64.2,15.7,63.4c0.1,0,10.9-16.3,10.4-16.4C127.1,111,119.9,64.7,119.8,69.4z"/>
	</g>
</g>
<g id="Layer_1_424_">
	<g id="losange_424_">
		<polygon class="st2" points="2.8,159.3 8.6,179 14.1,159.4 8.6,144.8 		"/>
		<path class="st2" d="M8.9,218.7c-2.8-38.5,11.4-64.5,14.2-63.9c0.1,0,11.2,16,10.8,16.2C15.5,177,9.3,223.3,8.9,218.7z"/>
		<path class="st2" d="M4.1,221.6"/>
		<path class="st2" d="M8.9,218.9c7.4-29.2,22.7-43.5,24.4-42.1c0,0.1,3.5,15.6,3.2,15.6C23.1,190.5,8.1,222.4,8.9,218.9z"/>
		<path class="st2" d="M8.8,218.6c-7.4-26.6-21.1-40.5-24.6-41.5c-0.4-0.1-0.7,0.1-0.8,0.5c-0.6,2.6-3,15.2-2.7,15.1
			C-5.9,190.5,9.9,222.1,8.8,218.6z"/>
		<path class="st2" d="M9.1,218.4c1.9-38.6-12.8-64.2-15.6-63.4c-0.1,0-10.9,16.3-10.4,16.4C1.7,176.8,8.8,223,9.1,218.4z"/>
	</g>
</g>
<g id="Layer_1_423_">
	<g id="losange_423_">
		<polygon class="st2" points="59,158.8 64.7,178.6 70.2,158.9 64.7,144.4 		"/>
		<path class="st2" d="M65,218.3c-2.8-38.5,11.4-64.5,14.2-63.9c0.1,0,11.2,16,10.8,16.2C71.5,176.6,65.4,222.9,65,218.3z"/>
		<path class="st2" d="M60.2,221.2"/>
		<path class="st2" d="M65,218.5c7.4-29.2,22.7-43.5,24.4-42.1c0,0.1,3.5,15.6,3.2,15.6C79.2,190.1,64.1,222,65,218.5z"/>
		<path class="st2" d="M64.9,218.2c-7.4-26.6-21.1-40.5-24.6-41.5c-0.4-0.1-0.7,0.1-0.8,0.5c-0.6,2.6-3,15.2-2.7,15.1
			C50.2,190.1,65.9,221.7,64.9,218.2z"/>
		<path class="st2" d="M65,218c1.9-38.6-12.8-64.2-15.6-63.4c-0.1,0-10.9,16.3-10.4,16.4C57.7,176.3,64.9,222.6,65,218z"/>
	</g>
</g>
<g id="Layer_1_422_">
	<g id="losange_422_">
		<polygon class="st2" points="71.3,277.7 65.5,257.8 60,277.6 65.6,292.1 		"/>
		<path class="st2" d="M65,218.2c2.8,38.5-11.2,64.5-14.1,63.9c-0.1,0-11.2-16-10.8-16.2C58.7,260,64.7,213.6,65,218.2z"/>
		<path class="st2" d="M70,215.3"/>
		<path class="st2" d="M65,218c-7.3,29.2-22.6,43.5-24.2,42.1c0-0.1-3.5-15.6-3.2-15.6C51,246.4,66,214.5,65,218z"/>
		<path class="st2" d="M65.2,218.2c7.4,26.5,21.1,40.4,24.7,41.5c0.4,0.1,0.7-0.1,0.8-0.5c0.6-2.6,2.9-15.2,2.7-15.1
			C80,246.4,64.2,214.7,65.2,218.2z"/>
		<path class="st2" d="M65,218.5c-1.9,38.6,12.9,64.2,15.7,63.4c0.1,0,10.9-16.3,10.4-16.4C72.5,260.2,65.3,213.9,65,218.5z"/>
	</g>
</g>
<g id="Layer_1_421_">
	<g id="losange_421_">
		<polygon class="st2" points="15.1,278.1 9.5,258.3 4,278.1 9.5,292.6 		"/>
		<path class="st2" d="M9.1,218.7c2.8,38.5-11.2,64.5-14.1,63.9c-0.1,0-11.2-16-10.8-16.2C2.6,260.5,8.7,214,9.1,218.7z"/>
		<path class="st2" d="M13.9,215.8"/>
		<path class="st2" d="M9.1,218.5c-7.3,29.3-22.6,43.5-24.2,42.1c0-0.1-3.5-15.6-3.2-15.6C-5.1,247,9.9,214.9,9.1,218.5z"/>
		<path class="st2" d="M9.2,218.7c7.4,26.5,21.1,40.4,24.7,41.5c0.4,0.1,0.7-0.1,0.8-0.5c0.6-2.6,2.9-15.2,2.7-15.1
			C23.9,246.9,8.1,215.2,9.2,218.7z"/>
		<path class="st2" d="M8.9,219c-1.9,38.6,12.9,64.2,15.7,63.4c0.1,0,10.9-16.3,10.4-16.4C16.4,260.6,9.2,214.4,8.9,219z"/>
	</g>
</g>
<g id="Layer_1_420_">
	<g id="losange_420_">
		<polygon class="st2" points="115,158.5 120.6,178.3 126.1,158.6 120.6,144.1 		"/>
		<path class="st2" d="M120.9,218c-2.8-38.5,11.4-64.5,14.2-63.9c0.1,0,11.2,16,10.8,16.2C127.5,176.2,121.3,222.6,120.9,218z"/>
		<path class="st2" d="M116.1,220.8"/>
		<path class="st2" d="M120.9,218.2c7.4-29.2,22.7-43.5,24.4-42.1c0,0.1,3.5,15.6,3.2,15.6C135.1,189.7,120.1,221.7,120.9,218.2z"/>
		<path class="st2" d="M120.8,217.9c-7.4-26.6-21.1-40.5-24.6-41.5c-0.4-0.1-0.7,0.1-0.8,0.5c-0.6,2.6-3,15.2-2.7,15.1
			C106,189.7,121.9,221.4,120.8,217.9z"/>
		<path class="st2" d="M121,217.6c1.9-38.6-12.8-64.2-15.6-63.4c-0.1,0-10.9,16.3-10.4,16.4C113.7,176,120.8,222.2,121,217.6z"/>
	</g>
</g>
<g id="Layer_1_419_">
	<g id="losange_419_">
		<polygon class="st2" points="170.9,158.1 176.7,177.9 182.2,158.2 176.7,143.7 		"/>
		<path class="st2" d="M177,217.6c-2.8-38.5,11.4-64.5,14.2-63.9c0.1,0,11.2,16,10.8,16.2C183.5,175.8,177.4,222.2,177,217.6z"/>
		<path class="st2" d="M172.2,220.5"/>
		<path class="st2" d="M177,217.8c7.4-29.2,22.7-43.5,24.4-42.1c0,0.1,3.5,15.6,3.2,15.6C191.2,189.3,176.2,221.3,177,217.8z"/>
		<path class="st2" d="M176.9,217.5c-7.4-26.6-21.1-40.5-24.6-41.5c-0.4-0.1-0.7,0.1-0.8,0.5c-0.6,2.6-3,15.2-2.7,15.1
			C162.2,189.3,177.9,221,176.9,217.5z"/>
		<path class="st2" d="M177,217.3c1.9-38.6-12.8-64.2-15.6-63.4c-0.1,0-10.9,16.3-10.4,16.4C169.8,175.6,176.9,221.9,177,217.3z"/>
	</g>
</g>
<g id="Layer_1_418_">
	<g id="losange_418_">
		<polygon class="st2" points="183.2,276.8 177.5,257.1 172,276.8 177.6,291.3 		"/>
		<path class="st2" d="M177,217.4c2.8,38.5-11.2,64.5-14.1,63.9c-0.1,0-11.2-16-10.8-16.2C170.7,259.2,176.7,212.8,177,217.4z"/>
		<path class="st2" d="M182,214.6"/>
		<path class="st2" d="M177,217.3c-7.3,29.3-22.6,43.5-24.2,42.1c0-0.1-3.5-15.6-3.2-15.6C163,245.7,178,213.7,177,217.3z"/>
		<path class="st2" d="M177.2,217.5c7.4,26.5,21.1,40.4,24.7,41.5c0.4,0.1,0.7-0.1,0.8-0.5c0.6-2.6,2.9-15.2,2.7-15.1
			C192,245.6,176.2,214,177.2,217.5z"/>
		<path class="st2" d="M177,217.8c-1.9,38.6,12.9,64.2,15.7,63.4c0.1,0,10.9-16.3,10.4-16.4C184.5,259.3,177.3,213.2,177,217.8z"/>
	</g>
</g>
<g id="Layer_1_417_">
	<g id="losange_417_">
		<polygon class="st2" points="127.3,277.4 121.5,257.6 116,277.4 121.5,291.8 		"/>
		<path class="st2" d="M121,217.9c2.8,38.5-11.2,64.5-14.1,63.9c-0.1,0-11.2-16-10.8-16.2C114.6,259.6,120.7,213.3,121,217.9z"/>
		<path class="st2" d="M125.8,215.1"/>
		<path class="st2" d="M121,217.7c-7.3,29.3-22.6,43.5-24.2,42.1c0-0.1-3.5-15.6-3.2-15.6C107,246.2,121.9,214.2,121,217.7z"/>
		<path class="st2" d="M121.2,218c7.4,26.5,21.1,40.4,24.7,41.5c0.4,0.1,0.7-0.1,0.8-0.5c0.6-2.6,2.9-15.2,2.7-15.1
			C135.9,246.1,120.1,214.5,121.2,218z"/>
		<path class="st2" d="M120.9,218.3c-1.9,38.6,12.9,64.2,15.7,63.4c0.1,0,10.9-16.3,10.4-16.4C128.4,259.9,121.2,213.6,120.9,218.3z
			"/>
	</g>
</g>
<g id="Layer_1_416_">
	<g id="losange_416_">
		<polygon class="st2" points="225.9,8.9 231.5,28.8 237.1,9 231.5,-5.5 		"/>
		<path class="st2" d="M232,68.4c-2.8-38.5,11.4-64.5,14.2-63.9c0.1,0,11.2,16,10.8,16.2C238.4,26.6,232.2,73.1,232,68.4z"/>
		<path class="st2" d="M227.1,71.2"/>
		<path class="st2" d="M231.9,68.6c7.4-29.2,22.7-43.5,24.4-42.1c0,0.1,3.5,15.6,3.2,15.6C246,40.1,231,72.2,231.9,68.6z"/>
		<path class="st2" d="M231.7,68.4c-7.4-26.6-21.1-40.5-24.6-41.5c-0.4-0.1-0.7,0.1-0.8,0.5c-0.6,2.6-3,15.2-2.7,15.1
			C217,40.1,232.8,71.9,231.7,68.4z"/>
		<path class="st2" d="M232,68.1c1.9-38.6-12.8-64.2-15.6-63.4c-0.1,0-10.9,16.3-10.4,16.4C224.6,26.4,231.7,72.7,232,68.1z"/>
	</g>
</g>
<g id="Layer_1_415_">
	<g id="losange_415_">
		<polygon class="st2" points="281.9,8.6 287.6,28.4 293.1,8.7 287.6,-5.8 		"/>
		<path class="st2" d="M288,68.1c-2.8-38.5,11.4-64.5,14.2-63.9c0.1,0,11.2,16,10.8,16.2C294.4,26.3,288.3,72.7,288,68.1z"/>
		<path class="st2" d="M283.2,70.8"/>
		<path class="st2" d="M288,68.3c7.4-29.2,22.7-43.5,24.4-42.1c0,0.1,3.5,15.6,3.2,15.6C302.1,39.7,287.2,71.8,288,68.3z"/>
		<path class="st2" d="M287.9,68c-7.4-26.6-21.1-40.5-24.6-41.5c-0.4-0.1-0.7,0.1-0.8,0.5c-0.6,2.6-3,15.2-2.7,15.1
			C273.1,39.7,288.8,71.4,287.9,68z"/>
		<path class="st2" d="M288,67.7c1.9-38.6-12.8-64.2-15.6-63.4c-0.1,0-10.9,16.3-10.4,16.4C280.7,26.1,287.9,72.3,288,67.7z"/>
	</g>
</g>
<g id="Layer_1_414_">
	<g id="losange_414_">
		<polygon class="st2" points="294.2,127.3 288.4,107.6 282.9,127.2 288.6,141.8 		"/>
		<path class="st2" d="M288,67.9c2.8,38.5-11.2,64.5-14.1,63.9c-0.1,0-11.2-16-10.8-16.2C281.6,109.6,287.6,63.3,288,67.9z"/>
		<path class="st2" d="M292.9,65"/>
		<path class="st2" d="M288,67.7c-7.3,29.3-22.6,43.5-24.2,42.1c0-0.1-3.5-15.6-3.2-15.6C273.9,96.2,288.9,64.2,288,67.7z"/>
		<path class="st2" d="M288.1,68c7.4,26.5,21.1,40.4,24.7,41.5c0.4,0.1,0.7-0.1,0.8-0.5c0.6-2.6,2.9-15.2,2.7-15.1
			C303,96.1,287.2,64.5,288.1,68z"/>
		<path class="st2" d="M288,68.3c-1.9,38.6,12.9,64.2,15.7,63.4c0.1,0,10.9-16.3,10.4-16.4C295.5,109.8,288.2,63.6,288,68.3z"/>
	</g>
</g>
<g id="Layer_1_413_">
	<g id="losange_413_">
		<polygon class="st2" points="238.2,127.8 232.4,108.1 226.9,127.7 232.4,142.3 		"/>
		<path class="st2" d="M232,68.4c2.8,38.5-11.2,64.5-14.1,63.9c-0.1,0-11.2-16-10.8-16.2C225.5,110.1,231.6,63.8,232,68.4z"/>
		<path class="st2" d="M236.8,65.5"/>
		<path class="st2" d="M232,68.2c-7.3,29.3-22.6,43.5-24.2,42.1c0-0.1-3.5-15.6-3.2-15.6C217.9,96.7,232.8,64.7,232,68.2z"/>
		<path class="st2" d="M232.1,68.5c7.4,26.5,21.1,40.4,24.7,41.5c0.4,0.1,0.7-0.1,0.8-0.5c0.6-2.6,2.9-15.2,2.7-15.1
			C246.9,96.6,231,65,232.1,68.5z"/>
		<path class="st2" d="M231.9,68.7c-1.9,38.6,12.9,64.2,15.7,63.4c0.1,0,10.9-16.3,10.4-16.4C239.4,110.3,232.1,64.1,231.9,68.7z"/>
	</g>
</g>
<g id="Layer_1_412_">
	<g id="losange_412_">
		<polygon class="st2" points="337.9,8.2 343.5,28 349.1,8.3 343.5,-6.2 		"/>
		<path class="st2" d="M344,67.7c-2.8-38.5,11.4-64.5,14.2-63.9c0.1,0,11.2,16,10.8,16.2C350.4,25.9,344.2,72.3,344,67.7z"/>
		<path class="st2" d="M339,70.5"/>
		<path class="st2" d="M343.8,67.9c7.4-29.2,22.7-43.5,24.4-42.1c0,0.1,3.5,15.6,3.2,15.6C358,39.4,343,71.3,343.8,67.9z"/>
		<path class="st2" d="M343.8,67.6C336.5,41,322.8,27,319.2,26c-0.4-0.1-0.7,0.1-0.8,0.5c-0.6,2.6-3,15.2-2.7,15.1
			C329,39.4,344.8,71,343.8,67.6z"/>
		<path class="st2" d="M344,67.4c1.9-38.6-12.8-64.2-15.6-63.4c-0.1,0-10.9,16.3-10.4,16.4C336.6,25.7,343.7,72,344,67.4z"/>
	</g>
</g>
<g id="Layer_1_411_">
	<g id="losange_411_">
		<polygon class="st2" points="393.9,7.8 399.6,27.6 405.1,7.9 399.6,-6.6 		"/>
		<path class="st2" d="M400,67.3c-2.8-38.5,11.4-64.5,14.2-63.9c0.1,0,11.2,16,10.8,16.2C406.4,25.5,400.3,71.9,400,67.3z"/>
		<path class="st2" d="M395.2,70.1"/>
		<path class="st2" d="M400,67.5c7.4-29.2,22.7-43.5,24.4-42.1c0,0.1,3.5,15.6,3.2,15.6C414.1,39,399.1,71,400,67.5z"/>
		<path class="st2" d="M399.8,67.3c-7.4-26.6-21.1-40.5-24.6-41.5c-0.4-0.1-0.7,0.1-0.8,0.5c-0.6,2.6-3,15.2-2.7,15.1
			C385.1,39,400.8,70.7,399.8,67.3z"/>
		<path class="st2" d="M400.1,66.9c1.9-38.6-12.8-64.2-15.6-63.4c-0.1,0-10.9,16.3-10.4,16.4C392.7,25.3,399.8,71.6,400.1,66.9z"/>
	</g>
</g>
<g id="Layer_1_410_">
	<g id="losange_410_">
		<polygon class="st2" points="406.2,126.6 400.5,106.9 394.9,126.5 400.5,141 		"/>
		<path class="st2" d="M400,67.2c2.8,38.5-11.2,64.5-14.1,63.9c-0.1,0-11.2-16-10.8-16.2C393.6,108.9,399.7,62.5,400,67.2z"/>
		<path class="st2" d="M404.9,64.3"/>
		<path class="st2" d="M400.1,66.9c-7.3,29.3-22.6,43.5-24.2,42.1c0-0.1-3.5-15.6-3.2-15.6C385.9,95.4,400.9,63.5,400.1,66.9z"/>
		<path class="st2" d="M400.2,67.3c7.4,26.5,21.1,40.4,24.7,41.5c0.4,0.1,0.7-0.1,0.8-0.5c0.6-2.6,2.9-15.2,2.7-15.1
			C415,95.4,399.1,63.8,400.2,67.3z"/>
		<path class="st2" d="M400,67.5c-1.9,38.6,12.9,64.2,15.7,63.4c0.1,0,10.9-16.3,10.4-16.4C407.5,109.1,400.2,62.9,400,67.5z"/>
	</g>
</g>
<g id="Layer_1_409_">
	<g id="losange_409_">
		<polygon class="st2" points="350.2,127.1 344.4,107.4 338.9,127 344.4,141.6 		"/>
		<path class="st2" d="M344,67.7c2.8,38.5-11.2,64.5-14.1,63.9c-0.1,0-11.2-16-10.8-16.2C337.5,109.4,343.6,63.1,344,67.7z"/>
		<path class="st2" d="M348.8,64.8"/>
		<path class="st2" d="M344,67.5c-7.3,29.3-22.6,43.5-24.2,42.1c0-0.1-3.5-15.6-3.2-15.6C329.9,95.9,344.8,64,344,67.5z"/>
		<path class="st2" d="M344.1,67.7c7.4,26.5,21.1,40.4,24.7,41.5c0.4,0.1,0.7-0.1,0.8-0.5c0.6-2.6,2.9-15.2,2.7-15.1
			C359,95.9,343.1,64.2,344.1,67.7z"/>
		<path class="st2" d="M343.8,68c-1.9,38.6,12.9,64.2,15.7,63.4c0.1,0,10.9-16.3,10.4-16.4C351.3,109.6,344.1,63.4,343.8,68z"/>
	</g>
</g>
<g id="Layer_1_408_">
	<g id="losange_408_">
		<polygon class="st2" points="227.1,157.8 232.8,177.7 238.3,157.9 232.8,143.4 		"/>
		<path class="st2" d="M233.1,217.3c-2.8-38.5,11.4-64.5,14.2-63.9c0.1,0,11.2,16,10.8,16.2C239.6,175.5,233.5,222,233.1,217.3z"/>
		<path class="st2" d="M228.3,220.1"/>
		<path class="st2" d="M233.1,217.5c7.4-29.2,22.7-43.5,24.4-42.1c0,0.1,3.5,15.6,3.2,15.6C247.3,189,232.3,221.1,233.1,217.5z"/>
		<path class="st2" d="M233,217.3c-7.4-26.6-21.1-40.5-24.6-41.5c-0.4-0.1-0.7,0.1-0.8,0.5c-0.6,2.6-3,15.2-2.7,15.1
			C218.3,189,234,220.8,233,217.3z"/>
		<path class="st2" d="M233.1,217c1.9-38.6-12.8-64.2-15.6-63.4c-0.1,0-10.9,16.3-10.4,16.4C225.9,175.3,233,221.6,233.1,217z"/>
	</g>
</g>
<g id="Layer_1_407_">
	<g id="losange_407_">
		<polygon class="st2" points="283.2,157.5 288.9,177.3 294.4,157.6 288.9,143.1 		"/>
		<path class="st2" d="M289.3,217c-2.8-38.5,11.4-64.5,14.2-63.9c0.1,0,11.2,16,10.8,16.2C295.7,175.2,289.6,221.6,289.3,217z"/>
		<path class="st2" d="M284.3,219.7"/>
		<path class="st2" d="M289.3,217.2c7.4-29.2,22.7-43.5,24.4-42.1c0,0.1,3.5,15.6,3.2,15.6C303.3,188.6,288.3,220.7,289.3,217.2z"/>
		<path class="st2" d="M289.1,216.9c-7.4-26.6-21.1-40.5-24.6-41.5c-0.4-0.1-0.7,0.1-0.8,0.5c-0.6,2.6-3,15.2-2.7,15.1
			C274.4,188.7,290.1,220.4,289.1,216.9z"/>
		<path class="st2" d="M289.3,216.6c1.9-38.6-12.8-64.2-15.6-63.4c-0.1,0-10.9,16.3-10.4,16.4C281.9,175,289,221.2,289.3,216.6z"/>
	</g>
</g>
<g id="Layer_1_406_">
	<g id="losange_406_">
		<polygon class="st2" points="295.5,276.2 289.7,256.5 284.2,276.1 289.8,290.7 		"/>
		<path class="st2" d="M289.3,216.8c2.8,38.5-11.2,64.5-14.1,63.9c-0.1,0-11.2-16-10.8-16.2C282.9,258.5,288.9,212.2,289.3,216.8z"
			/>
		<path class="st2" d="M294.1,213.9"/>
		<path class="st2" d="M289.3,216.6c-7.3,29.3-22.6,43.5-24.2,42.1c0-0.1-3.5-15.6-3.2-15.6C275.2,245.1,290.2,213.1,289.3,216.6z"
			/>
		<path class="st2" d="M289.4,216.9c7.4,26.5,21.1,40.4,24.7,41.5c0.4,0.1,0.7-0.1,0.8-0.5c0.6-2.6,2.9-15.2,2.7-15.1
			C304.3,245,288.4,213.4,289.4,216.9z"/>
		<path class="st2" d="M289.3,217.2c-1.9,38.6,12.9,64.2,15.7,63.4c0.1,0,10.9-16.3,10.4-16.4C296.6,258.7,289.5,212.5,289.3,217.2z
			"/>
	</g>
</g>
<g id="Layer_1_405_">
	<g id="losange_405_">
		<polygon class="st2" points="239.4,276.7 233.6,257 228.1,276.6 233.7,291.2 		"/>
		<path class="st2" d="M233.1,217.3c2.8,38.5-11.2,64.5-14.1,63.9c-0.1,0-11.2-16-10.8-16.2C226.8,259,232.8,212.7,233.1,217.3z"/>
		<path class="st2" d="M238.1,214.4"/>
		<path class="st2" d="M233.1,217.1c-7.3,29.3-22.6,43.5-24.2,42.1c0-0.1-3.5-15.6-3.2-15.6C219.1,245.6,234.1,213.6,233.1,217.1z"
			/>
		<path class="st2" d="M233.3,217.4c7.4,26.5,21.1,40.4,24.7,41.5c0.4,0.1,0.7-0.1,0.8-0.5c0.6-2.6,2.9-15.2,2.7-15.1
			C248.1,245.5,232.3,213.9,233.3,217.4z"/>
		<path class="st2" d="M233.1,217.6c-1.9,38.6,12.9,64.2,15.7,63.4c0.1,0,10.9-16.3,10.4-16.4C240.6,259.2,233.4,213,233.1,217.6z"
			/>
	</g>
</g>
<g id="Layer_1_404_">
	<g id="losange_404_">
		<polygon class="st2" points="339,157.1 344.8,176.9 350.3,157.2 344.8,142.7 		"/>
		<path class="st2" d="M345.1,216.6c-2.8-38.5,11.4-64.5,14.2-63.9c0.1,0,11.2,16,10.8,16.2C351.6,174.8,345.5,221.2,345.1,216.6z"
			/>
		<path class="st2" d="M340.3,219.4"/>
		<path class="st2" d="M345.1,216.8c7.4-29.2,22.7-43.5,24.4-42.1c0,0.1,3.5,15.6,3.2,15.6C359.3,188.3,344.3,220.2,345.1,216.8z"/>
		<path class="st2" d="M345,216.5c-7.4-26.6-21.1-40.5-24.6-41.5c-0.4-0.1-0.7,0.1-0.8,0.5c-0.6,2.6-3,15.2-2.7,15.1
			C330.3,188.3,346,219.9,345,216.5z"/>
		<path class="st2" d="M345.3,216.3c1.9-38.6-12.8-64.2-15.6-63.4c-0.1,0-10.9,16.3-10.4,16.4C337.9,174.6,345,220.9,345.3,216.3z"
			/>
	</g>
</g>
<g id="Layer_1_403_">
	<g id="losange_403_">
		<polygon class="st2" points="395.2,156.7 400.9,176.6 406.4,156.8 400.9,142.3 		"/>
		<path class="st2" d="M401.3,216.2c-2.8-38.5,11.4-64.5,14.2-63.9c0.1,0,11.2,16,10.8,16.2C407.7,174.4,401.6,220.8,401.3,216.2z"
			/>
		<path class="st2" d="M396.4,219"/>
		<path class="st2" d="M401.3,216.4c7.4-29.2,22.7-43.5,24.4-42.1c0,0.1,3.5,15.6,3.2,15.6C415.4,187.9,400.3,219.9,401.3,216.4z"/>
		<path class="st2" d="M401.1,216.2c-7.4-26.6-21.1-40.5-24.6-41.5c-0.4-0.1-0.7,0.1-0.8,0.5c-0.6,2.6-3,15.2-2.7,15.1
			C386.4,187.9,402.1,219.6,401.1,216.2z"/>
		<path class="st2" d="M401.3,215.8c1.9-38.6-12.8-64.2-15.6-63.4c-0.1,0-10.9,16.3-10.4,16.4C393.9,174.2,401,220.5,401.3,215.8z"
			/>
	</g>
</g>
<g id="Layer_1_402_">
	<g id="losange_402_">
		<polygon class="st2" points="407.5,275.5 401.7,255.8 396.2,275.4 401.8,289.9 		"/>
		<path class="st2" d="M401.3,216.1c2.8,38.5-11.2,64.5-14.1,63.9c-0.1,0-11.2-16-10.8-16.2C394.9,257.8,400.9,211.4,401.3,216.1z"
			/>
		<path class="st2" d="M406.2,213.2"/>
		<path class="st2" d="M401.3,215.8c-7.3,29.3-22.6,43.5-24.2,42.1c0-0.1-3.5-15.6-3.2-15.6C387.2,244.3,402.2,212.4,401.3,215.8z"
			/>
		<path class="st2" d="M401.4,216.2c7.4,26.5,21.1,40.4,24.7,41.5c0.4,0.1,0.7-0.1,0.8-0.5c0.6-2.6,2.9-15.2,2.7-15.1
			C416.2,244.3,400.4,212.7,401.4,216.2z"/>
		<path class="st2" d="M401.3,216.4c-1.9,38.6,12.9,64.2,15.7,63.4c0.1,0,10.9-16.3,10.4-16.4C408.7,258,401.5,211.8,401.3,216.4z"
			/>
	</g>
</g>
<g id="Layer_1_401_">
	<g id="losange_401_">
		<polygon class="st2" points="351.3,276 345.7,256.3 340.1,275.9 345.7,290.5 		"/>
		<path class="st2" d="M345.1,216.6c2.8,38.5-11.2,64.5-14.1,63.9c-0.1,0-11.2-16-10.8-16.2C338.8,258.3,344.9,212,345.1,216.6z"/>
		<path class="st2" d="M350.1,213.7"/>
		<path class="st2" d="M345.3,216.4c-7.3,29.3-22.6,43.5-24.2,42.1c0-0.1-3.5-15.6-3.2-15.6C331.1,244.8,346.1,212.9,345.3,216.4z"
			/>
		<path class="st2" d="M345.4,216.6c7.4,26.5,21.1,40.4,24.7,41.5c0.4,0.1,0.7-0.1,0.8-0.5c0.6-2.6,2.9-15.2,2.7-15.1
			C360.1,244.8,344.3,213.1,345.4,216.6z"/>
		<path class="st2" d="M345.1,216.9c-1.9,38.6,12.9,64.2,15.7,63.4c0.1,0,10.9-16.3,10.4-16.4C352.6,258.5,345.4,212.3,345.1,216.9z
			"/>
	</g>
	<g id="Text_3_" class="st3">
		<text transform="matrix(-0.7452 1.202184e-03 -2.129621e-03 -1 310.7847 475.6056)" class="st4 st5 st6">CLAIRE</text>
		<text transform="matrix(-0.7452 1.202184e-03 -2.129621e-03 -1 310.7847 475.6056)" class="st7 st5 st6">CLAIRE</text>
		<text transform="matrix(-0.7452 1.202184e-03 -2.129621e-03 -1 310.7847 475.6056)" class="st4 st5 st6">CLAIRE</text>
		<text transform="matrix(-0.7452 1.202184e-03 -2.129621e-03 -1 310.7847 475.6056)" class="st7 st5 st6">CLAIRE</text>
		<text transform="matrix(-0.6117 -4.762520e-03 8.410007e-04 -1 290.4277 381.2486)" class="st4 st5 st8">MARIE</text>
		<text transform="matrix(-0.6117 -4.762520e-03 8.410007e-04 -1 290.4277 381.2486)" class="st7 st5 st8">MARIE</text>
		<text transform="matrix(-0.6117 -4.762520e-03 8.410007e-04 -1 290.4277 381.2486)" class="st4 st5 st8">MARIE</text>
		<text transform="matrix(-0.6117 -4.762520e-03 8.410007e-04 -1 290.4277 381.2486)" class="st7 st5 st8">MARIE</text>
		<text transform="matrix(-0.7452 1.202184e-03 -2.129621e-03 -1 303.3327 289.5047)" class="st4 st5 st6">VANEY</text>
		<text transform="matrix(-0.7452 1.202184e-03 -2.129621e-03 -1 303.3327 289.5047)" class="st7 st5 st6">VANEY</text>
		<text transform="matrix(-0.7452 1.202184e-03 -2.129621e-03 -1 303.3327 289.5047)" class="st4 st5 st6">VANEY</text>
		<text transform="matrix(-0.7452 1.202184e-03 -2.129621e-03 -1 303.3327 289.5047)" class="st7 st5 st6">VANEY</text>
	</g>
	<g id="Cadre_3_" class="st3">
		
			<rect x="229.2" y="248" transform="matrix(1 -1.922915e-03 1.922915e-03 1 -0.5531 0.6003)" class="st9" width="165.5" height="79.9"/>
	</g>
</g>
<g id="Layer_1_400_">
	<g id="losange_400_">
		<polygon class="st2" points="3.9,307.9 9.5,327.7 15.1,308 9.6,293.4 		"/>
		<path class="st2" d="M10,367.3c-2.8-38.5,11.4-64.5,14.2-63.9c0.1,0,11.2,16,10.8,16.2C16.4,325.6,10.2,371.9,10,367.3z"/>
		<path class="st2" d="M5.1,370.2"/>
		<path class="st2" d="M10,367.5c7.3-29.2,22.6-43.4,24.4-42.1c0,0.1,3.5,15.6,3.2,15.6C24,339.1,9.1,371,10,367.5z"/>
		<path class="st2" d="M9.9,367.3c-7.4-26.6-21.1-40.5-24.6-41.5c-0.4-0.1-0.7,0.1-0.8,0.5c-0.6,2.6-3,15.2-2.7,15.1
			C-5,339.1,10.8,370.8,9.9,367.3z"/>
		<path class="st2" d="M10,367c1.9-38.6-12.8-64.2-15.6-63.4c-0.1,0-10.9,16.3-10.4,16.4C2.6,325.4,9.8,371.6,10,367z"/>
	</g>
</g>
<g id="Layer_1_399_">
	<g id="losange_399_">
		<polygon class="st2" points="60,307.5 65.6,327.3 71.1,307.5 65.6,293.1 		"/>
		<path class="st2" d="M66,366.9c-2.8-38.5,11.4-64.5,14.2-63.9c0.1,0,11.2,16,10.8,16.2C72.5,325.2,66.3,371.6,66,366.9z"/>
		<path class="st2" d="M61.2,369.8"/>
		<path class="st2" d="M66,367.1c7.4-29.2,22.7-43.5,24.4-42.1c0,0.1,3.5,15.6,3.2,15.6C80.2,338.7,65.2,370.7,66,367.1z"/>
		<path class="st2" d="M65.9,366.9c-7.4-26.6-21.1-40.5-24.6-41.5c-0.4-0.1-0.7,0.1-0.8,0.5c-0.6,2.6-3,15.2-2.7,15.1
			C51.1,338.7,66.9,370.4,65.9,366.9z"/>
		<path class="st2" d="M66.1,366.6c1.9-38.6-12.8-64.2-15.6-63.4c-0.1,0-10.9,16.3-10.4,16.4C58.7,325,65.9,371.2,66.1,366.6z"/>
	</g>
</g>
<g id="Layer_1_398_">
	<g id="losange_398_">
		<polygon class="st2" points="72.3,426.3 66.6,406.5 61.1,426.2 66.6,440.7 		"/>
		<path class="st2" d="M66.1,366.8c2.8,38.5-11.2,64.5-14.1,63.9c-0.1,0-11.2-16-10.8-16.2C59.7,408.6,65.8,362.2,66.1,366.8z"/>
		<path class="st2" d="M70.9,363.9"/>
		<path class="st2" d="M66.1,366.6c-7.4,29.3-22.6,43.5-24.4,42.1c0-0.1-3.5-15.6-3.2-15.6C52,395.1,66.9,363.1,66.1,366.6z"/>
		<path class="st2" d="M66.2,366.9c7.4,26.5,21.1,40.4,24.7,41.5c0.4,0.1,0.7-0.1,0.8-0.5c0.6-2.6,2.9-15.2,2.7-15.1
			C81,395,65.2,363.4,66.2,366.9z"/>
		<path class="st2" d="M66,367.1c-1.9,38.6,12.9,64.2,15.7,63.4c0.1,0,10.9-16.3,10.4-16.4C73.5,408.8,66.2,362.5,66,367.1z"/>
	</g>
</g>
<g id="Layer_1_397_">
	<g id="losange_397_">
		<polygon class="st2" points="16.2,426.8 10.5,407 5,426.7 10.5,441.2 		"/>
		<path class="st2" d="M10,367.3c2.8,38.5-11.2,64.5-14.1,63.9c-0.1,0-11.2-16-10.8-16.2C3.5,409.1,9.6,362.7,10,367.3z"/>
		<path class="st2" d="M14.8,364.4"/>
		<path class="st2" d="M10,367.1c-7.3,29.3-22.6,43.5-24.2,42.1c0-0.1-3.5-15.6-3.2-15.6C-4.1,395.7,10.8,363.6,10,367.1z"/>
		<path class="st2" d="M10.1,367.4c7.4,26.5,21.1,40.4,24.7,41.5c0.4,0.1,0.7-0.1,0.8-0.5c0.6-2.6,2.9-15.2,2.7-15.1
			C25,395.6,9.2,363.9,10.1,367.4z"/>
		<path class="st2" d="M10,367.6c-1.9,38.6,12.9,64.2,15.7,63.4c0.1,0,10.9-16.3,10.4-16.4C17.4,409.3,10.1,363,10,367.6z"/>
	</g>
</g>
<g id="Layer_1_396_">
	<g id="losange_396_">
		<polygon class="st2" points="115.9,307.1 121.5,326.9 127.1,307.2 121.6,292.7 		"/>
		<path class="st2" d="M122,366.6c-2.8-38.5,11.4-64.5,14.2-63.9c0.1,0,11.2,16,10.8,16.2C128.4,324.8,122.3,371.2,122,366.6z"/>
		<path class="st2" d="M117.1,369.5"/>
		<path class="st2" d="M122,366.8c7.4-29.2,22.7-43.5,24.4-42.1c0,0.1,3.5,15.6,3.2,15.6C136,338.3,121,370.3,122,366.8z"/>
		<path class="st2" d="M121.9,366.5c-7.4-26.6-21.1-40.5-24.6-41.5c-0.4-0.1-0.7,0.1-0.8,0.5c-0.6,2.6-3,15.2-2.7,15.1
			C107,338.3,122.8,370,121.9,366.5z"/>
		<path class="st2" d="M122,366.3c1.9-38.6-12.8-64.2-15.6-63.4c-0.1,0-10.9,16.3-10.4,16.4C114.6,324.6,121.7,370.9,122,366.3z"/>
	</g>
</g>
<g id="Layer_1_395_">
	<g id="losange_395_">
		<polygon class="st2" points="172,306.7 177.6,326.5 183.2,306.8 177.6,292.3 		"/>
		<path class="st2" d="M178.1,366.2c-2.8-38.5,11.4-64.5,14.2-63.9c0.1,0,11.2,16,10.8,16.2C184.5,324.4,178.3,370.8,178.1,366.2z"
			/>
		<path class="st2" d="M173.2,369"/>
		<path class="st2" d="M178,366.4c7.4-29.2,22.7-43.5,24.4-42.1c0,0.1,3.5,15.6,3.2,15.6C192.1,337.9,177.2,369.9,178,366.4z"/>
		<path class="st2" d="M177.9,366.1c-7.4-26.6-21.1-40.5-24.6-41.5c-0.4-0.1-0.7,0.1-0.8,0.5c-0.6,2.6-3,15.2-2.7,15.1
			C163.1,337.9,178.9,369.7,177.9,366.1z"/>
		<path class="st2" d="M178.1,365.9c1.9-38.6-12.8-64.2-15.6-63.4c-0.1,0-10.9,16.3-10.4,16.4C170.7,324.2,177.9,370.5,178.1,365.9z
			"/>
	</g>
</g>
<g id="Layer_1_394_">
	<g id="losange_394_">
		<polygon class="st2" points="184.3,425.5 178.6,405.8 173.1,425.4 178.6,440 		"/>
		<path class="st2" d="M178.1,366.1c2.8,38.5-11.2,64.5-14.1,63.9c-0.1,0-11.2-16-10.8-16.2C171.6,407.8,177.7,361.5,178.1,366.1z"
			/>
		<path class="st2" d="M182.9,363.2"/>
		<path class="st2" d="M178.1,365.9c-7.3,29.3-22.6,43.5-24.2,42.1c0-0.1-3.5-15.6-3.2-15.6C164,394.3,178.9,362.4,178.1,365.9z"/>
		<path class="st2" d="M178.2,366.1c7.4,26.5,21.1,40.4,24.7,41.5c0.4,0.1,0.7-0.1,0.8-0.5c0.6-2.6,2.9-15.2,2.7-15.1
			C193,394.3,177.2,362.6,178.2,366.1z"/>
		<path class="st2" d="M178,366.4c-1.9,38.6,12.9,64.2,15.7,63.4c0.1,0,10.9-16.3,10.4-16.4C185.5,408,178.2,361.8,178,366.4z"/>
	</g>
</g>
<g id="Layer_1_393_">
	<g id="losange_393_">
		<polygon class="st2" points="128.2,425.9 122.4,406.2 116.9,425.9 122.4,440.5 		"/>
		<path class="st2" d="M122,366.6c2.8,38.5-11.2,64.5-14.1,63.9c-0.1,0-11.2-16-10.8-16.2C115.5,408.3,121.6,361.9,122,366.6z"/>
		<path class="st2" d="M126.8,363.7"/>
		<path class="st2" d="M122,366.4c-7.3,29.3-22.6,43.5-24.2,42.1c0-0.1-3.5-15.6-3.2-15.6C107.9,394.8,122.8,362.8,122,366.4z"/>
		<path class="st2" d="M122.1,366.6c7.4,26.5,21.1,40.4,24.7,41.5c0.4,0.1,0.7-0.1,0.8-0.5c0.6-2.6,2.9-15.2,2.7-15.1
			C137,394.7,121.2,363.1,122.1,366.6z"/>
		<path class="st2" d="M122,366.9c-1.9,38.6,12.9,64.2,15.7,63.4c0.1,0,10.9-16.3,10.4-16.4C129.4,408.4,122.1,362.3,122,366.9z"/>
	</g>
</g>
<g id="Layer_1_392_">
	<g id="losange_392_">
		<polygon class="st2" points="5.1,456.8 10.8,476.6 16.3,456.9 10.8,442.3 		"/>
		<path class="st2" d="M11.2,516.2c-2.8-38.5,11.4-64.5,14.2-63.9c0.1,0,11.2,16,10.8,16.2C17.7,474.5,11.5,520.8,11.2,516.2z"/>
		<path class="st2" d="M6.4,519.1"/>
		<path class="st2" d="M11.2,516.4c7.4-29.2,22.7-43.5,24.4-42.1c0,0.1,3.5,15.6,3.2,15.6C25.3,488,10.3,519.9,11.2,516.4z"/>
		<path class="st2" d="M11,516.2c-7.4-26.6-21.1-40.5-24.6-41.5c-0.4-0.1-0.7,0.1-0.8,0.5c-0.6,2.6-3,15.2-2.7,15.1
			C-3.7,488,12.1,519.7,11,516.2z"/>
		<path class="st2" d="M11.3,515.9c1.9-38.6-12.8-64.2-15.6-63.4c-0.1,0-10.9,16.3-10.4,16.4C3.9,474.3,11,520.5,11.3,515.9z"/>
	</g>
</g>
<g id="Layer_1_391_">
	<g id="losange_391_">
		<polygon class="st2" points="61.2,456.4 66.9,476.2 72.4,456.4 66.9,442 		"/>
		<path class="st2" d="M67.3,515.8c-2.8-38.5,11.4-64.5,14.2-63.9c0.1,0,11.2,16,10.8,16.2C73.7,474.2,67.6,520.5,67.3,515.8z"/>
		<path class="st2" d="M62.5,518.7"/>
		<path class="st2" d="M67.3,516c7.4-29.2,22.7-43.5,24.4-42.1c0,0.1,3.5,15.6,3.2,15.6C81.4,487.6,66.3,519.6,67.3,516z"/>
		<path class="st2" d="M67.2,515.8c-7.4-26.6-21.1-40.5-24.6-41.5c-0.4-0.1-0.7,0.1-0.8,0.5c-0.6,2.5-3,15.1-2.7,15
			C52.4,487.6,68.1,519.3,67.2,515.8z"/>
		<path class="st2" d="M67.3,515.5c1.9-38.6-12.8-64.2-15.6-63.4c-0.1,0-10.9,16.3-10.4,16.4C59.9,473.9,67.2,520.1,67.3,515.5z"/>
	</g>
</g>
<g id="Layer_1_390_">
	<g id="losange_390_">
		<polygon class="st2" points="73.5,575.2 67.7,555.4 62.2,575.1 67.9,589.6 		"/>
		<path class="st2" d="M67.3,515.7c2.8,38.5-11.2,64.5-14.1,63.9c-0.1,0-11.2-16-10.8-16.2C60.9,557.5,66.9,511.1,67.3,515.7z"/>
		<path class="st2" d="M72.2,512.8"/>
		<path class="st2" d="M67.3,515.5C60,544.8,44.7,559,43,557.6c0-0.1-3.5-15.6-3.2-15.6C53.2,544,68.2,512,67.3,515.5z"/>
		<path class="st2" d="M67.4,515.8c7.4,26.5,21.1,40.4,24.7,41.5c0.4,0.1,0.7-0.1,0.8-0.5c0.6-2.6,2.9-15.2,2.7-15.1
			C82.3,543.9,66.5,512.3,67.4,515.8z"/>
		<path class="st2" d="M67.3,516c-1.9,38.6,12.9,64.2,15.7,63.4c0.1,0,10.9-16.3,10.4-16.4C74.8,557.7,67.5,511.4,67.3,516z"/>
	</g>
</g>
<g id="Layer_1_389_">
	<g id="losange_389_">
		<polygon class="st2" points="17.4,575.7 11.7,555.9 6.2,575.6 11.7,590.1 		"/>
		<path class="st2" d="M11.3,516.2c2.8,38.5-11.2,64.5-14.1,63.9c-0.1,0-11.2-16-10.8-16.2C4.8,558,10.9,511.6,11.3,516.2z"/>
		<path class="st2" d="M16.1,513.3"/>
		<path class="st2" d="M11.3,516c-7.4,29.3-22.6,43.5-24.4,42.1c0-0.1-3.5-15.6-3.2-15.6C-2.9,544.6,12.1,512.5,11.3,516z"/>
		<path class="st2" d="M11.4,516.3c7.4,26.5,21.1,40.4,24.7,41.5c0.4,0.1,0.7-0.1,0.8-0.5c0.6-2.6,2.9-15.2,2.7-15.1
			C26.2,544.5,10.3,512.8,11.4,516.3z"/>
		<path class="st2" d="M11.2,516.5C9.3,555.1,24,580.7,26.9,580c0.1,0,10.9-16.3,10.4-16.4C18.7,558.2,11.4,511.9,11.2,516.5z"/>
	</g>
</g>
<g id="Layer_1_388_">
	<g id="losange_388_">
		<polygon class="st2" points="117.2,456 122.8,475.8 128.3,456.1 122.8,441.6 		"/>
		<path class="st2" d="M123.2,515.5c-2.8-38.5,11.4-64.5,14.2-63.9c0.1,0,11.2,16,10.8,16.2C129.7,473.7,123.5,520.1,123.2,515.5z"
			/>
		<path class="st2" d="M118.3,518.4"/>
		<path class="st2" d="M123.2,515.7c7.4-29.2,22.7-43.5,24.4-42.1c0,0.1,3.5,15.6,3.2,15.6C137.3,487.3,122.3,519.2,123.2,515.7z"/>
		<path class="st2" d="M123,515.4c-7.4-26.6-21.1-40.5-24.6-41.5c-0.4-0.1-0.7,0.1-0.8,0.5c-0.6,2.6-3,15.2-2.7,15.1
			C108.3,487.3,124.1,518.9,123,515.4z"/>
		<path class="st2" d="M123.3,515.2c1.9-38.6-12.8-64.2-15.6-63.4c-0.1,0-10.9,16.3-10.4,16.4C115.9,473.5,123,519.8,123.3,515.2z"
			/>
	</g>
</g>
<g id="Layer_1_387_">
	<g id="losange_387_">
		<polygon class="st2" points="173.2,455.6 178.9,475.4 184.4,455.7 178.9,441.2 		"/>
		<path class="st2" d="M179.3,515.1c-2.8-38.5,11.4-64.5,14.2-63.9c0.1,0,11.2,16,10.8,16.2C185.7,473.3,179.6,519.7,179.3,515.1z"
			/>
		<path class="st2" d="M174.5,518"/>
		<path class="st2" d="M179.3,515.3c7.4-29.2,22.7-43.5,24.4-42.1c0,0.1,3.5,15.6,3.2,15.6C193.4,486.8,178.4,518.8,179.3,515.3z"/>
		<path class="st2" d="M179.1,515.1c-7.4-26.6-21.1-40.5-24.6-41.5c-0.4-0.1-0.7,0.1-0.8,0.5c-0.6,2.6-3,15.2-2.7,15.1
			C164.4,486.8,180.1,518.6,179.1,515.1z"/>
		<path class="st2" d="M179.3,514.8c1.9-38.6-12.8-64.2-15.6-63.4c-0.1,0-10.9,16.3-10.4,16.4C172,473.1,179.1,519.4,179.3,514.8z"
			/>
	</g>
</g>
<g id="Layer_1_386_">
	<g id="losange_386_">
		<polygon class="st2" points="185.5,574.4 179.7,554.7 174.2,574.3 179.8,588.9 		"/>
		<path class="st2" d="M179.3,515c2.8,38.5-11.2,64.5-14.1,63.9c-0.1,0-11.2-16-10.8-16.2C172.9,556.7,178.9,510.4,179.3,515z"/>
		<path class="st2" d="M184.2,512.1"/>
		<path class="st2" d="M179.3,514.8c-7.3,29.3-22.6,43.5-24.2,42.1c0-0.1-3.5-15.6-3.2-15.6C165.2,543.2,180.2,511.3,179.3,514.8z"
			/>
		<path class="st2" d="M179.4,515c7.4,26.5,21.1,40.4,24.7,41.5c0.4,0.1,0.7-0.1,0.8-0.5c0.6-2.6,2.9-15.2,2.7-15.1
			C194.3,543.2,178.4,511.5,179.4,515z"/>
		<path class="st2" d="M179.3,515.3c-1.9,38.6,12.9,64.2,15.7,63.4c0.1,0,10.9-16.3,10.4-16.4C186.8,556.9,179.5,510.7,179.3,515.3z
			"/>
	</g>
</g>
<g id="Layer_1_385_">
	<g id="losange_385_">
		<polygon class="st2" points="129.5,574.9 123.7,555.1 118.2,574.9 123.7,589.4 		"/>
		<path class="st2" d="M123.3,515.5c2.8,38.5-11.2,64.5-14.1,63.9c-0.1,0-11.2-16-10.8-16.2C116.8,557.2,122.9,510.9,123.3,515.5z"
			/>
		<path class="st2" d="M128.1,512.6"/>
		<path class="st2" d="M123.3,515.3c-7.3,29.3-22.6,43.5-24.2,42.1c0-0.1-3.5-15.6-3.2-15.6C109.2,543.7,124.1,511.7,123.3,515.3z"
			/>
		<path class="st2" d="M123.4,515.5c7.4,26.5,21.1,40.4,24.7,41.5c0.4,0.1,0.7-0.1,0.8-0.5c0.6-2.6,2.9-15.2,2.7-15.1
			C138.1,543.6,122.3,512,123.4,515.5z"/>
		<path class="st2" d="M123.2,515.8c-1.9,38.6,12.9,64.2,15.7,63.4c0.1,0,10.9-16.3,10.4-16.4C130.6,557.4,123.4,511.2,123.2,515.8z
			"/>
	</g>
</g>
<g id="Layer_1_384_">
	<g id="losange_384_">
		<polygon class="st2" points="228.1,306.5 233.7,326.3 239.4,306.6 233.7,292.1 		"/>
		<path class="st2" d="M234.2,366c-2.8-38.5,11.4-64.5,14.2-63.9c0.1,0,11.2,16,10.8,16.2C240.6,324.2,234.4,370.6,234.2,366z"/>
		<path class="st2" d="M229.3,368.7"/>
		<path class="st2" d="M234.1,366.2c7.4-29.2,22.7-43.5,24.4-42.1c0,0.1,3.5,15.6,3.2,15.6C248.3,337.6,233.3,369.7,234.1,366.2z"/>
		<path class="st2" d="M234,365.9c-7.4-26.6-21.1-40.5-24.6-41.5c-0.4-0.1-0.7,0.1-0.8,0.5c-0.6,2.6-3,15.2-2.7,15.1
			C219.2,337.7,235,369.4,234,365.9z"/>
		<path class="st2" d="M234.2,365.6c1.9-38.6-12.8-64.2-15.6-63.4c-0.1,0-10.9,16.3-10.4,16.4C226.8,324,234,370.3,234.2,365.6z"/>
	</g>
</g>
<g id="Layer_1_383_">
	<g id="losange_383_">
		<polygon class="st2" points="284.1,306.1 289.8,325.9 295.4,306.2 289.8,291.7 		"/>
		<path class="st2" d="M290.2,365.6c-2.8-38.5,11.4-64.5,14.2-63.9c0.1,0,11.2,16,10.8,16.2C296.6,323.8,290.5,370.2,290.2,365.6z"
			/>
		<path class="st2" d="M285.4,368.4"/>
		<path class="st2" d="M290.2,365.8c7.4-29.2,22.7-43.5,24.4-42.1c0,0.1,3.5,15.6,3.2,15.6C304.4,337.3,289.4,369.3,290.2,365.8z"/>
		<path class="st2" d="M290.1,365.5c-7.4-26.6-21.1-40.5-24.6-41.5c-0.4-0.1-0.7,0.1-0.8,0.5c-0.6,2.6-3,15.2-2.7,15.1
			C275.3,337.3,291,368.9,290.1,365.5z"/>
		<path class="st2" d="M290.2,365.3c1.9-38.6-12.8-64.2-15.6-63.4c-0.1,0-10.9,16.3-10.4,16.4C282.9,323.6,290.1,369.9,290.2,365.3z
			"/>
	</g>
</g>
<g id="Layer_1_382_">
	<g id="losange_382_">
		<polygon class="st2" points="296.4,424.8 290.7,405.1 285.2,424.8 290.8,439.4 		"/>
		<path class="st2" d="M290.2,365.5c2.8,38.5-11.2,64.5-14.1,63.9c-0.1,0-11.2-16-10.8-16.2C283.9,407.2,289.8,360.8,290.2,365.5z"
			/>
		<path class="st2" d="M295.1,362.6"/>
		<path class="st2" d="M290.2,365.3c-7.3,29.3-22.6,43.5-24.2,42.1c0-0.1-3.5-15.6-3.2-15.6C276.1,393.7,291.1,361.7,290.2,365.3z"
			/>
		<path class="st2" d="M290.3,365.5c7.4,26.5,21.1,40.4,24.7,41.5c0.4,0.1,0.7-0.1,0.8-0.5c0.6-2.6,2.9-15.2,2.7-15.1
			C305.2,393.6,289.4,362,290.3,365.5z"/>
		<path class="st2" d="M290.2,365.8c-1.9,38.6,12.9,64.2,15.7,63.4c0.1,0,10.9-16.3,10.4-16.4C297.7,407.3,290.4,361.2,290.2,365.8z
			"/>
	</g>
</g>
<g id="Layer_1_381_">
	<g id="losange_381_">
		<polygon class="st2" points="240.4,425.3 234.7,405.6 229.2,425.3 234.7,439.8 		"/>
		<path class="st2" d="M234.2,365.9c2.8,38.5-11.2,64.5-14.1,63.9c-0.1,0-11.2-16-10.8-16.2C227.8,407.7,233.9,361.3,234.2,365.9z"
			/>
		<path class="st2" d="M239,363.1"/>
		<path class="st2" d="M234.2,365.8c-7.3,29.3-22.6,43.5-24.2,42.1c0-0.1-3.5-15.6-3.2-15.6C220.1,394.2,235,362.2,234.2,365.8z"/>
		<path class="st2" d="M234.3,366c7.4,26.5,21.1,40.4,24.7,41.5c0.4,0.1,0.7-0.1,0.8-0.5c0.6-2.6,2.9-15.2,2.7-15.1
			C249.1,394.1,233.3,362.5,234.3,366z"/>
		<path class="st2" d="M234.1,366.3c-1.9,38.6,12.9,64.2,15.7,63.4c0.1,0,10.9-16.3,10.4-16.4C241.6,407.8,234.3,361.7,234.1,366.3z
			"/>
	</g>
</g>
<g id="Layer_1_380_">
	<g id="losange_380_">
		<polygon class="st2" points="340.1,305.7 345.7,325.6 351.3,305.8 345.7,291.3 		"/>
		<path class="st2" d="M346.2,365.2c-2.8-38.5,11.4-64.5,14.2-63.9c0.1,0,11.2,16,10.8,16.2C352.6,323.4,346.4,369.9,346.2,365.2z"
			/>
		<path class="st2" d="M341.3,368"/>
		<path class="st2" d="M346.1,365.4c7.4-29.2,22.7-43.5,24.4-42.1c0,0.1,3.5,15.6,3.2,15.6C360.3,336.9,345.3,368.9,346.1,365.4z"/>
		<path class="st2" d="M346.1,365.2c-7.4-26.6-21.1-40.5-24.6-41.5c-0.4-0.1-0.7,0.1-0.8,0.5c-0.6,2.6-3,15.2-2.7,15.1
			C331.2,336.9,347,368.6,346.1,365.2z"/>
		<path class="st2" d="M346.2,364.9c1.9-38.6-12.8-64.2-15.6-63.4c-0.1,0-10.9,16.3-10.4,16.4C338.8,323.2,346,369.5,346.2,364.9z"
			/>
	</g>
</g>
<g id="Layer_1_379_">
	<g id="losange_379_">
		<polygon class="st2" points="396.1,305.4 401.8,325.1 407.3,305.5 401.8,291 		"/>
		<path class="st2" d="M402.2,364.9c-2.8-38.5,11.4-64.5,14.2-63.9c0.1,0,11.2,16,10.8,16.2C408.6,323.1,402.5,369.5,402.2,364.9z"
			/>
		<path class="st2" d="M397.4,367.6"/>
		<path class="st2" d="M402.2,365.1c7.4-29.2,22.7-43.5,24.4-42.1c0,0.1,3.5,15.6,3.2,15.6C416.4,336.5,401.4,368.5,402.2,365.1z"/>
		<path class="st2" d="M402.1,364.8c-7.4-26.6-21.1-40.5-24.6-41.5c-0.4-0.1-0.7,0.1-0.8,0.5c-0.6,2.6-3,15.2-2.7,15.1
			C387.3,336.6,403,368.2,402.1,364.8z"/>
		<path class="st2" d="M402.3,364.4c1.9-38.6-12.8-64.2-15.6-63.4c-0.1,0-10.9,16.3-10.4,16.4C394.9,322.9,402.1,369.2,402.3,364.4z
			"/>
	</g>
</g>
<g id="Layer_1_378_">
	<g id="losange_378_">
		<polygon class="st2" points="408.4,424.1 402.8,404.4 397.2,424 402.8,438.5 		"/>
		<path class="st2" d="M402.2,364.6c2.8,38.5-11.2,64.5-14.1,63.9c-0.1,0-11.2-16-10.8-16.2C395.9,406.4,402,360,402.2,364.6z"/>
		<path class="st2" d="M407.1,361.8"/>
		<path class="st2" d="M402.3,364.4c-7.3,29.3-22.6,43.5-24.2,42.1c0-0.1-3.5-15.6-3.2-15.6C388.1,393,403.1,361,402.3,364.4z"/>
		<path class="st2" d="M402.4,364.8c7.4,26.5,21.1,40.4,24.7,41.5c0.4,0.1,0.7-0.1,0.8-0.5c0.6-2.6,2.9-15.2,2.7-15.1
			C417.2,392.9,401.4,361.3,402.4,364.8z"/>
		<path class="st2" d="M402.2,365.1c-1.9,38.6,12.9,64.2,15.7,63.4c0.1,0,10.9-16.3,10.4-16.4C409.7,406.6,402.4,360.4,402.2,365.1z
			"/>
	</g>
</g>
<g id="Layer_1_377_">
	<g id="losange_377_">
		<polygon class="st2" points="352.4,424.6 346.7,404.9 341.2,424.5 346.7,439 		"/>
		<path class="st2" d="M346.2,365.2c2.8,38.5-11.2,64.5-14.1,63.9c-0.1,0-11.2-16-10.8-16.2C339.7,406.9,345.8,360.6,346.2,365.2z"
			/>
		<path class="st2" d="M351,362.3"/>
		<path class="st2" d="M346.2,365c-7.3,29.3-22.6,43.5-24.2,42.1c0-0.1-3.5-15.6-3.2-15.6C332.1,393.5,347,361.5,346.2,365z"/>
		<path class="st2" d="M346.3,365.3c7.4,26.5,21.1,40.4,24.7,41.5c0.4,0.1,0.7-0.1,0.8-0.5c0.6-2.6,2.9-15.2,2.7-15.1
			C361.2,393.4,345.4,361.8,346.3,365.3z"/>
		<path class="st2" d="M346.1,365.5c-1.9,38.6,12.9,64.2,15.7,63.4c0.1,0,10.9-16.3,10.4-16.4C353.6,407.1,346.3,360.9,346.1,365.5z
			"/>
	</g>
</g>
<g id="Layer_1_376_">
	<g id="losange_376_">
		<polygon class="st2" points="229.3,455.4 235,475.2 240.5,455.5 235,441 		"/>
		<path class="st2" d="M235.4,514.9c-2.8-38.5,11.4-64.5,14.2-63.9c0.1,0,11.2,16,10.8,16.2C241.8,473.1,235.7,519.5,235.4,514.9z"
			/>
		<path class="st2" d="M230.6,517.6"/>
		<path class="st2" d="M235.4,515.1c7.4-29.2,22.7-43.5,24.4-42.1c0,0.1,3.5,15.6,3.2,15.6C249.5,486.5,234.6,518.6,235.4,515.1z"/>
		<path class="st2" d="M235.3,514.8c-7.4-26.6-21.1-40.5-24.6-41.5c-0.4-0.1-0.7,0.1-0.8,0.5c-0.6,2.6-3,15.2-2.7,15.1
			C220.5,486.6,236.2,518.3,235.3,514.8z"/>
		<path class="st2" d="M235.4,514.5c1.9-38.6-12.8-64.2-15.6-63.4c-0.1,0-10.9,16.3-10.4,16.4C228.1,472.9,235.3,519.2,235.4,514.5z
			"/>
	</g>
</g>
<g id="Layer_1_375_">
	<g id="losange_375_">
		<polygon class="st2" points="285.4,455 291.1,474.8 296.6,455.1 291.1,440.6 		"/>
		<path class="st2" d="M291.5,514.5c-2.8-38.5,11.4-64.5,14.2-63.9c0.1,0,11.2,16,10.8,16.2C297.9,472.7,291.8,519.1,291.5,514.5z"
			/>
		<path class="st2" d="M286.6,517.3"/>
		<path class="st2" d="M291.5,514.7c7.4-29.2,22.7-43.5,24.4-42.1c0,0.1,3.5,15.6,3.2,15.6C305.5,486.2,290.5,518.2,291.5,514.7z"/>
		<path class="st2" d="M291.4,514.4c-7.4-26.6-21.1-40.5-24.6-41.5c-0.4-0.1-0.7,0.1-0.8,0.5c-0.6,2.6-3,15.2-2.7,15.1
			C276.6,486.2,292.3,517.8,291.4,514.4z"/>
		<path class="st2" d="M291.5,514.2c1.9-38.6-12.8-64.2-15.6-63.4c-0.1,0-10.9,16.3-10.4,16.4C284.1,472.5,291.3,518.8,291.5,514.2z
			"/>
	</g>
</g>
<g id="Layer_1_374_">
	<g id="losange_374_">
		<polygon class="st2" points="297.7,573.7 292,554 286.4,573.7 292.1,588.3 		"/>
		<path class="st2" d="M291.5,514.4c2.8,38.5-11.2,64.5-14.1,63.9c-0.1,0-11.2-16-10.8-16.2C285.2,556.1,291.1,509.7,291.5,514.4z"
			/>
		<path class="st2" d="M296.3,511.5"/>
		<path class="st2" d="M291.5,514.2c-7.3,29.3-22.6,43.5-24.2,42.1c0-0.1-3.5-15.6-3.2-15.6C277.4,542.6,292.4,510.6,291.5,514.2z"
			/>
		<path class="st2" d="M291.6,514.4c7.4,26.5,21.1,40.4,24.7,41.5c0.4,0.1,0.7-0.1,0.8-0.5c0.6-2.6,2.9-15.2,2.7-15.1
			C306.5,542.5,290.7,510.9,291.6,514.4z"/>
		<path class="st2" d="M291.5,514.7c-1.9,38.6,12.9,64.2,15.7,63.4c0.1,0,10.9-16.3,10.4-16.4C298.9,556.2,291.7,510.1,291.5,514.7z
			"/>
	</g>
</g>
<g id="Layer_1_373_">
	<g id="losange_373_">
		<polygon class="st2" points="241.6,574.2 235.8,554.5 230.3,574.2 236,588.7 		"/>
		<path class="st2" d="M235.4,514.8c2.8,38.5-11.2,64.5-14.1,63.9c-0.1,0-11.2-16-10.8-16.2C229,556.6,235,510.2,235.4,514.8z"/>
		<path class="st2" d="M240.3,512"/>
		<path class="st2" d="M235.4,514.7c-7.3,29.3-22.6,43.5-24.2,42.1c0-0.1-3.5-15.6-3.2-15.6C221.3,543.1,236.3,511.1,235.4,514.7z"
			/>
		<path class="st2" d="M235.5,514.9c7.4,26.5,21.1,40.4,24.7,41.5c0.4,0.1,0.7-0.1,0.8-0.5c0.6-2.6,2.9-15.2,2.7-15.1
			C250.4,543,234.6,511.4,235.5,514.9z"/>
		<path class="st2" d="M235.4,515.2c-1.9,38.6,12.9,64.2,15.7,63.4c0.1,0,10.9-16.3,10.4-16.4C242.9,556.7,235.6,510.6,235.4,515.2z
			"/>
	</g>
</g>
<g id="Layer_1_372_">
	<g id="losange_372_">
		<polygon class="st2" points="341.3,454.6 347,474.5 352.5,454.7 347,440.2 		"/>
		<path class="st2" d="M347.4,514.1c-2.8-38.5,11.4-64.5,14.2-63.9c0.1,0,11.2,16,10.8,16.2C353.8,472.3,347.7,518.8,347.4,514.1z"
			/>
		<path class="st2" d="M342.6,516.9"/>
		<path class="st2" d="M347.4,514.3c7.4-29.2,22.7-43.5,24.4-42.1c0,0.1,3.5,15.6,3.2,15.6C361.5,485.8,346.5,517.8,347.4,514.3z"/>
		<path class="st2" d="M347.2,514.1c-7.4-26.6-21.1-40.5-24.6-41.5c-0.4-0.1-0.7,0.1-0.8,0.5c-0.6,2.6-3,15.2-2.7,15.1
			C332.5,485.8,348.2,517.5,347.2,514.1z"/>
		<path class="st2" d="M347.5,513.8c1.9-38.6-12.8-64.2-15.6-63.4c-0.1,0-10.9,16.3-10.4,16.4C340.1,472.1,347.2,518.4,347.5,513.8z
			"/>
	</g>
</g>
<g id="Layer_1_371_">
	<g id="losange_371_">
		<polygon class="st2" points="397.4,454.3 403.1,474 408.6,454.4 403.1,439.9 		"/>
		<path class="st2" d="M403.5,513.8c-2.8-38.5,11.4-64.5,14.2-63.9c0.1,0,11.2,16,10.8,16.2C409.9,472,403.8,518.4,403.5,513.8z"/>
		<path class="st2" d="M398.7,516.5"/>
		<path class="st2" d="M403.5,514c7.4-29.2,22.7-43.5,24.4-42.1c0,0.1,3.5,15.6,3.2,15.6C417.7,485.4,402.5,517.4,403.5,514z"/>
		<path class="st2" d="M403.4,513.7c-7.4-26.6-21.1-40.5-24.6-41.5c-0.4-0.1-0.7,0.1-0.8,0.5c-0.6,2.6-3,15.2-2.7,15.1
			C388.6,485.5,404.3,517.1,403.4,513.7z"/>
		<path class="st2" d="M403.5,513.3c1.9-38.6-12.8-64.2-15.6-63.4c-0.1,0-10.9,16.3-10.4,16.4C396.1,471.8,403.2,518.1,403.5,513.3z
			"/>
	</g>
</g>
<g id="Layer_1_370_">
	<g id="losange_370_">
		<polygon class="st2" points="409.7,573 403.9,553.3 398.4,572.9 404.1,587.4 		"/>
		<path class="st2" d="M403.5,513.6c2.8,38.5-11.2,64.5-14.1,63.9c-0.1,0-11.2-16-10.8-16.2C397.2,555.3,403.1,508.9,403.5,513.6z"
			/>
		<path class="st2" d="M408.4,510.7"/>
		<path class="st2" d="M403.5,513.3c-7.3,29.3-22.6,43.5-24.2,42.1c0-0.1-3.5-15.6-3.2-15.6C389.4,541.9,404.4,509.9,403.5,513.3z"
			/>
		<path class="st2" d="M403.6,513.7c7.4,26.5,21.1,40.4,24.7,41.5c0.4,0.1,0.7-0.1,0.8-0.5c0.6-2.6,2.9-15.2,2.7-15.1
			C418.5,541.8,402.7,510.2,403.6,513.7z"/>
		<path class="st2" d="M403.5,514c-1.9,38.6,12.9,64.2,15.7,63.4c0.1,0,10.9-16.3,10.4-16.4C411,555.5,403.7,509.3,403.5,514z"/>
	</g>
</g>
<g id="Layer_1_369_">
	<g id="losange_369_">
		<polygon class="st2" points="353.6,573.5 348,553.8 342.3,573.4 348,588 		"/>
		<path class="st2" d="M347.4,514.1c2.8,38.5-11.2,64.5-14.1,63.9c-0.1,0-11.2-16-10.8-16.2C341,555.8,347.1,509.5,347.4,514.1z"/>
		<path class="st2" d="M352.3,511.2"/>
		<path class="st2" d="M347.5,513.9c-7.3,29.3-22.6,43.5-24.2,42.1c0-0.1-3.5-15.6-3.2-15.6C333.3,542.4,348.3,510.4,347.5,513.9z"
			/>
		<path class="st2" d="M347.5,514.2c7.4,26.5,21.1,40.4,24.7,41.5c0.4,0.1,0.7-0.1,0.8-0.5c0.6-2.6,2.9-15.2,2.7-15.1
			C362.4,542.3,346.5,510.7,347.5,514.2z"/>
		<path class="st2" d="M347.4,514.4c-1.9,38.6,12.9,64.2,15.7,63.4c0.1,0,10.9-16.3,10.4-16.4C354.9,556,347.6,509.8,347.4,514.4z"
			/>
	</g>
</g>
<g id="Layer_1_368_">
	<g id="losange_368_">
		<polygon class="st2" points="450.3,7.4 456,27.2 461.6,7.5 456.1,-7 		"/>
		<path class="st2" d="M456.4,66.8C453.6,28.4,467.8,2.4,470.6,3c0.1,0,11.2,16,10.8,16.2C462.9,25.1,456.8,71.6,456.4,66.8z"/>
		<path class="st2" d="M451.5,69.7"/>
		<path class="st2" d="M456.4,67c7.4-29.2,22.7-43.5,24.4-42.1c0,0.1,3.5,15.6,3.2,15.6C470.5,38.6,455.5,70.6,456.4,67z"/>
		<path class="st2" d="M456.3,66.8c-7.4-26.6-21.1-40.5-24.6-41.5c-0.4-0.1-0.7,0.1-0.8,0.5c-0.6,2.6-3,15.2-2.7,15.1
			C441.5,38.6,457.2,70.3,456.3,66.8z"/>
		<path class="st2" d="M456.4,66.5c1.9-38.6-12.8-64.2-15.6-63.4c-0.1,0-10.9,16.3-10.4,16.4C449,24.9,456.2,71.1,456.4,66.5z"/>
	</g>
</g>
<g id="Layer_1_367_">
	<g id="losange_367_">
		<polygon class="st2" points="506.4,7.1 512.1,26.8 517.7,7.2 512.1,-7.4 		"/>
		<path class="st2" d="M512.5,66.5c-2.8-38.5,11.4-64.5,14.2-63.9c0.1,0,11.2,16,10.8,16.2C519,24.8,512.8,71.1,512.5,66.5z"/>
		<path class="st2" d="M507.6,69.3"/>
		<path class="st2" d="M512.4,66.7c7.4-29.2,22.7-43.5,24.4-42.1c0,0.1,3.5,15.6,3.2,15.6C526.6,38.2,511.6,70.2,512.4,66.7z"/>
		<path class="st2" d="M512.3,66.4c-7.4-26.6-21.1-40.5-24.6-41.5c-0.4-0.1-0.7,0.1-0.8,0.5c-0.6,2.6-3,15.2-2.7,15.1
			C497.5,38.2,513.4,69.9,512.3,66.4z"/>
		<path class="st2" d="M512.5,66.1C514.4,27.5,499.8,2,497,2.7c-0.1,0-10.9,16.3-10.4,16.4C505.2,24.6,512.3,70.7,512.5,66.1z"/>
	</g>
</g>
<g id="Layer_1_366_">
	<g id="losange_366_">
		<polygon class="st2" points="518.7,125.8 513,106 507.5,125.7 513,140.2 		"/>
		<path class="st2" d="M512.5,66.3c2.8,38.5-11.2,64.5-14.1,63.9c-0.1,0-11.2-16-10.8-16.2C506.1,108.1,512.2,61.7,512.5,66.3z"/>
		<path class="st2" d="M517.3,63.5"/>
		<path class="st2" d="M512.5,66.1c-7.3,29.3-22.6,43.5-24.2,42.1c0-0.1-3.5-15.6-3.2-15.6C498.5,94.7,513.4,62.6,512.5,66.1z"/>
		<path class="st2" d="M512.7,66.4c7.4,26.5,21.1,40.4,24.7,41.5c0.4,0.1,0.7-0.1,0.8-0.5c0.6-2.6,2.9-15.2,2.7-15.1
			C527.4,94.6,511.6,63,512.7,66.4z"/>
		<path class="st2" d="M512.4,66.7c-1.9,38.6,12.9,64.2,15.7,63.4c0.1,0,10.9-16.3,10.4-16.4C519.9,108.3,512.7,62,512.4,66.7z"/>
	</g>
</g>
<g id="Layer_1_365_">
	<g id="losange_365_">
		<polygon class="st2" points="462.6,126.3 456.9,106.6 451.4,126.2 456.9,140.7 		"/>
		<path class="st2" d="M456.4,66.8c2.8,38.5-11.2,64.5-14.1,63.9c-0.1,0-11.2-16-10.8-16.2C450.1,108.6,456.1,62.2,456.4,66.8z"/>
		<path class="st2" d="M461.2,64"/>
		<path class="st2" d="M456.4,66.6c-7.3,29.3-22.6,43.5-24.2,42.1c0-0.1-3.5-15.6-3.2-15.6C442.4,95.2,457.4,63.2,456.4,66.6z"/>
		<path class="st2" d="M456.5,66.9c7.4,26.5,21.1,40.4,24.7,41.5c0.4,0.1,0.7-0.1,0.8-0.5c0.6-2.6,2.9-15.2,2.7-15.1
			C471.4,95.1,455.6,63.5,456.5,66.9z"/>
		<path class="st2" d="M456.4,67.2c-1.9,38.6,12.9,64.2,15.7,63.4c0.1,0,10.9-16.3,10.4-16.4C463.8,108.8,456.5,62.5,456.4,67.2z"/>
	</g>
</g>
<g id="Layer_1_364_">
	<g id="losange_364_">
		<polygon class="st2" points="562.3,6.7 568.1,26.4 573.6,6.8 568.1,-7.8 		"/>
		<path class="st2" d="M568.4,66.1c-2.8-38.5,11.4-64.5,14.2-63.9c0.1,0,11.2,16,10.8,16.2C574.9,24.4,568.8,70.7,568.4,66.1z"/>
		<path class="st2" d="M563.5,69"/>
		<path class="st2" d="M568.4,66.3c7.4-29.2,22.7-43.5,24.4-42.1c0,0.1,3.5,15.6,3.2,15.6C582.5,37.9,567.5,69.8,568.4,66.3z"/>
		<path class="st2" d="M568.3,66c-7.4-26.6-21.1-40.5-24.6-41.5c-0.4-0.1-0.7,0.1-0.8,0.5c-0.6,2.6-3,15.2-2.7,15.1
			C553.5,37.9,569.2,69.5,568.3,66z"/>
		<path class="st2" d="M568.4,65.8c1.9-38.6-12.8-64.2-15.6-63.4c-0.1,0-10.9,16.3-10.4,16.4C561,24.2,568.2,70.4,568.4,65.8z"/>
	</g>
</g>
<g id="Layer_1_363_">
	<g id="losange_363_">
		<polygon class="st2" points="618.4,6.3 624.1,26.1 629.7,6.4 624.1,-8.2 		"/>
		<path class="st2" d="M624.5,65.7c-2.8-38.5,11.4-64.5,14.2-63.9c0.1,0,11.2,16,10.8,16.2C631,24,624.8,70.3,624.5,65.7z"/>
		<path class="st2" d="M619.6,68.6"/>
		<path class="st2" d="M624.5,65.9c7.4-29.2,22.7-43.5,24.4-42.1c0,0.1,3.5,15.6,3.2,15.6C638.6,37.5,623.6,69.5,624.5,65.9z"/>
		<path class="st2" d="M624.4,65.7c-7.4-26.6-21.1-40.5-24.6-41.5c-0.4-0.1-0.7,0.1-0.8,0.5c-0.6,2.6-3,15.2-2.7,15.1
			C609.5,37.5,625.3,69.2,624.4,65.7z"/>
		<path class="st2" d="M624.5,65.4c1.9-38.6-12.8-64.2-15.6-63.4c-0.1,0-10.9,16.3-10.4,16.4C617.1,23.8,624.3,70,624.5,65.4z"/>
	</g>
</g>
<g id="Layer_1_362_">
	<g id="losange_362_">
		<polygon class="st2" points="630.7,125.1 625,105.3 619.5,125 625,139.5 		"/>
		<path class="st2" d="M624.5,65.6c2.8,38.5-11.2,64.5-14.1,63.9c-0.1,0-11.2-16-10.8-16.2C618.1,107.4,624.2,61,624.5,65.6z"/>
		<path class="st2" d="M629.3,62.8"/>
		<path class="st2" d="M624.5,65.4c-7.3,29.3-22.6,43.5-24.2,42.1c0-0.1-3.5-15.6-3.2-15.6C610.5,93.9,625.3,61.9,624.5,65.4z"/>
		<path class="st2" d="M624.6,65.7c7.4,26.5,21.1,40.4,24.7,41.5c0.4,0.1,0.7-0.1,0.8-0.5c0.6-2.6,2.9-15.2,2.7-15.1
			C639.5,93.9,623.7,62.2,624.6,65.7z"/>
		<path class="st2" d="M624.5,65.9c-1.9,38.6,12.9,64.2,15.7,63.4c0.1,0,10.9-16.3,10.4-16.4C631.9,107.6,624.6,61.3,624.5,65.9z"/>
	</g>
</g>
<g id="Layer_1_361_">
	<g id="losange_361_">
		<polygon class="st2" points="574.6,125.6 568.9,105.8 563.4,125.5 569,140 		"/>
		<path class="st2" d="M568.4,66.1c2.8,38.5-11.2,64.5-14.1,63.9c-0.1,0-11.2-16-10.8-16.2C562.1,107.9,568.1,61.5,568.4,66.1z"/>
		<path class="st2" d="M573.2,63.3"/>
		<path class="st2" d="M568.4,65.9c-7.3,29.3-22.6,43.5-24.2,42.1c0-0.1-3.5-15.6-3.2-15.6C554.4,94.4,569.4,62.4,568.4,65.9z"/>
		<path class="st2" d="M568.5,66.1c7.4,26.5,21.1,40.4,24.7,41.5c0.4,0.1,0.7-0.1,0.8-0.5c0.6-2.6,2.9-15.2,2.7-15.1
			C583.4,94.4,567.6,62.6,568.5,66.1z"/>
		<path class="st2" d="M568.4,66.4c-1.9,38.6,12.9,64.2,15.7,63.4c0.1,0,10.9-16.3,10.4-16.4C575.8,108.1,568.6,61.8,568.4,66.4z"/>
	</g>
</g>
<g id="Layer_1_360_">
	<g id="losange_360_">
		<polygon class="st2" points="451.6,156.3 457.2,176.1 462.9,156.4 457.2,141.9 		"/>
		<path class="st2" d="M457.7,215.7c-2.8-38.5,11.4-64.5,14.2-63.9c0.1,0,11.2,16,10.8,16.2C464.2,174,457.9,220.5,457.7,215.7z"/>
		<path class="st2" d="M452.8,218.6"/>
		<path class="st2" d="M457.6,216c7.4-29.2,22.7-43.5,24.4-42.1c0,0.1,3.5,15.6,3.2,15.6C471.8,187.5,456.8,219.5,457.6,216z"/>
		<path class="st2" d="M457.5,215.7c-7.4-26.6-21.1-40.5-24.6-41.5c-0.4-0.1-0.7,0.1-0.8,0.5c-0.6,2.6-3,15.2-2.7,15.1
			C442.7,187.5,458.5,219.2,457.5,215.7z"/>
		<path class="st2" d="M457.7,215.4c1.9-38.6-12.8-64.2-15.6-63.4c-0.1,0-10.9,16.3-10.4,16.4C450.3,173.8,457.5,220,457.7,215.4z"
			/>
	</g>
</g>
<g id="Layer_1_359_">
	<g id="losange_359_">
		<polygon class="st2" points="507.6,156 513.4,175.7 518.9,156.1 513.4,141.6 		"/>
		<path class="st2" d="M513.7,215.4c-2.8-38.5,11.4-64.5,14.2-63.9c0.1,0,11.2,16,10.8,16.2C520.2,173.7,514.1,220,513.7,215.4z"/>
		<path class="st2" d="M508.9,218.2"/>
		<path class="st2" d="M513.7,215.6c7.4-29.2,22.7-43.5,24.4-42.1c0,0.1,3.5,15.6,3.2,15.6C527.9,187.1,512.9,219.1,513.7,215.6z"/>
		<path class="st2" d="M513.6,215.3c-7.4-26.6-21.1-40.5-24.6-41.5c-0.4-0.1-0.7,0.1-0.8,0.5c-0.6,2.6-3,15.2-2.7,15.1
			C498.8,187.1,514.5,218.8,513.6,215.3z"/>
		<path class="st2" d="M513.7,215c1.9-38.6-12.8-64.2-15.6-63.4c-0.1,0-10.9,16.3-10.4,16.4C506.4,173.5,513.6,219.6,513.7,215z"/>
	</g>
</g>
<g id="Layer_1_358_">
	<g id="losange_358_">
		<polygon class="st2" points="519.9,274.7 514.2,254.9 508.7,274.6 514.3,289.1 		"/>
		<path class="st2" d="M513.7,215.2c2.8,38.5-11.2,64.5-14.1,63.9c-0.1,0-11.2-16-10.8-16.2C507.4,257,513.4,210.6,513.7,215.2z"/>
		<path class="st2" d="M518.6,212.4"/>
		<path class="st2" d="M513.7,215c-7.3,29.3-22.6,43.5-24.2,42.1c0-0.1-3.5-15.6-3.2-15.6C499.7,243.6,514.6,211.6,513.7,215z"/>
		<path class="st2" d="M513.8,215.3c7.4,26.5,21.1,40.4,24.7,41.5c0.4,0.1,0.7-0.1,0.8-0.5c0.6-2.6,2.9-15.2,2.7-15.1
			C528.7,243.5,512.9,211.9,513.8,215.3z"/>
		<path class="st2" d="M513.7,215.6c-1.9,38.6,12.9,64.2,15.7,63.4c0.1,0,10.9-16.3,10.4-16.4C521.2,257.2,513.9,210.9,513.7,215.6z
			"/>
	</g>
</g>
<g id="Layer_1_357_">
	<g id="losange_357_">
		<polygon class="st2" points="463.9,275.2 458.2,255.5 452.7,275.1 458.2,289.6 		"/>
		<path class="st2" d="M457.7,215.7c2.8,38.5-11.2,64.5-14.1,63.9c-0.1,0-11.2-16-10.8-16.2C451.3,257.5,457.4,211.1,457.7,215.7z"
			/>
		<path class="st2" d="M462.5,212.9"/>
		<path class="st2" d="M457.7,215.5c-7.3,29.3-22.6,43.5-24.2,42.1c0-0.1-3.5-15.6-3.2-15.6C443.7,244.1,458.5,212.1,457.7,215.5z"
			/>
		<path class="st2" d="M457.8,215.8c7.4,26.5,21.1,40.4,24.7,41.5c0.4,0.1,0.7-0.1,0.8-0.5c0.6-2.6,2.9-15.2,2.7-15.1
			C472.6,244,456.8,212.4,457.8,215.8z"/>
		<path class="st2" d="M457.6,216.1c-1.9,38.6,12.9,64.2,15.7,63.4c0.1,0,10.9-16.3,10.4-16.4C465.1,257.7,457.8,211.4,457.6,216.1z
			"/>
	</g>
</g>
<g id="Layer_1_356_">
	<g id="losange_356_">
		<polygon class="st2" points="563.6,155.6 569.2,175.3 574.9,155.7 569.2,141.1 		"/>
		<path class="st2" d="M569.7,215c-2.8-38.5,11.4-64.5,14.2-63.9c0.1,0,11.2,16,10.8,16.2C576.1,173.3,569.9,219.6,569.7,215z"/>
		<path class="st2" d="M564.8,217.9"/>
		<path class="st2" d="M569.6,215.2c7.4-29.2,22.7-43.5,24.4-42.1c0,0.1,3.5,15.6,3.2,15.6C583.8,186.8,568.8,218.7,569.6,215.2z"/>
		<path class="st2" d="M569.5,214.9c-7.4-26.6-21.1-40.5-24.6-41.5c-0.4-0.1-0.7,0.1-0.8,0.5c-0.6,2.6-3,15.2-2.7,15.1
			C554.7,186.8,570.5,218.4,569.5,214.9z"/>
		<path class="st2" d="M569.7,214.7c1.9-38.6-12.8-64.2-15.6-63.4c-0.1,0-10.9,16.3-10.4,16.4C562.3,173.1,569.5,219.3,569.7,214.7z
			"/>
	</g>
</g>
<g id="Layer_1_355_">
	<g id="losange_355_">
		<polygon class="st2" points="619.6,155.2 625.3,175 630.9,155.3 625.3,140.7 		"/>
		<path class="st2" d="M625.7,214.6c-2.8-38.5,11.4-64.5,14.2-63.9c0.1,0,11.2,16,10.8,16.2C632.1,172.9,626,219.2,625.7,214.6z"/>
		<path class="st2" d="M620.9,217.5"/>
		<path class="st2" d="M625.7,214.8c7.4-29.2,22.7-43.5,24.4-42.1c0,0.1,3.5,15.6,3.2,15.6C639.9,186.4,624.9,218.4,625.7,214.8z"/>
		<path class="st2" d="M625.6,214.6c-7.4-26.6-21.1-40.5-24.6-41.5c-0.4-0.1-0.7,0.1-0.8,0.5c-0.6,2.6-3,15.2-2.7,15.1
			C610.8,186.4,626.5,218.1,625.6,214.6z"/>
		<path class="st2" d="M625.8,214.3c1.9-38.6-12.8-64.2-15.6-63.4c-0.1,0-10.9,16.3-10.4,16.4C618.4,172.7,625.6,218.9,625.8,214.3z
			"/>
	</g>
</g>
<g id="Layer_1_354_">
	<g id="losange_354_">
		<polygon class="st2" points="631.9,274 626.3,254.2 620.7,273.9 626.3,288.4 		"/>
		<path class="st2" d="M625.7,214.5c2.8,38.5-11.2,64.5-14.1,63.9c-0.1,0-11.2-16-10.8-16.2C619.4,256.3,625.5,209.9,625.7,214.5z"
			/>
		<path class="st2" d="M630.6,211.7"/>
		<path class="st2" d="M625.8,214.3c-7.3,29.3-22.6,43.5-24.2,42.1c0-0.1-3.5-15.6-3.2-15.6C611.6,242.8,626.6,210.8,625.8,214.3z"
			/>
		<path class="st2" d="M625.9,214.6c7.4,26.5,21.1,40.4,24.7,41.5c0.4,0.1,0.7-0.1,0.8-0.5c0.6-2.6,2.9-15.2,2.7-15.1
			C640.7,242.8,624.9,211.1,625.9,214.6z"/>
		<path class="st2" d="M625.7,214.8c-1.9,38.6,12.9,64.2,15.7,63.4c0.1,0,10.9-16.3,10.4-16.4C633.2,256.5,625.9,210.2,625.7,214.8z
			"/>
	</g>
</g>
<g id="Layer_1_353_">
	<g id="losange_353_">
		<polygon class="st2" points="575.9,274.5 570.2,254.7 564.7,274.4 570.2,288.9 		"/>
		<path class="st2" d="M569.7,215c2.8,38.5-11.2,64.5-14.1,63.9c-0.1,0-11.2-16-10.8-16.2C563.3,256.8,569.4,210.4,569.7,215z"/>
		<path class="st2" d="M574.5,212.2"/>
		<path class="st2" d="M569.7,214.8c-7.3,29.3-22.6,43.5-24.2,42.1c0-0.1-3.5-15.6-3.2-15.6C555.6,243.3,570.5,211.3,569.7,214.8z"
			/>
		<path class="st2" d="M569.8,215c7.4,26.5,21.1,40.4,24.7,41.5c0.4,0.1,0.7-0.1,0.8-0.5c0.6-2.6,2.9-15.2,2.7-15.1
			C584.7,243.3,568.8,211.6,569.8,215z"/>
		<path class="st2" d="M569.6,215.3c-1.9,38.6,12.9,64.2,15.7,63.4c0.1,0,10.9-16.3,10.4-16.4C577.1,257,569.8,210.7,569.6,215.3z"
			/>
	</g>
</g>
<g id="Layer_1_352_">
	<g id="losange_352_">
		<polygon class="st2" points="674.5,6.1 680.2,25.8 685.8,6.2 680.2,-8.4 		"/>
		<path class="st2" d="M680.6,65.5C677.8,27,692,1,694.8,1.7c0.1,0,11.2,16,10.8,16.2C687.1,23.8,680.9,70.1,680.6,65.5z"/>
		<path class="st2" d="M675.7,68.3"/>
		<path class="st2" d="M680.6,65.7c7.4-29.2,22.7-43.5,24.4-42.1c0,0.1,3.5,15.6,3.2,15.6C694.7,37.3,679.7,69.2,680.6,65.7z"/>
		<path class="st2" d="M680.5,65.4c-7.4-26.6-21.1-40.5-24.6-41.5c-0.4-0.1-0.7,0.1-0.8,0.5c-0.6,2.6-3,15.2-2.7,15.1
			C665.6,37.3,681.5,68.9,680.5,65.4z"/>
		<path class="st2" d="M680.6,65.1c1.9-38.6-12.8-64.2-15.6-63.4c-0.1,0-10.9,16.3-10.4,16.4C673.3,23.6,680.4,69.8,680.6,65.1z"/>
	</g>
</g>
<g id="Layer_1_351_">
	<g id="losange_351_">
		<polygon class="st2" points="730.5,5.6 736.3,25.4 741.8,5.7 736.3,-8.8 		"/>
		<path class="st2" d="M736.6,65.1C733.8,26.6,748,0.6,750.8,1.2c0.1,0,11.2,16,10.8,16.2C743.2,23.4,737,69.7,736.6,65.1z"/>
		<path class="st2" d="M731.8,68"/>
		<path class="st2" d="M736.6,65.3c7.4-29.2,22.7-43.5,24.4-42.1c0,0.1,3.5,15.6,3.2,15.6C750.8,36.9,735.8,68.8,736.6,65.3z"/>
		<path class="st2" d="M736.5,65c-7.4-26.6-21.1-40.5-24.6-41.5c-0.4-0.1-0.7,0.1-0.8,0.5c-0.6,2.6-3,15.2-2.7,15.1
			C721.8,36.9,737.6,68.5,736.5,65z"/>
		<path class="st2" d="M736.7,64.8c1.9-38.6-12.8-64.2-15.6-63.4c-0.1,0-10.9,16.3-10.4,16.4C729.4,23.1,736.5,69.4,736.7,64.8z"/>
	</g>
</g>
<g id="Layer_1_350_">
	<g id="losange_350_">
		<polygon class="st2" points="742.8,124.4 737.2,104.6 731.7,124.4 737.2,138.9 		"/>
		<path class="st2" d="M736.6,65c2.8,38.5-11.2,64.5-14.1,63.9c-0.1,0-11.2-16-10.8-16.2C730.3,106.8,736.4,60.4,736.6,65z"/>
		<path class="st2" d="M741.6,62.1"/>
		<path class="st2" d="M736.7,64.8c-7.3,29.3-22.6,43.5-24.2,42.1c0-0.1-3.5-15.6-3.2-15.6C722.6,93.2,737.6,61.2,736.7,64.8z"/>
		<path class="st2" d="M736.9,65c7.4,26.5,21.1,40.4,24.7,41.5c0.4,0.1,0.7-0.1,0.8-0.5c0.6-2.6,2.9-15.2,2.7-15.1
			C751.6,93.1,735.8,61.5,736.9,65z"/>
		<path class="st2" d="M736.6,65.3c-1.9,38.6,12.9,64.2,15.7,63.4c0.1,0,10.9-16.3,10.4-16.4C744.1,106.9,736.9,60.7,736.6,65.3z"/>
	</g>
</g>
<g id="Layer_1_349_">
	<g id="losange_349_">
		<polygon class="st2" points="686.8,124.9 681.1,105.1 675.6,124.9 681.1,139.4 		"/>
		<path class="st2" d="M680.6,65.5c2.8,38.5-11.2,64.5-14.1,63.9c-0.1,0-11.2-16-10.8-16.2C674.2,107.3,680.3,60.8,680.6,65.5z"/>
		<path class="st2" d="M685.4,62.6"/>
		<path class="st2" d="M680.6,65.3c-7.3,29.3-22.6,43.5-24.2,42.1c0-0.1-3.5-15.6-3.2-15.6C666.6,93.8,681.5,61.7,680.6,65.3z"/>
		<path class="st2" d="M680.8,65.5c7.4,26.5,21.1,40.4,24.7,41.5c0.4,0.1,0.7-0.1,0.8-0.5c0.6-2.6,2.9-15.2,2.7-15.1
			C695.6,93.7,679.8,62,680.8,65.5z"/>
		<path class="st2" d="M680.6,65.8c-1.9,38.6,12.9,64.2,15.7,63.4c0.1,0,10.9-16.3,10.4-16.4C688,107.4,680.8,61.2,680.6,65.8z"/>
	</g>
</g>
<g id="Layer_1_348_">
	<g id="losange_348_">
		<polygon class="st2" points="786.5,5.3 792.2,25.1 797.8,5.3 792.3,-9.1 		"/>
		<path class="st2" d="M792.6,64.7C789.8,26.2,804,0.2,806.8,0.8c0.1,0,11.2,16,10.8,16.2C799.1,23,793,69.4,792.6,64.7z"/>
		<path class="st2" d="M787.7,67.6"/>
		<path class="st2" d="M792.6,64.9c7.4-29.2,22.7-43.5,24.4-42.1c0,0.1,3.5,15.6,3.2,15.6C806.7,36.4,791.7,68.5,792.6,64.9z"/>
		<path class="st2" d="M792.5,64.7c-7.4-26.6-21.1-40.5-24.6-41.5c-0.4-0.1-0.7,0.1-0.8,0.5c-0.6,2.6-3,15.2-2.7,15.1
			C777.6,36.4,793.4,68.2,792.5,64.7z"/>
		<path class="st2" d="M792.6,64.4c1.9-38.6-12.8-64.2-15.6-63.4c-0.1,0-10.9,16.3-10.4,16.4C785.2,22.8,792.4,69,792.6,64.4z"/>
	</g>
</g>
<g id="Layer_1_347_">
	<g id="losange_347_">
		<polygon class="st2" points="842.6,4.9 848.3,24.7 853.8,5 848.3,-9.5 		"/>
		<path class="st2" d="M848.6,64.4C845.8,25.9,860-0.1,862.8,0.5c0.1,0,11.2,16,10.8,16.2C855.2,22.6,849,69,848.6,64.4z"/>
		<path class="st2" d="M843.8,67.2"/>
		<path class="st2" d="M848.6,64.6c7.4-29.2,22.7-43.5,24.4-42.1c0,0.1,3.5,15.6,3.2,15.6C862.8,36.1,847.8,68.1,848.6,64.6z"/>
		<path class="st2" d="M848.5,64.3c-7.4-26.6-21.1-40.5-24.6-41.5c-0.4-0.1-0.7,0.1-0.8,0.5c-0.6,2.6-3,15.2-2.7,15.1
			C833.7,36.1,849.6,67.8,848.5,64.3z"/>
		<path class="st2" d="M848.7,64c1.9-38.6-12.8-64.2-15.6-63.4c-0.1,0-10.9,16.3-10.4,16.4C841.4,22.4,848.5,68.7,848.7,64z"/>
	</g>
</g>
<g id="Layer_1_346_">
	<g id="losange_346_">
		<polygon class="st2" points="854.9,123.6 849.2,103.9 843.7,123.6 849.2,138.1 		"/>
		<path class="st2" d="M848.7,64.2c2.8,38.5-11.2,64.5-14.1,63.9c-0.1,0-11.2-16-10.8-16.2C842.3,105.9,848.4,59.6,848.7,64.2z"/>
		<path class="st2" d="M853.5,61.4"/>
		<path class="st2" d="M848.7,64c-7.3,29.3-22.6,43.5-24.2,42.1c0-0.1-3.5-15.6-3.2-15.6C834.7,92.5,849.6,60.5,848.7,64z"/>
		<path class="st2" d="M848.9,64.3c7.4,26.5,21.1,40.4,24.7,41.5c0.4,0.1,0.7-0.1,0.8-0.5c0.6-2.6,2.9-15.2,2.7-15.1
			C863.6,92.4,847.8,60.8,848.9,64.3z"/>
		<path class="st2" d="M848.6,64.6c-1.9,38.6,12.9,64.2,15.7,63.4c0.1,0,10.9-16.3,10.4-16.4C856.1,106.1,848.9,59.9,848.6,64.6z"/>
	</g>
</g>
<g id="Layer_1_345_">
	<g id="losange_345_">
		<polygon class="st2" points="798.8,124.2 793.1,104.4 787.6,124.1 793.1,138.6 		"/>
		<path class="st2" d="M792.6,64.7c2.8,38.5-11.2,64.5-14.1,63.9c-0.1,0-11.2-16-10.8-16.2C786.2,106.4,792.3,60.1,792.6,64.7z"/>
		<path class="st2" d="M797.4,61.8"/>
		<path class="st2" d="M792.6,64.5c-7.3,29.3-22.6,43.5-24.2,42.1c0-0.1-3.5-15.6-3.2-15.6C778.6,93,793.4,61,792.6,64.5z"/>
		<path class="st2" d="M792.7,64.8c7.4,26.5,21.1,40.4,24.7,41.5c0.4,0.1,0.7-0.1,0.8-0.5c0.6-2.6,2.9-15.2,2.7-15.1
			C807.6,92.9,791.8,61.3,792.7,64.8z"/>
		<path class="st2" d="M792.6,65.1c-1.9,38.6,12.9,64.2,15.7,63.4c0.1,0,10.9-16.3,10.4-16.4C800,106.7,792.7,60.4,792.6,65.1z"/>
	</g>
</g>
<g id="Layer_1_344_">
	<g id="losange_344_">
		<polygon class="st2" points="675.7,155 681.5,174.7 687,155.1 681.5,140.5 		"/>
		<path class="st2" d="M681.8,214.4c-2.8-38.5,11.4-64.5,14.2-63.9c0.1,0,11.2,16,10.8,16.2C688.3,172.7,682.2,219,681.8,214.4z"/>
		<path class="st2" d="M677,217.2"/>
		<path class="st2" d="M681.8,214.6c7.4-29.2,22.7-43.5,24.4-42.1c0,0.1,3.5,15.6,3.2,15.6C696,186.2,681,218.1,681.8,214.6z"/>
		<path class="st2" d="M681.7,214.3c-7.4-26.6-21.1-40.5-24.6-41.5c-0.4-0.1-0.7,0.1-0.8,0.5c-0.6,2.6-3,15.2-2.7,15.1
			C666.9,186.2,682.6,217.8,681.7,214.3z"/>
		<path class="st2" d="M681.9,214c1.9-38.6-12.8-64.2-15.6-63.4c-0.1,0-10.9,16.3-10.4,16.4C674.5,172.5,681.7,218.7,681.9,214z"/>
	</g>
</g>
<g id="Layer_1_343_">
	<g id="losange_343_">
		<polygon class="st2" points="731.8,154.5 737.6,174.3 743.1,154.7 737.6,140.1 		"/>
		<path class="st2" d="M737.9,214c-2.8-38.5,11.4-64.5,14.2-63.9c0.1,0,11.2,16,10.8,16.2C744.4,172.3,738.3,218.6,737.9,214z"/>
		<path class="st2" d="M733.1,216.9"/>
		<path class="st2" d="M737.9,214.2c7.4-29.2,22.7-43.5,24.4-42.1c0,0.1,3.5,15.6,3.2,15.6C752.1,185.8,737,217.7,737.9,214.2z"/>
		<path class="st2" d="M737.8,213.9c-7.4-26.6-21.1-40.5-24.6-41.5c-0.4-0.1-0.7,0.1-0.8,0.5c-0.6,2.6-3,15.2-2.7,15.1
			C723,185.8,738.7,217.4,737.8,213.9z"/>
		<path class="st2" d="M737.9,213.7c1.9-38.6-12.8-64.2-15.6-63.4c-0.1,0-10.9,16.3-10.4,16.4C730.5,172,737.7,218.3,737.9,213.7z"
			/>
	</g>
</g>
<g id="Layer_1_342_">
	<g id="losange_342_">
		<polygon class="st2" points="744.1,273.3 738.4,253.5 732.9,273.3 738.5,287.8 		"/>
		<path class="st2" d="M737.9,213.9c2.8,38.5-11.2,64.5-14.1,63.9c-0.1,0-11.2-16-10.8-16.2C731.6,255.7,737.6,209.3,737.9,213.9z"
			/>
		<path class="st2" d="M742.8,211"/>
		<path class="st2" d="M737.9,213.7c-7.3,29.3-22.6,43.5-24.2,42.1c0-0.1-3.5-15.6-3.2-15.6C723.9,242.1,738.9,210.1,737.9,213.7z"
			/>
		<path class="st2" d="M738,213.9c7.4,26.5,21.1,40.4,24.7,41.5c0.4,0.1,0.7-0.1,0.8-0.5c0.6-2.6,2.9-15.2,2.7-15.1
			C752.9,242.1,737.1,210.4,738,213.9z"/>
		<path class="st2" d="M737.9,214.2c-1.9,38.6,12.9,64.2,15.7,63.4c0.1,0,10.9-16.3,10.4-16.4C745.4,255.8,738.2,209.6,737.9,214.2z
			"/>
	</g>
</g>
<g id="Layer_1_341_">
	<g id="losange_341_">
		<polygon class="st2" points="688,273.8 682.4,254 676.9,273.8 682.4,288.3 		"/>
		<path class="st2" d="M681.8,214.4c2.8,38.5-11.2,64.5-14.1,63.9c-0.1,0-11.2-16-10.8-16.2C675.5,256.2,681.6,209.7,681.8,214.4z"
			/>
		<path class="st2" d="M686.7,211.6"/>
		<path class="st2" d="M681.9,214.2c-7.3,29.3-22.6,43.5-24.2,42.1c0-0.1-3.5-15.6-3.2-15.6C667.8,242.7,682.7,210.6,681.9,214.2z"
			/>
		<path class="st2" d="M682,214.4c7.4,26.5,21.1,40.4,24.7,41.5c0.4,0.1,0.7-0.1,0.8-0.5c0.6-2.6,2.9-15.2,2.7-15.1
			C696.8,242.6,681,210.9,682,214.4z"/>
		<path class="st2" d="M681.8,214.7c-1.9,38.6,12.9,64.2,15.7,63.4c0.1,0,10.9-16.3,10.4-16.4C689.3,256.3,682,210.1,681.8,214.7z"
			/>
	</g>
</g>
<g id="Layer_1_340_">
	<g id="losange_340_">
		<polygon class="st2" points="787.8,154.2 793.4,174 799,154.2 793.4,139.8 		"/>
		<path class="st2" d="M793.8,213.6c-2.8-38.5,11.4-64.5,14.2-63.9c0.1,0,11.2,16,10.8,16.2C800.4,171.9,794.1,218.3,793.8,213.6z"
			/>
		<path class="st2" d="M789,216.5"/>
		<path class="st2" d="M793.8,213.8c7.4-29.2,22.7-43.5,24.4-42.1c0,0.1,3.5,15.6,3.2,15.6C808,185.4,793,217.4,793.8,213.8z"/>
		<path class="st2" d="M793.7,213.6c-7.4-26.6-21.1-40.5-24.6-41.5c-0.4-0.1-0.7,0.1-0.8,0.5c-0.6,2.6-3,15.2-2.7,15.1
			C778.9,185.4,794.7,217.1,793.7,213.6z"/>
		<path class="st2" d="M793.9,213.3c1.9-38.6-12.8-64.2-15.6-63.4c-0.1,0-10.9,16.3-10.4,16.4C786.5,171.7,793.7,217.9,793.9,213.3z
			"/>
	</g>
</g>
<g id="Layer_1_339_">
	<g id="losange_339_">
		<polygon class="st2" points="843.8,153.8 849.6,173.6 855.1,153.9 849.6,139.4 		"/>
		<path class="st2" d="M849.9,213.3c-2.8-38.5,11.4-64.5,14.2-63.9c0.1,0,11.2,16,10.8,16.2C856.4,171.5,850.3,217.9,849.9,213.3z"
			/>
		<path class="st2" d="M845.1,216.1"/>
		<path class="st2" d="M849.9,213.5c7.4-29.2,22.7-43.5,24.4-42.1c0,0.1,3.5,15.6,3.2,15.6C864.1,185,849,217,849.9,213.5z"/>
		<path class="st2" d="M849.8,213.2c-7.4-26.6-21.1-40.5-24.6-41.5c-0.4-0.1-0.7,0.1-0.8,0.5c-0.6,2.6-3,15.2-2.7,15.1
			C835,185,850.7,216.7,849.8,213.2z"/>
		<path class="st2" d="M849.9,212.9c1.9-38.6-12.8-64.2-15.6-63.4c-0.1,0-10.9,16.3-10.4,16.4C842.5,171.3,849.8,217.6,849.9,212.9z
			"/>
	</g>
</g>
<g id="Layer_1_338_">
	<g id="losange_338_">
		<polygon class="st2" points="856.1,272.5 850.4,252.8 844.9,272.5 850.5,287 		"/>
		<path class="st2" d="M849.9,213.1c2.8,38.5-11.2,64.5-14.1,63.9c-0.1,0-11.2-16-10.8-16.2C843.6,254.8,849.6,208.5,849.9,213.1z"
			/>
		<path class="st2" d="M854.8,210.3"/>
		<path class="st2" d="M849.9,212.9c-7.3,29.3-22.6,43.5-24.2,42.1c0-0.1-3.5-15.6-3.2-15.6C835.9,241.4,850.8,209.4,849.9,212.9z"
			/>
		<path class="st2" d="M850,213.2c7.4,26.5,21.1,40.4,24.7,41.5c0.4,0.1,0.7-0.1,0.8-0.5c0.6-2.6,2.9-15.2,2.7-15.1
			C864.9,241.3,849.1,209.7,850,213.2z"/>
		<path class="st2" d="M849.9,213.5c-1.9,38.6,12.9,64.2,15.7,63.4c0.1,0,10.9-16.3,10.4-16.4C857.4,255,850.1,208.8,849.9,213.5z"
			/>
	</g>
</g>
<g id="Layer_1_337_">
	<g id="losange_337_">
		<polygon class="st2" points="800,273.1 794.4,253.3 788.9,273 794.4,287.5 		"/>
		<path class="st2" d="M793.9,213.6c2.8,38.5-11.2,64.5-14.1,63.9c-0.1,0-11.2-16-10.8-16.2C787.5,255.4,793.6,209,793.9,213.6z"/>
		<path class="st2" d="M798.7,210.7"/>
		<path class="st2" d="M793.9,213.4c-7.3,29.3-22.6,43.5-24.2,42.1c0-0.1-3.5-15.6-3.2-15.6C779.9,241.9,794.7,209.9,793.9,213.4z"
			/>
		<path class="st2" d="M794,213.7c7.4,26.5,21.1,40.4,24.7,41.5c0.4,0.1,0.7-0.1,0.8-0.5c0.6-2.6,2.9-15.2,2.7-15.1
			C808.8,241.8,793,210.2,794,213.7z"/>
		<path class="st2" d="M793.8,214c-1.9,38.6,12.9,64.2,15.7,63.4c0.1,0,10.9-16.3,10.4-16.4C801.3,255.6,794,209.3,793.8,214z"/>
	</g>
</g>
<g id="Layer_1_336_">
	<g id="losange_336_">
		<polygon class="st2" points="452.6,305 458.2,324.7 463.8,305.1 458.3,290.6 		"/>
		<path class="st2" d="M458.7,364.4c-2.8-38.5,11.4-64.5,14.2-63.9c0.1,0,11.2,16,10.8,16.2C465.1,322.7,459,369,458.7,364.4z"/>
		<path class="st2" d="M453.7,367.2"/>
		<path class="st2" d="M458.7,364.6c7.4-29.2,22.7-43.5,24.4-42.1c0,0.1,3.5,15.6,3.2,15.6C472.7,336.1,457.7,368.1,458.7,364.6z"/>
		<path class="st2" d="M458.5,364.3c-7.4-26.6-21.1-40.5-24.6-41.5c-0.4-0.1-0.7,0.1-0.8,0.5c-0.6,2.6-3,15.2-2.7,15.1
			C443.8,336.2,459.5,367.8,458.5,364.3z"/>
		<path class="st2" d="M458.7,364c1.9-38.6-12.8-64.2-15.6-63.4c-0.1,0-10.9,16.3-10.4,16.4C451.3,322.5,458.4,368.7,458.7,364z"/>
	</g>
</g>
<g id="Layer_1_335_">
	<g id="losange_335_">
		<polygon class="st2" points="508.7,304.6 514.3,324.3 519.9,304.7 514.3,290.1 		"/>
		<path class="st2" d="M514.8,364c-2.8-38.5,11.4-64.5,14.2-63.9c0.1,0,11.2,16,10.8,16.2C521.2,322.3,515,368.6,514.8,364z"/>
		<path class="st2" d="M509.8,366.9"/>
		<path class="st2" d="M514.6,364.2c7.4-29.2,22.7-43.5,24.4-42.1c0,0.1,3.5,15.6,3.2,15.6C528.8,335.8,513.8,367.7,514.6,364.2z"/>
		<path class="st2" d="M514.5,363.9c-7.4-26.6-21.1-40.5-24.6-41.5c-0.4-0.1-0.7,0.1-0.8,0.5c-0.6,2.6-3,15.2-2.7,15.1
			C499.8,335.8,515.6,367.4,514.5,363.9z"/>
		<path class="st2" d="M514.8,363.7c1.9-38.6-12.8-64.2-15.6-63.4c-0.1,0-10.9,16.3-10.4,16.4C507.4,322.1,514.5,368.3,514.8,363.7z
			"/>
	</g>
</g>
<g id="Layer_1_334_">
	<g id="losange_334_">
		<polygon class="st2" points="521,423.3 515.2,403.5 509.7,423.3 515.2,437.8 		"/>
		<path class="st2" d="M514.8,363.9c2.8,38.5-11.2,64.5-14.1,63.9c-0.1,0-11.2-16-10.8-16.2C508.3,405.7,514.4,359.2,514.8,363.9z"
			/>
		<path class="st2" d="M519.6,361.1"/>
		<path class="st2" d="M514.8,363.7c-7.3,29.3-22.6,43.5-24.2,42.1c0-0.1-3.5-15.6-3.2-15.6C500.7,392.2,515.6,360.1,514.8,363.7z"
			/>
		<path class="st2" d="M514.9,363.9c7.4,26.5,21.1,40.4,24.7,41.5c0.4,0.1,0.7-0.1,0.8-0.5c0.6-2.6,2.9-15.2,2.7-15.1
			C529.6,392.1,513.8,360.5,514.9,363.9z"/>
		<path class="st2" d="M514.6,364.2c-1.9,38.6,12.9,64.2,15.7,63.4c0.1,0,10.9-16.3,10.4-16.4C522.1,405.8,514.9,359.6,514.6,364.2z
			"/>
	</g>
</g>
<g id="Layer_1_333_">
	<g id="losange_333_">
		<polygon class="st2" points="464.9,423.8 459.1,404 453.6,423.8 459.1,438.2 		"/>
		<path class="st2" d="M458.7,364.3c2.8,38.5-11.2,64.5-14.1,63.9c-0.1,0-11.2-16-10.8-16.2C452.3,406.2,458.3,359.7,458.7,364.3z"
			/>
		<path class="st2" d="M463.5,361.6"/>
		<path class="st2" d="M458.7,364.2c-7.3,29.3-22.6,43.5-24.2,42.1c0-0.1-3.5-15.6-3.2-15.6C444.6,392.7,459.6,360.7,458.7,364.2z"
			/>
		<path class="st2" d="M458.8,364.4c7.4,26.5,21.1,40.4,24.7,41.5c0.4,0.1,0.7-0.1,0.8-0.5c0.6-2.6,2.9-15.2,2.7-15.1
			C473.6,392.6,457.8,361,458.8,364.4z"/>
		<path class="st2" d="M458.7,364.8c-1.9,38.6,12.9,64.2,15.7,63.4c0.1,0,10.9-16.3,10.4-16.4C466,406.3,458.8,360.1,458.7,364.8z"
			/>
	</g>
</g>
<g id="Layer_1_332_">
	<g id="losange_332_">
		<polygon class="st2" points="564.5,304.2 570.3,324 575.8,304.3 570.3,289.7 		"/>
		<path class="st2" d="M570.6,363.6c-2.8-38.5,11.4-64.5,14.2-63.9c0.1,0,11.2,16,10.8,16.2C577.1,321.9,571,368.3,570.6,363.6z"/>
		<path class="st2" d="M565.7,366.5"/>
		<path class="st2" d="M570.6,363.8c7.4-29.2,22.7-43.5,24.4-42.1c0,0.1,3.5,15.6,3.2,15.6C584.7,335.4,569.7,367.4,570.6,363.8z"/>
		<path class="st2" d="M570.5,363.6c-7.4-26.6-21.1-40.5-24.6-41.5c-0.4-0.1-0.7,0.1-0.8,0.5c-0.6,2.6-3,15.2-2.7,15.1
			C555.8,335.4,571.5,367.1,570.5,363.6z"/>
		<path class="st2" d="M570.6,363.3c1.9-38.6-12.8-64.2-15.6-63.4c-0.1,0-10.9,16.3-10.4,16.4C563.3,321.7,570.4,367.9,570.6,363.3z
			"/>
	</g>
</g>
<g id="Layer_1_331_">
	<g id="losange_331_">
		<polygon class="st2" points="620.7,303.9 626.3,323.6 631.9,304 626.3,289.4 		"/>
		<path class="st2" d="M626.8,363.3c-2.8-38.5,11.4-64.5,14.2-63.9c0.1,0,11.2,16,10.8,16.2C633.2,321.6,627,367.9,626.8,363.3z"/>
		<path class="st2" d="M621.8,366.1"/>
		<path class="st2" d="M626.8,363.5c7.4-29.2,22.7-43.5,24.4-42.1c0,0.1,3.5,15.6,3.2,15.6C640.8,335,625.8,367,626.8,363.5z"/>
		<path class="st2" d="M626.6,363.2c-7.4-26.6-21.1-40.5-24.6-41.5c-0.4-0.1-0.7,0.1-0.8,0.5c-0.6,2.6-3,15.2-2.7,15.1
			C611.8,335.1,627.6,366.7,626.6,363.2z"/>
		<path class="st2" d="M626.8,362.9c1.9-38.6-12.8-64.2-15.6-63.4c-0.1,0-10.9,16.3-10.4,16.4C619.4,321.4,626.5,367.6,626.8,362.9z
			"/>
	</g>
</g>
<g id="Layer_1_330_">
	<g id="losange_330_">
		<polygon class="st2" points="633,422.6 627.2,402.8 621.7,422.5 627.2,437 		"/>
		<path class="st2" d="M626.8,363.1c2.8,38.5-11.2,64.5-14.1,63.9c-0.1,0-11.2-16-10.8-16.2C620.3,404.9,626.4,358.5,626.8,363.1z"
			/>
		<path class="st2" d="M631.6,360.2"/>
		<path class="st2" d="M626.8,362.9c-7.3,29.3-22.6,43.5-24.2,42.1c0-0.1-3.5-15.6-3.2-15.6C612.7,391.5,627.6,359.4,626.8,362.9z"
			/>
		<path class="st2" d="M626.9,363.2c7.4,26.5,21.1,40.4,24.7,41.5c0.4,0.1,0.7-0.1,0.8-0.5c0.6-2.6,2.9-15.2,2.7-15.1
			C641.7,391.4,625.9,359.7,626.9,363.2z"/>
		<path class="st2" d="M626.8,363.5c-1.9,38.6,12.9,64.2,15.7,63.4c0.1,0,10.9-16.3,10.4-16.4C634.1,405.1,626.9,358.8,626.8,363.5z
			"/>
	</g>
</g>
<g id="Layer_1_329_">
	<g id="losange_329_">
		<polygon class="st2" points="576.8,423.1 571.1,403.3 565.6,423 571.2,437.5 		"/>
		<path class="st2" d="M570.6,363.6c2.8,38.5-11.2,64.5-14.1,63.9c-0.1,0-11.2-16-10.8-16.2C564.3,405.4,570.3,359,570.6,363.6z"/>
		<path class="st2" d="M575.4,360.8"/>
		<path class="st2" d="M570.6,363.4c-7.3,29.3-22.6,43.5-24.2,42.1c0-0.1-3.5-15.6-3.2-15.6C556.6,392,571.6,359.9,570.6,363.4z"/>
		<path class="st2" d="M570.8,363.7c7.4,26.5,21.1,40.4,24.7,41.5c0.4,0.1,0.7-0.1,0.8-0.5c0.6-2.6,2.9-15.2,2.7-15.1
			C585.6,391.9,569.8,360.2,570.8,363.7z"/>
		<path class="st2" d="M570.6,363.9c-1.9,38.6,12.9,64.2,15.7,63.4c0.1,0,10.9-16.3,10.4-16.4C578,405.6,570.9,359.3,570.6,363.9z"
			/>
	</g>
</g>
<g id="Layer_1_328_">
	<g id="losange_328_">
		<polygon class="st2" points="453.8,453.9 459.5,473.6 465.1,454 459.5,439.5 		"/>
		<path class="st2" d="M459.9,513.3c-2.8-38.5,11.4-64.5,14.2-63.9c0.1,0,11.2,16,10.8,16.2C466.4,471.6,460.2,518,459.9,513.3z"/>
		<path class="st2" d="M455,516.1"/>
		<path class="st2" d="M459.8,513.6c7.4-29.2,22.7-43.5,24.4-42.1c0,0.1,3.5,15.6,3.2,15.6C474,485,459,517,459.8,513.6z"/>
		<path class="st2" d="M459.7,513.2c-7.4-26.6-21.1-40.5-24.6-41.5c-0.4-0.1-0.7,0.1-0.8,0.5c-0.6,2.6-3,15.2-2.7,15.1
			C444.9,485.1,460.8,516.7,459.7,513.2z"/>
		<path class="st2" d="M459.9,512.9c1.9-38.6-12.8-64.2-15.6-63.4c-0.1,0-10.9,16.3-10.4,16.4C452.6,471.4,459.7,517.6,459.9,512.9z
			"/>
	</g>
</g>
<g id="Layer_1_327_">
	<g id="losange_327_">
		<polygon class="st2" points="509.8,453.5 515.6,473.2 521.1,453.6 515.6,439 		"/>
		<path class="st2" d="M515.9,512.9c-2.8-38.5,11.4-64.5,14.2-63.9c0.1,0,11.2,16,10.8,16.2C522.4,471.2,516.3,517.5,515.9,512.9z"
			/>
		<path class="st2" d="M511.1,515.8"/>
		<path class="st2" d="M515.9,513.1c7.4-29.2,22.7-43.5,24.4-42.1c0,0.1,3.5,15.6,3.2,15.6C530.1,484.7,515.1,516.6,515.9,513.1z"/>
		<path class="st2" d="M515.8,512.8c-7.4-26.6-21.1-40.5-24.6-41.5c-0.4-0.1-0.7,0.1-0.8,0.5c-0.6,2.6-3,15.2-2.7,15.1
			C501.1,484.7,516.8,516.3,515.8,512.8z"/>
		<path class="st2" d="M515.9,512.6c1.9-38.6-12.8-64.2-15.6-63.4c-0.1,0-10.9,16.3-10.4,16.4C508.7,471,515.8,517.2,515.9,512.6z"
			/>
	</g>
</g>
<g id="Layer_1_326_">
	<g id="losange_326_">
		<polygon class="st2" points="522.1,572.2 516.4,552.4 510.9,572.2 516.5,586.7 		"/>
		<path class="st2" d="M515.9,512.8c2.8,38.5-11.2,64.5-14.1,63.9c-0.1,0-11.2-16-10.8-16.2C509.6,554.6,515.6,508.1,515.9,512.8z"
			/>
		<path class="st2" d="M520.9,510"/>
		<path class="st2" d="M515.9,512.6c-7.3,29.3-22.6,43.5-24.2,42.1c0-0.1-3.5-15.6-3.2-15.6C501.9,541.1,516.9,509,515.9,512.6z"/>
		<path class="st2" d="M516.1,512.8c7.4,26.5,21.1,40.4,24.7,41.5c0.4,0.1,0.7-0.1,0.8-0.5c0.6-2.6,2.9-15.2,2.7-15.1
			C530.9,541,515.1,509.4,516.1,512.8z"/>
		<path class="st2" d="M515.9,513.1c-1.9,38.6,12.9,64.2,15.7,63.4c0.1,0,10.9-16.3,10.4-16.4C523.4,554.7,516.2,508.5,515.9,513.1z
			"/>
	</g>
</g>
<g id="Layer_1_325_">
	<g id="losange_325_">
		<polygon class="st2" points="466.1,572.7 460.4,553 454.9,572.7 460.4,587.1 		"/>
		<path class="st2" d="M459.9,513.2c2.8,38.5-11.2,64.5-14.1,63.9c-0.1,0-11.2-16-10.8-16.2C453.5,555.1,459.6,508.6,459.9,513.2z"
			/>
		<path class="st2" d="M464.7,510.5"/>
		<path class="st2" d="M459.9,513.1c-7.3,29.3-22.6,43.5-24.2,42.1c0-0.1-3.5-15.6-3.2-15.6C445.9,541.6,460.8,509.6,459.9,513.1z"
			/>
		<path class="st2" d="M460.1,513.3c7.4,26.5,21.1,40.4,24.7,41.5c0.4,0.1,0.7-0.1,0.8-0.5c0.6-2.6,2.9-15.2,2.7-15.1
			C474.8,541.5,459,509.9,460.1,513.3z"/>
		<path class="st2" d="M459.8,513.7c-1.9,38.6,12.9,64.2,15.7,63.4c0.1,0,10.9-16.3,10.4-16.4C467.3,555.2,460.1,509,459.8,513.7z"
			/>
	</g>
</g>
<g id="Layer_1_324_">
	<g id="losange_324_">
		<polygon class="st2" points="565.8,453.1 571.5,472.9 577.1,453.2 571.5,438.6 		"/>
		<path class="st2" d="M571.9,512.5c-2.8-38.5,11.4-64.5,14.2-63.9c0.1,0,11.2,16,10.8,16.2C578.4,470.8,572.2,517.2,571.9,512.5z"
			/>
		<path class="st2" d="M567,515.4"/>
		<path class="st2" d="M571.8,512.7c7.4-29.2,22.7-43.5,24.4-42.1c0,0.1,3.5,15.6,3.2,15.6C586,484.3,571,516.3,571.8,512.7z"/>
		<path class="st2" d="M571.7,512.5c-7.4-26.6-21.1-40.5-24.6-41.5c-0.4-0.1-0.7,0.1-0.8,0.5c-0.6,2.6-3,15.2-2.7,15.1
			C556.9,484.3,572.7,516,571.7,512.5z"/>
		<path class="st2" d="M571.9,512.2c1.9-38.6-12.8-64.2-15.6-63.4c-0.1,0-10.9,16.3-10.4,16.4C564.5,470.6,571.7,516.8,571.9,512.2z
			"/>
	</g>
</g>
<g id="Layer_1_323_">
	<g id="losange_323_">
		<polygon class="st2" points="621.8,452.8 627.6,472.5 633.1,452.9 627.6,438.3 		"/>
		<path class="st2" d="M627.9,512.2c-2.8-38.5,11.4-64.5,14.2-63.9c0.1,0,11.2,16,10.8,16.2C634.4,470.5,628.3,516.8,627.9,512.2z"
			/>
		<path class="st2" d="M623.1,515"/>
		<path class="st2" d="M627.9,512.4c7.4-29.2,22.7-43.5,24.4-42.1c0,0.1,3.5,15.6,3.2,15.6C642.1,483.9,627.1,515.9,627.9,512.4z"/>
		<path class="st2" d="M627.8,512.1c-7.4-26.6-21.1-40.5-24.6-41.5c-0.4-0.1-0.7,0.1-0.8,0.5c-0.6,2.6-3,15.2-2.7,15.1
			C613,484,628.7,515.6,627.8,512.1z"/>
		<path class="st2" d="M628,511.8c1.9-38.6-12.8-64.2-15.6-63.4c-0.1,0-10.9,16.3-10.4,16.4C620.7,470.3,627.8,516.5,628,511.8z"/>
	</g>
</g>
<g id="Layer_1_322_">
	<g id="losange_322_">
		<polygon class="st2" points="634.1,571.5 628.5,551.7 622.9,571.4 628.5,585.9 		"/>
		<path class="st2" d="M627.9,512c2.8,38.5-11.2,64.5-14.1,63.9c-0.1,0-11.2-16-10.8-16.2C621.6,553.8,627.7,507.4,627.9,512z"/>
		<path class="st2" d="M632.8,509.2"/>
		<path class="st2" d="M628,511.8c-7.3,29.3-22.6,43.5-24.2,42.1c0-0.1-3.5-15.6-3.2-15.6C613.9,540.4,628.9,508.3,628,511.8z"/>
		<path class="st2" d="M628.2,512.1c7.4,26.5,21.1,40.4,24.7,41.5c0.4,0.1,0.7-0.1,0.8-0.5c0.6-2.6,2.9-15.2,2.7-15.1
			C642.9,540.3,627.1,508.6,628.2,512.1z"/>
		<path class="st2" d="M627.9,512.4c-1.9,38.6,12.9,64.2,15.7,63.4c0.1,0,10.9-16.3,10.4-16.4C635.4,554,628.2,507.7,627.9,512.4z"
			/>
	</g>
</g>
<g id="Layer_1_321_">
	<g id="losange_321_">
		<polygon class="st2" points="578.1,572 572.4,552.2 566.9,571.9 572.4,586.4 		"/>
		<path class="st2" d="M571.9,512.5c2.8,38.5-11.2,64.5-14.1,63.9c-0.1,0-11.2-16-10.8-16.2C565.5,554.3,571.6,507.9,571.9,512.5z"
			/>
		<path class="st2" d="M576.7,509.7"/>
		<path class="st2" d="M571.9,512.3c-7.3,29.3-22.6,43.5-24.2,42.1c0-0.1-3.5-15.6-3.2-15.6C557.9,540.9,572.7,508.8,571.9,512.3z"
			/>
		<path class="st2" d="M572,512.6c7.4,26.5,21.1,40.4,24.7,41.5c0.4,0.1,0.7-0.1,0.8-0.5c0.6-2.6,2.9-15.2,2.7-15.1
			C586.9,540.8,571,509.2,572,512.6z"/>
		<path class="st2" d="M571.8,512.8c-1.9,38.6,12.9,64.2,15.7,63.4c0.1,0,10.9-16.3,10.4-16.4C579.3,554.5,572,508.2,571.8,512.8z"
			/>
	</g>
</g>
<g id="Layer_1_320_">
	<g id="losange_320_">
		<polygon class="st2" points="676.8,303.6 682.4,323.3 688,303.7 682.4,289.1 		"/>
		<path class="st2" d="M682.9,363c-2.8-38.5,11.4-64.5,14.2-63.9c0.1,0,11.2,16,10.8,16.2C689.3,321.3,683.1,367.6,682.9,363z"/>
		<path class="st2" d="M677.9,365.9"/>
		<path class="st2" d="M682.9,363.2c7.4-29.2,22.7-43.5,24.4-42.1c0,0.1,3.5,15.6,3.2,15.6C696.9,334.8,681.9,366.7,682.9,363.2z"/>
		<path class="st2" d="M682.7,362.9c-7.4-26.6-21.1-40.5-24.6-41.5c-0.4-0.1-0.7,0.1-0.8,0.5c-0.6,2.6-3,15.2-2.7,15.1
			C667.9,334.8,683.7,366.4,682.7,362.9z"/>
		<path class="st2" d="M682.9,362.7c1.9-38.6-12.8-64.2-15.6-63.4c-0.1,0-10.9,16.3-10.4,16.4C675.5,321.1,682.6,367.3,682.9,362.7z
			"/>
	</g>
</g>
<g id="Layer_1_319_">
	<g id="losange_319_">
		<polygon class="st2" points="732.8,303.2 738.5,323 744,303.2 738.5,288.7 		"/>
		<path class="st2" d="M738.9,362.6c-2.8-38.5,11.4-64.5,14.2-63.9c0.1,0,11.2,16,10.8,16.2C745.4,320.8,739.2,367.3,738.9,362.6z"
			/>
		<path class="st2" d="M734.1,365.5"/>
		<path class="st2" d="M738.9,362.8c7.4-29.2,22.7-43.5,24.4-42.1c0,0.1,3.5,15.6,3.2,15.6C753,334.4,738,366.4,738.9,362.8z"/>
		<path class="st2" d="M738.7,362.6c-7.4-26.6-21.1-40.5-24.6-41.5c-0.4-0.1-0.7,0.1-0.8,0.5c-0.6,2.6-3,15.2-2.7,15.1
			C724,334.4,739.8,366.1,738.7,362.6z"/>
		<path class="st2" d="M739,362.3c1.9-38.6-12.8-64.2-15.6-63.4c-0.1,0-10.9,16.3-10.4,16.4C731.6,320.7,738.7,366.9,739,362.3z"/>
	</g>
</g>
<g id="Layer_1_318_">
	<g id="losange_318_">
		<polygon class="st2" points="745.1,422 739.4,402.2 733.9,421.9 739.4,436.4 		"/>
		<path class="st2" d="M738.9,362.5c2.8,38.5-11.2,64.5-14.1,63.9c-0.1,0-11.2-16-10.8-16.2C732.5,404.3,738.6,357.9,738.9,362.5z"
			/>
		<path class="st2" d="M743.8,359.6"/>
		<path class="st2" d="M739,362.3c-7.3,29.3-22.6,43.5-24.2,42.1c0-0.1-3.5-15.6-3.2-15.6C724.8,390.8,739.8,358.8,739,362.3z"/>
		<path class="st2" d="M739.1,362.6c7.4,26.5,21.1,40.4,24.7,41.5c0.4,0.1,0.7-0.1,0.8-0.5c0.6-2.6,2.9-15.2,2.7-15.1
			C753.9,390.7,738,359.1,739.1,362.6z"/>
		<path class="st2" d="M738.9,362.8c-1.9,38.6,12.9,64.2,15.7,63.4c0.1,0,10.9-16.3,10.4-16.4C746.4,404.5,739.1,358.2,738.9,362.8z
			"/>
	</g>
</g>
<g id="Layer_1_317_">
	<g id="losange_317_">
		<polygon class="st2" points="689.1,422.5 683.3,402.7 677.8,422.4 683.3,436.9 		"/>
		<path class="st2" d="M682.9,363c2.8,38.5-11.2,64.5-14.1,63.9c-0.1,0-11.2-16-10.8-16.2C676.4,404.8,682.5,358.4,682.9,363z"/>
		<path class="st2" d="M687.7,360.1"/>
		<path class="st2" d="M682.9,362.8c-7.3,29.3-22.6,43.5-24.2,42.1c0-0.1-3.5-15.6-3.2-15.6C668.8,391.3,683.7,359.3,682.9,362.8z"
			/>
		<path class="st2" d="M683,363.1c7.4,26.5,21.1,40.4,24.7,41.5c0.4,0.1,0.7-0.1,0.8-0.5c0.6-2.6,2.9-15.2,2.7-15.1
			C697.9,391.3,682,359.6,683,363.1z"/>
		<path class="st2" d="M682.9,363.3c-1.9,38.6,12.9,64.2,15.7,63.4c0.1,0,10.9-16.3,10.4-16.4C690.2,405,683,358.7,682.9,363.3z"/>
	</g>
</g>
<g id="Layer_1_316_">
	<g id="losange_316_">
		<polygon class="st2" points="788.8,302.8 794.4,322.6 800,302.9 794.5,288.4 		"/>
		<path class="st2" d="M794.9,362.3c-2.8-38.5,11.4-64.5,14.2-63.9c0.1,0,11.2,16,10.8,16.2C801.3,320.5,795.2,366.9,794.9,362.3z"
			/>
		<path class="st2" d="M789.9,365.2"/>
		<path class="st2" d="M794.9,362.5c7.4-29.2,22.7-43.5,24.4-42.1c0,0.1,3.5,15.6,3.2,15.6C808.9,334,793.9,366,794.9,362.5z"/>
		<path class="st2" d="M794.7,362.2c-7.4-26.6-21.1-40.5-24.6-41.5c-0.4-0.1-0.7,0.1-0.8,0.5c-0.6,2.6-3,15.2-2.7,15.1
			C779.9,334,795.7,365.7,794.7,362.2z"/>
		<path class="st2" d="M794.9,362c1.9-38.6-12.8-64.2-15.6-63.4c-0.1,0-10.9,16.3-10.4,16.4C787.5,320.3,794.6,366.6,794.9,362z"/>
	</g>
</g>
<g id="Layer_1_315_">
	<g id="losange_315_">
		<polygon class="st2" points="844.9,302.4 850.5,322.2 856,302.5 850.5,288 		"/>
		<path class="st2" d="M850.8,361.9c-2.8-38.5,11.4-64.5,14.2-63.9c0.1,0,11.2,16,10.8,16.2C857.4,320.1,851.2,366.5,850.8,361.9z"
			/>
		<path class="st2" d="M846,364.8"/>
		<path class="st2" d="M850.8,362.1c7.4-29.2,22.7-43.5,24.4-42.1c0,0.1,3.5,15.6,3.2,15.6C865,333.6,850,365.6,850.8,362.1z"/>
		<path class="st2" d="M850.7,361.8c-7.4-26.6-21.1-40.5-24.6-41.5c-0.4-0.1-0.7,0.1-0.8,0.5c-0.6,2.6-3,15.2-2.7,15.1
			C836,333.6,851.8,365.3,850.7,361.8z"/>
		<path class="st2" d="M851,361.6c1.9-38.6-12.8-64.2-15.6-63.4c-0.1,0-10.9,16.3-10.4,16.4C843.6,319.9,850.7,366.2,851,361.6z"/>
	</g>
</g>
<g id="Layer_1_314_">
	<g id="losange_314_">
		<polygon class="st2" points="857.2,421.1 851.4,401.4 845.9,421.1 851.4,435.7 		"/>
		<path class="st2" d="M851,361.8c2.8,38.5-11.2,64.5-14.1,63.9c-0.1,0-11.2-16-10.8-16.2C844.5,403.5,850.6,357.2,851,361.8z"/>
		<path class="st2" d="M855.8,358.9"/>
		<path class="st2" d="M851,361.6c-7.3,29.3-22.6,43.5-24.2,42.1c0-0.1-3.5-15.6-3.2-15.6C836.9,390,851.8,358,851,361.6z"/>
		<path class="st2" d="M851.1,361.8c7.4,26.5,21.1,40.4,24.7,41.5c0.4,0.1,0.7-0.1,0.8-0.5c0.6-2.6,2.9-15.2,2.7-15.1
			C865.8,390,850,358.3,851.1,361.8z"/>
		<path class="st2" d="M850.8,362.1c-1.9,38.6,12.9,64.2,15.7,63.4c0.1,0,10.9-16.3,10.4-16.4C858.3,403.6,851.1,357.5,850.8,362.1z
			"/>
	</g>
</g>
<g id="Layer_1_313_">
	<g id="losange_313_">
		<polygon class="st2" points="801.1,421.7 795.3,401.9 789.8,421.7 795.3,436.2 		"/>
		<path class="st2" d="M794.9,362.3c2.8,38.5-11.2,64.5-14.1,63.9c-0.1,0-11.2-16-10.8-16.2C788.4,404,794.5,357.6,794.9,362.3z"/>
		<path class="st2" d="M799.7,359.4"/>
		<path class="st2" d="M794.9,362.1c-7.3,29.3-22.6,43.5-24.2,42.1c0-0.1-3.5-15.6-3.2-15.6C780.8,390.5,795.7,358.5,794.9,362.1z"
			/>
		<path class="st2" d="M795,362.3c7.4,26.5,21.1,40.4,24.7,41.5c0.4,0.1,0.7-0.1,0.8-0.5c0.6-2.6,2.9-15.2,2.7-15.1
			C809.8,390.4,794,358.8,795,362.3z"/>
		<path class="st2" d="M794.9,362.6c-1.9,38.6,12.9,64.2,15.7,63.4c0.1,0,10.9-16.3,10.4-16.4C802.2,404.2,795,358,794.9,362.6z"/>
	</g>
</g>
<g id="Layer_1_312_">
	<g id="losange_312_">
		<polygon class="st2" points="677.9,452.5 683.7,472.2 689.2,452.6 683.7,438 		"/>
		<path class="st2" d="M684,511.9c-2.8-38.5,11.4-64.5,14.2-63.9c0.1,0,11.2,16,10.8,16.2C690.5,470.2,684.4,516.5,684,511.9z"/>
		<path class="st2" d="M679.2,514.8"/>
		<path class="st2" d="M684,512.1c7.4-29.2,22.7-43.5,24.4-42.1c0,0.1,3.5,15.6,3.2,15.6C698.2,483.7,683.2,515.6,684,512.1z"/>
		<path class="st2" d="M683.9,511.8c-7.4-26.6-21.1-40.5-24.6-41.5c-0.4-0.1-0.7,0.1-0.8,0.5c-0.6,2.6-3,15.2-2.7,15.1
			C669.2,483.7,684.9,515.3,683.9,511.8z"/>
		<path class="st2" d="M684.2,511.6c1.9-38.6-12.8-64.2-15.6-63.4c-0.1,0-10.9,16.3-10.4,16.4C676.8,470,683.9,516.2,684.2,511.6z"
			/>
	</g>
</g>
<g id="Layer_1_311_">
	<g id="losange_311_">
		<polygon class="st2" points="734.1,452.1 739.8,471.9 745.3,452.1 739.8,437.6 		"/>
		<path class="st2" d="M740.1,511.5c-2.8-38.5,11.4-64.5,14.2-63.9c0.1,0,11.2,16,10.8,16.2C746.6,469.8,740.5,516.2,740.1,511.5z"
			/>
		<path class="st2" d="M735.3,514.4"/>
		<path class="st2" d="M740.1,511.7c7.4-29.2,22.7-43.5,24.4-42.1c0,0.1,3.5,15.6,3.2,15.6C754.3,483.3,739.2,515.3,740.1,511.7z"/>
		<path class="st2" d="M740,511.5c-7.4-26.6-21.1-40.5-24.6-41.5c-0.4-0.1-0.7,0.1-0.8,0.5c-0.6,2.6-3,15.2-2.7,15.1
			C725.3,483.3,741,515,740,511.5z"/>
		<path class="st2" d="M740.1,511.2c1.9-38.6-12.8-64.2-15.6-63.4c-0.1,0-10.9,16.3-10.4,16.4C732.8,469.6,739.9,515.8,740.1,511.2z
			"/>
	</g>
</g>
<g id="Layer_1_310_">
	<g id="losange_310_">
		<polygon class="st2" points="746.4,570.9 740.6,551.1 735.1,570.8 740.7,585.3 		"/>
		<path class="st2" d="M740.1,511.4c2.8,38.5-11.2,64.5-14.1,63.9c-0.1,0-11.2-16-10.8-16.2C733.8,553.2,739.8,506.8,740.1,511.4z"
			/>
		<path class="st2" d="M745.1,508.5"/>
		<path class="st2" d="M740.1,511.2c-7.3,29.3-22.6,43.5-24.2,42.1c0-0.1-3.5-15.6-3.2-15.6C726.1,539.7,741.1,507.7,740.1,511.2z"
			/>
		<path class="st2" d="M740.3,511.5c7.4,26.5,21.1,40.4,24.7,41.5c0.4,0.1,0.7-0.1,0.8-0.5c0.6-2.6,2.9-15.2,2.7-15.1
			C755.1,539.6,739.3,508,740.3,511.5z"/>
		<path class="st2" d="M740.1,511.7c-1.9,38.6,12.9,64.2,15.7,63.4c0.1,0,10.9-16.3,10.4-16.4C747.6,553.4,740.4,507.1,740.1,511.7z
			"/>
	</g>
</g>
<g id="Layer_1_309_">
	<g id="losange_309_">
		<polygon class="st2" points="690.2,571.4 684.6,551.6 679,571.3 684.6,585.8 		"/>
		<path class="st2" d="M684,511.9c2.8,38.5-11.2,64.5-14.1,63.9c-0.1,0-11.2-16-10.8-16.2C677.7,553.7,683.8,507.3,684,511.9z"/>
		<path class="st2" d="M689,509"/>
		<path class="st2" d="M684.2,511.7c-7.3,29.3-22.6,43.5-24.2,42.1c0-0.1-3.5-15.6-3.2-15.6C670,540.2,685,508.2,684.2,511.7z"/>
		<path class="st2" d="M684.3,512c7.4,26.5,21.1,40.4,24.7,41.5c0.4,0.1,0.7-0.1,0.8-0.5c0.6-2.6,2.9-15.2,2.7-15.1
			C699,540.2,683.2,508.5,684.3,512z"/>
		<path class="st2" d="M684,512.2c-1.9,38.6,12.9,64.2,15.7,63.4c0.1,0,10.9-16.3,10.4-16.4C691.5,553.9,684.3,507.6,684,512.2z"/>
	</g>
</g>
<g id="Layer_1_308_">
	<g id="losange_308_">
		<polygon class="st2" points="790,451.7 795.7,471.5 801.2,451.8 795.7,437.3 		"/>
		<path class="st2" d="M796,511.2c-2.8-38.5,11.4-64.5,14.2-63.9c0.1,0,11.2,16,10.8,16.2C802.6,469.4,796.4,515.8,796,511.2z"/>
		<path class="st2" d="M791.2,514.1"/>
		<path class="st2" d="M796,511.4c7.4-29.2,22.7-43.5,24.4-42.1c0,0.1,3.5,15.6,3.2,15.6C810.2,483,795.2,514.9,796,511.4z"/>
		<path class="st2" d="M795.9,511.1c-7.4-26.6-21.1-40.5-24.6-41.5c-0.4-0.1-0.7,0.1-0.8,0.5c-0.6,2.6-3,15.2-2.7,15.1
			C781.1,483,797,514.6,795.9,511.1z"/>
		<path class="st2" d="M796.1,510.9c1.9-38.6-12.8-64.2-15.6-63.4c-0.1,0-10.9,16.3-10.4,16.4C788.8,469.2,795.9,515.5,796.1,510.9z
			"/>
	</g>
</g>
<g id="Layer_1_307_">
	<g id="losange_307_">
		<polygon class="st2" points="846,451.3 851.8,471.1 857.3,451.4 851.8,436.9 		"/>
		<path class="st2" d="M852.1,510.8c-2.8-38.5,11.4-64.5,14.2-63.9c0.1,0,11.2,16,10.8,16.2C858.6,469,852.5,515.4,852.1,510.8z"/>
		<path class="st2" d="M847.3,513.7"/>
		<path class="st2" d="M852.1,511c7.4-29.2,22.7-43.5,24.4-42.1c0,0.1,3.5,15.6,3.2,15.6C866.3,482.5,851.2,514.5,852.1,511z"/>
		<path class="st2" d="M852,510.7c-7.4-26.6-21.1-40.5-24.6-41.5c-0.4-0.1-0.7,0.1-0.8,0.5c-0.6,2.6-3,15.2-2.7,15.1
			C837.3,482.5,853,514.2,852,510.7z"/>
		<path class="st2" d="M852.1,510.5c1.9-38.6-12.8-64.2-15.6-63.4c-0.1,0-10.9,16.3-10.4,16.4C844.8,468.8,852,515.1,852.1,510.5z"
			/>
	</g>
</g>
<g id="Layer_1_306_">
	<g id="losange_306_">
		<polygon class="st2" points="858.3,570 852.6,550.3 847.1,570 852.7,584.6 		"/>
		<path class="st2" d="M852.1,510.7c2.8,38.5-11.2,64.5-14.1,63.9c-0.1,0-11.2-16-10.8-16.2C845.8,552.4,851.8,506.1,852.1,510.7z"
			/>
		<path class="st2" d="M857.1,507.8"/>
		<path class="st2" d="M852.1,510.5c-7.3,29.3-22.6,43.5-24.2,42.1c0-0.1-3.5-15.6-3.2-15.6C838.1,538.9,853.1,506.9,852.1,510.5z"
			/>
		<path class="st2" d="M852.3,510.7c7.4,26.5,21.1,40.4,24.7,41.5c0.4,0.1,0.7-0.1,0.8-0.5c0.6-2.6,2.9-15.2,2.7-15.1
			C867.1,538.9,851.3,507.2,852.3,510.7z"/>
		<path class="st2" d="M852.1,511c-1.9,38.6,12.9,64.2,15.7,63.4c0.1,0,10.9-16.3,10.4-16.4C859.6,552.5,852.4,506.4,852.1,511z"/>
	</g>
</g>
<g id="Layer_1_305_">
	<g id="losange_305_">
		<polygon class="st2" points="802.2,570.6 796.6,550.8 791.1,570.6 796.6,585.1 		"/>
		<path class="st2" d="M796.1,511.2c2.8,38.5-11.2,64.5-14.1,63.9c-0.1,0-11.2-16-10.8-16.2C789.7,553,795.8,506.5,796.1,511.2z"/>
		<path class="st2" d="M800.9,508.3"/>
		<path class="st2" d="M796.1,511c-7.3,29.3-22.6,43.5-24.2,42.1c0-0.1-3.5-15.6-3.2-15.6C782.1,539.4,797,507.4,796.1,511z"/>
		<path class="st2" d="M796.3,511.2c7.4,26.5,21.1,40.4,24.7,41.5c0.4,0.1,0.7-0.1,0.8-0.5c0.6-2.6,2.9-15.2,2.7-15.1
			C811,539.3,795.2,507.7,796.3,511.2z"/>
		<path class="st2" d="M796,511.5c-1.9,38.6,12.9,64.2,15.7,63.4c0.1,0,10.9-16.3,10.4-16.4C803.5,553.1,796.3,506.9,796,511.5z"/>
	</g>
</g>
<g id="Layer_1_3_" class="st3">
	<g id="losange_3_" class="st10">
		<polygon class="st11" points="404.6,171.9 420.1,228.6 435.5,172.2 420.3,130.5 		"/>
		<path class="st11" d="M421.3,342.4c-7.6-110.4,31.2-184.7,38.9-183c0.2,0,30.9,45.9,29.6,46.3C439,222.7,422.2,355.6,421.3,342.4z
			"/>
		<path class="st11" d="M407.9,350.5"/>
		<path class="st11" d="M421.2,342.9c20.3-83.8,62.4-124.6,67.1-120.5c0.1,0.2,9.7,44.7,8.6,44.6C460.1,261.3,418.8,353,421.2,342.9
			z"/>
		<path class="st11" d="M420.9,342.2C400.7,266,363,226.1,353.2,223c-1.1-0.3-2,0.3-2.2,1.4c-1.5,7.4-8.3,43.6-7.5,43.4
			C380.3,261.4,423.6,352.2,420.9,342.2z"/>
		<path class="st11" d="M421.3,341.4c5.2-110.5-35.1-183.9-42.9-182c-0.2,0-30,46.6-28.7,47C401.1,222.1,420.8,354.7,421.3,341.4z"
			/>
	</g>
</g>
</svg>
